<?xml version="1.0" encoding="UTF-8"?>
<svg id="_Слой_2" data-name="Слой 2" xmlns="http://www.w3.org/2000/svg" viewBox="0 0 108.54 117.01">
  <defs>
    <style>
      .cls-1 {
        stroke-dasharray: 0 0 2.94 2.94;
      }

      .cls-1, .cls-2, .cls-3, .cls-4, .cls-5, .cls-6, .cls-7 {
        stroke-miterlimit: 10;
        stroke-width: .5px;
      }

      .cls-1, .cls-2, .cls-4, .cls-6, .cls-7 {
        fill: none;
        stroke: #b8bac0;
      }

      .cls-3 {
        fill: #f39200;
      }

      .cls-3, .cls-5 {
        stroke: #1d1d1b;
      }

      .cls-4 {
        stroke-dasharray: 0 0 3.63 3.63;
      }

      .cls-5 {
        fill: #7e7e7d;
      }

      .cls-6 {
        stroke-dasharray: 0 0 3.25 3.25;
      }

      .cls-8 {
        fill: #b8bac0;
      }

      .cls-8, .cls-9 {
        stroke-width: 0px;
      }

      .cls-7 {
        stroke-dasharray: 0 0 3.54 3.54;
      }

      .cls-9 {
        fill: #1d1d1b;
      }
    </style>
  </defs>
  <g id="scheme_w" data-name="scheme w">
    <line class="cls-2" x1="20.52" y1="6.42" x2="16.27" y2="6.42"/>
    <rect class="cls-2" x="4.93" y="4.15" width="11.34" height="4.54"/>
    <line class="cls-2" x1="20.52" y1="17.75" x2="16.27" y2="17.75"/>
    <line class="cls-2" x1=".68" y1="17.75" x2="4.93" y2="17.75"/>
    <rect class="cls-2" x="4.93" y="15.49" width="11.34" height="4.54"/>
    <line class="cls-2" x1="20.52" y1="29.09" x2="16.27" y2="29.09"/>
    <line class="cls-2" x1=".68" y1="29.09" x2="4.93" y2="29.09"/>
    <rect class="cls-2" x="4.93" y="26.82" width="11.34" height="4.54"/>
    <line class="cls-2" x1="20.52" y1="40.15" x2="16.27" y2="40.15"/>
    <line class="cls-2" x1=".68" y1="40.15" x2="4.93" y2="40.15"/>
    <rect class="cls-2" x="4.93" y="37.88" width="11.34" height="4.54"/>
    <line class="cls-2" x1="20.52" y1="51.49" x2="16.27" y2="51.49"/>
    <line class="cls-2" x1=".68" y1="51.49" x2="4.93" y2="51.49"/>
    <rect class="cls-2" x="4.93" y="49.22" width="11.34" height="4.54"/>
    <line class="cls-2" x1="20.52" y1="62.54" x2="16.27" y2="62.54"/>
    <line class="cls-2" x1=".68" y1="62.54" x2="4.93" y2="62.54"/>
    <rect class="cls-2" x="4.93" y="60.27" width="11.34" height="4.54"/>
    <line class="cls-2" x1="20.52" y1="73.88" x2="16.27" y2="73.88"/>
    <line class="cls-2" x1=".68" y1="73.88" x2="4.93" y2="73.88"/>
    <rect class="cls-2" x="4.93" y="71.61" width="11.34" height="4.54"/>
    <line class="cls-2" x1="20.52" y1="85.5" x2="16.27" y2="85.5"/>
    <line class="cls-2" x1=".68" y1="85.5" x2="4.93" y2="85.5"/>
    <rect class="cls-2" x="4.93" y="83.23" width="11.34" height="4.54"/>
    <line class="cls-2" x1="82.89" y1="6.13" x2="87.14" y2="6.13"/>
    <rect class="cls-2" x="87.14" y="3.86" width="11.34" height="4.54"/>
    <line class="cls-2" x1="102.73" y1="17.47" x2="98.48" y2="17.47"/>
    <line class="cls-2" x1="82.89" y1="17.47" x2="87.14" y2="17.47"/>
    <rect class="cls-2" x="87.14" y="15.2" width="11.34" height="4.54"/>
    <line class="cls-2" x1="102.73" y1="28.81" x2="98.48" y2="28.81"/>
    <line class="cls-2" x1="82.89" y1="28.81" x2="87.14" y2="28.81"/>
    <rect class="cls-2" x="87.14" y="26.54" width="11.34" height="4.54"/>
    <line class="cls-2" x1="102.73" y1="39.86" x2="98.48" y2="39.86"/>
    <line class="cls-2" x1="82.89" y1="39.86" x2="87.14" y2="39.86"/>
    <rect class="cls-2" x="87.14" y="37.6" width="11.34" height="4.54"/>
    <line class="cls-2" x1="102.73" y1="51.2" x2="98.48" y2="51.2"/>
    <line class="cls-2" x1="82.89" y1="51.2" x2="87.14" y2="51.2"/>
    <rect class="cls-2" x="87.14" y="48.94" width="11.34" height="4.54"/>
    <line class="cls-2" x1="102.73" y1="62.26" x2="98.48" y2="62.26"/>
    <line class="cls-2" x1="82.89" y1="62.26" x2="87.14" y2="62.26"/>
    <rect class="cls-2" x="87.14" y="59.99" width="11.34" height="4.54"/>
    <line class="cls-2" x1="102.73" y1="73.6" x2="98.48" y2="73.6"/>
    <line class="cls-2" x1="82.89" y1="73.6" x2="87.14" y2="73.6"/>
    <rect class="cls-2" x="87.14" y="71.33" width="11.34" height="4.54"/>
    <line class="cls-2" x1="102.73" y1="85.22" x2="98.48" y2="85.22"/>
    <line class="cls-2" x1="82.89" y1="85.22" x2="87.14" y2="85.22"/>
    <rect class="cls-2" x="87.14" y="82.95" width="11.34" height="4.54"/>
    <circle class="cls-2" cx=".82" cy="17.84" r=".57"/>
    <circle class="cls-2" cx=".82" cy="29.18" r=".57"/>
    <circle class="cls-2" cx=".82" cy="40.24" r=".57"/>
    <circle class="cls-2" cx=".82" cy="51.57" r=".57"/>
    <circle class="cls-2" cx=".82" cy="62.63" r=".57"/>
    <circle class="cls-2" cx=".83" cy="73.97" r=".57"/>
    <circle class="cls-2" cx=".82" cy="85.59" r=".57"/>
    <circle class="cls-2" cx="102.58" cy="17.38" r=".57"/>
    <circle class="cls-2" cx="102.58" cy="28.72" r=".57"/>
    <circle class="cls-2" cx="102.58" cy="39.78" r=".57"/>
    <circle class="cls-2" cx="102.58" cy="51.11" r=".57"/>
    <circle class="cls-2" cx="102.58" cy="62.17" r=".57"/>
    <circle class="cls-2" cx="102.59" cy="73.51" r=".57"/>
    <circle class="cls-2" cx="102.58" cy="85.13" r=".57"/>
    <polyline class="cls-2" points="4.93 6.42 .68 6.42 .68 105.91 102.62 105.88 102.62 6.1 98.37 6.1"/>
    <line class="cls-2" x1="93.66" y1="95.99" x2="102.45" y2="95.99"/>
    <line class="cls-2" x1="93.43" y1="91.82" x2="93.43" y2="100.33"/>
    <line class="cls-2" x1="91.31" y1="98.2" x2="91.31" y2="93.95"/>
    <path class="cls-8" d="m96.52,92v1.41h1.36v.36h-1.36v1.42h-.38v-1.42h-1.35v-.36h1.35v-1.41h.38Z"/>
    <path class="cls-8" d="m88.59,93.37v.39h-1.48v-.39h1.48Z"/>
    <line class="cls-2" x1="82.89" y1="95.99" x2="91.18" y2="95.99"/>
    <circle class="cls-2" cx="102.58" cy="95.9" r=".57"/>
    <g>
      <line class="cls-2" x1="103.01" y1="95.99" x2="104.51" y2="95.98"/>
      <polyline class="cls-2" points="106.79 95.96 108.29 95.95 108.29 97.45"/>
      <line class="cls-4" x1="108.29" y1="101.08" x2="108.29" y2="106.53"/>
      <polyline class="cls-2" points="108.29 108.34 108.29 109.84 106.79 109.84"/>
      <line class="cls-1" x1="103.85" y1="109.85" x2="11.3" y2="109.88"/>
      <polyline class="cls-2" points="9.84 109.88 8.34 109.88 8.34 108.38"/>
      <line class="cls-7" x1="8.34" y1="104.84" x2="8.34" y2="99.54"/>
      <polyline class="cls-2" points="8.34 97.77 8.34 96.27 9.84 96.27"/>
      <line class="cls-6" x1="13.09" y1="96.27" x2="17.96" y2="96.27"/>
      <line class="cls-2" x1="19.59" y1="96.27" x2="21.09" y2="96.27"/>
    </g>
    <g>
      <path class="cls-8" d="m27.92,112.61v2.51h.3s-.03,1.32-.03,1.32h-.41l-.02-.92h-2.01l-.02.92h-.41l-.02-1.31h.25c.13-.19.22-.39.29-.6.11-.36.17-.75.17-1.16v-.76h1.94Zm-1.47.88c0,.38-.05.76-.15,1.08-.06.2-.14.38-.23.54h1.34v-2.1h-.95v.48Z"/>
      <path class="cls-8" d="m31.07,112.61v2.9h-.52v-2.49h-1v.76c0,.82-.08,1.36-.46,1.61-.14.11-.31.18-.58.18l-.05-.41c.1-.02.22-.06.29-.12.27-.2.3-.61.3-1.25v-1.17h2.01Z"/>
      <path class="cls-8" d="m34.07,115.51h-.52v-1.22h-.39c-.22,0-.37.06-.49.16-.22.17-.29.53-.41.82-.04.09-.08.17-.12.24h-.56c.07-.1.13-.2.18-.33.13-.28.2-.66.46-.88.09-.08.2-.14.33-.17v-.02c-.38-.04-.77-.28-.77-.72,0-.3.16-.5.38-.63.24-.14.59-.2.97-.2.35,0,.68.03.94.06v2.88Zm-.52-2.55c-.13-.02-.25-.03-.44-.03-.36,0-.79.1-.79.5,0,.37.46.5.77.5h.45v-.98Z"/>
      <path class="cls-8" d="m36.66,112.61v1.22c0,.46,0,.75-.03,1.16h.02c.17-.35.28-.55.47-.89l.91-1.5h.62v2.9h-.5v-1.23c0-.47.01-.72.04-1.19h-.02c-.19.37-.31.61-.48.9-.28.45-.59,1.01-.91,1.52h-.61v-2.9h.5Z"/>
      <path class="cls-8" d="m40,112.61v1.17h1.38v-1.17h.52v2.9h-.52v-1.31h-1.38v1.31h-.52v-2.9h.52Z"/>
      <path class="cls-8" d="m45,112.61v2.51h.3s-.03,1.32-.03,1.32h-.41l-.02-.92h-2.01l-.02.92h-.41l-.02-1.31h.25c.13-.19.22-.39.29-.6.11-.36.17-.75.17-1.16v-.76h1.94Zm-1.47.88c0,.38-.05.76-.15,1.08-.06.2-.14.38-.23.54h1.34v-2.1h-.95v.48Z"/>
      <path class="cls-8" d="m46.09,112.61l.64,1.71c.07.19.14.42.19.59h.01c.05-.17.11-.4.19-.61l.58-1.7h.56l-.79,2.07c-.38,1-.64,1.51-1,1.82-.26.23-.52.32-.65.34l-.13-.44c.13-.04.31-.13.46-.26.14-.11.32-.32.44-.59.02-.05.04-.1.04-.13s-.01-.07-.04-.14l-1.07-2.67h.58Z"/>
      <path class="cls-8" d="m49.24,112.61v1.26h.13l1.09-1.26h.64l-1.27,1.31c.47.05.75.36.98.88.08.19.18.47.31.71h-.55c-.08-.13-.18-.35-.27-.59-.2-.47-.47-.68-.96-.68h-.1v1.28h-.52v-2.9h.52Z"/>
      <path class="cls-8" d="m53.64,112.61v.42h-.91v2.48h-.52v-2.48h-.91v-.42h2.33Z"/>
      <path class="cls-8" d="m54.58,112.61v1.22c0,.46,0,.75-.03,1.16h.02c.17-.35.28-.55.47-.89l.91-1.5h.62v2.9h-.5v-1.23c0-.47.01-.72.04-1.19h-.02c-.19.37-.31.61-.48.9-.28.45-.59,1.01-.91,1.52h-.61v-2.9h.5Z"/>
      <path class="cls-8" d="m57.39,112.65c.2-.04.58-.07.92-.07.49,0,1.29.08,1.29.73,0,.36-.28.58-.61.65h0c.43.07.74.31.74.73,0,.76-.96.86-1.53.86-.32,0-.66-.02-.82-.04v-2.87Zm.5,2.52c.15.02.26.02.43.02.35,0,.88-.08.88-.5s-.42-.51-.92-.51h-.38v.99Zm0-1.34h.4c.39,0,.79-.11.79-.46,0-.29-.25-.43-.78-.43-.17,0-.28.01-.41.02v.86Z"/>
      <path class="cls-8" d="m60.9,112.61v1.17h1.38v-1.17h.52v2.9h-.52v-1.31h-1.38v1.31h-.52v-2.9h.52Z"/>
      <path class="cls-8" d="m66.28,114.04c0,1.07-.74,1.54-1.45,1.54-.79,0-1.39-.58-1.39-1.49,0-.97.64-1.54,1.44-1.54s1.4.61,1.4,1.49Zm-2.3.03c0,.64.37,1.12.88,1.12s.88-.47.88-1.13c0-.49-.25-1.12-.87-1.12s-.89.58-.89,1.13Z"/>
      <path class="cls-8" d="m67.42,112.61v1.22c0,.46,0,.75-.03,1.16h.02c.17-.35.28-.55.47-.89l.91-1.5h.62v2.9h-.5v-1.23c0-.47.01-.72.04-1.19h-.02c-.19.37-.31.61-.48.9-.28.45-.59,1.01-.91,1.52h-.61v-2.9h.5Zm.34-1.18c.02.26.14.46.38.46.26,0,.38-.19.41-.46h.38c-.02.49-.34.74-.8.74-.53,0-.73-.33-.75-.74h.38Z"/>
      <path class="cls-8" d="m72.02,112.61v1.17h1.38v-1.17h.52v2.9h-.52v-1.31h-1.38v1.31h-.52v-2.9h.52Z"/>
      <path class="cls-8" d="m76.38,115.51l-.04-.37h-.02c-.16.23-.47.43-.89.43-.59,0-.89-.41-.89-.83,0-.7.62-1.09,1.75-1.08v-.06c0-.24-.07-.67-.66-.67-.27,0-.55.08-.75.22l-.12-.35c.24-.16.59-.26.95-.26.89,0,1.1.61,1.1,1.19v1.09c0,.25.01.5.05.7h-.48Zm-.08-1.48c-.58-.01-1.23.09-1.23.65,0,.34.23.5.5.5.38,0,.62-.24.7-.49.02-.05.03-.11.03-.17v-.5Z"/>
      <path class="cls-8" d="m79.42,112.61v.43h-1.26v2.48h-.52v-2.9h1.78Z"/>
      <path class="cls-8" d="m79.91,113.56c0-.37-.01-.67-.02-.95h.47l.02.5h.01c.22-.35.56-.56,1.03-.56.7,0,1.23.59,1.23,1.48,0,1.04-.64,1.56-1.32,1.56-.38,0-.72-.17-.89-.46h-.01v1.58h-.52v-3.14Zm.52.77c0,.08.01.15.02.22.1.37.41.62.79.62.56,0,.88-.46.88-1.12,0-.58-.31-1.08-.86-1.08-.36,0-.7.26-.8.65-.02.07-.04.14-.04.22v.5Z"/>
      <path class="cls-8" d="m83.44,112.61l.64,1.71c.07.19.14.42.19.59h.01c.05-.17.11-.4.19-.61l.58-1.7h.56l-.79,2.07c-.38,1-.64,1.51-1,1.82-.26.23-.52.32-.65.34l-.13-.44c.13-.04.31-.13.46-.26.14-.11.32-.32.44-.59.02-.05.04-.1.04-.13s-.01-.07-.04-.14l-1.07-2.67h.58Z"/>
      <path class="cls-8" d="m86.33,113.83h.25c.44,0,.74-.2.74-.47s-.23-.42-.56-.42c-.23,0-.5.08-.7.2l-.13-.32c.29-.18.63-.26.97-.26.44,0,.98.2.98.76,0,.36-.33.59-.65.66h0c.43.05.79.31.79.74,0,.63-.64.86-1.25.86-.34,0-.68-.09-.94-.23l.14-.35c.21.11.49.2.77.2.44,0,.71-.21.71-.5,0-.39-.41-.5-.85-.5h-.26v-.36Z"/>
      <path class="cls-8" d="m89.19,112.61v1.26h.13l1.09-1.26h.64l-1.27,1.31c.47.05.75.36.98.88.08.19.18.47.31.71h-.55c-.08-.13-.18-.35-.27-.59-.2-.47-.47-.68-.96-.68h-.1v1.28h-.52v-2.9h.52Z"/>
      <path class="cls-8" d="m92.01,112.61v1.22c0,.46,0,.75-.03,1.16h.02c.17-.35.28-.55.47-.89l.91-1.5h.62v2.9h-.5v-1.23c0-.47.01-.72.04-1.19h-.02c-.19.37-.31.61-.48.9-.28.45-.59,1.01-.91,1.52h-.61v-2.9h.5Z"/>
    </g>
  </g>
  <g id="scheme">
    <rect class="cls-5" x="29.03" y=".25" width="22.68" height="11.34"/>
    <rect class="cls-5" x="51.71" y=".25" width="22.68" height="11.34"/>
    <rect class="cls-3" x="20.52" y=".25" width="8.5" height="11.34"/>
    <rect class="cls-3" x="74.38" y=".25" width="8.5" height="11.34"/>
    <rect class="cls-5" x="29.03" y="11.59" width="22.68" height="11.34"/>
    <rect class="cls-5" x="51.71" y="11.59" width="22.68" height="11.34"/>
    <rect class="cls-3" x="20.52" y="11.59" width="8.5" height="11.34"/>
    <rect class="cls-3" x="74.38" y="11.59" width="8.5" height="11.34"/>
    <rect class="cls-5" x="29.03" y="22.75" width="22.68" height="11.34"/>
    <rect class="cls-5" x="51.71" y="22.75" width="22.68" height="11.34"/>
    <rect class="cls-3" x="20.52" y="22.75" width="8.5" height="11.34"/>
    <rect class="cls-3" x="74.38" y="22.75" width="8.5" height="11.34"/>
    <rect class="cls-5" x="29.03" y="34.09" width="22.68" height="11.34"/>
    <rect class="cls-5" x="51.71" y="34.09" width="22.68" height="11.34"/>
    <rect class="cls-3" x="20.52" y="34.09" width="8.5" height="11.34"/>
    <rect class="cls-3" x="74.38" y="34.09" width="8.5" height="11.34"/>
    <rect class="cls-5" x="29.03" y="45.25" width="22.68" height="11.34"/>
    <rect class="cls-5" x="51.71" y="45.25" width="22.68" height="11.34"/>
    <rect class="cls-3" x="20.52" y="45.25" width="8.5" height="11.34"/>
    <rect class="cls-3" x="74.38" y="45.25" width="8.5" height="11.34"/>
    <rect class="cls-5" x="29.03" y="56.59" width="22.68" height="11.34"/>
    <rect class="cls-5" x="51.71" y="56.59" width="22.68" height="11.34"/>
    <rect class="cls-3" x="20.52" y="56.59" width="8.5" height="11.34"/>
    <rect class="cls-3" x="74.38" y="56.59" width="8.5" height="11.34"/>
    <rect class="cls-5" x="29.03" y="67.93" width="22.68" height="11.34"/>
    <rect class="cls-5" x="51.71" y="67.93" width="22.68" height="11.34"/>
    <rect class="cls-3" x="20.52" y="67.93" width="8.5" height="11.34"/>
    <rect class="cls-3" x="74.38" y="67.93" width="8.5" height="11.34"/>
    <rect class="cls-5" x="29.03" y="79.27" width="22.68" height="11.34"/>
    <rect class="cls-5" x="51.71" y="79.27" width="22.68" height="11.34"/>
    <rect class="cls-3" x="20.52" y="79.27" width="8.5" height="11.34"/>
    <rect class="cls-3" x="74.38" y="79.27" width="8.5" height="11.34"/>
    <rect class="cls-5" x="29.03" y="90.6" width="22.68" height="11.34"/>
    <rect class="cls-5" x="51.71" y="90.6" width="22.68" height="11.34"/>
    <rect class="cls-3" x="20.52" y="90.6" width="8.5" height="11.34"/>
    <rect class="cls-3" x="74.38" y="90.6" width="8.5" height="11.34"/>
  </g>
  <g id="scheme_letters" data-name="scheme letters">
    <g>
      <path class="cls-9" d="m35.39,4.09c.32-.05.7-.08,1.11-.08.75,0,1.28.17,1.64.5.36.33.57.8.57,1.45s-.2,1.2-.58,1.57c-.38.38-1,.58-1.79.58-.37,0-.68-.02-.95-.05v-3.98Zm.52,3.57c.13.02.32.03.53.03,1.12,0,1.72-.62,1.72-1.71,0-.95-.53-1.56-1.64-1.56-.27,0-.47.02-.61.05v3.19Z"/>
      <path class="cls-9" d="m42.84,6.02c0,1.39-.85,2.13-1.88,2.13s-1.82-.83-1.82-2.05c0-1.28.8-2.12,1.88-2.12s1.82.85,1.82,2.04Zm-3.14.07c0,.86.47,1.64,1.29,1.64s1.29-.76,1.29-1.68c0-.8-.42-1.64-1.29-1.64s-1.3.8-1.3,1.69Z"/>
      <path class="cls-9" d="m44.48,4.67h-.01l-.68.37-.1-.4.85-.46h.45v3.9h-.51v-3.41Z"/>
    </g>
    <path class="cls-9" d="m24.47,4.64h-.01l-.68.37-.1-.4.85-.46h.45v3.9h-.51v-3.41Z"/>
    <path class="cls-9" d="m77.44,8.05v-.32l.41-.4c1-.95,1.45-1.45,1.45-2.04,0-.4-.19-.76-.77-.76-.35,0-.65.18-.83.33l-.17-.37c.27-.23.65-.4,1.1-.4.84,0,1.19.58,1.19,1.13,0,.72-.52,1.3-1.34,2.09l-.31.29h0s1.75.01,1.75.01v.44h-2.49Z"/>
    <g>
      <path class="cls-9" d="m58.25,4.06c.32-.05.7-.08,1.11-.08.75,0,1.28.17,1.64.5.36.33.57.8.57,1.45s-.2,1.2-.58,1.57c-.38.38-1,.58-1.79.58-.37,0-.68-.02-.95-.05v-3.98Zm.52,3.57c.13.02.32.03.53.03,1.12,0,1.72-.62,1.72-1.71,0-.95-.53-1.56-1.64-1.56-.27,0-.47.02-.61.05v3.19Z"/>
      <path class="cls-9" d="m65.7,5.98c0,1.39-.85,2.13-1.88,2.13s-1.82-.83-1.82-2.05c0-1.28.8-2.12,1.88-2.12s1.82.85,1.82,2.04Zm-3.14.07c0,.86.47,1.64,1.29,1.64s1.3-.76,1.3-1.68c0-.8-.42-1.64-1.29-1.64s-1.29.8-1.29,1.69Z"/>
      <path class="cls-9" d="m66.19,8.05v-.32l.41-.4c1-.95,1.45-1.45,1.45-2.04,0-.4-.19-.76-.77-.76-.35,0-.65.18-.83.33l-.17-.37c.27-.23.65-.4,1.1-.4.84,0,1.19.58,1.19,1.13,0,.72-.52,1.3-1.34,2.09l-.31.29h0s1.75.01,1.75.01v.44h-2.49Z"/>
    </g>
    <g>
      <path class="cls-9" d="m35.39,15.43c.32-.05.7-.08,1.11-.08.75,0,1.28.17,1.64.5.36.33.57.8.57,1.45s-.2,1.2-.58,1.57c-.38.38-1,.58-1.79.58-.37,0-.68-.02-.95-.05v-3.98Zm.52,3.57c.13.02.32.03.53.03,1.12,0,1.72-.62,1.72-1.71,0-.95-.53-1.56-1.64-1.56-.27,0-.47.02-.61.05v3.19Z"/>
      <path class="cls-9" d="m42.84,17.36c0,1.39-.85,2.13-1.88,2.13s-1.82-.83-1.82-2.05c0-1.28.8-2.12,1.88-2.12s1.82.85,1.82,2.04Zm-3.14.07c0,.86.47,1.64,1.29,1.64s1.29-.76,1.29-1.68c0-.8-.42-1.64-1.29-1.64s-1.3.8-1.3,1.69Z"/>
      <path class="cls-9" d="m43.47,18.81c.15.1.5.25.86.25.68,0,.89-.43.88-.76,0-.55-.5-.78-1.01-.78h-.29v-.4h.29c.38,0,.87-.2.87-.66,0-.31-.2-.59-.68-.59-.31,0-.61.14-.78.26l-.14-.38c.2-.15.6-.3,1.02-.3.77,0,1.12.46,1.12.93,0,.4-.24.74-.72.92h0c.48.11.87.47.87,1.01,0,.62-.49,1.17-1.42,1.17-.44,0-.82-.14-1.01-.26l.14-.41Z"/>
    </g>
    <path class="cls-9" d="m23.47,18.78c.12.1.41.25.71.25.56,0,.73-.43.73-.76,0-.55-.41-.78-.83-.78h-.24v-.4h.24c.32,0,.72-.2.72-.66,0-.31-.16-.59-.57-.59-.26,0-.51.14-.64.26l-.11-.38c.17-.15.5-.3.84-.3.63,0,.92.46.92.93,0,.4-.2.74-.6.92h0c.4.11.72.47.72,1.01,0,.62-.4,1.17-1.18,1.17-.36,0-.68-.14-.84-.26l.12-.41Z"/>
    <path class="cls-9" d="m79.07,19.38v-1.06h-1.81v-.35l1.74-2.49h.57v2.42h.55v.41h-.55v1.06h-.5Zm0-1.48v-1.3c0-.2,0-.41.02-.61h-.02c-.12.23-.22.4-.32.58l-.95,1.33h0s1.28.01,1.28.01Z"/>
    <g>
      <path class="cls-9" d="m58.25,15.4c.32-.05.7-.08,1.11-.08.75,0,1.28.17,1.64.5.36.33.57.8.57,1.45s-.2,1.2-.58,1.57c-.38.38-1,.58-1.79.58-.37,0-.68-.02-.95-.05v-3.98Zm.52,3.57c.13.02.32.03.53.03,1.12,0,1.72-.62,1.72-1.71,0-.95-.53-1.56-1.64-1.56-.27,0-.47.02-.61.05v3.19Z"/>
      <path class="cls-9" d="m65.7,17.32c0,1.39-.85,2.13-1.88,2.13s-1.82-.83-1.82-2.05c0-1.28.8-2.12,1.88-2.12s1.82.85,1.82,2.04Zm-3.14.07c0,.86.47,1.64,1.29,1.64s1.3-.76,1.3-1.68c0-.8-.42-1.64-1.29-1.64s-1.29.8-1.29,1.69Z"/>
      <path class="cls-9" d="m67.83,19.38v-1.06h-1.81v-.35l1.74-2.49h.57v2.42h.55v.41h-.55v1.06h-.5Zm0-1.48v-1.3c0-.2,0-.41.02-.61h-.02c-.12.23-.22.4-.32.58l-.95,1.33h0s1.28.01,1.28.01Z"/>
    </g>
    <g>
      <path class="cls-9" d="m35.39,26.59c.32-.05.7-.08,1.11-.08.75,0,1.28.17,1.64.5.36.33.57.8.57,1.45s-.2,1.2-.58,1.57c-.38.38-1,.58-1.79.58-.37,0-.68-.02-.95-.05v-3.98Zm.52,3.57c.13.02.32.03.53.03,1.12,0,1.72-.62,1.72-1.71,0-.95-.53-1.56-1.64-1.56-.27,0-.47.02-.61.05v3.19Z"/>
      <path class="cls-9" d="m42.84,28.52c0,1.39-.85,2.13-1.88,2.13s-1.82-.83-1.82-2.05c0-1.28.8-2.12,1.88-2.12s1.82.85,1.82,2.04Zm-3.14.07c0,.86.47,1.64,1.29,1.64s1.29-.76,1.29-1.68c0-.8-.42-1.64-1.29-1.64s-1.3.8-1.3,1.69Z"/>
      <path class="cls-9" d="m45.67,27.13h-1.49l-.15,1c.09-.01.17-.02.32-.02.3,0,.6.07.84.21.31.17.56.51.56,1,0,.76-.61,1.33-1.45,1.33-.43,0-.79-.12-.97-.24l.13-.4c.16.1.48.22.83.22.5,0,.92-.32.92-.85,0-.5-.34-.86-1.12-.86-.22,0-.4.02-.54.04l.25-1.87h1.87v.44Z"/>
    </g>
    <path class="cls-9" d="m25.66,27.09h-1.49l-.15,1c.09-.01.17-.02.32-.02.3,0,.6.07.84.21.31.17.56.51.56,1,0,.76-.61,1.33-1.45,1.33-.43,0-.79-.12-.97-.24l.13-.4c.16.1.48.22.83.22.5,0,.92-.32.92-.85,0-.5-.34-.86-1.12-.86-.22,0-.4.02-.54.04l.25-1.87h1.87v.44Z"/>
    <path class="cls-9" d="m79.66,27.02c-.11,0-.25,0-.4.02-.83.14-1.27.74-1.36,1.39h.02c.19-.25.51-.45.94-.45.69,0,1.17.5,1.17,1.26,0,.71-.49,1.37-1.29,1.37s-1.38-.65-1.38-1.66c0-.77.28-1.37.66-1.76.32-.32.76-.52,1.25-.58.16-.02.29-.03.38-.03v.43Zm-.15,2.25c0-.56-.32-.89-.8-.89-.32,0-.61.2-.76.48-.04.06-.06.14-.06.23.01.64.31,1.12.86,1.12.46,0,.76-.38.76-.94Z"/>
    <g>
      <path class="cls-9" d="m58.25,26.56c.32-.05.7-.08,1.11-.08.75,0,1.28.17,1.64.5.36.33.57.8.57,1.45s-.2,1.2-.58,1.57c-.38.38-1,.58-1.79.58-.37,0-.68-.02-.95-.05v-3.98Zm.52,3.57c.13.02.32.03.53.03,1.12,0,1.72-.62,1.72-1.71,0-.95-.53-1.56-1.64-1.56-.27,0-.47.02-.61.05v3.19Z"/>
      <path class="cls-9" d="m65.7,28.48c0,1.39-.85,2.13-1.88,2.13s-1.82-.83-1.82-2.05c0-1.28.8-2.12,1.88-2.12s1.82.85,1.82,2.04Zm-3.14.07c0,.86.47,1.64,1.29,1.64s1.3-.76,1.3-1.68c0-.8-.42-1.64-1.29-1.64s-1.29.8-1.29,1.69Z"/>
      <path class="cls-9" d="m68.42,27.02c-.11,0-.25,0-.4.02-.83.14-1.27.74-1.36,1.39h.02c.19-.25.51-.45.94-.45.69,0,1.17.5,1.17,1.26,0,.71-.49,1.37-1.29,1.37s-1.38-.65-1.38-1.66c0-.77.28-1.37.66-1.76.32-.32.76-.52,1.25-.58.16-.02.29-.03.38-.03v.43Zm-.15,2.25c0-.56-.32-.89-.8-.89-.32,0-.61.2-.75.48-.04.06-.06.14-.06.23.01.64.31,1.12.86,1.12.46,0,.76-.38.76-.94Z"/>
    </g>
    <g>
      <path class="cls-9" d="m35.39,37.93c.32-.05.7-.08,1.11-.08.75,0,1.28.17,1.64.5.36.33.57.8.57,1.45s-.2,1.2-.58,1.57c-.38.38-1,.58-1.79.58-.37,0-.68-.02-.95-.05v-3.98Zm.52,3.57c.13.02.32.03.53.03,1.12,0,1.72-.62,1.72-1.71,0-.95-.53-1.56-1.64-1.56-.27,0-.47.02-.61.05v3.19Z"/>
      <path class="cls-9" d="m42.84,39.86c0,1.39-.85,2.13-1.88,2.13s-1.82-.83-1.82-2.05c0-1.28.8-2.12,1.88-2.12s1.82.85,1.82,2.04Zm-3.14.07c0,.86.47,1.64,1.29,1.64s1.29-.76,1.29-1.68c0-.8-.42-1.64-1.29-1.64s-1.3.8-1.3,1.69Z"/>
      <path class="cls-9" d="m45.87,38.02v.35l-1.7,3.55h-.55l1.69-3.45h0s-1.91-.01-1.91-.01v-.44h2.46Z"/>
    </g>
    <path class="cls-9" d="m25.86,37.99v.35l-1.7,3.55h-.55l1.69-3.45h0s-1.91-.01-1.91-.01v-.44h2.46Z"/>
    <path class="cls-9" d="m77.39,40.89c0-.49.29-.84.77-1.04v-.02c-.44-.2-.62-.54-.62-.88,0-.62.52-1.04,1.21-1.04.75,0,1.13.47,1.13.96,0,.33-.16.68-.64.91v.02c.49.19.79.53.79,1.01,0,.68-.58,1.13-1.33,1.13-.82,0-1.31-.49-1.31-1.06Zm2.1-.02c0-.47-.33-.7-.86-.85-.46.13-.7.43-.7.8-.02.4.28.74.78.74s.78-.29.78-.7Zm-1.45-1.95c0,.39.29.6.74.72.33-.11.59-.35.59-.71,0-.31-.19-.64-.66-.64-.44,0-.68.29-.68.62Z"/>
    <g>
      <path class="cls-9" d="m57.76,37.9c.32-.05.7-.08,1.11-.08.75,0,1.28.17,1.64.5.36.33.57.8.57,1.45s-.2,1.2-.58,1.57c-.38.38-1,.58-1.79.58-.37,0-.68-.02-.95-.05v-3.98Zm.52,3.57c.13.02.32.03.53.03,1.12,0,1.72-.62,1.72-1.71,0-.95-.53-1.56-1.64-1.56-.27,0-.47.02-.61.05v3.19Z"/>
      <path class="cls-9" d="m65.21,39.82c0,1.39-.85,2.13-1.88,2.13s-1.82-.83-1.82-2.05c0-1.28.8-2.12,1.88-2.12s1.82.85,1.82,2.04Zm-3.14.07c0,.86.47,1.64,1.29,1.64s1.29-.76,1.29-1.68c0-.8-.42-1.64-1.29-1.64s-1.3.8-1.3,1.69Z"/>
      <path class="cls-9" d="m65.65,40.89c0-.49.29-.84.77-1.04v-.02c-.44-.2-.62-.54-.62-.88,0-.62.52-1.04,1.21-1.04.76,0,1.13.47,1.13.96,0,.33-.16.68-.64.91v.02c.49.19.79.53.79,1.01,0,.68-.58,1.13-1.33,1.13-.82,0-1.31-.49-1.31-1.06Zm2.1-.02c0-.47-.33-.7-.86-.85-.46.13-.7.43-.7.8-.02.4.28.74.78.74s.78-.29.78-.7Zm-1.45-1.95c0,.39.29.6.74.72.34-.11.59-.35.59-.71,0-.31-.19-.64-.66-.64-.44,0-.68.29-.68.62Z"/>
    </g>
    <g>
      <path class="cls-9" d="m35.39,49.09c.32-.05.7-.08,1.11-.08.75,0,1.28.17,1.64.5.36.33.57.8.57,1.45s-.2,1.2-.58,1.57c-.38.38-1,.58-1.79.58-.37,0-.68-.02-.95-.05v-3.98Zm.52,3.57c.13.02.32.03.53.03,1.12,0,1.72-.62,1.72-1.71,0-.95-.53-1.56-1.64-1.56-.27,0-.47.02-.61.05v3.19Z"/>
      <path class="cls-9" d="m42.84,51.02c0,1.39-.85,2.13-1.88,2.13s-1.82-.83-1.82-2.05c0-1.28.8-2.12,1.88-2.12s1.82.85,1.82,2.04Zm-3.14.07c0,.86.47,1.64,1.29,1.64s1.29-.76,1.29-1.68c0-.8-.42-1.64-1.29-1.64s-1.3.8-1.3,1.69Z"/>
      <path class="cls-9" d="m43.64,52.71c.11.01.25,0,.43-.02.31-.04.59-.17.82-.38.26-.23.44-.58.52-1.04h-.02c-.22.26-.53.42-.92.42-.7,0-1.15-.53-1.15-1.19,0-.74.53-1.39,1.33-1.39s1.29.65,1.29,1.64c0,.86-.29,1.46-.67,1.83-.3.29-.71.47-1.13.52-.19.03-.36.04-.49.03v-.43Zm.19-2.24c0,.49.29.83.75.83.35,0,.63-.17.77-.41.03-.05.05-.11.05-.19,0-.67-.25-1.18-.8-1.18-.45,0-.77.4-.77.95Z"/>
    </g>
    <path class="cls-9" d="m23.64,52.67c.11.01.25,0,.43-.02.31-.04.59-.17.82-.38.26-.23.44-.58.52-1.04h-.02c-.22.26-.53.42-.92.42-.7,0-1.15-.53-1.15-1.19,0-.74.53-1.39,1.33-1.39s1.29.65,1.29,1.64c0,.86-.29,1.46-.67,1.83-.3.29-.71.47-1.13.52-.19.03-.36.04-.49.03v-.43Zm.19-2.24c0,.49.29.83.75.83.35,0,.63-.17.77-.41.03-.05.05-.11.05-.19,0-.67-.25-1.18-.8-1.18-.45,0-.77.4-.77.95Z"/>
    <g>
      <path class="cls-9" d="m77.05,49.64h-.01l-.68.37-.1-.4.85-.46h.45v3.9h-.51v-3.41Z"/>
      <path class="cls-9" d="m81.57,51.05c0,1.33-.49,2.06-1.36,2.06-.76,0-1.28-.71-1.29-2,0-1.31.56-2.03,1.36-2.03s1.29.73,1.29,1.97Zm-2.12.06c0,1.01.31,1.59.79,1.59.54,0,.8-.63.8-1.62s-.25-1.59-.79-1.59c-.46,0-.8.56-.8,1.62Z"/>
    </g>
    <g>
      <path class="cls-9" d="m56.4,49.06c.32-.05.7-.08,1.11-.08.75,0,1.28.17,1.64.5.36.33.57.8.57,1.45s-.2,1.2-.58,1.57c-.38.38-1,.58-1.79.58-.37,0-.68-.02-.95-.05v-3.98Zm.52,3.57c.13.02.32.03.53.03,1.12,0,1.72-.62,1.72-1.71,0-.95-.53-1.56-1.64-1.56-.27,0-.47.02-.61.05v3.19Z"/>
      <path class="cls-9" d="m63.85,50.98c0,1.39-.84,2.13-1.88,2.13s-1.82-.83-1.82-2.05c0-1.28.8-2.12,1.88-2.12s1.82.85,1.82,2.04Zm-3.14.07c0,.86.47,1.64,1.29,1.64s1.3-.76,1.3-1.68c0-.8-.42-1.64-1.29-1.64s-1.29.8-1.29,1.69Z"/>
      <path class="cls-9" d="m65.49,49.64h-.01l-.68.37-.1-.4.85-.46h.45v3.9h-.51v-3.41Z"/>
      <path class="cls-9" d="m70.01,51.05c0,1.33-.49,2.06-1.36,2.06-.76,0-1.28-.71-1.29-2,0-1.31.56-2.03,1.36-2.03s1.29.73,1.29,1.97Zm-2.12.06c0,1.01.31,1.59.79,1.59.54,0,.8-.63.8-1.62s-.25-1.59-.79-1.59c-.46,0-.8.56-.8,1.62Z"/>
    </g>
    <g>
      <path class="cls-9" d="m33.86,60.43c.32-.05.7-.08,1.11-.08.75,0,1.28.17,1.64.5.36.33.57.8.57,1.45s-.2,1.2-.58,1.57c-.38.38-1,.58-1.79.58-.37,0-.68-.02-.95-.05v-3.98Zm.52,3.57c.13.02.32.03.53.03,1.12,0,1.72-.62,1.72-1.71,0-.95-.53-1.56-1.64-1.56-.27,0-.47.02-.61.05v3.19Z"/>
      <path class="cls-9" d="m41.31,62.36c0,1.39-.85,2.13-1.88,2.13s-1.82-.83-1.82-2.05c0-1.28.8-2.12,1.88-2.12s1.82.85,1.82,2.04Zm-3.14.07c0,.86.47,1.64,1.29,1.64s1.29-.76,1.29-1.68c0-.8-.42-1.64-1.29-1.64s-1.3.8-1.3,1.69Z"/>
      <path class="cls-9" d="m42.94,61.01h-.01l-.68.37-.1-.4.85-.46h.45v3.9h-.51v-3.41Z"/>
      <path class="cls-9" d="m46.02,61.01h-.01l-.68.37-.1-.4.85-.46h.45v3.9h-.51v-3.41Z"/>
    </g>
    <g>
      <path class="cls-9" d="m22.94,60.98h-.01l-.68.37-.1-.4.85-.46h.45v3.9h-.51v-3.41Z"/>
      <path class="cls-9" d="m26.01,60.98h-.01l-.68.37-.1-.4.85-.46h.45v3.9h-.51v-3.41Z"/>
    </g>
    <g>
      <path class="cls-9" d="m77.05,60.98h-.01l-.68.37-.1-.4.85-.46h.45v3.9h-.51v-3.41Z"/>
      <path class="cls-9" d="m78.98,64.38v-.32l.41-.4c1-.95,1.45-1.45,1.45-2.04,0-.4-.19-.76-.77-.76-.35,0-.65.18-.83.33l-.17-.37c.27-.23.65-.4,1.1-.4.84,0,1.19.58,1.19,1.13,0,.72-.52,1.3-1.34,2.09l-.31.29h0s1.75.01,1.75.01v.44h-2.49Z"/>
    </g>
    <g>
      <path class="cls-9" d="m56.71,60.4c.32-.05.7-.08,1.11-.08.75,0,1.28.17,1.64.5.36.33.57.8.57,1.45s-.2,1.2-.58,1.57c-.38.38-1,.58-1.79.58-.37,0-.68-.02-.95-.05v-3.98Zm.52,3.57c.13.02.32.03.53.03,1.12,0,1.72-.62,1.72-1.71,0-.95-.53-1.56-1.64-1.56-.27,0-.47.02-.61.05v3.19Z"/>
      <path class="cls-9" d="m64.16,62.32c0,1.39-.85,2.13-1.88,2.13s-1.82-.83-1.82-2.05c0-1.28.8-2.12,1.88-2.12s1.82.85,1.82,2.04Zm-3.14.07c0,.86.47,1.64,1.29,1.64s1.3-.76,1.3-1.68c0-.8-.42-1.64-1.29-1.64s-1.29.8-1.29,1.69Z"/>
      <path class="cls-9" d="m65.8,60.98h-.01l-.68.37-.1-.4.85-.46h.45v3.9h-.51v-3.41Z"/>
      <path class="cls-9" d="m67.73,64.38v-.32l.41-.4c1-.95,1.45-1.45,1.45-2.04,0-.4-.19-.76-.77-.76-.35,0-.65.18-.83.33l-.17-.37c.27-.23.65-.4,1.1-.4.84,0,1.19.58,1.19,1.13,0,.72-.52,1.3-1.34,2.09l-.31.29h0s1.75.01,1.75.01v.44h-2.49Z"/>
    </g>
    <g>
      <path class="cls-9" d="m33.86,71.77c.32-.05.7-.08,1.11-.08.75,0,1.28.17,1.64.5.36.33.57.8.57,1.45s-.2,1.2-.58,1.57c-.38.38-1,.58-1.79.58-.37,0-.68-.02-.95-.05v-3.98Zm.52,3.57c.13.02.32.03.53.03,1.12,0,1.72-.62,1.72-1.71,0-.95-.53-1.56-1.64-1.56-.27,0-.47.02-.61.05v3.19Z"/>
      <path class="cls-9" d="m41.31,73.69c0,1.39-.85,2.13-1.88,2.13s-1.82-.83-1.82-2.05c0-1.28.8-2.12,1.88-2.12s1.82.85,1.82,2.04Zm-3.14.07c0,.86.47,1.64,1.29,1.64s1.29-.76,1.29-1.68c0-.8-.42-1.64-1.29-1.64s-1.3.8-1.3,1.69Z"/>
      <path class="cls-9" d="m42.94,72.35h-.01l-.68.37-.1-.4.85-.46h.45v3.9h-.51v-3.41Z"/>
      <path class="cls-9" d="m45,75.15c.15.1.5.25.86.25.68,0,.89-.43.88-.76,0-.55-.5-.78-1.01-.78h-.29v-.4h.29c.38,0,.87-.2.87-.66,0-.31-.2-.59-.68-.59-.31,0-.61.14-.78.26l-.14-.38c.2-.15.6-.3,1.02-.3.77,0,1.12.46,1.12.93,0,.4-.24.74-.72.92h0c.48.11.87.47.87,1.01,0,.62-.49,1.17-1.42,1.17-.44,0-.82-.14-1.01-.26l.14-.41Z"/>
    </g>
    <g>
      <path class="cls-9" d="m22.94,72.32h-.01l-.68.37-.1-.4.85-.46h.45v3.9h-.51v-3.41Z"/>
      <path class="cls-9" d="m24.99,75.12c.15.1.5.25.86.25.68,0,.89-.43.88-.76,0-.55-.5-.78-1.01-.78h-.29v-.4h.29c.38,0,.87-.2.87-.66,0-.31-.2-.59-.68-.59-.31,0-.61.14-.78.26l-.14-.38c.2-.15.6-.3,1.02-.3.77,0,1.12.46,1.12.93,0,.4-.24.74-.72.92h0c.48.11.87.47.87,1.01,0,.62-.49,1.17-1.42,1.17-.44,0-.82-.14-1.01-.26l.14-.41Z"/>
    </g>
    <g>
      <path class="cls-9" d="m77.05,72.32h-.01l-.68.37-.1-.4.85-.46h.45v3.9h-.51v-3.41Z"/>
      <path class="cls-9" d="m80.61,75.72v-1.06h-1.81v-.35l1.74-2.49h.57v2.42h.55v.41h-.55v1.06h-.5Zm0-1.48v-1.3c0-.2,0-.41.02-.61h-.02c-.12.23-.22.4-.32.58l-.95,1.33h0s1.28.01,1.28.01Z"/>
    </g>
    <g>
      <path class="cls-9" d="m56.71,71.73c.32-.05.7-.08,1.11-.08.75,0,1.28.17,1.64.5.36.33.57.8.57,1.45s-.2,1.2-.58,1.57c-.38.38-1,.58-1.79.58-.37,0-.68-.02-.95-.05v-3.98Zm.52,3.57c.13.02.32.03.53.03,1.12,0,1.72-.62,1.72-1.71,0-.95-.53-1.56-1.64-1.56-.27,0-.47.02-.61.05v3.19Z"/>
      <path class="cls-9" d="m64.16,73.66c0,1.39-.85,2.13-1.88,2.13s-1.82-.83-1.82-2.05c0-1.28.8-2.12,1.88-2.12s1.82.85,1.82,2.04Zm-3.14.07c0,.86.47,1.64,1.29,1.64s1.3-.76,1.3-1.68c0-.8-.42-1.64-1.29-1.64s-1.29.8-1.29,1.69Z"/>
      <path class="cls-9" d="m65.8,72.32h-.01l-.68.37-.1-.4.85-.46h.45v3.9h-.51v-3.41Z"/>
      <path class="cls-9" d="m69.36,75.72v-1.06h-1.81v-.35l1.74-2.49h.57v2.42h.55v.41h-.55v1.06h-.5Zm0-1.48v-1.3c0-.2,0-.41.02-.61h-.02c-.12.23-.22.4-.32.58l-.95,1.33h0s1.28.01,1.28.01Z"/>
    </g>
    <g>
      <path class="cls-9" d="m33.86,83.11c.32-.05.7-.08,1.11-.08.75,0,1.28.17,1.64.5.36.33.57.8.57,1.45s-.2,1.2-.58,1.57c-.38.38-1,.58-1.79.58-.37,0-.68-.02-.95-.05v-3.98Zm.52,3.57c.13.02.32.03.53.03,1.12,0,1.72-.62,1.72-1.71,0-.95-.53-1.56-1.64-1.56-.27,0-.47.02-.61.05v3.19Z"/>
      <path class="cls-9" d="m41.31,85.03c0,1.39-.85,2.13-1.88,2.13s-1.82-.83-1.82-2.05c0-1.28.8-2.12,1.88-2.12s1.82.85,1.82,2.04Zm-3.14.07c0,.86.47,1.64,1.29,1.64s1.29-.76,1.29-1.68c0-.8-.42-1.64-1.29-1.64s-1.3.8-1.3,1.69Z"/>
      <path class="cls-9" d="m42.94,83.69h-.01l-.68.37-.1-.4.85-.46h.45v3.9h-.51v-3.41Z"/>
      <path class="cls-9" d="m47.2,83.64h-1.49l-.15,1c.09-.01.17-.02.32-.02.3,0,.6.07.84.21.31.17.56.51.56,1,0,.76-.61,1.33-1.45,1.33-.43,0-.79-.12-.97-.24l.13-.4c.16.1.48.22.83.22.5,0,.92-.32.92-.85,0-.5-.34-.86-1.12-.86-.22,0-.4.02-.54.04l.25-1.87h1.87v.44Z"/>
    </g>
    <g>
      <path class="cls-9" d="m22.94,83.65h-.01l-.68.37-.1-.4.85-.46h.45v3.9h-.51v-3.41Z"/>
      <path class="cls-9" d="m27.2,83.61h-1.49l-.15,1c.09-.01.17-.02.32-.02.3,0,.6.07.84.21.31.17.56.51.56,1,0,.76-.61,1.33-1.45,1.33-.43,0-.79-.12-.97-.24l.13-.4c.16.1.48.22.83.22.5,0,.92-.32.92-.85,0-.5-.34-.86-1.12-.86-.22,0-.4.02-.54.04l.25-1.87h1.87v.44Z"/>
    </g>
    <g>
      <path class="cls-9" d="m77.05,83.65h-.01l-.68.37-.1-.4.85-.46h.45v3.9h-.51v-3.41Z"/>
      <path class="cls-9" d="m81.2,83.54c-.11,0-.25,0-.4.02-.83.14-1.27.74-1.36,1.39h.02c.19-.25.51-.45.94-.45.69,0,1.17.5,1.17,1.26,0,.71-.49,1.37-1.29,1.37s-1.38-.65-1.38-1.66c0-.77.28-1.37.66-1.76.32-.32.76-.52,1.25-.58.16-.02.29-.03.38-.03v.43Zm-.15,2.25c0-.56-.32-.89-.8-.89-.32,0-.61.2-.76.48-.04.06-.06.14-.06.23.01.64.31,1.12.86,1.12.46,0,.76-.38.76-.94Z"/>
    </g>
    <g>
      <path class="cls-9" d="m56.71,83.07c.32-.05.7-.08,1.11-.08.75,0,1.28.17,1.64.5.36.33.57.8.57,1.45s-.2,1.2-.58,1.57c-.38.38-1,.58-1.79.58-.37,0-.68-.02-.95-.05v-3.98Zm.52,3.57c.13.02.32.03.53.03,1.12,0,1.72-.62,1.72-1.71,0-.95-.53-1.56-1.64-1.56-.27,0-.47.02-.61.05v3.19Z"/>
      <path class="cls-9" d="m64.16,85c0,1.39-.85,2.13-1.88,2.13s-1.82-.83-1.82-2.05c0-1.28.8-2.12,1.88-2.12s1.82.85,1.82,2.04Zm-3.14.07c0,.86.47,1.64,1.29,1.64s1.3-.76,1.3-1.68c0-.8-.42-1.64-1.29-1.64s-1.29.8-1.29,1.69Z"/>
      <path class="cls-9" d="m65.8,83.65h-.01l-.68.37-.1-.4.85-.46h.45v3.9h-.51v-3.41Z"/>
      <path class="cls-9" d="m69.96,83.54c-.11,0-.25,0-.4.02-.83.14-1.27.74-1.36,1.39h.02c.19-.25.51-.45.94-.45.69,0,1.17.5,1.17,1.26,0,.71-.49,1.37-1.29,1.37s-1.38-.65-1.38-1.66c0-.77.28-1.37.66-1.76.32-.32.76-.52,1.25-.58.16-.02.29-.03.38-.03v.43Zm-.15,2.25c0-.56-.32-.89-.8-.89-.32,0-.61.2-.75.48-.04.06-.06.14-.06.23.01.64.31,1.12.86,1.12.46,0,.76-.38.76-.94Z"/>
    </g>
    <g>
      <path class="cls-9" d="m55.64,94.51c.25-.04.58-.08,1-.08.52,0,.89.12,1.13.34.22.19.35.49.35.85s-.11.65-.31.86c-.28.29-.73.44-1.23.44-.16,0-.3,0-.42-.04v1.62h-.52v-3.99Zm.52,1.95c.11.03.26.04.43.04.63,0,1.01-.31,1.01-.86s-.38-.79-.95-.79c-.23,0-.4.02-.49.04v1.57Z"/>
      <path class="cls-9" d="m61.66,98.37c-.19.1-.58.19-1.07.19-1.14,0-2-.72-2-2.04s.86-2.12,2.11-2.12c.5,0,.82.11.96.18l-.13.43c-.2-.1-.48-.17-.82-.17-.95,0-1.58.61-1.58,1.67,0,.99.57,1.62,1.55,1.62.32,0,.64-.07.85-.17l.11.41Z"/>
      <path class="cls-9" d="m65.64,96.44c0,1.39-.84,2.13-1.88,2.13s-1.82-.83-1.82-2.05c0-1.28.8-2.12,1.88-2.12s1.82.85,1.82,2.04Zm-3.14.07c0,.86.47,1.64,1.29,1.64s1.29-.76,1.29-1.68c0-.8-.42-1.64-1.29-1.64s-1.29.8-1.29,1.69Z"/>
      <path class="cls-9" d="m69.73,96.73c-.03-.56-.07-1.24-.06-1.75h-.02c-.14.47-.31.98-.51,1.54l-.71,1.96h-.39l-.65-1.92c-.19-.57-.35-1.09-.47-1.57h-.01c-.01.5-.04,1.18-.08,1.79l-.11,1.73h-.5l.28-4.04h.67l.69,1.96c.17.5.31.94.41,1.36h.02c.1-.41.25-.85.43-1.36l.72-1.96h.67l.25,4.04h-.51l-.1-1.77Z"/>
    </g>
    <g>
      <path class="cls-9" d="m22.94,94.99h-.01l-.68.37-.1-.4.85-.46h.45v3.9h-.51v-3.41Z"/>
      <path class="cls-9" d="m27.4,94.5v.35l-1.7,3.55h-.55l1.69-3.45h0s-1.91-.01-1.91-.01v-.44h2.46Z"/>
    </g>
    <g>
      <path class="cls-9" d="m77.05,94.99h-.01l-.68.37-.1-.4.85-.46h.45v3.9h-.51v-3.41Z"/>
      <path class="cls-9" d="m78.93,97.41c0-.49.29-.84.77-1.04v-.02c-.44-.2-.62-.54-.62-.88,0-.62.52-1.04,1.21-1.04.75,0,1.13.47,1.13.96,0,.33-.16.68-.64.91v.02c.49.19.79.53.79,1.01,0,.68-.58,1.13-1.33,1.13-.82,0-1.31-.49-1.31-1.06Zm2.1-.02c0-.47-.33-.7-.86-.85-.46.13-.7.43-.7.8-.02.4.28.74.78.74s.78-.29.78-.7Zm-1.45-1.95c0,.39.29.6.74.72.33-.11.59-.35.59-.71,0-.31-.19-.64-.66-.64-.44,0-.68.29-.68.62Z"/>
    </g>
    <g>
      <path class="cls-9" d="m37.88,98.61c-.23.08-.7.22-1.24.22-.61,0-1.12-.16-1.51-.53-.35-.34-.56-.88-.56-1.51,0-1.21.83-2.09,2.19-2.09.47,0,.83.1,1.01.19l-.13.43c-.22-.1-.49-.17-.89-.17-.98,0-1.62.61-1.62,1.62s.62,1.63,1.56,1.63c.34,0,.58-.05.7-.11v-1.21h-.82v-.42h1.33v1.94Z"/>
      <path class="cls-9" d="m38.68,98.79v-4.04h.57l1.3,2.04c.3.47.53.9.73,1.31h.01c-.05-.55-.06-1.04-.06-1.67v-1.69h.49v4.04h-.53l-1.28-2.05c-.28-.45-.55-.91-.76-1.35h-.02c.03.52.04,1,.04,1.67v1.73h-.49Z"/>
      <path class="cls-9" d="m42.63,94.8c.32-.05.7-.08,1.11-.08.75,0,1.28.17,1.64.5.36.33.57.8.57,1.45s-.2,1.2-.58,1.57c-.38.38-1,.58-1.79.58-.37,0-.68-.02-.95-.05v-3.98Zm.52,3.57c.13.02.32.03.53.03,1.12,0,1.72-.62,1.72-1.71,0-.95-.53-1.56-1.64-1.56-.27,0-.47.02-.61.05v3.19Z"/>
    </g>
  </g>
</svg>