<?xml version="1.0" encoding="UTF-8"?>
<svg xmlns="http://www.w3.org/2000/svg" viewBox="0 0 127.56 141.73">
  <defs>
    <style>
      .cls-1 {
        fill: none;
      }

      .cls-1, .cls-2, .cls-3 {
        stroke: #767576;
        stroke-miterlimit: 10;
        stroke-width: .5px;
      }

      .cls-2 {
        fill: #f7941d;
      }

      .cls-3 {
        fill: #bcbec0;
      }

      .cls-4 {
        fill: #767576;
        font-family: MontserratRoman-Regular, Montserrat;
        font-size: 6px;
        font-variation-settings: 'wght' 400;
      }
    </style>
  </defs>
  <g id="scheme_w" data-name="scheme w">
    <rect class="cls-1" x="111.76" y="26.22" width="8.5" height="51.02"/>
    <rect class="cls-1" x="103.07" y="26.22" width="8.5" height="8.5"/>
    <rect class="cls-1" x="103.07" y="34.72" width="8.5" height="8.5"/>
    <rect class="cls-1" x="103.07" y="43.23" width="8.5" height="8.5"/>
    <rect class="cls-1" x="103.07" y="51.73" width="8.5" height="8.5"/>
    <rect class="cls-1" x="111.4" y="91.42" width="8.5" height="34.02"/>
    <rect class="cls-1" x="103.07" y="91.42" width="8.5" height="8.5"/>
    <rect class="cls-1" x="103.07" y="116.93" width="8.5" height="8.5"/>
    <rect class="cls-1" x="103.07" y="99.92" width="8.5" height="17.01"/>
    <rect class="cls-1" x="103.07" y="60.24" width="8.5" height="17.01"/>
    <polyline class="cls-1" points="25.12 42.56 14.12 42.56 14.14 12.93 100.24 12.93 100.24 30.83 103.07 30.83"/>
    <polyline class="cls-1" points="24.06 31.89 18.04 31.89 18.04 19.84 96.49 20 96.49 38.96 103.07 38.98"/>
    <polyline class="cls-1" points="83.94 31.36 93.33 31.36 93.33 47.66 103.07 47.66"/>
    <polyline class="cls-1" points="83.94 43.23 90.32 43.23 90.32 56.16 103.07 56.16"/>
    <polyline class="cls-1" points="83.94 53.86 87.13 53.86 87.13 68.92 103.27 69"/>
    <polyline class="cls-1" points="21.83 111.44 17.15 111.44 17.15 134.11 97.04 134.11 97.05 121 103.07 121"/>
    <polyline class="cls-1" points="83.76 121.71 92.27 121.71 92.27 108.07 103.07 108.07"/>
    <polyline class="cls-1" points="83.41 110.73 87.31 110.73 87.31 95.85 103.07 95.85"/>
  </g>
  <g id="scheme">
    <rect class="cls-3" x="30.08" y="25.87" width="22.68" height="11.34"/>
    <rect class="cls-3" x="52.76" y="25.87" width="22.68" height="11.34"/>
    <rect class="cls-2" x="21.58" y="25.87" width="8.5" height="11.34"/>
    <rect class="cls-2" x="75.44" y="25.87" width="8.5" height="11.34"/>
    <rect class="cls-3" x="30.08" y="37.2" width="22.68" height="11.34"/>
    <rect class="cls-3" x="52.76" y="37.2" width="22.68" height="11.34"/>
    <rect class="cls-2" x="21.58" y="37.2" width="8.5" height="11.34"/>
    <rect class="cls-2" x="75.44" y="37.2" width="8.5" height="11.34"/>
    <rect class="cls-3" x="30.08" y="48.37" width="22.68" height="11.34"/>
    <rect class="cls-3" x="52.76" y="48.37" width="22.68" height="11.34"/>
    <rect class="cls-2" x="21.58" y="48.37" width="8.5" height="11.34"/>
    <rect class="cls-2" x="75.44" y="48.37" width="8.5" height="11.34"/>
    <rect class="cls-3" x="30.08" y="59.7" width="22.68" height="11.34"/>
    <rect class="cls-3" x="52.76" y="59.7" width="22.68" height="11.34"/>
    <rect class="cls-2" x="21.58" y="59.7" width="8.5" height="11.34"/>
    <rect class="cls-2" x="75.44" y="59.7" width="8.5" height="11.34"/>
    <rect class="cls-3" x="30.08" y="70.87" width="22.68" height="11.34"/>
    <rect class="cls-3" x="52.76" y="70.87" width="22.68" height="11.34"/>
    <rect class="cls-2" x="21.58" y="70.87" width="8.5" height="11.34"/>
    <rect class="cls-2" x="75.44" y="70.87" width="8.5" height="11.34"/>
    <rect class="cls-3" x="30.08" y="82.2" width="22.68" height="11.34"/>
    <rect class="cls-3" x="52.76" y="82.2" width="22.68" height="11.34"/>
    <rect class="cls-2" x="21.58" y="82.2" width="8.5" height="11.34"/>
    <rect class="cls-2" x="75.44" y="82.2" width="8.5" height="11.34"/>
    <rect class="cls-3" x="30.08" y="93.54" width="22.68" height="11.34"/>
    <rect class="cls-3" x="52.76" y="93.54" width="22.68" height="11.34"/>
    <rect class="cls-2" x="21.58" y="93.54" width="8.5" height="11.34"/>
    <rect class="cls-2" x="75.44" y="93.54" width="8.5" height="11.34"/>
    <rect class="cls-3" x="30.08" y="104.88" width="22.68" height="11.34"/>
    <rect class="cls-3" x="52.76" y="104.88" width="22.68" height="11.34"/>
    <rect class="cls-2" x="21.58" y="104.88" width="8.5" height="11.34"/>
    <rect class="cls-2" x="75.44" y="104.88" width="8.5" height="11.34"/>
    <rect class="cls-3" x="30.08" y="116.22" width="22.68" height="11.34"/>
    <rect class="cls-3" x="52.76" y="116.22" width="22.68" height="11.34"/>
    <rect class="cls-2" x="21.58" y="116.22" width="8.5" height="11.34"/>
    <rect class="cls-2" x="75.44" y="116.22" width="8.5" height="11.34"/>
  </g>
  <g id="scheme_letters" data-name="scheme letters">
    <text class="cls-4" transform="translate(109.45 32.71) rotate(-90)"><tspan x="0" y="0">А</tspan></text>
    <text class="cls-4" transform="translate(109.45 40.93) rotate(-90)"><tspan x="0" y="0">Z</tspan></text>
    <text class="cls-4" transform="translate(109.63 49.74) rotate(-90)"><tspan x="0" y="0">Y</tspan></text>
    <text class="cls-4" transform="translate(109.45 58.43) rotate(-90)"><tspan x="0" y="0">B</tspan></text>
    <text class="cls-4" transform="translate(109.63 98.29) rotate(-90)"><tspan x="0" y="0">B</tspan></text>
    <text class="cls-4" transform="translate(109.28 123.59) rotate(-90)"><tspan x="0" y="0">А</tspan></text>
    <text class="cls-4" transform="translate(109.63 115.66) rotate(-90)"><tspan x="0" y="0">GND</tspan></text>
    <text class="cls-4" transform="translate(117.78 117.86) rotate(-90)"><tspan x="0" y="0">RS485</tspan></text>
    <text class="cls-4" transform="translate(118.31 61.14) rotate(-90)"><tspan x="0" y="0">RS422</tspan></text>
    <text class="cls-4" transform="translate(109.63 75.98) rotate(-90)"><tspan x="0" y="0">GND</tspan></text>
    <text class="cls-4" transform="translate(32.26 33.8)"><tspan x="0" y="0">RX(A)-</tspan></text>
    <text class="cls-4" transform="translate(24.57 33.66)"><tspan x="0" y="0">1</tspan></text>
    <text class="cls-4" transform="translate(78.06 33.66)"><tspan x="0" y="0">2</tspan></text>
    <text class="cls-4" transform="translate(54.35 33.66)"><tspan x="0" y="0">RX(B)+</tspan></text>
    <text class="cls-4" transform="translate(32.91 45.14)"><tspan x="0" y="0">TX(Z)-</tspan></text>
    <text class="cls-4" transform="translate(24.07 45) scale(.83 1)"><tspan x="0" y="0">3</tspan></text>
    <text class="cls-4" transform="translate(77.78 45)"><tspan x="0" y="0">4</tspan></text>
    <text class="cls-4" transform="translate(55.16 45)"><tspan x="0" y="0">TX(Y)+</tspan></text>
    <text class="cls-4" transform="translate(34.43 56.3)"><tspan x="0" y="0">GND</tspan></text>
    <text class="cls-4" transform="translate(23.96 56.16)"><tspan x="0" y="0">5</tspan></text>
    <text class="cls-4" transform="translate(77.94 56.16)"><tspan x="0" y="0">6</tspan></text>
    <text class="cls-4" transform="translate(57.22 56.16)"><tspan x="0" y="0">GND</tspan></text>
    <text class="cls-4" transform="translate(40.52 67.64)"><tspan x="0" y="0">-</tspan></text>
    <text class="cls-4" transform="translate(23.89 67.5)"><tspan x="0" y="0">7</tspan></text>
    <text class="cls-4" transform="translate(77.85 67.5)"><tspan x="0" y="0">8</tspan></text>
    <text class="cls-4" transform="translate(63.31 67.5)"><tspan x="0" y="0">-</tspan></text>
    <text class="cls-4" transform="translate(40.52 78.8)"><tspan x="0" y="0">-</tspan></text>
    <text class="cls-4" transform="translate(23.83 78.66)"><tspan x="0" y="0">9</tspan></text>
    <text class="cls-4" transform="translate(76.69 78.66)"><tspan x="0" y="0">10</tspan></text>
    <text class="cls-4" transform="translate(63.31 78.66)"><tspan x="0" y="0">-</tspan></text>
    <text class="cls-4" transform="translate(40.52 90.14)"><tspan x="0" y="0">-</tspan></text>
    <text class="cls-4" transform="translate(23.49 90)"><tspan x="0" y="0">11</tspan></text>
    <text class="cls-4" transform="translate(76.98 90)"><tspan x="0" y="0">12</tspan></text>
    <text class="cls-4" transform="translate(63.31 90)"><tspan x="0" y="0">-</tspan></text>
    <text class="cls-4" transform="translate(40.52 101.48)"><tspan x="0" y="0">-</tspan></text>
    <text class="cls-4" transform="translate(22.88 101.34)"><tspan x="0" y="0">13</tspan></text>
    <text class="cls-4" transform="translate(76.7 101.34)"><tspan x="0" y="0">14</tspan></text>
    <text class="cls-4" transform="translate(63.31 101.34)"><tspan x="0" y="0">-</tspan></text>
    <text class="cls-4" transform="translate(31.95 112.82)"><tspan x="0" y="0">485(A)</tspan></text>
    <text class="cls-4" transform="translate(22.87 112.68)"><tspan x="0" y="0">15</tspan></text>
    <text class="cls-4" transform="translate(76.85 112.68)"><tspan x="0" y="0">16</tspan></text>
    <text class="cls-4" transform="translate(54.62 112.68)"><tspan x="0" y="0">485(B)</tspan></text>
    <text class="cls-4" transform="translate(34.43 124.16)"><tspan x="0" y="0">GND</tspan></text>
    <text class="cls-4" transform="translate(22.8 124.02)"><tspan x="0" y="0">17</tspan></text>
    <text class="cls-4" transform="translate(76.77 124.02)"><tspan x="0" y="0">18</tspan></text>
    <text class="cls-4" transform="translate(57.22 124.02)"><tspan x="0" y="0">GND</tspan></text>
  </g>
</svg>