<?xml version="1.0" encoding="UTF-8"?>
<svg xmlns="http://www.w3.org/2000/svg" viewBox="0 0 127.56 141.73">
  <defs>
    <style>
      .cls-1 {
        opacity: .5;
      }

      .cls-1, .cls-2 {
        fill: none;
        stroke: #767576;
        stroke-width: .5px;
      }

      .cls-1, .cls-2, .cls-3 {
        stroke-miterlimit: 10;
      }

      .cls-4, .cls-5, .cls-3, .cls-6, .cls-7 {
        fill: #767576;
      }

      .cls-4, .cls-5, .cls-7 {
        font-family: MontserratRoman-Regular, Montserrat;
        font-variation-settings: 'wght' 400;
      }

      .cls-4, .cls-7 {
        font-size: 6px;
      }

      .cls-4, .cls-8 {
        letter-spacing: -.05em;
      }

      .cls-5 {
        font-size: 5px;
      }

      .cls-3 {
        stroke: #212120;
        stroke-width: .4px;
      }

      .cls-9 {
        letter-spacing: -.05em;
      }
    </style>
  </defs>
  <g id="scheme_w" data-name="scheme w">
    <circle class="cls-2" cx="35.43" cy="58.96" r=".71"/>
    <circle class="cls-2" cx="29.76" cy="58.96" r=".71"/>
    <circle class="cls-2" cx="32.6" cy="58.96" r=".71"/>
    <circle class="cls-2" cx="97.51" cy="58.96" r=".71"/>
    <circle class="cls-2" cx="91.84" cy="58.96" r=".71"/>
    <circle class="cls-2" cx="94.68" cy="58.96" r=".71"/>
    <polygon class="cls-2" points="51.02 30.61 53.29 30.61 53.29 28.35 55.56 28.35 55.56 94.68 53.29 94.68 53.29 92.41 51.02 92.41 51.02 96.94 68.03 96.94 68.03 92.41 70.3 92.41 70.3 94.68 72.57 94.68 72.57 28.35 70.3 28.35 70.3 30.61 68.03 30.61 68.03 26.08 51.02 26.08 51.02 30.61"/>
    <polygon class="cls-2" points="60.11 71.15 60.11 80.22 66.63 80.22 66.61 77.95 68.6 77.95 68.6 73.42 66.61 73.42 66.63 71.15 60.11 71.15"/>
    <rect class="cls-2" x="42.65" y="60.94" width="8.5" height="19.84"/>
    <line class="cls-2" x1="46.9" y1="60.94" x2="46.9" y2="80.79"/>
    <line class="cls-2" x1="42.65" y1="63.78" x2="51.15" y2="63.78"/>
    <line class="cls-2" x1="42.65" y1="66.61" x2="51.15" y2="66.61"/>
    <line class="cls-2" x1="42.65" y1="75.12" x2="51.15" y2="75.12"/>
    <line class="cls-2" x1="42.65" y1="77.95" x2="51.15" y2="77.95"/>
    <line class="cls-2" x1="42.65" y1="69.45" x2="51.15" y2="69.45"/>
    <line class="cls-2" x1="42.52" y1="72.23" x2="51.02" y2="72.23"/>
    <polygon class="cls-2" points="34.02 30.61 36.28 30.61 36.28 28.35 38.55 28.35 38.55 94.68 36.28 94.68 36.28 92.41 34.02 92.41 34.02 96.94 51.02 96.94 51.02 92.41 53.29 92.41 53.29 94.68 55.56 94.68 55.56 28.35 53.29 28.35 53.29 30.61 51.02 30.61 51.02 26.08 34.02 26.08 34.02 30.61"/>
    <rect class="cls-2" x="76.67" y="60.94" width="8.5" height="19.84"/>
    <line class="cls-2" x1="80.92" y1="60.94" x2="80.92" y2="80.79"/>
    <line class="cls-2" x1="76.67" y1="63.78" x2="85.17" y2="63.78"/>
    <line class="cls-2" x1="76.67" y1="66.61" x2="85.17" y2="66.61"/>
    <line class="cls-2" x1="76.67" y1="75.12" x2="85.17" y2="75.12"/>
    <line class="cls-2" x1="76.67" y1="77.95" x2="85.17" y2="77.95"/>
    <line class="cls-2" x1="76.67" y1="69.45" x2="85.17" y2="69.45"/>
    <line class="cls-2" x1="76.54" y1="72.23" x2="85.04" y2="72.23"/>
    <polygon class="cls-2" points="68.03 30.61 70.3 30.61 70.3 28.35 72.57 28.35 72.57 94.68 70.3 94.68 70.3 92.41 68.03 92.41 68.03 96.94 85.04 96.94 85.04 92.41 87.31 92.41 87.31 94.68 89.57 94.68 89.57 28.35 87.31 28.35 87.31 30.61 85.04 30.61 85.04 26.08 68.03 26.08 68.03 30.61"/>
  </g>
  <g id="scheme">
    <g>
      <line class="cls-2" x1="5.1" y1="53.29" x2="29.92" y2="53.29"/>
      <polygon class="cls-6" points="33.45 53.29 28.47 55.32 29.65 53.29 28.47 51.26 33.45 53.29"/>
    </g>
    <g>
      <line class="cls-2" x1="94" y1="53.26" x2="118.82" y2="53.26"/>
      <polygon class="cls-6" points="122.35 53.26 117.38 55.29 118.56 53.26 117.38 51.23 122.35 53.26"/>
    </g>
    <g>
      <line class="cls-2" x1="63.78" y1="107.91" x2="63.78" y2="76.05"/>
      <path class="cls-6" d="M65.66,107.82c0,1.04-.84,1.88-1.88,1.88s-1.88-.84-1.88-1.88.84-1.88,1.88-1.88,1.88.84,1.88,1.88Z"/>
      <path class="cls-6" d="M65.66,76.15c0-1.04-.84-1.88-1.88-1.88s-1.88.84-1.88,1.88.84,1.88,1.88,1.88,1.88-.84,1.88-1.88Z"/>
    </g>
    <path class="cls-1" d="M97.51,62.93c0,19.57-15.86,35.43-35.43,35.43s-35.43-15.86-35.43-35.43,15.86-35.43,35.43-35.43,35.43,15.86,35.43,35.43ZM87.13,87.98l-50.11-50.11"/>
  </g>
  <g id="scheme_letters" data-name="scheme letters">
    <text class="cls-4" transform="translate(64.83 104.6)"><tspan x="0" y="0">Ethernet</tspan></text>
    <text class="cls-5" transform="translate(23.18 13.04)"><tspan x="0" y="0">Устанавливать строго первым </tspan><tspan x="7.79" y="6">или последним в группе</tspan></text>
    <text class="cls-7" transform="translate(1.81 41.67)"><tspan class="cls-8"><tspan x="0" y="0">Внутренняя</tspan></tspan><tspan class="cls-9"><tspan x="9.44" y="7.2">шина</tspan></tspan></text>
    <text class="cls-7" transform="translate(90.71 41.64)"><tspan class="cls-8"><tspan x="0" y="0">Внутренняя</tspan></tspan><tspan class="cls-9"><tspan x="9.44" y="7.2">шина</tspan></tspan></text>
    <text class="cls-4" transform="translate(40.5 115.32)"><tspan x="0" y="0">Внешнее уст-во/</tspan><tspan x="-6.42" y="7.2">предыдущая группа/</tspan><tspan x="-7.13" y="14.4">последующая группа</tspan></text>
    <rect class="cls-3" x="26.08" y="108" width="76.54" height="25.51"/>
    <text class="cls-4" transform="translate(56.13 89.01)"><tspan x="0" y="0">SPTM</tspan></text>
  </g>
</svg>