<?xml version="1.0" encoding="UTF-8"?>
<svg id="_Слой_2" data-name="Слой 2" xmlns="http://www.w3.org/2000/svg" viewBox="0 0 117.25 124.91">
  <defs>
    <style>
      .cls-1 {
        fill: #f39300;
      }

      .cls-1, .cls-2 {
        stroke-width: 0px;
      }

      .cls-3 {
        stroke: #b8bac0;
      }

      .cls-3, .cls-4 {
        fill: none;
        stroke-miterlimit: 10;
        stroke-width: .5px;
      }

      .cls-4 {
        stroke: #f39300;
      }

      .cls-2 {
        fill: #b8bac0;
      }
    </style>
  </defs>
  <g id="scheme_w" data-name="scheme w">
    <circle class="cls-3" cx="30.33" cy="50.11" r=".71"/>
    <circle class="cls-3" cx="24.66" cy="50.11" r=".71"/>
    <circle class="cls-3" cx="27.5" cy="50.11" r=".71"/>
    <circle class="cls-3" cx="92.41" cy="50.11" r=".71"/>
    <circle class="cls-3" cx="86.74" cy="50.11" r=".71"/>
    <circle class="cls-3" cx="89.57" cy="50.11" r=".71"/>
    <polygon class="cls-3" points="45.92 21.76 48.19 21.76 48.19 19.49 50.46 19.49 50.46 85.82 48.19 85.82 48.19 83.56 45.92 83.56 45.92 88.09 62.93 88.09 62.93 83.55 65.2 83.55 65.2 85.82 67.46 85.82 67.46 19.49 65.2 19.49 65.2 21.76 62.93 21.76 62.93 17.22 45.92 17.22 45.92 21.76"/>
    <polygon class="cls-3" points="55.01 62.3 55.01 71.37 61.53 71.37 61.51 69.1 63.5 69.1 63.5 64.56 61.51 64.56 61.53 62.3 55.01 62.3"/>
    <rect class="cls-3" x="37.55" y="52.09" width="8.5" height="19.84"/>
    <line class="cls-3" x1="41.8" y1="52.09" x2="41.8" y2="71.93"/>
    <line class="cls-3" x1="37.55" y1="54.93" x2="46.05" y2="54.93"/>
    <line class="cls-3" x1="37.55" y1="57.76" x2="46.05" y2="57.76"/>
    <line class="cls-3" x1="37.55" y1="66.26" x2="46.05" y2="66.26"/>
    <line class="cls-3" x1="37.55" y1="69.1" x2="46.05" y2="69.1"/>
    <line class="cls-3" x1="37.55" y1="60.59" x2="46.05" y2="60.59"/>
    <line class="cls-3" x1="37.42" y1="63.38" x2="45.92" y2="63.38"/>
    <polygon class="cls-3" points="28.91 21.76 31.18 21.76 31.18 19.49 33.45 19.49 33.45 85.82 31.18 85.82 31.18 83.56 28.91 83.56 28.91 88.09 45.92 88.09 45.92 83.55 48.19 83.55 48.19 85.82 50.46 85.82 50.46 19.49 48.19 19.49 48.19 21.76 45.92 21.76 45.92 17.22 28.91 17.22 28.91 21.76"/>
    <rect class="cls-3" x="71.56" y="52.09" width="8.5" height="19.84"/>
    <line class="cls-3" x1="75.82" y1="52.09" x2="75.82" y2="71.93"/>
    <line class="cls-3" x1="71.56" y1="54.93" x2="80.07" y2="54.93"/>
    <line class="cls-3" x1="71.56" y1="57.76" x2="80.07" y2="57.76"/>
    <line class="cls-3" x1="71.56" y1="66.26" x2="80.07" y2="66.26"/>
    <line class="cls-3" x1="71.56" y1="69.1" x2="80.07" y2="69.1"/>
    <line class="cls-3" x1="71.56" y1="60.59" x2="80.07" y2="60.59"/>
    <line class="cls-3" x1="71.43" y1="63.38" x2="79.94" y2="63.38"/>
    <polygon class="cls-3" points="62.93 21.76 65.2 21.76 65.2 19.49 67.46 19.49 67.46 85.82 65.2 85.82 65.2 83.56 62.93 83.56 62.93 88.09 79.94 88.09 79.94 83.55 82.2 83.55 82.2 85.82 84.47 85.82 84.47 19.49 82.2 19.49 82.2 21.76 79.94 21.76 79.94 17.22 62.93 17.22 62.93 21.76"/>
  </g>
  <g id="scheme">
    <g>
      <line class="cls-4" y1="44.44" x2="24.82" y2="44.44"/>
      <polygon class="cls-1" points="28.35 44.44 23.37 46.47 24.55 44.44 23.37 42.4 28.35 44.44"/>
    </g>
    <g>
      <line class="cls-4" x1="88.9" y1="44.41" x2="113.72" y2="44.41"/>
      <polygon class="cls-1" points="117.25 44.41 112.27 46.44 113.45 44.41 112.27 42.37 117.25 44.41"/>
    </g>
    <g>
      <line class="cls-4" x1="58.68" y1="99.06" x2="58.68" y2="67.2"/>
      <path class="cls-1" d="m60.56,98.97c0,1.04-.84,1.88-1.88,1.88s-1.88-.84-1.88-1.88.84-1.88,1.88-1.88,1.88.84,1.88,1.88Z"/>
      <path class="cls-1" d="m60.56,67.29c0-1.04-.84-1.88-1.88-1.88s-1.88.84-1.88,1.88.84,1.88,1.88,1.88,1.88-.84,1.88-1.88Z"/>
    </g>
  </g>
  <g id="scheme_letters" data-name="scheme letters">
    <g>
      <path class="cls-2" d="m64.82,93.85h-1.57v1.46h1.75v.44h-2.27v-4.04h2.18v.44h-1.66v1.28h1.57v.43Z"/>
      <path class="cls-2" d="m65.98,92.01v.83h.76v.4h-.76v1.56c0,.36.1.56.4.56.14,0,.24-.02.31-.04l.02.4c-.1.04-.26.07-.47.07-.25,0-.44-.08-.57-.22-.15-.16-.2-.41-.2-.76v-1.58h-.45v-.4h.45v-.7l.52-.14Z"/>
      <path class="cls-2" d="m67.03,91.49h.53v1.81h.01c.08-.15.22-.28.38-.37.16-.09.34-.15.54-.15.39,0,1.01.24,1.01,1.24v1.73h-.53v-1.67c0-.47-.17-.86-.67-.86-.34,0-.61.24-.71.53-.03.07-.04.15-.04.25v1.75h-.53v-4.26Z"/>
      <path class="cls-2" d="m70.35,94.39c.01.71.47,1.01,1,1.01.38,0,.61-.07.8-.15l.09.38c-.19.08-.5.18-.96.18-.89,0-1.43-.59-1.43-1.46s.52-1.56,1.36-1.56c.95,0,1.2.83,1.2,1.37,0,.11-.01.19-.02.25h-2.04Zm1.55-.38c0-.34-.14-.86-.73-.86-.53,0-.77.49-.81.86h1.54Z"/>
      <path class="cls-2" d="m72.76,93.75c0-.34,0-.64-.02-.91h.46l.02.57h.02c.13-.39.45-.64.8-.64.06,0,.1,0,.15.02v.5c-.05-.01-.11-.02-.18-.02-.37,0-.64.28-.71.68-.01.07-.02.16-.02.25v1.55h-.52v-2Z"/>
      <path class="cls-2" d="m74.45,93.63c0-.3,0-.55-.02-.79h.47l.03.48h.01c.14-.28.48-.55.96-.55.4,0,1.03.24,1.03,1.24v1.73h-.53v-1.67c0-.47-.17-.86-.67-.86-.35,0-.62.25-.71.54-.02.07-.04.16-.04.25v1.75h-.53v-2.12Z"/>
      <path class="cls-2" d="m77.77,94.39c.01.71.47,1.01,1,1.01.38,0,.61-.07.8-.15l.09.38c-.19.08-.5.18-.96.18-.89,0-1.43-.59-1.43-1.46s.52-1.56,1.36-1.56c.95,0,1.2.83,1.2,1.37,0,.11-.01.19-.02.25h-2.04Zm1.55-.38c0-.34-.14-.86-.73-.86-.53,0-.77.49-.81.86h1.54Z"/>
      <path class="cls-2" d="m80.82,92.01v.83h.76v.4h-.76v1.56c0,.36.1.56.4.56.14,0,.24-.02.31-.04l.02.4c-.1.04-.26.07-.47.07-.25,0-.44-.08-.57-.22-.15-.16-.2-.41-.2-.76v-1.58h-.45v-.4h.45v-.7l.52-.14Z"/>
    </g>
    <g>
      <path class="cls-2" d="m25.81.81l.67,1.44c.09.2.17.4.25.6h0c.06-.18.12-.37.21-.61l.53-1.42h.46l-.71,1.73c-.19.45-.4.97-.63,1.28-.22.28-.46.42-.77.42-.11,0-.19-.01-.25-.03l.04-.36s.08.02.16.02c.35,0,.56-.34.66-.58.04-.08.02-.12-.02-.21l-1.12-2.27h.5Z"/>
      <path class="cls-2" d="m29.74,4.09c-.12.06-.37.14-.7.14-.73,0-1.21-.5-1.21-1.24s.51-1.29,1.3-1.29c.26,0,.49.06.61.12l-.1.34c-.11-.06-.27-.12-.51-.12-.56,0-.86.41-.86.92,0,.56.36.91.84.91.25,0,.42-.06.54-.12l.08.33Z"/>
      <path class="cls-2" d="m31.97,1.76v.35h-.76v2.07h-.44v-2.07h-.76v-.35h1.95Z"/>
      <path class="cls-2" d="m33.66,4.19l-.04-.31h-.02c-.13.19-.39.36-.74.36-.49,0-.74-.35-.74-.7,0-.59.52-.91,1.46-.9v-.05c0-.2-.06-.56-.55-.56-.23,0-.46.07-.63.18l-.1-.29c.2-.13.49-.22.8-.22.74,0,.92.51.92.99v.91c0,.21,0,.42.04.58h-.4Zm-.07-1.24c-.48,0-1.03.08-1.03.55,0,.29.19.42.42.42.32,0,.52-.2.58-.41.02-.04.03-.1.03-.14v-.42Z"/>
      <path class="cls-2" d="m35.15,1.76v.98h1.15v-.98h.44v2.42h-.44v-1.1h-1.15v1.1h-.44V1.76h.44Z"/>
      <path class="cls-2" d="m38.8,4.19l-.04-.31h-.02c-.13.19-.39.36-.74.36-.49,0-.74-.35-.74-.7,0-.59.52-.91,1.46-.9v-.05c0-.2-.06-.56-.55-.56-.23,0-.46.07-.63.18l-.1-.29c.2-.13.49-.22.8-.22.74,0,.92.51.92.99v.91c0,.21,0,.42.04.58h-.4Zm-.07-1.24c-.48,0-1.03.08-1.03.55,0,.29.19.42.42.42.32,0,.52-.2.58-.41.02-.04.03-.1.03-.14v-.42Z"/>
      <path class="cls-2" d="m39.86,1.79c.17-.03.49-.06.77-.06.41,0,1.08.06,1.08.61,0,.3-.23.49-.51.55h0c.36.06.62.26.62.61,0,.64-.8.72-1.28.72-.27,0-.55-.02-.68-.03V1.79Zm.42,2.1c.12.02.22.02.36.02.3,0,.74-.07.74-.42s-.35-.43-.77-.43h-.32v.83Zm0-1.12h.33c.33,0,.66-.1.66-.38,0-.24-.21-.36-.65-.36-.15,0-.24,0-.34.02v.72Z"/>
      <path class="cls-2" d="m44.22,1.76v2.42h-.44v-2.08h-.83v.63c0,.68-.07,1.14-.38,1.34-.12.09-.25.15-.48.15l-.04-.35c.08-.02.18-.05.24-.1.23-.17.25-.51.25-1.05v-.98h1.68Z"/>
      <path class="cls-2" d="m45.34,1.76v1.02c0,.39,0,.63-.02.97h.01c.15-.29.23-.46.39-.74l.76-1.25h.52v2.42h-.42v-1.03c0-.4,0-.6.03-.99h-.02c-.15.31-.26.51-.4.75-.23.38-.5.84-.76,1.27h-.5V1.76h.42Z"/>
      <path class="cls-2" d="m47.7,1.79c.17-.03.49-.06.77-.06.41,0,1.08.06,1.08.61,0,.3-.23.49-.51.55h0c.36.06.62.26.62.61,0,.64-.8.72-1.28.72-.27,0-.55-.02-.68-.03V1.79Zm.42,2.1c.12.02.22.02.36.02.3,0,.74-.07.74-.42s-.35-.43-.77-.43h-.32v.83Zm0-1.12h.33c.33,0,.66-.1.66-.38,0-.24-.21-.36-.65-.36-.15,0-.24,0-.34.02v.72Z"/>
      <path class="cls-2" d="m51.55,4.19l-.04-.31h-.02c-.13.19-.39.36-.74.36-.49,0-.74-.35-.74-.7,0-.59.52-.91,1.46-.9v-.05c0-.2-.06-.56-.55-.56-.23,0-.46.07-.63.18l-.1-.29c.2-.13.49-.22.8-.22.74,0,.92.51.92.99v.91c0,.21,0,.42.04.58h-.4Zm-.07-1.24c-.48,0-1.03.08-1.03.55,0,.29.19.42.42.42.32,0,.52-.2.58-.41.02-.04.03-.1.03-.14v-.42Z"/>
      <path class="cls-2" d="m54.22,1.76v.35h-.76v2.07h-.44v-2.07h-.76v-.35h1.95Z"/>
      <path class="cls-2" d="m55.03,1.76v.82c.1-.02.27-.02.4-.02.54,0,1.12.17,1.12.82,0,.25-.1.43-.26.56-.26.23-.7.28-1.05.28-.25,0-.47-.01-.65-.04V1.76h.44Zm0,2.12c.08,0,.18.02.33.02.33,0,.76-.11.76-.52s-.44-.51-.77-.51c-.12,0-.22,0-.32.02v.98Z"/>
      <path class="cls-2" d="m59.88,4.09c-.12.06-.37.14-.7.14-.73,0-1.21-.5-1.21-1.24s.51-1.29,1.3-1.29c.26,0,.49.06.61.12l-.1.34c-.11-.06-.27-.12-.51-.12-.56,0-.86.41-.86.92,0,.56.36.91.84.91.25,0,.42-.06.54-.12l.08.33Z"/>
      <path class="cls-2" d="m62.11,1.76v.35h-.76v2.07h-.44v-2.07h-.76v-.35h1.95Z"/>
      <path class="cls-2" d="m62.49,2.55c0-.31,0-.56-.02-.79h.4l.02.42h0c.18-.3.47-.47.86-.47.58,0,1.03.5,1.03,1.23,0,.87-.53,1.3-1.1,1.3-.32,0-.6-.14-.75-.38h0v1.32h-.44v-2.62Zm.44.65c0,.06,0,.12.02.18.08.31.34.52.66.52.47,0,.74-.38.74-.94,0-.49-.25-.9-.72-.9-.3,0-.58.22-.67.55-.02.06-.03.12-.03.18v.42Z"/>
      <path class="cls-2" d="m67.53,2.95c0,.9-.62,1.29-1.21,1.29-.66,0-1.16-.48-1.16-1.25,0-.81.53-1.29,1.2-1.29s1.17.51,1.17,1.25Zm-1.92.02c0,.53.31.93.74.93s.74-.4.74-.94c0-.41-.21-.93-.73-.93s-.75.48-.75.94Z"/>
      <path class="cls-2" d="m69.56,1.76v.36h-1.05v2.07h-.44V1.76h1.49Z"/>
      <path class="cls-2" d="m72.1,2.95c0,.9-.62,1.29-1.21,1.29-.66,0-1.16-.48-1.16-1.25,0-.81.53-1.29,1.2-1.29s1.17.51,1.17,1.25Zm-1.92.02c0,.53.31.93.74.93s.74-.4.74-.94c0-.41-.21-.93-.73-.93s-.75.48-.75.94Z"/>
      <path class="cls-2" d="m75.7,1.76v2.42h-.44v-2.07h-1.13v2.07h-.44V1.76h2Z"/>
      <path class="cls-2" d="m76.66,3.05c.01.6.39.84.83.84.32,0,.51-.05.67-.12l.08.32c-.16.07-.42.15-.81.15-.75,0-1.19-.49-1.19-1.22s.43-1.31,1.14-1.31c.79,0,1,.7,1,1.14,0,.09,0,.16-.01.21h-1.7Zm1.29-.31c0-.28-.12-.72-.61-.72-.45,0-.64.41-.68.72h1.29Z"/>
      <path class="cls-2" d="m78.92,2.55c0-.31,0-.56-.02-.79h.4l.02.42h0c.18-.3.47-.47.86-.47.58,0,1.03.5,1.03,1.23,0,.87-.53,1.3-1.1,1.3-.32,0-.6-.14-.75-.38h0v1.32h-.44v-2.62Zm.44.65c0,.06,0,.12.02.18.08.31.34.52.66.52.47,0,.74-.38.74-.94,0-.49-.25-.9-.72-.9-.3,0-.58.22-.67.55-.02.06-.03.12-.03.18v.42Z"/>
      <path class="cls-2" d="m81.76,1.79c.17-.03.49-.06.77-.06.41,0,1.08.06,1.08.61,0,.3-.23.49-.51.55h0c.36.06.62.26.62.61,0,.64-.8.72-1.28.72-.27,0-.55-.02-.68-.03V1.79Zm.42,2.1c.12.02.22.02.36.02.29,0,.74-.07.74-.42s-.35-.43-.77-.43h-.32v.83Zm0-1.12h.33c.33,0,.66-.1.66-.38,0-.24-.21-.36-.65-.36-.15,0-.24,0-.34.02v.72Z"/>
      <path class="cls-2" d="m84.69,1.76v.83c.09-.02.24-.03.4-.03.52,0,1.05.21,1.05.81,0,.26-.1.43-.25.56-.26.23-.66.28-.98.28-.25,0-.47-.01-.65-.04V1.76h.44Zm0,2.12c.08,0,.18.02.3.02.34,0,.7-.14.7-.52s-.35-.51-.68-.51c-.12,0-.24,0-.33.02v.98Zm2.18-2.12v2.42h-.44V1.76h.44Z"/>
      <path class="cls-2" d="m87.62,1.76h.54l.44,1.22c.06.18.17.48.22.67h0c.05-.18.19-.57.29-.83l.39-1.06h.55l.17,2.42h-.42l-.05-1.16c-.01-.26-.04-.57-.04-.87h-.02c-.06.22-.13.42-.26.79l-.47,1.22h-.32l-.43-1.2c-.07-.23-.18-.58-.24-.81h-.02c0,.29-.03.61-.04.87l-.06,1.15h-.41l.18-2.42Z"/>
      <path class="cls-2" d="m32.7,7.76v1.02c0,.39,0,.63-.02.97h.01c.15-.29.23-.46.39-.74l.76-1.25h.51v2.42h-.42v-1.03c0-.4,0-.6.03-.99h-.02c-.16.31-.26.51-.4.75-.23.38-.5.84-.75,1.27h-.51v-2.42h.42Z"/>
      <path class="cls-2" d="m36.9,7.76v2.42h-.44v-2.08h-.83v.63c0,.68-.07,1.14-.38,1.34-.12.09-.25.15-.48.15l-.04-.35c.08-.02.18-.05.24-.1.23-.17.25-.51.25-1.05v-.98h1.68Z"/>
      <path class="cls-2" d="m38.03,7.76v1.02c0,.39,0,.63-.02.97h.01c.15-.29.23-.46.39-.74l.76-1.25h.52v2.42h-.42v-1.03c0-.4,0-.6.03-.99h-.02c-.15.31-.26.51-.4.75-.23.38-.5.84-.76,1.27h-.5v-2.42h.42Z"/>
      <path class="cls-2" d="m43.44,7.76v2.42h-.44v-2.07h-1.13v2.07h-.44v-2.42h2Z"/>
      <path class="cls-2" d="m46.35,8.95c0,.9-.62,1.29-1.21,1.29-.66,0-1.16-.48-1.16-1.25,0-.81.53-1.29,1.2-1.29s1.17.51,1.17,1.25Zm-1.92.02c0,.53.31.93.74.93s.74-.4.74-.94c0-.41-.21-.93-.73-.93s-.75.48-.75.94Z"/>
      <path class="cls-2" d="m48.63,10.09c-.12.06-.37.14-.7.14-.73,0-1.21-.5-1.21-1.24s.51-1.29,1.3-1.29c.26,0,.49.06.61.12l-.1.34c-.11-.06-.27-.12-.51-.12-.56,0-.86.41-.86.92,0,.56.36.91.84.91.25,0,.42-.06.54-.12l.08.33Z"/>
      <path class="cls-2" d="m51.06,7.76v2.42h-.43v-2.08h-.83v.63c0,.68-.07,1.14-.38,1.34-.12.09-.25.15-.48.15l-.04-.35c.08-.02.18-.05.24-.1.23-.17.25-.51.25-1.05v-.98h1.68Z"/>
      <path class="cls-2" d="m52.03,9.05c.01.6.39.84.83.84.32,0,.51-.05.67-.12l.08.32c-.16.07-.42.15-.81.15-.75,0-1.19-.49-1.19-1.22s.43-1.31,1.14-1.31c.79,0,1,.7,1,1.14,0,.09,0,.16-.01.21h-1.7Zm1.29-.31c0-.28-.12-.72-.61-.72-.45,0-.64.41-.68.72h1.29Z"/>
      <path class="cls-2" d="m56.18,7.76v2.09h.25s-.02,1.1-.02,1.1h-.35l-.02-.77h-1.68l-.02.77h-.35l-.02-1.1h.21c.11-.16.19-.33.24-.5.1-.3.14-.63.14-.97v-.63h1.62Zm-1.23.74c0,.32-.04.63-.12.9-.05.17-.12.32-.2.45h1.12v-1.75h-.8v.4Z"/>
      <path class="cls-2" d="m57.38,7.76v.98h1.15v-.98h.44v2.42h-.44v-1.1h-1.15v1.1h-.44v-2.42h.44Z"/>
      <path class="cls-2" d="m60.09,7.76v1.02c0,.39,0,.63-.02.97h.01c.15-.29.23-.46.39-.74l.76-1.25h.51v2.42h-.42v-1.03c0-.4,0-.6.03-.99h-.02c-.16.31-.26.51-.4.75-.23.38-.5.84-.75,1.27h-.51v-2.42h.42Z"/>
      <path class="cls-2" d="m62.48,7.76h.54l.44,1.22c.06.18.17.48.22.67h0c.05-.18.19-.57.29-.83l.39-1.06h.54l.17,2.42h-.42l-.05-1.16c-.02-.26-.04-.57-.04-.87h-.02c-.06.22-.13.42-.26.79l-.47,1.22h-.32l-.43-1.2c-.08-.23-.18-.58-.24-.81h-.02c0,.29-.03.61-.04.87l-.06,1.15h-.41l.18-2.42Z"/>
      <path class="cls-2" d="m66.7,7.79c.17-.03.49-.06.77-.06.41,0,1.08.06,1.08.61,0,.3-.23.49-.51.55h0c.36.06.62.26.62.61,0,.64-.8.72-1.28.72-.27,0-.55-.02-.68-.03v-2.39Zm.42,2.1c.12.02.22.02.36.02.29,0,.74-.07.74-.42s-.35-.43-.77-.43h-.32v.83Zm0-1.12h.33c.33,0,.66-.1.66-.38,0-.24-.21-.36-.65-.36-.15,0-.24,0-.34.02v.72Z"/>
      <path class="cls-2" d="m71.74,7.76v.36h-1.05v2.07h-.44v-2.42h1.49Z"/>
      <path class="cls-2" d="m72.16,8.55c0-.31,0-.56-.02-.79h.39l.02.42h0c.18-.3.47-.47.86-.47.58,0,1.03.5,1.03,1.23,0,.87-.53,1.3-1.1,1.3-.32,0-.6-.14-.75-.38h0v1.32h-.44v-2.62Zm.44.65c0,.06,0,.12.02.18.08.31.35.52.66.52.47,0,.74-.38.74-.94,0-.49-.25-.9-.72-.9-.3,0-.58.22-.67.55-.02.06-.03.12-.03.18v.42Z"/>
      <path class="cls-2" d="m75.11,7.76l.53,1.43c.06.16.12.35.16.5h0c.05-.15.1-.33.16-.51l.48-1.42h.47l-.66,1.73c-.32.83-.53,1.26-.83,1.52-.22.19-.43.27-.54.29l-.11-.37c.11-.04.26-.11.39-.22.12-.1.27-.27.37-.49.02-.04.04-.08.04-.1s0-.06-.03-.11l-.9-2.23h.48Z"/>
      <path class="cls-2" d="m79.3,7.76v2.42h-.44v-2.07h-1.13v2.07h-.44v-2.42h2Z"/>
      <path class="cls-2" d="m82,7.76v2.42h-.44v-2.07h-1.13v2.07h-.44v-2.42h2Z"/>
      <path class="cls-2" d="m82.96,9.05c0,.6.39.84.83.84.32,0,.51-.05.67-.12l.08.32c-.16.07-.42.15-.81.15-.75,0-1.19-.49-1.19-1.22s.43-1.31,1.14-1.31c.79,0,1,.7,1,1.14,0,.09,0,.16-.01.21h-1.7Zm1.29-.31c0-.28-.11-.72-.61-.72-.45,0-.64.41-.68.72h1.29Z"/>
    </g>
    <g>
      <path class="cls-2" d="m.7,28.83c.23-.05.59-.08.95-.08.52,0,.86.09,1.11.29.21.16.34.4.34.71,0,.39-.26.73-.68.89h0c.38.11.83.43.83,1.03,0,.35-.14.61-.34.81-.28.26-.74.38-1.4.38-.36,0-.64-.02-.81-.05v-3.98Zm.52,1.66h.47c.55,0,.88-.29.88-.68,0-.47-.36-.66-.89-.66-.24,0-.38.02-.46.04v1.3Zm0,1.94c.1.02.25.02.44.02.54,0,1.04-.2,1.04-.79,0-.55-.47-.78-1.04-.78h-.43v1.54Z"/>
      <path class="cls-2" d="m4.14,29.91v1.17h1.38v-1.17h.52v2.9h-.52v-1.31h-1.38v1.31h-.52v-2.9h.52Z"/>
      <path class="cls-2" d="m6.78,29.91l.64,1.71c.06.19.14.42.19.59h.01c.05-.17.11-.4.19-.61l.58-1.7h.56l-.79,2.07c-.38,1-.63,1.5-1,1.82-.26.23-.52.32-.65.34l-.13-.44c.13-.04.31-.13.46-.26.14-.11.32-.32.44-.59.02-.05.04-.1.04-.13s-.01-.07-.04-.14l-1.07-2.67h.58Z"/>
      <path class="cls-2" d="m11.2,29.91v.42h-.9v2.48h-.52v-2.48h-.91v-.42h2.33Z"/>
      <path class="cls-2" d="m11.37,30.86c0-.37-.01-.67-.02-.95h.47l.02.5h.01c.21-.35.56-.56,1.03-.56.7,0,1.23.59,1.23,1.48,0,1.04-.63,1.56-1.32,1.56-.38,0-.72-.17-.89-.46h-.01v1.58h-.52v-3.14Zm.52.77c0,.08.01.15.02.22.1.37.41.62.79.62.56,0,.88-.46.88-1.12,0-.58-.31-1.08-.86-1.08-.36,0-.7.26-.8.65-.02.07-.04.14-.04.22v.5Z"/>
      <path class="cls-2" d="m14.78,31.46c.01.71.47,1.01,1,1.01.38,0,.61-.07.8-.15l.09.38c-.19.08-.5.18-.96.18-.89,0-1.43-.59-1.43-1.46s.52-1.56,1.36-1.56c.95,0,1.2.83,1.2,1.37,0,.11-.01.19-.02.25h-2.04Zm1.55-.38c0-.34-.14-.86-.73-.86-.53,0-.77.49-.81.86h1.54Z"/>
      <path class="cls-2" d="m17.7,29.91v1.17h1.38v-1.17h.52v2.9h-.52v-1.31h-1.38v1.31h-.52v-2.9h.52Z"/>
      <path class="cls-2" d="m20.67,29.91v1.17h1.38v-1.17h.52v2.9h-.52v-1.31h-1.38v1.31h-.52v-2.9h.52Z"/>
      <path class="cls-2" d="m25.28,32.81h-.52v-1.22h-.39c-.22,0-.37.06-.49.16-.22.17-.29.53-.41.82-.04.09-.08.17-.12.24h-.56c.07-.1.13-.2.18-.33.13-.28.2-.66.46-.88.09-.08.2-.14.33-.17v-.02c-.38-.04-.77-.28-.77-.72,0-.3.16-.5.38-.63.24-.14.59-.2.97-.2.35,0,.68.03.94.06v2.88Zm-.52-2.55c-.13-.02-.25-.03-.44-.03-.36,0-.79.1-.79.5,0,.37.46.5.77.5h.45v-.98Z"/>
      <path class="cls-2" d="m27.98,32.81h-.52v-1.22h-.39c-.22,0-.37.06-.49.16-.21.17-.29.53-.41.82-.04.09-.08.17-.12.24h-.56c.06-.1.12-.2.18-.33.12-.28.2-.66.46-.88.09-.08.2-.14.33-.17v-.02c-.38-.04-.77-.28-.77-.72,0-.3.16-.5.38-.63.24-.14.59-.2.97-.2.35,0,.68.03.94.06v2.88Zm-.52-2.55c-.13-.02-.25-.03-.44-.03-.36,0-.79.1-.79.5,0,.37.46.5.77.5h.45v-.98Z"/>
      <path class="cls-2" d="m8.75,37.11v2.49h1.01v-2.49h.52v2.49h1.01v-2.49h.52v2.9h-3.58v-2.9h.52Z"/>
      <path class="cls-2" d="m12.87,37.11v1.22c0,.46,0,.75-.03,1.16h.02c.17-.35.28-.55.47-.89l.91-1.5h.62v2.9h-.5v-1.23c0-.47.01-.72.04-1.19h-.02c-.19.37-.31.61-.48.9-.28.45-.59,1.01-.9,1.52h-.61v-2.9h.5Z"/>
      <path class="cls-2" d="m15.91,37.11v1.17h1.38v-1.17h.52v2.9h-.52v-1.31h-1.38v1.31h-.52v-2.9h.52Z"/>
      <path class="cls-2" d="m19.99,40.02l-.04-.37h-.02c-.16.23-.47.43-.89.43-.59,0-.89-.41-.89-.83,0-.7.62-1.09,1.75-1.08v-.06c0-.24-.07-.67-.66-.67-.27,0-.55.08-.76.22l-.12-.35c.24-.16.59-.26.95-.26.89,0,1.1.61,1.1,1.19v1.09c0,.25.01.5.05.7h-.48Zm-.08-1.48c-.58-.01-1.23.09-1.23.65,0,.34.23.5.5.5.38,0,.62-.24.7-.49.02-.05.03-.11.03-.17v-.5Z"/>
    </g>
    <g>
      <path class="cls-2" d="m89.6,28.8c.23-.05.59-.08.95-.08.52,0,.86.09,1.11.29.21.16.34.4.34.71,0,.39-.26.73-.68.89h0c.38.11.83.43.83,1.03,0,.35-.14.61-.34.81-.28.26-.74.38-1.4.38-.36,0-.64-.02-.81-.05v-3.98Zm.52,1.66h.47c.55,0,.88-.29.88-.68,0-.47-.36-.66-.89-.66-.24,0-.38.02-.46.04v1.3Zm0,1.94c.1.02.25.02.44.02.54,0,1.04-.2,1.04-.79,0-.55-.47-.78-1.04-.78h-.43v1.54Z"/>
      <path class="cls-2" d="m93.04,29.88v1.17h1.38v-1.17h.52v2.9h-.52v-1.31h-1.38v1.31h-.52v-2.9h.52Z"/>
      <path class="cls-2" d="m95.68,29.88l.64,1.71c.07.19.14.42.19.59h.01c.05-.17.11-.4.19-.61l.58-1.7h.56l-.79,2.07c-.38,1-.64,1.5-1,1.82-.26.23-.52.32-.65.34l-.13-.44c.13-.04.31-.13.46-.26.14-.11.32-.32.44-.59.02-.05.04-.1.04-.13s-.01-.07-.04-.14l-1.07-2.67h.58Z"/>
      <path class="cls-2" d="m100.11,29.88v.42h-.91v2.48h-.52v-2.48h-.91v-.42h2.33Z"/>
      <path class="cls-2" d="m100.27,30.83c0-.37-.01-.67-.02-.95h.47l.02.5h.01c.22-.35.56-.56,1.03-.56.7,0,1.23.59,1.23,1.48,0,1.04-.64,1.56-1.32,1.56-.38,0-.72-.17-.89-.46h-.01v1.58h-.52v-3.14Zm.52.77c0,.08.01.15.02.22.1.37.41.62.79.62.56,0,.88-.46.88-1.12,0-.58-.31-1.08-.86-1.08-.36,0-.7.26-.8.65-.02.07-.04.14-.04.22v.5Z"/>
      <path class="cls-2" d="m103.68,31.43c.01.71.47,1.01,1,1.01.38,0,.61-.07.8-.15l.09.38c-.19.08-.5.18-.96.18-.89,0-1.43-.59-1.43-1.46s.52-1.56,1.36-1.56c.95,0,1.2.83,1.2,1.37,0,.11-.01.19-.02.25h-2.04Zm1.55-.38c0-.34-.14-.86-.73-.86-.53,0-.77.49-.81.86h1.54Z"/>
      <path class="cls-2" d="m106.6,29.88v1.17h1.38v-1.17h.52v2.9h-.52v-1.31h-1.38v1.31h-.52v-2.9h.52Z"/>
      <path class="cls-2" d="m109.57,29.88v1.17h1.38v-1.17h.52v2.9h-.52v-1.31h-1.38v1.31h-.52v-2.9h.52Z"/>
      <path class="cls-2" d="m114.18,32.78h-.52v-1.22h-.39c-.22,0-.37.06-.49.16-.22.17-.29.53-.41.82-.04.09-.08.17-.12.24h-.56c.07-.1.13-.2.18-.33.13-.28.2-.66.46-.88.09-.08.2-.14.33-.17v-.02c-.38-.04-.77-.28-.77-.72,0-.3.16-.5.38-.63.24-.14.59-.2.97-.2.35,0,.68.03.94.06v2.88Zm-.52-2.55c-.13-.02-.25-.03-.44-.03-.36,0-.79.1-.79.5,0,.37.46.5.77.5h.45v-.98Z"/>
      <path class="cls-2" d="m116.88,32.78h-.52v-1.22h-.39c-.22,0-.37.06-.49.16-.22.17-.29.53-.41.82-.04.09-.08.17-.12.24h-.56c.07-.1.12-.2.18-.33.13-.28.2-.66.46-.88.09-.08.2-.14.33-.17v-.02c-.38-.04-.77-.28-.77-.72,0-.3.16-.5.38-.63.24-.14.59-.2.97-.2.35,0,.68.03.94.06v2.88Zm-.52-2.55c-.13-.02-.25-.03-.44-.03-.36,0-.79.1-.79.5,0,.37.46.5.77.5h.45v-.98Z"/>
      <path class="cls-2" d="m97.66,37.08v2.49h1.01v-2.49h.52v2.49h1.01v-2.49h.52v2.9h-3.58v-2.9h.52Z"/>
      <path class="cls-2" d="m101.77,37.08v1.22c0,.46,0,.75-.03,1.16h.02c.17-.35.28-.55.47-.89l.91-1.5h.62v2.9h-.5v-1.23c0-.47.01-.72.04-1.19h-.02c-.19.37-.31.61-.48.9-.28.45-.59,1.01-.91,1.52h-.61v-2.9h.5Z"/>
      <path class="cls-2" d="m104.81,37.08v1.17h1.38v-1.17h.52v2.9h-.52v-1.31h-1.38v1.31h-.52v-2.9h.52Z"/>
      <path class="cls-2" d="m108.89,39.98l-.04-.37h-.02c-.16.23-.47.43-.89.43-.59,0-.89-.41-.89-.83,0-.7.62-1.09,1.75-1.08v-.06c0-.24-.07-.67-.66-.67-.27,0-.55.08-.75.22l-.12-.35c.24-.16.59-.26.95-.26.89,0,1.1.61,1.1,1.19v1.09c0,.25.01.5.05.7h-.48Zm-.08-1.48c-.58-.01-1.23.09-1.23.65,0,.34.23.5.5.5.38,0,.62-.24.7-.49.02-.05.03-.11.03-.17v-.5Z"/>
    </g>
    <g>
      <path class="cls-2" d="m40.68,102.48c.23-.05.59-.08.95-.08.52,0,.86.09,1.11.29.21.16.34.4.34.71,0,.39-.26.73-.68.89h0c.38.11.83.43.83,1.03,0,.35-.14.61-.34.81-.28.26-.74.38-1.4.38-.36,0-.63-.02-.81-.05v-3.98Zm.52,1.66h.47c.55,0,.88-.29.88-.68,0-.47-.36-.66-.89-.66-.24,0-.38.02-.46.04v1.3Zm0,1.94c.1.02.25.02.44.02.54,0,1.04-.2,1.04-.79,0-.55-.47-.78-1.04-.78h-.43v1.54Z"/>
      <path class="cls-2" d="m44.13,103.56v1.17h1.38v-1.17h.52v2.9h-.52v-1.31h-1.38v1.31h-.52v-2.9h.52Z"/>
      <path class="cls-2" d="m46.89,105.11c.01.71.47,1.01.99,1.01.38,0,.61-.07.8-.15l.09.38c-.19.08-.5.18-.96.18-.89,0-1.43-.59-1.43-1.46s.52-1.56,1.36-1.56c.95,0,1.2.83,1.2,1.37,0,.11-.01.19-.02.25h-2.04Zm1.55-.38c0-.34-.14-.86-.73-.86-.53,0-.77.49-.81.86h1.54Z"/>
      <path class="cls-2" d="m49.8,103.56v2.49h1.01v-2.49h.52v2.49h1.01v-2.49h.52v2.9h-3.58v-2.9h.52Z"/>
      <path class="cls-2" d="m53.94,103.56v1.17h1.38v-1.17h.52v2.9h-.52v-1.31h-1.38v1.31h-.52v-2.9h.52Z"/>
      <path class="cls-2" d="m56.7,105.11c.01.71.47,1.01,1,1.01.38,0,.61-.07.8-.15l.09.38c-.19.08-.5.18-.96.18-.89,0-1.43-.59-1.43-1.46s.52-1.56,1.36-1.56c.95,0,1.2.83,1.2,1.37,0,.11-.01.19-.02.25h-2.04Zm1.55-.38c0-.34-.14-.86-.73-.86-.53,0-.77.49-.81.86h1.54Z"/>
      <path class="cls-2" d="m59.4,105.11c.01.71.47,1.01.99,1.01.38,0,.61-.07.8-.15l.09.38c-.19.08-.5.18-.96.18-.89,0-1.43-.59-1.43-1.46s.52-1.56,1.36-1.56c.95,0,1.2.83,1.2,1.37,0,.11-.01.19-.02.25h-2.04Zm1.55-.38c0-.34-.14-.86-.73-.86-.53,0-.77.49-.81.86h1.54Z"/>
      <path class="cls-2" d="m62.98,103.56l.63,1.71c.07.19.14.42.19.59h.01c.05-.17.12-.4.19-.61l.57-1.7h.56l-.79,2.07c-.38,1-.64,1.5-1,1.82-.26.23-.52.32-.65.34l-.13-.44c.13-.04.3-.13.46-.26.14-.11.32-.32.44-.59.03-.05.04-.1.04-.13s-.01-.07-.04-.14l-1.07-2.67h.58Z"/>
      <path class="cls-2" d="m67.33,106.36c-.14.07-.45.17-.83.17-.88,0-1.45-.59-1.45-1.48s.61-1.54,1.56-1.54c.31,0,.59.08.73.15l-.12.41c-.12-.07-.32-.14-.61-.14-.67,0-1.03.49-1.03,1.1,0,.67.43,1.09,1.01,1.09.3,0,.5-.08.65-.14l.09.4Z"/>
      <path class="cls-2" d="m69.7,103.56v.42h-.91v2.48h-.52v-2.48h-.9v-.42h2.33Z"/>
      <path class="cls-2" d="m70.93,104.65v.39h-1.48v-.39h1.48Z"/>
      <path class="cls-2" d="m71.24,103.6c.2-.04.58-.07.92-.07.48,0,1.29.08,1.29.73,0,.36-.28.58-.61.65h0c.43.07.74.31.74.73,0,.76-.96.86-1.53.86-.32,0-.66-.02-.81-.04v-2.87Zm.5,2.52c.15.02.26.02.43.02.35,0,.88-.08.88-.5s-.42-.51-.92-.51h-.38v.99Zm0-1.34h.39c.39,0,.79-.11.79-.46,0-.29-.25-.43-.78-.43-.17,0-.28.01-.41.02v.86Z"/>
      <path class="cls-2" d="m76.57,104.99c0,1.07-.74,1.54-1.45,1.54-.79,0-1.39-.58-1.39-1.49,0-.97.63-1.54,1.44-1.54s1.4.61,1.4,1.49Zm-2.3.03c0,.64.37,1.12.88,1.12s.88-.47.88-1.13c0-.49-.25-1.12-.87-1.12s-.89.58-.89,1.13Z"/>
      <path class="cls-2" d="m76.5,106.71l1.67-4.35h.41l-1.68,4.35h-.4Z"/>
      <path class="cls-2" d="m37.57,110.76v2.9h-.53v-2.48h-1.35v2.48h-.52v-2.9h2.4Z"/>
      <path class="cls-2" d="m38.13,111.71c0-.37-.01-.67-.02-.95h.47l.02.5h.01c.21-.35.56-.56,1.03-.56.7,0,1.23.59,1.23,1.48,0,1.04-.63,1.56-1.32,1.56-.38,0-.72-.17-.89-.46h-.01v1.58h-.52v-3.14Zm.52.77c0,.08.01.15.02.22.1.37.41.62.79.62.56,0,.88-.46.88-1.12,0-.58-.31-1.08-.86-1.08-.36,0-.7.26-.8.65-.02.07-.04.14-.04.22v.5Z"/>
      <path class="cls-2" d="m41.53,112.31c.01.71.47,1.01,1,1.01.38,0,.61-.07.8-.15l.09.38c-.19.08-.5.18-.96.18-.89,0-1.43-.59-1.43-1.46s.52-1.56,1.36-1.56c.95,0,1.2.83,1.2,1.37,0,.11-.01.19-.02.25h-2.04Zm1.55-.38c0-.34-.14-.86-.73-.86-.53,0-.77.49-.81.86h1.54Z"/>
      <path class="cls-2" d="m46.21,110.76v2.51h.3s-.03,1.32-.03,1.32h-.41l-.03-.92h-2.01l-.03.92h-.41l-.03-1.31h.25c.13-.19.22-.39.29-.6.11-.36.17-.75.17-1.16v-.76h1.94Zm-1.47.88c0,.38-.05.76-.15,1.08-.06.2-.14.38-.23.54h1.34v-2.1h-.95v.48Z"/>
      <path class="cls-2" d="m47.35,110.76v.99c.12-.02.28-.04.47-.04.62,0,1.25.26,1.25.97,0,.31-.12.52-.3.67-.32.27-.79.34-1.17.34-.29,0-.56-.02-.78-.04v-2.89h.52Zm0,2.54c.1.01.22.02.37.02.4,0,.84-.17.84-.62s-.42-.61-.81-.61c-.15,0-.28.01-.39.03v1.18Zm2.62-2.54v2.9h-.52v-2.9h.52Z"/>
      <path class="cls-2" d="m52.78,110.76v2.51h.3s-.03,1.32-.03,1.32h-.41l-.02-.92h-2.01l-.02.92h-.41l-.02-1.31h.25c.12-.19.22-.39.29-.6.11-.36.17-.75.17-1.16v-.76h1.94Zm-1.47.88c0,.38-.05.76-.15,1.08-.06.2-.14.38-.23.54h1.34v-2.1h-.95v.48Z"/>
      <path class="cls-2" d="m53.59,110.76l.64,1.71c.06.19.14.42.19.59h.01c.05-.17.11-.4.19-.61l.58-1.7h.56l-.79,2.07c-.38,1-.63,1.5-1,1.82-.26.23-.52.32-.65.34l-.13-.44c.13-.04.31-.13.46-.26.14-.11.32-.32.44-.59.02-.05.04-.1.04-.13s-.01-.07-.04-.14l-1.07-2.67h.58Z"/>
      <path class="cls-2" d="m56.42,110.76v2.49h1.01v-2.49h.52v2.49h1.01v-2.49h.52v2.51h.29s-.03,1.32-.03,1.32h-.41l-.02-.92h-3.41v-2.9h.52Z"/>
      <path class="cls-2" d="m61.72,113.67l-.04-.37h-.02c-.16.23-.47.43-.89.43-.59,0-.89-.41-.89-.83,0-.7.62-1.09,1.74-1.08v-.06c0-.24-.07-.67-.66-.67-.27,0-.55.08-.75.22l-.12-.35c.24-.16.59-.26.95-.26.89,0,1.1.61,1.1,1.19v1.09c0,.25.01.5.05.7h-.48Zm-.08-1.48c-.57-.01-1.23.09-1.23.65,0,.34.23.5.5.5.38,0,.62-.24.7-.49.02-.05.03-.11.03-.17v-.5Z"/>
      <path class="cls-2" d="m64.87,113.67h-.52v-1.22h-.39c-.22,0-.37.06-.49.16-.21.17-.29.53-.41.82-.04.09-.08.17-.12.24h-.56c.06-.1.12-.2.18-.33.12-.28.2-.66.46-.88.09-.08.2-.14.33-.17v-.02c-.38-.04-.77-.28-.77-.72,0-.3.16-.5.38-.63.24-.14.59-.2.97-.2.35,0,.68.03.94.06v2.88Zm-.52-2.55c-.13-.02-.25-.03-.44-.03-.36,0-.79.1-.79.5,0,.37.46.5.77.5h.45v-.98Z"/>
      <path class="cls-2" d="m68.17,110.76v.43h-1.26v2.48h-.52v-2.9h1.78Z"/>
      <path class="cls-2" d="m68.36,111.71c0-.37-.01-.67-.02-.95h.47l.02.5h.01c.22-.35.56-.56,1.03-.56.7,0,1.23.59,1.23,1.48,0,1.04-.64,1.56-1.32,1.56-.38,0-.72-.17-.89-.46h-.01v1.58h-.52v-3.14Zm.52.77c0,.08.01.15.03.22.1.37.41.62.79.62.56,0,.88-.46.88-1.12,0-.58-.3-1.08-.86-1.08-.36,0-.7.26-.8.65-.02.07-.04.14-.04.22v.5Z"/>
      <path class="cls-2" d="m71.61,110.76l.64,1.71c.06.19.14.42.19.59h.01c.05-.17.11-.4.19-.61l.58-1.7h.56l-.79,2.07c-.38,1-.63,1.5-1,1.82-.26.23-.52.32-.65.34l-.13-.44c.13-.04.31-.13.46-.26.14-.11.32-.32.44-.59.02-.05.04-.1.04-.13s-.01-.07-.04-.14l-1.07-2.67h.58Z"/>
      <path class="cls-2" d="m76.33,110.76v2.9h-.53v-2.48h-1.35v2.48h-.52v-2.9h2.4Z"/>
      <path class="cls-2" d="m79.28,110.76v2.9h-.53v-2.48h-1.35v2.48h-.52v-2.9h2.4Z"/>
      <path class="cls-2" d="m81.44,113.67l-.04-.37h-.02c-.16.23-.47.43-.89.43-.59,0-.89-.41-.89-.83,0-.7.62-1.09,1.75-1.08v-.06c0-.24-.07-.67-.66-.67-.27,0-.55.08-.76.22l-.12-.35c.24-.16.59-.26.95-.26.89,0,1.1.61,1.1,1.19v1.09c0,.25.01.5.05.7h-.48Zm-.08-1.48c-.58-.01-1.23.09-1.23.65,0,.34.23.5.5.5.38,0,.62-.24.7-.49.02-.05.03-.11.03-.17v-.5Z"/>
      <path class="cls-2" d="m81.99,113.91l1.67-4.35h.41l-1.68,4.35h-.4Z"/>
      <path class="cls-2" d="m37.2,117.96v2.9h-.53v-2.48h-1.35v2.48h-.52v-2.9h2.4Z"/>
      <path class="cls-2" d="m40.38,119.39c0,1.07-.74,1.54-1.45,1.54-.79,0-1.39-.58-1.39-1.49,0-.97.64-1.54,1.44-1.54s1.4.61,1.4,1.49Zm-2.3.03c0,.64.37,1.12.88,1.12s.88-.47.88-1.13c0-.49-.25-1.12-.87-1.12s-.89.58-.89,1.13Z"/>
      <path class="cls-2" d="m42.82,120.76c-.14.07-.45.17-.83.17-.88,0-1.45-.59-1.45-1.48s.61-1.54,1.56-1.54c.31,0,.59.08.73.15l-.12.41c-.12-.07-.32-.14-.61-.14-.67,0-1.03.49-1.03,1.1,0,.67.43,1.09,1.01,1.09.3,0,.5-.08.65-.14l.09.4Z"/>
      <path class="cls-2" d="m45.44,117.96v2.9h-.52v-2.49h-.99v.76c0,.82-.08,1.36-.46,1.61-.14.11-.3.18-.57.18l-.05-.41c.1-.02.21-.06.29-.12.27-.2.3-.61.3-1.25v-1.17h2.01Z"/>
      <path class="cls-2" d="m46.3,119.51c.01.71.47,1.01.99,1.01.38,0,.61-.07.8-.15l.09.38c-.19.08-.5.18-.96.18-.89,0-1.43-.59-1.43-1.46s.52-1.56,1.36-1.56c.95,0,1.2.83,1.2,1.37,0,.11-.01.19-.02.25h-2.04Zm1.55-.38c0-.34-.14-.86-.73-.86-.53,0-.77.49-.81.86h1.54Z"/>
      <path class="cls-2" d="m50.98,117.96v2.51h.3s-.03,1.32-.03,1.32h-.41l-.02-.92h-2.01l-.02.92h-.41l-.02-1.31h.25c.12-.19.22-.39.29-.6.11-.36.17-.75.17-1.16v-.76h1.94Zm-1.47.88c0,.38-.05.76-.15,1.08-.06.2-.14.38-.23.54h1.34v-2.1h-.95v.48Z"/>
      <path class="cls-2" d="m51.78,117.96l.63,1.71c.07.19.14.42.19.59h.01c.05-.17.12-.4.19-.61l.57-1.7h.56l-.79,2.07c-.38,1-.64,1.51-1,1.82-.26.23-.52.32-.65.34l-.13-.44c.13-.04.3-.13.46-.26.14-.11.32-.32.44-.59.03-.05.04-.1.04-.13s-.01-.07-.04-.14l-1.07-2.67h.58Z"/>
      <path class="cls-2" d="m54.62,117.96v1.22h.5c.09-.77.59-1.29,1.29-1.29.76,0,1.27.6,1.27,1.49,0,.94-.58,1.54-1.31,1.54s-1.21-.52-1.27-1.34h-.48v1.28h-.52v-2.9h.52Zm2.53,1.44c0-.55-.24-1.11-.76-1.11s-.78.55-.78,1.14.26,1.11.77,1.11c.54,0,.77-.59.77-1.14Z"/>
      <path class="cls-2" d="m58.55,117.96v2.49h1.01v-2.49h.52v2.49h1.01v-2.49h.52v2.51h.29s-.03,1.32-.03,1.32h-.41l-.02-.92h-3.41v-2.9h.52Z"/>
      <path class="cls-2" d="m63.85,120.87l-.04-.37h-.02c-.16.23-.47.43-.89.43-.59,0-.89-.41-.89-.83,0-.7.62-1.09,1.74-1.08v-.06c0-.24-.07-.67-.66-.67-.27,0-.55.08-.75.22l-.12-.35c.24-.16.59-.26.95-.26.89,0,1.1.61,1.1,1.19v1.09c0,.25.01.5.05.7h-.48Zm-.08-1.48c-.57-.01-1.23.09-1.23.65,0,.34.23.5.5.5.38,0,.62-.24.7-.49.02-.05.03-.11.03-.17v-.5Z"/>
      <path class="cls-2" d="m66.99,120.87h-.52v-1.22h-.39c-.22,0-.37.06-.49.16-.21.17-.29.53-.41.82-.04.09-.08.17-.12.24h-.56c.06-.1.12-.2.18-.33.12-.28.2-.66.46-.88.09-.08.2-.14.33-.17v-.02c-.38-.04-.77-.28-.77-.72,0-.3.16-.5.38-.63.24-.14.59-.2.97-.2.35,0,.68.03.94.06v2.88Zm-.52-2.55c-.13-.02-.25-.03-.44-.03-.36,0-.79.1-.79.5,0,.37.46.5.77.5h.45v-.98Z"/>
      <path class="cls-2" d="m70.29,117.96v.43h-1.26v2.48h-.52v-2.9h1.78Z"/>
      <path class="cls-2" d="m70.49,118.91c0-.37-.01-.67-.02-.95h.47l.02.5h.01c.22-.35.56-.56,1.03-.56.7,0,1.23.59,1.23,1.48,0,1.04-.64,1.56-1.32,1.56-.38,0-.72-.17-.89-.46h-.01v1.58h-.52v-3.14Zm.52.77c0,.08.01.15.03.22.1.37.41.62.79.62.56,0,.88-.46.88-1.12,0-.58-.3-1.08-.86-1.08-.36,0-.7.26-.8.65-.02.07-.04.14-.04.22v.5Z"/>
      <path class="cls-2" d="m73.74,117.96l.64,1.71c.06.19.14.42.19.59h.01c.05-.17.11-.4.19-.61l.58-1.7h.56l-.79,2.07c-.38,1-.63,1.51-1,1.82-.26.23-.52.32-.65.34l-.13-.44c.13-.04.31-.13.46-.26.14-.11.32-.32.44-.59.02-.05.04-.1.04-.13s-.01-.07-.04-.14l-1.07-2.67h.58Z"/>
      <path class="cls-2" d="m78.46,117.96v2.9h-.53v-2.48h-1.35v2.48h-.52v-2.9h2.4Z"/>
      <path class="cls-2" d="m81.4,117.96v2.9h-.53v-2.48h-1.35v2.48h-.52v-2.9h2.4Z"/>
      <path class="cls-2" d="m83.57,120.87l-.04-.37h-.02c-.16.23-.47.43-.89.43-.59,0-.89-.41-.89-.83,0-.7.62-1.09,1.75-1.08v-.06c0-.24-.07-.67-.66-.67-.27,0-.55.08-.76.22l-.12-.35c.24-.16.59-.26.95-.26.89,0,1.1.61,1.1,1.19v1.09c0,.25.01.5.05.7h-.48Zm-.08-1.48c-.58-.01-1.23.09-1.23.65,0,.34.23.5.5.5.38,0,.62-.24.7-.49.02-.05.03-.11.03-.17v-.5Z"/>
    </g>
    <rect class="cls-3" x="20.98" y="99.15" width="76.54" height="25.51"/>
    <g>
      <path class="cls-2" d="m51.41,79.52c.23.14.58.26.94.26.53,0,.85-.28.85-.69,0-.38-.21-.59-.76-.8-.66-.23-1.07-.58-1.07-1.15,0-.63.52-1.1,1.31-1.1.41,0,.71.1.89.2l-.14.43c-.13-.07-.4-.19-.77-.19-.55,0-.76.33-.76.61,0,.38.25.56.8.78.68.26,1.03.59,1.03,1.19,0,.62-.46,1.16-1.41,1.16-.39,0-.82-.11-1.03-.26l.13-.44Z"/>
      <path class="cls-2" d="m54.14,76.16c.25-.04.58-.08,1-.08.52,0,.89.12,1.13.34.22.19.35.49.35.85s-.11.65-.31.86c-.28.29-.73.44-1.24.44-.16,0-.3,0-.42-.04v1.62h-.52v-3.99Zm.52,1.95c.12.03.26.04.43.04.63,0,1.01-.31,1.01-.86s-.38-.79-.95-.79c-.23,0-.4.02-.49.04v1.57Z"/>
      <path class="cls-2" d="m57.8,76.56h-1.23v-.44h2.99v.44h-1.23v3.6h-.53v-3.6Z"/>
      <path class="cls-2" d="m63.12,78.38c-.03-.56-.07-1.24-.06-1.75h-.02c-.14.47-.31.98-.51,1.54l-.71,1.96h-.39l-.65-1.92c-.19-.57-.35-1.09-.47-1.57h-.01c-.01.5-.04,1.18-.08,1.79l-.11,1.73h-.5l.28-4.04h.66l.69,1.96c.17.5.3.94.41,1.36h.02c.1-.41.24-.85.43-1.36l.72-1.96h.67l.25,4.04h-.51l-.1-1.77Z"/>
    </g>
  </g>
</svg>