<?xml version="1.0" encoding="UTF-8"?>
<svg id="Layer_1" xmlns="http://www.w3.org/2000/svg" version="1.1" viewBox="0 0 127.6 141.7">
  <!-- Generator: Adobe Illustrator 29.1.0, SVG Export Plug-In . SVG Version: 2.1.0 Build 142)  -->
  <defs>
    <style>
      .st0, .st1, .st2 {
        fill: none;
      }

      .st1, .st3, .st4 {
        stroke: #767576;
        stroke-width: .5px;
      }

      .st1, .st3, .st4, .st2 {
        stroke-miterlimit: 10;
      }

      .st5 {
        isolation: isolate;
      }

      .st3 {
        fill: #f7941d;
      }

      .st4 {
        fill: #bcbec0;
      }

      .st2 {
        stroke: #000;
        stroke-width: .2px;
      }

      .st6 {
        fill: #767576;
      }
    </style>
  </defs>
  <g id="scheme_w">
    <polyline class="st1" points="14.3 27.4 7.3 27.4 7.3 15.3 98.4 15.5 98.4 34.6 106 34.6"/>
    <polyline class="st1" points="69.2 26.6 82 26.6 82 38.5 95.2 38.5"/>
    <polyline class="st1" points="64.6 39.1 78.4 39.1 78.4 83.3 106 83.3"/>
    <line class="st1" x1="88.4" y1="117.3" x2="73.1" y2="117.3"/>
    <line class="st1" x1="10.2" y1="39.1" x2="4.5" y2="39.1"/>
    <line class="st1" x1="4.5" y1="12.5" x2="4.5" y2="39.1"/>
    <line class="st1" x1="4.5" y1="12.5" x2="84.5" y2="12.5"/>
    <line class="st1" x1="84.5" y1="61.2" x2="84.5" y2="12.5"/>
    <line class="st1" x1="94.7" y1="61.2" x2="84.5" y2="61.2"/>
    <line class="st1" x1="10.8" y1="117.3" x2="7.4" y2="117.3"/>
    <line class="st1" x1="7.4" y1="117.3" x2="7.4" y2="127"/>
    <line class="st1" x1="7.4" y1="127" x2="83.9" y2="127"/>
    <line class="st1" x1="83.9" y1="127" x2="83.9" y2="106"/>
    <line class="st1" x1="83.9" y1="106" x2="94.7" y2="106"/>
    <line class="st1" x1="68.6" y1="134.9" x2="68.6" y2="127"/>
    <line class="st1" x1="68.6" y1="134.6" x2="77.4" y2="134.6"/>
    <line class="st1" x1="77.6" y1="138.9" x2="77.6" y2="130.4"/>
    <line class="st1" x1="79.7" y1="132.5" x2="79.7" y2="136.8"/>
    <line class="st1" x1="88.4" y1="134.6" x2="79.9" y2="134.6"/>
    <line class="st1" x1="94.7" y1="26.6" x2="88.4" y2="26.6"/>
    <line class="st1" x1="94.7" y1="49.3" x2="88.4" y2="49.3"/>
    <line class="st1" x1="94.7" y1="71.4" x2="88.4" y2="71.4"/>
    <line class="st1" x1="94.7" y1="94.7" x2="88.4" y2="94.7"/>
    <line class="st1" x1="94.7" y1="117.3" x2="88.4" y2="117.3"/>
    <path class="st1" d="M88.4,117v17.9"/>
    <path class="st1" d="M88.4,26.6c-.4,27.1-.4,53.1,0,79.6"/>
  </g>
  <g id="_Точки">
    <circle class="st6" cx="88.4" cy="49.3" r=".6"/>
    <circle class="st6" cx="88.4" cy="71.4" r=".6"/>
    <circle class="st6" cx="88.4" cy="94.7" r=".6"/>
    <circle class="st6" cx="88.4" cy="117.3" r=".6"/>
    <circle class="st6" cx="68.6" cy="127" r=".6"/>
  </g>
  <g id="scheme">
    <rect class="st4" x="42" y="21.4" width="22.7" height="11.3"/>
    <rect class="st3" x="10.8" y="21.4" width="8.5" height="11.3"/>
    <rect class="st3" x="64.7" y="21.4" width="8.5" height="11.3"/>
    <rect class="st4" x="42" y="32.8" width="22.7" height="11.3"/>
    <rect class="st3" x="10.8" y="32.8" width="8.5" height="11.3"/>
    <rect class="st3" x="64.7" y="32.8" width="8.5" height="11.3"/>
    <rect class="st4" x="42" y="43.9" width="22.7" height="11.3"/>
    <rect class="st3" x="10.8" y="43.9" width="8.5" height="11.3"/>
    <rect class="st3" x="64.7" y="43.9" width="8.5" height="11.3"/>
    <rect class="st4" x="42" y="55.3" width="22.7" height="11.3"/>
    <rect class="st3" x="10.8" y="55.3" width="8.5" height="11.3"/>
    <rect class="st3" x="64.7" y="55.3" width="8.5" height="11.3"/>
    <rect class="st4" x="42" y="66.4" width="22.7" height="11.3"/>
    <rect class="st3" x="10.8" y="66.4" width="8.5" height="11.3"/>
    <rect class="st3" x="64.7" y="66.4" width="8.5" height="11.3"/>
    <rect class="st4" x="42" y="77.8" width="22.7" height="11.3"/>
    <rect class="st3" x="10.8" y="77.8" width="8.5" height="11.3"/>
    <rect class="st3" x="64.7" y="77.8" width="8.5" height="11.3"/>
    <rect class="st4" x="42" y="89.1" width="22.7" height="11.3"/>
    <rect class="st3" x="10.8" y="89.1" width="8.5" height="11.3"/>
    <rect class="st3" x="64.7" y="89.1" width="8.5" height="11.3"/>
    <rect class="st4" x="42" y="100.4" width="22.7" height="11.3"/>
    <rect class="st3" x="10.8" y="100.4" width="8.5" height="11.3"/>
    <rect class="st3" x="64.7" y="100.4" width="8.5" height="11.3"/>
    <rect class="st4" x="42" y="111.8" width="22.7" height="11.3"/>
    <rect class="st3" x="10.8" y="111.8" width="8.5" height="11.3"/>
    <rect class="st3" x="64.7" y="111.8" width="8.5" height="11.3"/>
    <rect class="st4" x="19.4" y="21.4" width="22.7" height="11.3"/>
    <rect class="st4" x="19.4" y="32.8" width="22.7" height="11.3"/>
    <rect class="st4" x="19.4" y="43.9" width="22.7" height="11.3"/>
    <rect class="st4" x="19.4" y="55.3" width="22.7" height="11.3"/>
    <rect class="st4" x="19.4" y="66.4" width="22.7" height="11.3"/>
    <rect class="st4" x="19.4" y="77.8" width="22.7" height="11.3"/>
    <rect class="st4" x="19.4" y="89.1" width="22.7" height="11.3"/>
    <rect class="st4" x="19.4" y="100.4" width="22.7" height="11.3"/>
    <rect class="st4" x="19.4" y="111.8" width="22.7" height="11.3"/>
    <rect class="st4" x="94.7" y="9.6" width="22.7" height="11.3"/>
    <rect class="st4" x="94.7" y="21" width="22.7" height="11.3"/>
    <rect class="st4" x="94.7" y="32.1" width="22.7" height="11.3"/>
    <rect class="st4" x="94.7" y="43.5" width="22.7" height="11.3"/>
    <rect class="st4" x="94.7" y="54.8" width="22.7" height="11.3"/>
    <rect class="st4" x="94.7" y="66.2" width="22.7" height="11.3"/>
    <rect class="st4" x="94.7" y="77.5" width="22.7" height="11.3"/>
    <rect class="st4" x="94.7" y="111.7" width="22.7" height="11.3"/>
    <rect class="st3" x="117.3" y="9.6" width="8.5" height="113.4"/>
    <rect class="st4" x="94.7" y="89" width="22.7" height="11.3"/>
    <rect class="st4" x="94.7" y="100.3" width="22.7" height="11.3"/>
  </g>
  <g id="scheme_letters">
    <g class="st5">
      <g class="st5">
        <path class="st6" d="M24.3,29.4v-4.2h1.4c.3,0,.6,0,.9.2.2.1.4.3.6.5.1.2.2.5.2.7s0,.5-.2.7c-.1.2-.3.4-.6.5-.2.1-.5.2-.9.2h-1.4,0c0,0,0,1.4,0,1.4h-.1ZM24.5,27.9h0s1.4,0,1.4,0c.5,0,.9-.1,1.1-.3.3-.2.4-.5.4-.9s-.1-.7-.4-.9c-.3-.2-.6-.3-1.1-.3h-1.4,0s0,2.6,0,2.6Z"/>
        <path class="st6" d="M30.2,29.4c-.5,0-.9-.1-1.2-.4s-.4-.7-.4-1.3v-2.4h.1v2.4c0,.6.1,1,.4,1.3.3.3.6.4,1.1.4s.8-.1,1.1-.4c.3-.3.4-.7.4-1.3v-2.4h.1v2.4c0,.6-.1,1-.4,1.3s-.7.4-1.2.4Z"/>
        <path class="st6" d="M33.4,29.4v-4.2h.1v4.1h2.5c0,.1-2.6.1-2.6.1Z"/>
        <path class="st6" d="M37.2,29.4v-4.1h0s-1.1,0-1.1,0h0c0-.1,1.2-.1,1.2-.1v4.2h-.1Z"/>
      </g>
    </g>
    <g class="st5">
      <g class="st5">
        <path class="st6" d="M15,29.2v-4.1h0s-1.1,0-1.1,0h0c0-.1,1.2-.1,1.2-.1v4.2h-.1Z"/>
      </g>
    </g>
    <g class="st5">
      <g class="st5">
        <path class="st6" d="M67.6,29.2h0c0,0,1.8-1.9,1.8-1.9.2-.2.3-.3.4-.5,0-.1.2-.3.2-.4s0-.2,0-.4c0-.3,0-.5-.3-.7s-.5-.3-.9-.3-.5,0-.8.1-.4.2-.5.4h0c.2-.3.3-.4.6-.5.2,0,.5-.1.8-.1s.5,0,.7.1c.2,0,.3.2.4.4.1.2.2.4.2.6s0,.3,0,.4c0,.1-.1.3-.2.4,0,.1-.2.3-.4.5l-1.8,1.8h0s2.7,0,2.7,0h0c0,.1-2.8.1-2.8.1Z"/>
      </g>
    </g>
    <g class="st5">
      <g class="st5">
        <path class="st6" d="M47.9,29.2v-4.2h1.6c.4,0,.8,0,1.2.3.3.2.6.4.8.7.2.3.3.7.3,1.1s0,.8-.3,1.1c-.2.3-.4.6-.8.7-.3.2-.7.3-1.2.3h-1.6ZM48,29.1h1.5c.4,0,.8,0,1.1-.3.3-.2.6-.4.7-.7.2-.3.3-.6.3-1s0-.7-.3-1c-.2-.3-.4-.5-.7-.7-.3-.2-.7-.3-1.1-.3h-1.5v4Z"/>
        <path class="st6" d="M52.8,29.2v-4.2h.1v4.2h-.1Z"/>
        <path class="st6" d="M54.5,29.2v-4.2h1.4c.3,0,.6,0,.9.2.2.1.4.3.6.5.1.2.2.5.2.7s0,.5-.2.7c-.1.2-.3.4-.6.5-.2.1-.5.2-.9.2h-1.4,0c0,0,0,1.4,0,1.4h-.1ZM54.7,27.7h0s1.4,0,1.4,0c.5,0,.9-.1,1.1-.3.3-.2.4-.5.4-.9s-.1-.7-.4-.9c-.3-.2-.6-.3-1.1-.3h-1.4,0s0,2.6,0,2.6ZM57.5,29.2l-1.1-1.5h.1l1.1,1.5h-.2Z"/>
        <path class="st6" d="M59.2,29.2v-4.1h0s-1.1,0-1.1,0h0c0-.1,1.2-.1,1.2-.1v4.2h-.1Z"/>
      </g>
    </g>
    <g class="st5">
      <g class="st5">
        <path class="st6" d="M24.2,40.6h2.7c0,.1-2.8.1-2.8.1v-4.2h2.7c0,.1-2.6.1-2.6.1v4ZM24.1,38.5h2.3c0,.1-2.3.1-2.3.1h0Z"/>
        <path class="st6" d="M28.1,40.7v-4.2h.1l3.1,4.1h0v-4.1h.1v4.2h-.1l-3.1-4.1h0v4.1h-.1Z"/>
        <path class="st6" d="M32.2,40.7l1.9-4.2h.1l2,4.2h-.1l-1.9-4.1h0l-1.9,4.1h-.1ZM32.8,39.4h0c0-.1,2.6-.1,2.6-.1h0c0,.1-2.7.1-2.7.1Z"/>
        <path class="st6" d="M37.4,40.7v-4.1h0s-1.1,0-1.1,0h0c0-.1,1.2-.1,1.2-.1v4.2h-.1Z"/>
      </g>
    </g>
    <g class="st5">
      <g class="st5">
        <path class="st6" d="M14.6,40.6c-.3,0-.5,0-.7-.2s-.4-.3-.5-.4h0c0,0,.2.2.4.3.2.1.4.2.7.2s.6,0,.8-.3c.2-.2.3-.4.3-.8s0-.6-.3-.8c-.2-.2-.5-.3-.8-.3h-.2c0,0,1.2-1.9,1.2-1.9h0s-2,0-2,0h0c0-.1,2.1-.1,2.1-.1h0c0,0-1.2,1.9-1.2,1.9h0s0,0,0,0c.4,0,.7.1.9.3.2.2.3.5.3.8s0,.4-.1.6c0,.2-.2.3-.4.4-.2,0-.4.1-.6.1Z"/>
      </g>
    </g>
    <g class="st5">
      <g class="st5">
        <path class="st6" d="M67.2,40.5h0c0,0,2.3-2.9,2.3-2.9h.1l-2.3,2.8h0s3.4,0,3.4,0h0c0,.1-3.4.1-3.4.1ZM69.6,41.7v-1.2h0v-1.2h.1v2.4h-.1Z"/>
      </g>
    </g>
    <g class="st5">
      <g class="st5">
        <path class="st6" d="M45.9,40.6l1.9-4.2h.1l2,4.2h-.1l-1.9-4.1h0l-1.9,4.1h-.1ZM46.5,39.3h0c0-.1,2.6-.1,2.6-.1h0c0,.1-2.7.1-2.7.1Z"/>
        <path class="st6" d="M50.8,40.6v-4.2h.1v4.1h2.5c0,.1-2.6.1-2.6.1Z"/>
        <path class="st6" d="M54.3,40.6v-4.2h.1l2,3.5h0l2-3.5h.1v4.2h-.1v-4h0l-2,3.4h0l-2-3.4h0v4h-.1Z"/>
        <path class="st6" d="M60.3,40.6v-4.1h0s-1.1,0-1.1,0h0c0-.1,1.2-.1,1.2-.1v4.2h-.1Z"/>
      </g>
    </g>
    <g class="st5">
      <g class="st5">
        <path class="st6" d="M23.7,51.9v-4.2h1.4c.3,0,.6,0,.9.2.2.1.4.3.6.5.1.2.2.5.2.7s0,.5-.2.7c-.1.2-.3.4-.6.5-.2.1-.5.2-.9.2h-1.4,0c0,0,0,1.4,0,1.4h-.1ZM23.8,50.4h0s1.4,0,1.4,0c.5,0,.9-.1,1.1-.3.3-.2.4-.5.4-.9s-.1-.7-.4-.9c-.3-.2-.6-.3-1.1-.3h-1.4,0s0,2.6,0,2.6Z"/>
        <path class="st6" d="M29.6,51.9c-.5,0-.9-.1-1.2-.4s-.4-.7-.4-1.3v-2.4h.1v2.4c0,.6.1,1,.4,1.3.3.3.6.4,1.1.4s.8-.1,1.1-.4c.3-.3.4-.7.4-1.3v-2.4h.1v2.4c0,.6-.1,1-.4,1.3s-.7.4-1.2.4Z"/>
        <path class="st6" d="M32.8,51.9v-4.2h.1v4.1h2.5c0,.1-2.6.1-2.6.1Z"/>
        <path class="st6" d="M35.7,51.9h0c0,0,1.8-1.9,1.8-1.9.2-.2.3-.3.4-.5,0-.1.2-.3.2-.4s0-.2,0-.4c0-.3,0-.5-.3-.7s-.5-.3-.9-.3-.5,0-.8.1-.4.2-.5.4h0c.2-.3.3-.4.6-.5s.5-.1.8-.1.5,0,.7.1c.2,0,.3.2.4.4s.2.4.2.6,0,.3,0,.4c0,.1-.1.3-.2.4,0,.1-.2.3-.4.5l-1.8,1.8h0s2.7,0,2.7,0h0c0,.1-2.8.1-2.8.1Z"/>
      </g>
    </g>
    <g class="st5">
      <g class="st5">
        <path class="st6" d="M14.8,51.7c-.3,0-.6,0-.8-.2-.3-.1-.5-.3-.6-.4h0c.1,0,.3.2.5.3.2.1.5.2.8.2.4,0,.8-.1,1-.3s.3-.5.3-.8,0-.4-.2-.6-.3-.3-.5-.4c-.2,0-.6-.1-1-.1h-.8l.2-1.9h2.1c0,.1-2.1.1-2.1.1h0s-.2,1.8-.2,1.8h0c0,0,.7,0,.7,0,.4,0,.8,0,1,.1.3,0,.4.2.5.4.1.2.2.4.2.6s0,.4-.2.6c-.1.2-.3.3-.5.4-.2.1-.5.2-.8.2Z"/>
      </g>
    </g>
    <g class="st5">
      <g class="st5">
        <path class="st6" d="M69,52.7c-.4,0-.7,0-.9-.3-.2-.2-.4-.4-.5-.7-.1-.3-.2-.7-.2-1.1s0-.9.2-1.2c.1-.3.4-.5.6-.7s.6-.2.9-.2.3,0,.5,0c.1,0,.3,0,.4.2h0c-.1,0-.2,0-.4,0-.1,0-.3,0-.5,0-.5,0-.9.2-1.2.5-.3.3-.4.8-.4,1.5s0,.2,0,.4c0,.2,0,.3,0,.5h0c0-.2,0-.4.2-.6.1-.2.3-.3.5-.4.2,0,.4-.1.7-.1s.5,0,.7.1c.2,0,.4.2.5.4.1.2.2.4.2.6s0,.5-.2.6c-.1.2-.3.3-.5.4-.2.1-.4.2-.7.2ZM69,52.6c.2,0,.4,0,.6-.1s.3-.2.4-.4c.1-.2.2-.4.2-.6,0-.3-.1-.6-.3-.8-.2-.2-.5-.3-.9-.3s-.5,0-.7.1-.3.2-.4.4-.2.4-.2.6,0,.3.1.5.2.3.4.4c.2.1.4.2.7.2Z"/>
      </g>
    </g>
    <g class="st5">
      <g class="st5">
        <path class="st6" d="M47.3,51.7v-4.2h1.6c.4,0,.8,0,1.2.3.3.2.6.4.8.7.2.3.3.7.3,1.1s0,.8-.3,1.1c-.2.3-.4.6-.8.7-.3.2-.7.3-1.2.3h-1.6ZM47.4,51.6h1.5c.4,0,.8,0,1.1-.3.3-.2.6-.4.7-.7.2-.3.3-.6.3-1s0-.7-.3-1c-.2-.3-.4-.5-.7-.7-.3-.2-.7-.3-1.1-.3h-1.5v4Z"/>
        <path class="st6" d="M52.2,51.7v-4.2h.1v4.2h-.1Z"/>
        <path class="st6" d="M53.9,51.7v-4.2h1.4c.3,0,.6,0,.9.2.2.1.4.3.6.5.1.2.2.5.2.7s0,.5-.2.7c-.1.2-.3.4-.6.5-.2.1-.5.2-.9.2h-1.4,0c0,0,0,1.4,0,1.4h-.1ZM54,50.2h0s1.4,0,1.4,0c.5,0,.9-.1,1.1-.3.3-.2.4-.5.4-.9s-.1-.7-.4-.9c-.3-.2-.6-.3-1.1-.3h-1.4,0s0,2.6,0,2.6ZM56.9,51.7l-1.1-1.5h.1l1.1,1.5h-.2Z"/>
        <path class="st6" d="M57.7,51.7h0c0,0,1.8-1.9,1.8-1.9.2-.2.3-.3.4-.5,0-.1.2-.3.2-.4s0-.2,0-.4c0-.3,0-.5-.3-.7s-.5-.3-.9-.3-.5,0-.8.1-.4.2-.5.4h0c.2-.3.3-.4.6-.5s.5-.1.8-.1.5,0,.7.1c.2,0,.3.2.4.4s.2.4.2.6,0,.3,0,.4c0,.1-.1.3-.2.4,0,.1-.2.3-.4.5l-1.8,1.8h0s2.7,0,2.7,0h0c0,.1-2.8.1-2.8.1Z"/>
      </g>
    </g>
    <g class="st5">
      <g class="st5">
        <path class="st6" d="M23.5,63.1h2.7c0,.1-2.8.1-2.8.1v-4.2h2.7c0,.1-2.6.1-2.6.1v4ZM23.5,61h2.3c0,.1-2.3.1-2.3.1h0Z"/>
        <path class="st6" d="M27.4,63.2v-4.2h.1l3.1,4.1h0v-4.1h.1v4.2h-.1l-3.1-4.1h0v4.1h-.1Z"/>
        <path class="st6" d="M31.6,63.2l1.9-4.2h.1l2,4.2h-.1l-1.9-4.1h0l-1.9,4.1h-.1ZM32.2,61.9h0c0-.1,2.6-.1,2.6-.1h0c0,.1-2.7.1-2.7.1Z"/>
        <path class="st6" d="M35.9,63.2h0c0,0,1.8-1.9,1.8-1.9.2-.2.3-.3.4-.5,0-.1.2-.3.2-.4s0-.2,0-.4c0-.3,0-.5-.3-.7s-.5-.3-.9-.3-.5,0-.8.1-.4.2-.5.4h0c.2-.3.3-.4.6-.5s.5-.1.8-.1.5,0,.7.1c.2,0,.3.2.4.4s.2.4.2.6,0,.3,0,.4c0,.1-.1.3-.2.4,0,.1-.2.3-.4.5l-1.8,1.8h0s2.7,0,2.7,0h0c0,.1-2.8.1-2.8.1Z"/>
      </g>
    </g>
    <g class="st5">
      <g class="st5">
        <path class="st6" d="M14.3,63.1l1.9-4.1h0s-2.8,0-2.8,0h0s0,.8,0,.8h-.1v-1h2.9c0,0-1.9,4.2-1.9,4.2h-.1Z"/>
      </g>
    </g>
    <g class="st5">
      <g class="st5">
        <path class="st6" d="M68.8,63.9c-.3,0-.6,0-.8-.1-.2,0-.4-.2-.5-.4-.1-.2-.2-.4-.2-.6s0-.4.2-.6c.1-.2.3-.3.5-.4.2,0,.5-.1.8-.1s.6,0,.8.1c.2,0,.4.2.5.4.1.2.2.4.2.6s0,.4-.2.6c-.1.2-.3.3-.5.4-.2,0-.5.1-.8.1ZM68.8,63.8c.4,0,.8,0,1-.3.2-.2.4-.4.4-.7s-.1-.5-.4-.7c-.2-.2-.6-.3-1-.3s-.8,0-1,.3c-.2.2-.4.4-.4.7s.1.6.4.7c.2.2.6.3,1,.3ZM68.8,61.8c-.3,0-.5,0-.7-.1-.2,0-.4-.2-.5-.3-.1-.2-.2-.3-.2-.5s0-.4.2-.6c.1-.2.3-.3.5-.4.2,0,.4-.1.7-.1s.5,0,.7.1.4.2.5.4c.1.2.2.3.2.6s0,.4-.2.5c-.1.1-.3.3-.5.3-.2,0-.5.1-.7.1ZM68.8,61.7c.4,0,.7,0,.9-.2.2-.2.3-.4.3-.7s-.1-.5-.3-.7c-.2-.2-.5-.2-.9-.2s-.7,0-.9.2c-.2.2-.3.4-.3.7s.1.5.3.7c.2.2.5.2.9.2Z"/>
      </g>
    </g>
    <g class="st5">
      <g class="st5">
        <path class="st6" d="M45.5,63.9l1.9-4.1h.1l1.9,4.1h-.1l-1.9-4h0l-1.9,4h-.1ZM46.1,62.6h0c0-.1,2.6-.1,2.6-.1h0c0,.1-2.7.1-2.7.1Z"/>
        <path class="st6" d="M50.3,63.9v-4.1h.1v4h2.5c0,.1-2.6.1-2.6.1Z"/>
        <path class="st6" d="M53.7,63.9v-4.1h.1l2,3.4h0l2-3.4h.1v4.1h-.1v-4h0l-1.9,3.4h0l-1.9-3.4h0v4h-.1Z"/>
        <path class="st6" d="M58.8,63.9h0c0,0,1.8-1.9,1.8-1.9.2-.2.3-.3.4-.5,0-.1.2-.3.2-.4s0-.2,0-.3c0-.3,0-.5-.3-.7s-.5-.3-.9-.3-.5,0-.7.1c-.2,0-.4.2-.5.4h0c.2-.3.3-.4.6-.5.2,0,.5-.1.8-.1s.5,0,.7.1.3.2.4.4c.1.2.2.3.2.6s0,.3,0,.4c0,.1-.1.3-.2.4,0,.1-.2.3-.4.5l-1.7,1.8h0s2.7,0,2.7,0h0c0,.1-2.8.1-2.8.1Z"/>
      </g>
    </g>
    <g class="st5">
      <g class="st5">
        <path class="st6" d="M23.7,74.4v-4.2h1.4c.3,0,.6,0,.9.2.2.1.4.3.6.5.1.2.2.5.2.7s0,.5-.2.7c-.1.2-.3.4-.6.5-.2.1-.5.2-.9.2h-1.4,0c0,0,0,1.4,0,1.4h-.1ZM23.9,72.9h0s1.4,0,1.4,0c.5,0,.9-.1,1.1-.3.3-.2.4-.5.4-.9s-.1-.7-.4-.9c-.3-.2-.6-.3-1.1-.3h-1.4,0s0,2.6,0,2.6Z"/>
        <path class="st6" d="M29.6,74.4c-.5,0-.9-.1-1.2-.4s-.4-.7-.4-1.3v-2.4h.1v2.4c0,.6.1,1,.4,1.3.3.3.6.4,1.1.4s.8-.1,1.1-.4c.3-.3.4-.7.4-1.3v-2.4h.1v2.4c0,.6-.1,1-.4,1.3s-.7.4-1.2.4Z"/>
        <path class="st6" d="M32.8,74.4v-4.2h.1v4.1h2.5c0,.1-2.6.1-2.6.1Z"/>
        <path class="st6" d="M37,74.4c-.3,0-.6,0-.9-.2-.3-.1-.5-.3-.6-.4h0c.1,0,.3.2.5.3.2.1.5.2.8.2s.7,0,.9-.3c.2-.2.3-.4.3-.8s-.1-.6-.3-.8c-.2-.2-.6-.3-1-.3h-.2c0,0,1.4-1.9,1.4-1.9h0s-2.4,0-2.4,0h0c0-.1,2.5-.1,2.5-.1h0c0,0-1.4,1.9-1.4,1.9h0s0,0,0,0c.5,0,.9.1,1.1.3.2.2.4.5.4.8s0,.4-.2.6-.3.3-.5.4-.5.1-.8.1Z"/>
      </g>
    </g>
    <g class="st5">
      <g class="st5">
        <path class="st6" d="M14.6,70c.4,0,.7,0,.9.3.2.2.4.4.5.7.1.3.2.7.2,1.1s0,.9-.2,1.2c-.1.3-.4.5-.6.7-.3.2-.6.2-.9.2s-.3,0-.5,0c-.2,0-.3,0-.4-.2h0c.1,0,.2,0,.4,0,.1,0,.3,0,.5,0,.5,0,.9-.2,1.2-.5.3-.3.5-.8.5-1.5s0-.2,0-.4c0-.2,0-.3,0-.5h0c0,.2,0,.4-.2.6-.1.2-.3.3-.5.4s-.4.2-.7.2-.5,0-.7-.2-.4-.2-.5-.4c-.1-.2-.2-.4-.2-.6s0-.5.2-.6c.1-.2.3-.3.5-.4.2-.1.4-.2.7-.2ZM14.6,70.1c-.2,0-.5,0-.6.1-.2,0-.3.2-.4.4s-.2.4-.2.6c0,.3.1.6.3.8.2.2.5.3.9.3s.5,0,.7-.2c.2,0,.3-.2.5-.4.1-.2.2-.4.2-.6s0-.3-.1-.5c-.1-.2-.2-.3-.4-.4-.2-.1-.4-.2-.7-.2Z"/>
      </g>
    </g>
    <g class="st5">
      <g class="st5">
        <path class="st6" d="M67,74.9v-4.1h0s-1.1,0-1.1,0h0c0-.1,1.2-.1,1.2-.1v4.1h-.1Z"/>
        <path class="st6" d="M69.8,74.9c-.3,0-.6,0-.8-.3-.2-.2-.4-.4-.6-.7-.1-.3-.2-.7-.2-1.1s0-.8.2-1.1c.1-.3.3-.6.6-.7.2-.2.5-.3.8-.3s.6,0,.8.3c.2.2.4.4.6.7.1.3.2.7.2,1.1s0,.8-.2,1.1c-.1.3-.3.6-.6.7-.2.2-.5.3-.8.3ZM69.8,74.8c.3,0,.5,0,.8-.2.2-.2.4-.4.5-.7.1-.3.2-.6.2-1s0-.8-.2-1.1c-.1-.3-.3-.5-.5-.7s-.5-.2-.8-.2-.5,0-.8.2-.4.4-.5.7c-.1.3-.2.6-.2,1.1s0,.8.2,1c.1.3.3.5.5.7.2.2.5.2.8.2Z"/>
      </g>
    </g>
    <g class="st5">
      <g class="st5">
        <path class="st6" d="M47.4,74.9v-4.1h1.6c.4,0,.8,0,1.1.3.3.2.6.4.8.7.2.3.3.7.3,1.1s0,.8-.3,1.1c-.2.3-.4.6-.8.7-.3.2-.7.3-1.1.3h-1.6ZM47.5,74.8h1.4c.4,0,.8,0,1.1-.3.3-.2.6-.4.7-.7.2-.3.3-.6.3-1s0-.7-.3-1c-.2-.3-.4-.5-.7-.7-.3-.2-.7-.3-1.1-.3h-1.4v3.9Z"/>
        <path class="st6" d="M52.3,74.9v-4.1h.1v4.1h-.1Z"/>
        <path class="st6" d="M54,74.9v-4.1h1.4c.3,0,.6,0,.9.2s.4.3.6.5.2.4.2.7,0,.5-.2.7c-.1.2-.3.4-.6.5-.2.1-.5.2-.9.2h-1.3,0c0,0,0,1.4,0,1.4h-.1ZM54.1,73.4h0s1.3,0,1.3,0c.5,0,.9-.1,1.1-.3.3-.2.4-.5.4-.9s-.1-.7-.4-.9c-.3-.2-.6-.3-1.1-.3h-1.3,0s0,2.5,0,2.5ZM57,74.9l-1.1-1.5h.1l1.1,1.5h-.1Z"/>
        <path class="st6" d="M59,74.9c-.3,0-.6,0-.8-.2-.3-.1-.4-.2-.6-.4h0c.1,0,.3.2.5.3s.5.2.8.2.7,0,.9-.3c.2-.2.3-.4.3-.8s-.1-.6-.3-.8c-.2-.2-.5-.3-1-.3h-.2c0,0,1.4-1.9,1.4-1.9h0s-2.4,0-2.4,0h0c0-.1,2.5-.1,2.5-.1h0c0,0-1.4,1.9-1.4,1.9h0s0,0,0,0c.5,0,.9.1,1.1.3.2.2.4.5.4.8s0,.4-.2.6c-.1.2-.3.3-.5.4-.2,0-.5.1-.7.1Z"/>
      </g>
    </g>
    <g class="st5">
      <g class="st5">
        <path class="st6" d="M23.6,85.6h2.7c0,.1-2.8.1-2.8.1v-4.2h2.7c0,.1-2.6.1-2.6.1v4ZM23.5,83.5h2.3c0,.1-2.3.1-2.3.1h0Z"/>
        <path class="st6" d="M27.4,85.7v-4.2h.1l3.1,4.1h0v-4.1h.1v4.2h-.1l-3.1-4.1h0v4.1h-.1Z"/>
        <path class="st6" d="M31.6,85.7l1.9-4.2h.1l2,4.2h-.1l-1.9-4.1h0l-1.9,4.1h-.1ZM32.2,84.4h0c0-.1,2.6-.1,2.6-.1h0c0,.1-2.7.1-2.7.1Z"/>
        <path class="st6" d="M37.2,85.7c-.3,0-.6,0-.9-.2-.3-.1-.5-.3-.6-.4h0c.1,0,.3.2.5.3.2.1.5.2.8.2s.7,0,.9-.3c.2-.2.3-.4.3-.8s-.1-.6-.3-.8c-.2-.2-.6-.3-1-.3h-.2c0,0,1.4-1.9,1.4-1.9h0s-2.4,0-2.4,0h0c0-.1,2.5-.1,2.5-.1h0c0,0-1.4,1.9-1.4,1.9h0s0,0,0,0c.5,0,.9.1,1.1.3.2.2.4.5.4.8s0,.4-.2.6-.3.3-.5.4-.5.1-.8.1Z"/>
      </g>
    </g>
    <g class="st5">
      <g class="st5">
        <path class="st6" d="M13.9,85.6v-4.1h0s-1.1,0-1.1,0h0c0-.1,1.2-.1,1.2-.1v4.2h-.1Z"/>
        <path class="st6" d="M15.9,85.6v-4.1h0s-1.1,0-1.1,0h0c0-.1,1.2-.1,1.2-.1v4.2h-.1Z"/>
      </g>
    </g>
    <g class="st5">
      <g class="st5">
        <path class="st6" d="M67.3,86.1v-4.1h0s-1.1,0-1.1,0h0c0-.1,1.2-.1,1.2-.1v4.1h-.1Z"/>
        <path class="st6" d="M68.4,86.1h0c0,0,1.8-1.9,1.8-1.9.2-.2.3-.3.4-.5s.2-.3.2-.4c0-.1,0-.2,0-.3,0-.3,0-.5-.3-.7s-.5-.3-.9-.3-.5,0-.7.1c-.2,0-.4.2-.5.4h0c.2-.3.3-.4.6-.5.2,0,.5-.1.8-.1s.5,0,.7.1c.2,0,.3.2.4.4s.2.3.2.6,0,.3,0,.4-.1.3-.2.4-.2.3-.4.5l-1.7,1.8h0s2.7,0,2.7,0h0c0,.1-2.8.1-2.8.1Z"/>
      </g>
    </g>
    <g class="st5">
      <g class="st5">
        <path class="st6" d="M45.5,86.1l1.9-4.1h.1l1.9,4.1h-.1l-1.9-4h0l-1.9,4h-.1ZM46.1,84.8h0c0-.1,2.6-.1,2.6-.1h0c0,.1-2.7.1-2.7.1Z"/>
        <path class="st6" d="M50.3,86.1v-4.1h.1v4h2.5c0,.1-2.6.1-2.6.1Z"/>
        <path class="st6" d="M53.7,86.1v-4.1h.1l2,3.4h0l2-3.4h.1v4.1h-.1v-4h0l-1.9,3.4h0l-1.9-3.4h0v4h-.1Z"/>
        <path class="st6" d="M60.1,86.1c-.3,0-.6,0-.8-.2-.3-.1-.4-.2-.6-.4h0c.1,0,.3.2.5.3.2.1.5.2.8.2s.7,0,.9-.3c.2-.2.3-.4.3-.8s-.1-.6-.3-.8c-.2-.2-.5-.3-1-.3h-.2c0,0,1.4-1.9,1.4-1.9h0s-2.4,0-2.4,0h0c0-.1,2.5-.1,2.5-.1h0c0,0-1.4,1.9-1.4,1.9h0s0,0,0,0c.5,0,.9.1,1.1.3s.4.5.4.8,0,.4-.2.6c-.1.2-.3.3-.5.4-.2,0-.5.1-.7.1Z"/>
      </g>
    </g>
    <g class="st5">
      <g class="st5">
        <path class="st6" d="M23.4,97v-4.2h1.4c.3,0,.6,0,.9.2.2.1.4.3.6.5.1.2.2.5.2.7s0,.5-.2.7c-.1.2-.3.4-.6.5-.2.1-.5.2-.9.2h-1.4,0c0,0,0,1.4,0,1.4h-.1ZM23.6,95.5h0s1.4,0,1.4,0c.5,0,.9-.1,1.1-.3.3-.2.4-.5.4-.9s-.1-.7-.4-.9c-.3-.2-.6-.3-1.1-.3h-1.4,0s0,2.6,0,2.6Z"/>
        <path class="st6" d="M29.3,97.1c-.5,0-.9-.1-1.2-.4s-.4-.7-.4-1.3v-2.4h.1v2.4c0,.6.1,1,.4,1.3.3.3.6.4,1.1.4s.8-.1,1.1-.4c.3-.3.4-.7.4-1.3v-2.4h.1v2.4c0,.6-.1,1-.4,1.3s-.7.4-1.2.4Z"/>
        <path class="st6" d="M32.5,97v-4.2h.1v4.1h2.5c0,.1-2.6.1-2.6.1Z"/>
        <path class="st6" d="M35.4,95.8h0c0,0,2.4-3,2.4-3h.1l-2.4,2.9h0s3.4,0,3.4,0h0c0,.1-3.5.1-3.5.1ZM37.9,97v-1.2h0v-1.2h.1v2.5h-.1Z"/>
      </g>
    </g>
    <g class="st5">
      <g class="st5">
        <path class="st6" d="M13.3,96.9v-4.1h0s-1.1,0-1.1,0h0c0-.1,1.2-.1,1.2-.1v4.2h-.1Z"/>
        <path class="st6" d="M15.7,96.9c-.3,0-.6,0-.9-.2-.3-.1-.5-.3-.6-.4h0c.1,0,.3.2.5.3.2.1.5.2.8.2s.7,0,.9-.3c.2-.2.3-.4.3-.8s-.1-.6-.3-.8c-.2-.2-.6-.3-1-.3h-.2c0,0,1.4-1.9,1.4-1.9h0s-2.4,0-2.4,0h0c0-.1,2.5-.1,2.5-.1h0c0,0-1.4,1.9-1.4,1.9h0s0,0,0,0c.5,0,.9.1,1.1.3.2.2.4.5.4.8s0,.4-.2.6-.3.3-.5.4-.5.1-.8.1Z"/>
      </g>
    </g>
    <g class="st5">
      <g class="st5">
        <path class="st6" d="M67,97.3v-4.1h0s-1.1,0-1.1,0h0c0-.1,1.2-.1,1.2-.1v4.1h-.1Z"/>
        <path class="st6" d="M68.2,96h0c0,0,2.3-2.9,2.3-2.9h.1l-2.3,2.8h0s3.4,0,3.4,0h0c0,.1-3.4.1-3.4.1ZM70.6,97.3v-1.2h0v-1.2h.1v2.4h-.1Z"/>
      </g>
    </g>
    <g class="st5">
      <g class="st5">
        <path class="st6" d="M47.1,97.3v-4.1h1.6c.4,0,.8,0,1.1.3.3.2.6.4.8.7.2.3.3.7.3,1.1s0,.8-.3,1.1c-.2.3-.4.6-.8.7-.3.2-.7.3-1.1.3h-1.6ZM47.3,97.1h1.4c.4,0,.8,0,1.1-.3.3-.2.6-.4.7-.7.2-.3.3-.6.3-1s0-.7-.3-1c-.2-.3-.4-.5-.7-.7-.3-.2-.7-.3-1.1-.3h-1.4v3.9Z"/>
        <path class="st6" d="M52,97.3v-4.1h.1v4.1h-.1Z"/>
        <path class="st6" d="M53.7,97.3v-4.1h1.4c.3,0,.6,0,.9.2s.4.3.6.5.2.4.2.7,0,.5-.2.7c-.1.2-.3.4-.6.5-.2.1-.5.2-.9.2h-1.3,0c0,0,0,1.4,0,1.4h-.1ZM53.8,95.8h0s1.3,0,1.3,0c.5,0,.9-.1,1.1-.3.3-.2.4-.5.4-.9s-.1-.7-.4-.9c-.3-.2-.6-.3-1.1-.3h-1.3,0s0,2.5,0,2.5ZM56.7,97.3l-1.1-1.5h.1l1.1,1.5h-.1Z"/>
        <path class="st6" d="M57.5,96h0c0,0,2.3-2.9,2.3-2.9h.1l-2.3,2.8h0s3.4,0,3.4,0h0c0,.1-3.4.1-3.4.1ZM59.9,97.3v-1.2h0v-1.2h.1v2.4h-.1Z"/>
      </g>
    </g>
    <g class="st5">
      <g class="st5">
        <path class="st6" d="M23.3,108.3h2.7c0,.1-2.8.1-2.8.1v-4.2h2.7c0,.1-2.6.1-2.6.1v4ZM23.2,106.2h2.3c0,.1-2.3.1-2.3.1h0Z"/>
        <path class="st6" d="M27.2,108.4v-4.2h.1l3.1,4.1h0v-4.1h.1v4.2h-.1l-3.1-4.1h0v4.1h-.1Z"/>
        <path class="st6" d="M31.3,108.4l1.9-4.2h.1l2,4.2h-.1l-1.9-4.1h0l-1.9,4.1h-.1ZM31.9,107.1h0c0-.1,2.6-.1,2.6-.1h0c0,.1-2.7.1-2.7.1Z"/>
        <path class="st6" d="M35.7,107.1h0c0,0,2.4-3,2.4-3h.1l-2.4,2.9h0s3.4,0,3.4,0h0c0,.1-3.5.1-3.5.1ZM38.1,108.4v-1.2h0v-1.2h.1v2.5h-.1Z"/>
      </g>
    </g>
    <g class="st5">
      <g class="st5">
        <path class="st6" d="M13.3,108.3v-4.1h0s-1.1,0-1.1,0h0c0-.1,1.2-.1,1.2-.1v4.2h-.1Z"/>
        <path class="st6" d="M15.8,108.3c-.3,0-.6,0-.8-.2-.3-.1-.5-.3-.6-.4h0c.1,0,.3.2.5.3.2.1.5.2.8.2.4,0,.8-.1,1-.3s.3-.5.3-.8,0-.4-.2-.6-.3-.3-.5-.4c-.2,0-.6-.1-1-.1h-.8l.2-1.9h2.1c0,.1-2.1.1-2.1.1h0s-.2,1.8-.2,1.8h0c0,0,.7,0,.7,0,.4,0,.8,0,1,.1.3,0,.4.2.5.4.1.2.2.4.2.6s0,.4-.2.6c-.1.2-.3.3-.5.4-.2.1-.5.2-.8.2Z"/>
      </g>
    </g>
    <g class="st5">
      <g class="st5">
        <path class="st6" d="M67.1,108.4v-4.1h0s-1.1,0-1.1,0h0c0-.1,1.2-.1,1.2-.1v4.1h-.1Z"/>
        <path class="st6" d="M70,108.4c-.4,0-.7,0-.9-.3-.2-.2-.4-.4-.5-.7-.1-.3-.2-.7-.2-1.1s0-.9.2-1.2c.1-.3.4-.5.6-.7.3-.2.6-.2.9-.2s.3,0,.5,0c.2,0,.3,0,.4.2h0c-.1,0-.2,0-.4,0-.1,0-.3,0-.5,0-.5,0-.9.2-1.2.5-.3.3-.5.8-.5,1.5s0,.2,0,.4c0,.2,0,.3,0,.5h0c0-.2,0-.4.2-.6s.3-.3.5-.4.4-.1.7-.1.5,0,.7.1.4.2.5.4.2.4.2.6,0,.5-.2.6-.3.3-.5.4-.4.2-.7.2ZM70,108.3c.2,0,.4,0,.6-.1s.3-.2.4-.4c.1-.2.2-.4.2-.6,0-.3-.1-.6-.3-.8s-.5-.3-.9-.3-.5,0-.7.1-.3.2-.4.4-.2.4-.2.6,0,.3.1.5.2.3.4.4c.2.1.4.2.7.2Z"/>
      </g>
    </g>
    <g class="st5">
      <g class="st5">
        <path class="st6" d="M45.2,108.4l1.9-4.1h.1l1.9,4.1h-.1l-1.9-4h0l-1.9,4h-.1ZM45.8,107.2h0c0-.1,2.6-.1,2.6-.1h0c0,.1-2.7.1-2.7.1Z"/>
        <path class="st6" d="M50,108.4v-4.1h.1v4h2.5c0,.1-2.6.1-2.6.1Z"/>
        <path class="st6" d="M53.4,108.4v-4.1h.1l2,3.4h0l2-3.4h.1v4.1h-.1v-4h0l-1.9,3.4h0l-1.9-3.4h0v4h-.1Z"/>
        <path class="st6" d="M58.6,107.2h0c0,0,2.3-2.9,2.3-2.9h.1l-2.3,2.8h0s3.4,0,3.4,0h0c0,.1-3.4.1-3.4.1ZM61,108.4v-1.2h0v-1.2h.1v2.4h-.1Z"/>
      </g>
    </g>
    <g class="st5">
      <g class="st5">
        <path class="st6" d="M29.1,119.7l-1.9-4.2h.1l1.8,4.1h0l1.8-4.1h.1l-1.9,4.2h-.1Z"/>
        <path class="st6" d="M31.6,117.7h0c0-.1,2.5-.1,2.5-.1h0c0,.1-2.5.1-2.5.1ZM32.8,118.8v-2.4h.1v2.4h-.1Z"/>
      </g>
    </g>
    <g class="st5">
      <g class="st5">
        <path class="st6" d="M13.2,119.6v-4.1h0s-1.1,0-1.1,0h0c0-.1,1.2-.1,1.2-.1v4.2h-.1Z"/>
        <path class="st6" d="M15.2,119.6l1.9-4.1h0s-2.8,0-2.8,0h0s0,.8,0,.8h-.1v-1h2.9c0,0-1.9,4.2-1.9,4.2h-.1Z"/>
      </g>
    </g>
    <g class="st5">
      <g class="st5">
        <path class="st6" d="M67.1,119.6v-4.1h0s-1.1,0-1.1,0h0c0-.1,1.2-.1,1.2-.1v4.1h-.1Z"/>
        <path class="st6" d="M69.8,119.6c-.3,0-.6,0-.8-.1s-.4-.2-.5-.4c-.1-.2-.2-.4-.2-.6s0-.4.2-.6c.1-.2.3-.3.5-.4s.5-.1.8-.1.6,0,.8.1c.2,0,.4.2.5.4.1.2.2.4.2.6s0,.4-.2.6c-.1.2-.3.3-.5.4-.2,0-.5.1-.8.1ZM69.8,119.5c.4,0,.8,0,1-.3.2-.2.4-.4.4-.7s-.1-.5-.4-.7c-.2-.2-.6-.3-1-.3s-.8,0-1,.3c-.2.2-.4.4-.4.7s.1.6.4.7c.2.2.6.3,1,.3ZM69.8,117.5c-.3,0-.5,0-.7-.1-.2,0-.4-.2-.5-.3-.1-.2-.2-.3-.2-.5s0-.4.2-.6c.1-.2.3-.3.5-.4s.4-.1.7-.1.5,0,.7.1.4.2.5.4c.1.2.2.3.2.6s0,.4-.2.5c-.1.1-.3.3-.5.3-.2,0-.5.1-.7.1ZM69.8,117.4c.4,0,.7,0,.9-.2.2-.2.3-.4.3-.7s-.1-.5-.3-.7c-.2-.2-.5-.2-.9-.2s-.7,0-.9.2-.3.4-.3.7.1.5.3.7.5.2.9.2Z"/>
      </g>
    </g>
    <g class="st5">
      <g class="st5">
        <path class="st6" d="M49.1,119.6c-.3,0-.6,0-.9-.2-.3-.1-.5-.3-.7-.4s-.3-.4-.4-.7c-.1-.3-.2-.5-.2-.8s0-.6.2-.8c.1-.3.3-.5.4-.7s.4-.3.7-.4c.3-.1.5-.2.9-.2s.5,0,.8.1.5.2.6.4h0c-.2,0-.4-.2-.6-.3-.2,0-.5-.1-.7-.1s-.6,0-.8.2-.5.2-.6.4c-.2.2-.3.4-.4.6-.1.2-.2.5-.2.8s0,.5.2.8c.1.2.2.4.4.6s.4.3.6.4.5.2.8.2.5,0,.7-.1.4-.2.6-.4h0c-.2.3-.4.4-.6.5s-.5.1-.8.1ZM50.5,119.1v-1.5h.1v1.5h-.1Z"/>
        <path class="st6" d="M52,119.6v-4.1h.1l3.1,4h0v-4h.1v4.1h-.1l-3.1-4h0v4h-.1Z"/>
        <path class="st6" d="M56.9,119.6v-4.1h1.6c.4,0,.8,0,1.1.3.3.2.6.4.8.7.2.3.3.7.3,1.1s0,.8-.3,1.1c-.2.3-.4.6-.8.7-.3.2-.7.3-1.1.3h-1.6ZM57,119.5h1.4c.4,0,.8,0,1.1-.3.3-.2.6-.4.7-.7.2-.3.3-.6.3-1s0-.7-.3-1c-.2-.3-.4-.5-.7-.7-.3-.2-.7-.3-1.1-.3h-1.4v3.9Z"/>
      </g>
    </g>
    <g class="st5">
      <g class="st5">
        <path class="st6" d="M99.1,17.4v-4.2h1.4c.3,0,.6,0,.9.2.2.1.4.3.6.5.1.2.2.5.2.7s0,.5-.2.7c-.1.2-.3.4-.6.5-.2.1-.5.2-.9.2h-1.4,0c0,0,0,1.4,0,1.4h-.1ZM99.3,15.9h0s1.4,0,1.4,0c.5,0,.9-.1,1.1-.3.3-.2.4-.5.4-.9s-.1-.7-.4-.9-.6-.3-1.1-.3h-1.4,0s0,2.6,0,2.6Z"/>
        <path class="st6" d="M105,17.4c-.5,0-.9-.1-1.2-.4s-.4-.7-.4-1.3v-2.4h.1v2.4c0,.6.1,1,.4,1.3.3.3.6.4,1.1.4s.8-.1,1.1-.4c.3-.3.4-.7.4-1.3v-2.4h.1v2.4c0,.6-.1,1-.4,1.3s-.7.4-1.2.4Z"/>
        <path class="st6" d="M108.2,17.4v-4.2h.1v4.1h2.5c0,.1-2.6.1-2.6.1Z"/>
        <path class="st6" d="M111.3,15.4h0c0-.1,2.5-.1,2.5-.1h0c0,.1-2.5.1-2.5.1ZM112.5,16.5v-2.4h.1v2.4h-.1Z"/>
      </g>
    </g>
    <g class="st5">
      <g class="st5">
        <path class="st6" d="M99.9,29.6v-4.1h1.4c.3,0,.6,0,.9.2.2.1.4.3.6.5.1.2.2.4.2.7s0,.5-.2.7c-.1.2-.3.4-.6.5-.2.1-.5.2-.9.2h-1.3,0c0,0,0,1.4,0,1.4h-.1ZM100,28.1h0s1.3,0,1.3,0c.5,0,.9-.1,1.1-.3.3-.2.4-.5.4-.9s-.1-.7-.4-.9-.6-.3-1.1-.3h-1.3,0s0,2.5,0,2.5Z"/>
        <path class="st6" d="M105.7,29.6c-.5,0-.9-.1-1.2-.4s-.4-.7-.4-1.3v-2.4h.1v2.4c0,.6.1,1,.4,1.2.3.3.6.4,1.1.4s.8-.1,1.1-.4c.3-.3.4-.7.4-1.2v-2.4h.1v2.4c0,.6-.1,1-.4,1.3s-.7.4-1.2.4Z"/>
        <path class="st6" d="M108.8,29.6v-4.1h.1v4h2.5c0,.1-2.6.1-2.6.1Z"/>
        <path class="st6" d="M111.8,28.1h0c0-.1,1.5-.1,1.5-.1h0c0,.1-1.5.1-1.5.1Z"/>
      </g>
    </g>
    <g class="st5">
      <g class="st5">
        <path class="st6" d="M100,40.6v-4.1h1.6c.4,0,.8,0,1.1.3.3.2.6.4.8.7s.3.7.3,1.1,0,.8-.3,1.1c-.2.3-.4.6-.8.7s-.7.3-1.1.3h-1.6ZM100.2,40.5h1.4c.4,0,.8,0,1.1-.3.3-.2.6-.4.7-.7s.3-.6.3-1,0-.7-.3-1-.4-.5-.7-.7c-.3-.2-.7-.3-1.1-.3h-1.4v3.9Z"/>
        <path class="st6" d="M104.9,40.6v-4.1h.1v4.1h-.1Z"/>
        <path class="st6" d="M106.6,40.6v-4.1h1.4c.3,0,.6,0,.9.2.2.1.4.3.6.5.1.2.2.4.2.7s0,.5-.2.7c-.1.2-.3.4-.6.5-.2.1-.5.2-.9.2h-1.3,0c0,0,0,1.4,0,1.4h-.1ZM106.7,39.1h0s1.3,0,1.3,0c.5,0,.9-.1,1.1-.3.3-.2.4-.5.4-.9s-.1-.7-.4-.9-.6-.3-1.1-.3h-1.3,0s0,2.5,0,2.5ZM109.6,40.6l-1.1-1.5h.1l1.1,1.5h-.1Z"/>
        <path class="st6" d="M110.5,38.6h0c0-.1,2.4-.1,2.4-.1h0c0,.1-2.4.1-2.4.1ZM111.7,39.7v-2.4h.1v2.4h-.1Z"/>
      </g>
    </g>
    <g class="st5">
      <g class="st5">
        <path class="st6" d="M100.6,51.8v-4.1h1.6c.4,0,.8,0,1.1.3.3.2.6.4.8.7s.3.7.3,1.1,0,.8-.3,1.1c-.2.3-.4.6-.8.7s-.7.3-1.1.3h-1.6ZM100.7,51.7h1.4c.4,0,.8,0,1.1-.3.3-.2.6-.4.7-.7s.3-.6.3-1,0-.7-.3-1-.4-.5-.7-.7c-.3-.2-.7-.3-1.1-.3h-1.4v3.9Z"/>
        <path class="st6" d="M105.5,51.8v-4.1h.1v4.1h-.1Z"/>
        <path class="st6" d="M107.2,51.8v-4.1h1.4c.3,0,.6,0,.9.2.2.1.4.3.6.5.1.2.2.4.2.7s0,.5-.2.7c-.1.2-.3.4-.6.5-.2.1-.5.2-.9.2h-1.3,0c0,0,0,1.4,0,1.4h-.1ZM107.3,50.3h0s1.3,0,1.3,0c.5,0,.9-.1,1.1-.3.3-.2.4-.5.4-.9s-.1-.7-.4-.9-.6-.3-1.1-.3h-1.3,0s0,2.5,0,2.5ZM110.2,51.8l-1.1-1.5h.1l1.1,1.5h-.1Z"/>
        <path class="st6" d="M111,50.3h0c0-.1,1.5-.1,1.5-.1h0c0,.1-1.5.1-1.5.1Z"/>
      </g>
    </g>
    <g class="st5">
      <g class="st5">
        <path class="st6" d="M99.1,62.8h2.6c0,.1-2.8.1-2.8.1v-4.1h2.7c0,.1-2.6.1-2.6.1v3.9ZM99.1,60.8h2.3c0,.1-2.3.1-2.3.1h0Z"/>
        <path class="st6" d="M103,62.9v-4.1h.1l3.1,4h0v-4h.1v4.1h-.1l-3.1-4h0v4h-.1Z"/>
        <path class="st6" d="M107.1,62.9l1.9-4.1h.1l1.9,4.1h-.1l-1.9-4h0l-1.9,4h-.1ZM107.7,61.7h0c0-.1,2.6-.1,2.6-.1h0c0,.1-2.7.1-2.7.1Z"/>
        <path class="st6" d="M111.5,60.9h0c0-.1,2.4-.1,2.4-.1h0c0,.1-2.4.1-2.4.1ZM112.7,62.1v-2.4h.1v2.4h-.1Z"/>
      </g>
    </g>
    <g class="st5">
      <g class="st5">
        <path class="st6" d="M99.7,74h2.6c0,.1-2.8.1-2.8.1v-4.1h2.7c0,.1-2.6.1-2.6.1v3.9ZM99.7,72h2.3c0,.1-2.3.1-2.3.1h0Z"/>
        <path class="st6" d="M103.6,74.1v-4.1h.1l3.1,4h0v-4h.1v4.1h-.1l-3.1-4h0v4h-.1Z"/>
        <path class="st6" d="M107.6,74.1l1.9-4.1h.1l1.9,4.1h-.1l-1.9-4h0l-1.9,4h-.1ZM108.3,72.9h0c0-.1,2.6-.1,2.6-.1h0c0,.1-2.7.1-2.7.1Z"/>
        <path class="st6" d="M112.1,72.6h0c0-.1,1.5-.1,1.5-.1h0c0,.1-1.5.1-1.5.1Z"/>
      </g>
    </g>
    <g class="st5">
      <g class="st5">
        <path class="st6" d="M98.1,85.3l1.9-4.1h.1l1.9,4.1h-.1l-1.9-4h0l-1.9,4h-.1ZM98.7,84.1h0c0-.1,2.6-.1,2.6-.1h0c0,.1-2.7.1-2.7.1Z"/>
        <path class="st6" d="M102.9,85.3v-4.1h.1v4h2.5c0,.1-2.6.1-2.6.1Z"/>
        <path class="st6" d="M106.3,85.3v-4.1h.1l2,3.4h0l2-3.4h.1v4.1h-.1v-4h0l-1.9,3.4h0l-1.9-3.4h0v4h-.1Z"/>
        <path class="st6" d="M111.7,83.3h0c0-.1,2.4-.1,2.4-.1h0c0,.1-2.4.1-2.4.1ZM112.8,84.4v-2.4h.1v2.4h-.1Z"/>
      </g>
    </g>
    <g class="st5">
      <g class="st5">
        <path class="st6" d="M98.7,97.1l1.9-4.1h.1l1.9,4.1h-.1l-1.9-4h0l-1.9,4h-.1ZM99.3,95.9h0c0-.1,2.6-.1,2.6-.1h0c0,.1-2.7.1-2.7.1Z"/>
        <path class="st6" d="M103.5,97.1v-4.1h.1v4h2.5c0,.1-2.6.1-2.6.1Z"/>
        <path class="st6" d="M106.9,97.1v-4.1h.1l2,3.4h0l2-3.4h.1v4.1h-.1v-4h0l-1.9,3.4h0l-1.9-3.4h0v4h-.1Z"/>
        <path class="st6" d="M112.2,95.6h0c0-.1,1.5-.1,1.5-.1h0c0,.1-1.5.1-1.5.1Z"/>
      </g>
    </g>
    <g class="st5">
      <g class="st5">
        <path class="st6" d="M104.6,108.3l-1.9-4.1h.1l1.8,4h0l1.8-4h.1l-1.9,4.1h-.1Z"/>
        <path class="st6" d="M107.1,106.3h0c0-.1,2.4-.1,2.4-.1h0c0,.1-2.4.1-2.4.1ZM108.2,107.4v-2.4h.1v2.4h-.1Z"/>
      </g>
    </g>
    <g class="st5">
      <g class="st5">
        <path class="st6" d="M123.5,88.4h-4v2.4h1.3c.4,0,.7,0,1,.1.3,0,.6,0,.9.1.3,0,.5.1.6.2.2.1.2.2.2.4v.2c0-.2-.1-.3-.2-.4s-.3-.2-.6-.3c-.2,0-.5-.1-.9-.1-.3,0-.7,0-1.1,0h-1.4v-2.6h4.1ZM124.6,92h-1.1v-4.3h1.1c0,.1-1,.1-1,.1v4.1h1Z"/>
        <path class="st6" d="M123.6,85.2c0,.3,0,.5-.2.8-.1.2-.3.4-.6.5-.2.1-.5.2-.8.2s-.6,0-.8-.2c-.2-.1-.4-.3-.6-.5-.1-.2-.2-.5-.2-.8s0-.5.2-.8.3-.4.6-.5c.2-.1.5-.2.8-.2s.6,0,.8.2c.2.1.4.3.6.5.1.2.2.5.2.8ZM124.8,86.7h-4.3c0-.1,1.1-.1,1.1-.1h.4c0,0,.4,0,.4,0h2.3ZM123.5,85.2c0-.3,0-.5-.2-.7-.1-.2-.3-.4-.5-.5-.2-.1-.5-.2-.8-.2s-.5,0-.8.2c-.2.1-.4.3-.5.5-.1.2-.2.4-.2.7s0,.5.2.7c.1.2.3.4.5.5.2.1.5.2.8.2s.5,0,.8-.2c.2-.1.4-.3.5-.5.1-.2.2-.4.2-.7Z"/>
        <path class="st6" d="M123.6,80.6h-2c-.3,0-.6,0-.7.3s-.2.4-.2.7,0,.4.1.6c0,.2.2.4.3.5h0c-.1,0-.3-.2-.3-.5s-.1-.4-.1-.7c0-.4,0-.6.3-.8.2-.2.5-.3.8-.3h2ZM123.6,81.8c0,.2,0,.4-.1.6s-.2.3-.3.4c-.1,0-.3.1-.5.1s-.3,0-.4-.1c-.1,0-.2-.2-.3-.3,0-.2-.1-.4-.1-.7v-1.2h.1v1.2c0,.4,0,.6.2.8s.3.2.5.2.4,0,.6-.3c.1-.2.2-.4.2-.7s0-.5-.2-.7c-.1-.2-.3-.3-.6-.4h0c.2,0,.4.2.6.4.2.2.2.5.2.8Z"/>
        <path class="st6" d="M120,77.8c0,.2,0,.4-.2.6s-.3.2-.5.2h0c.2-.1.3-.2.4-.3.1-.1.2-.3.2-.5s0-.3-.2-.5c-.1-.1-.2-.2-.4-.2h0c.2-.1.4,0,.5.1.1.2.2.3.2.6ZM123.6,79.2h-3.1c0-.1,2.9-.1,2.9-.1l-2.9-2.4h0c0,0,3.1,0,3.1,0h0c0,.1-2.9.1-2.9.1l2.9,2.4h0Z"/>
        <path class="st6" d="M123.6,75.1h-3.1v-1.2c0-.3,0-.6.2-.8s.3-.3.6-.3.4,0,.6.3c.1.2.2.4.2.7h0c0-.4,0-.7.2-.9.1-.2.3-.2.6-.2s.5,0,.6.3.2.5.2.9v1.2ZM122,75v-1.1c0-.3,0-.5-.2-.7-.1-.2-.3-.2-.5-.2s-.4,0-.5.2c-.1.2-.2.4-.2.7v1.1h1.4ZM123.5,75v-1.1c0-.3,0-.6-.2-.8-.1-.2-.3-.3-.5-.3s-.4,0-.5.2c-.1.2-.2.4-.2.7v1.2h1.4Z"/>
        <path class="st6" d="M123.6,70.3c0,.3,0,.6-.2.8-.1.2-.3.4-.6.5-.2.1-.5.2-.8.2s-.6,0-.8-.2c-.2-.1-.4-.3-.6-.5-.1-.2-.2-.5-.2-.7s0-.5.2-.7c.1-.2.3-.4.5-.5.2-.1.5-.2.8-.2h0v2.8h-.1v-2.7h0c-.3,0-.5.1-.7.2-.2.1-.4.3-.5.5-.1.2-.2.4-.2.7s0,.5.2.7c.1.2.3.4.5.5.2.1.5.2.7.2h0c.3,0,.5,0,.8-.2.2-.1.4-.3.5-.5s.2-.5.2-.7,0-.4-.1-.6-.2-.3-.4-.5h0c.2,0,.3.2.4.4s.1.4.1.6Z"/>
        <path class="st6" d="M123.6,66.5c0,.3,0,.5-.2.8-.1.2-.3.4-.6.5-.2.1-.5.2-.8.2s-.6,0-.8-.2c-.2-.1-.4-.3-.6-.5-.1-.2-.2-.5-.2-.8s0-.5.2-.8.3-.4.6-.5c.2-.1.5-.2.8-.2s.6,0,.8.2c.2.1.4.3.6.5.1.2.2.5.2.8ZM124.8,68h-4.3c0-.1,1.1-.1,1.1-.1h.4c0,0,.4,0,.4,0h2.3ZM123.5,66.5c0-.3,0-.5-.2-.7s-.3-.4-.5-.5-.5-.2-.8-.2-.5,0-.8.2c-.2.1-.4.3-.5.5s-.2.4-.2.7,0,.5.2.7.3.4.5.5c.2.1.5.2.8.2s.5,0,.8-.2c.2-.1.4-.3.5-.5s.2-.4.2-.7Z"/>
        <path class="st6" d="M123.5,60.2h-2.9v1.8h.9c.2,0,.5,0,.7,0s.5,0,.7.1c.2,0,.4.1.5.2s.2.2.2.3h0s0-.1-.2-.2c-.1,0-.3-.1-.5-.2-.2,0-.4,0-.6,0-.2,0-.5,0-.7,0h-1v-2.1h3ZM124.4,63h-.9v-3.4h.9c0,.1-.8.1-.8.1v3.2h.8Z"/>
        <path class="st6" d="M123.6,58.6h-3.1v-1.2c0-.3,0-.6.2-.8s.3-.3.6-.3.4,0,.6.3.2.4.2.7h0c0-.4,0-.7.2-.9.1-.2.3-.2.6-.2s.5,0,.6.3.2.5.2.9v1.2ZM122,58.5v-1.1c0-.3,0-.5-.2-.7-.1-.2-.3-.2-.5-.2s-.4,0-.5.2c-.1.2-.2.4-.2.7v1.1h1.4ZM123.5,58.5v-1.1c0-.3,0-.6-.2-.8-.1-.2-.3-.3-.5-.3s-.4,0-.5.2c-.1.2-.2.4-.2.7v1.2h1.4Z"/>
        <path class="st6" d="M123.6,55.1h-3.1c0-.1,2.9-.1,2.9-.1l-2.9-2.4h0c0,0,3.1,0,3.1,0h0c0,.1-2.9.1-2.9.1l2.9,2.4h0Z"/>
        <path class="st6" d="M123.6,51h-3.1v-2h.1v1.9h0s3,0,3,0h0Z"/>
        <path class="st6" d="M123.6,46.4h-2c-.3,0-.6,0-.7.3s-.2.4-.2.7,0,.4.1.6c0,.2.2.4.3.5h0c-.1,0-.3-.2-.3-.5,0-.2-.1-.4-.1-.7,0-.4,0-.6.3-.8.2-.2.5-.3.8-.3h2ZM123.6,47.6c0,.2,0,.4-.1.6s-.2.3-.3.4c-.1,0-.3.1-.5.1s-.3,0-.4-.1c-.1,0-.2-.2-.3-.3,0-.2-.1-.4-.1-.7v-1.2h.1v1.2c0,.4,0,.6.2.8s.3.2.5.2.4,0,.6-.3c.1-.2.2-.4.2-.7s0-.5-.2-.7c-.1-.2-.3-.3-.6-.4h0c.2,0,.4.2.6.4s.2.5.2.8Z"/>
        <path class="st6" d="M123.6,44.4h-3,0s0,1.3,0,1.3h-.1v-2.6h.1v1.3h0s3,0,3,0h0Z"/>
        <path class="st6" d="M123.6,41.1c0,.3,0,.6-.2.8-.1.2-.3.4-.6.5-.2.1-.5.2-.8.2s-.6,0-.8-.2c-.2-.1-.4-.3-.6-.5-.1-.2-.2-.5-.2-.7s0-.5.2-.7c.1-.2.3-.4.5-.5.2-.1.5-.2.8-.2h0v2.8h-.1v-2.7h0c-.3,0-.5.1-.7.2-.2.1-.4.3-.5.5-.1.2-.2.4-.2.7s0,.5.2.7c.1.2.3.4.5.5.2.1.5.2.7.2h0c.3,0,.5,0,.8-.2.2-.1.4-.3.5-.5s.2-.5.2-.7,0-.4-.1-.6-.2-.3-.4-.5h0c.2,0,.3.2.4.4s.1.4.1.6Z"/>
        <path class="st6" d="M123.6,39.4h-.1s0,0,0-.1c0,0,0,0,0,0,0-.1,0-.2-.2-.3-.1,0-.3-.1-.5-.2s-.4,0-.6-.1c-.2,0-.5,0-.7,0h-1v-2.1h3.1c0,.1-3,.1-3,.1h0s0,1.8,0,1.8h0s1,0,1,0c.3,0,.5,0,.8,0s.5,0,.7.1c.2,0,.4.1.5.2.1,0,.2.2.2.4s0,0,0,0c0,0,0,0,0,.1Z"/>
        <path class="st6" d="M123.6,33h-1.2,0s0,1.1,0,1.1c0,.4,0,.7-.2.9s-.4.3-.7.3-.6-.1-.8-.3c-.2-.2-.2-.5-.2-.9v-1.2h3.1ZM122.4,33h-1.8,0s0,1.1,0,1.1c0,.4,0,.6.2.8.1.2.4.3.7.3.6,0,.9-.4.9-1.1v-1.2h0ZM123.6,35.3l-1.2-.9h0c0-.1,1.2.7,1.2.7h0Z"/>
      </g>
    </g>
    <g class="st5">
      <g class="st5">
        <path class="st6" d="M101.8,119.5c-.3,0-.6,0-.9-.2-.3-.1-.5-.3-.7-.4s-.3-.4-.4-.7c-.1-.3-.2-.5-.2-.8s0-.6.2-.8c.1-.3.3-.5.4-.7s.4-.3.7-.4c.3-.1.5-.2.9-.2s.5,0,.8.1c.2,0,.5.2.6.4h0c-.2,0-.4-.2-.6-.3s-.5-.1-.7-.1-.6,0-.8.2c-.2.1-.5.2-.6.4-.2.2-.3.4-.4.6-.1.2-.2.5-.2.8s0,.5.2.8c.1.2.2.4.4.6s.4.3.6.4c.2.1.5.2.8.2s.5,0,.7-.1c.2,0,.4-.2.6-.4h0c-.2.3-.4.4-.6.5-.2,0-.5.1-.8.1ZM103.1,119v-1.5h.1v1.5h-.1Z"/>
        <path class="st6" d="M104.7,119.5v-4.1h.1l3.1,4h0v-4h.1v4.1h-.1l-3.1-4h0v4h-.1Z"/>
        <path class="st6" d="M109.5,119.5v-4.1h1.6c.4,0,.8,0,1.1.3.3.2.6.4.8.7.2.3.3.7.3,1.1s0,.8-.3,1.1c-.2.3-.4.6-.8.7-.3.2-.7.3-1.1.3h-1.6ZM109.6,119.4h1.4c.4,0,.8,0,1.1-.3s.6-.4.7-.7c.2-.3.3-.6.3-1s0-.7-.3-1c-.2-.3-.4-.5-.7-.7-.3-.2-.7-.3-1.1-.3h-1.4v3.9Z"/>
      </g>
    </g>
    <g class="st5">
      <g class="st5">
        <path class="st6" d="M74.8,131.9h0c0,.1-2.5.1-2.5.1h0c0-.1,2.5-.1,2.5-.1ZM73.6,130.7v2.4h-.1v-2.4h.1Z"/>
      </g>
    </g>
    <g class="st5">
      <g class="st5">
        <path class="st6" d="M83.6,131.4h0c0,.1-1.5.1-1.5.1h0c0-.1,1.5-.1,1.5-.1Z"/>
      </g>
    </g>
  </g>
  <path class="st2" d="M111.4,14.2c.5.9,1.5,1.4,2.1,2.3"/>
  <path class="st2" d="M111.6,12.9h1.9"/>
  <path class="st2" d="M112.6,27.2c-.1.5-.2,1.1,0,1.6"/>
  <path class="st2" d="M111,37.6c.5.8,1,1.6,1.7,2.2"/>
  <path class="st2" d="M111.5,36c.5.1,1.1.2,1.6.1"/>
  <path class="st2" d="M111.7,49.6c0,.4,0,.8,0,1.3"/>
  <path class="st2" d="M111.6,59.8c.2.2.5.4.7.6.7.6,1.3,1.2,2,1.7.1.1.3.3.4.4"/>
  <path class="st2" d="M112.6,58.5c.1,0,.3,0,.4,0,.8,0,1.6,0,2.4-.2"/>
  <path class="st2" d="M112.7,72v1.4"/>
  <path class="st2" d="M112.3,82.3c.4.6.9,1.2,1.4,1.7"/>
  <path class="st2" d="M112.6,80.8c.6.1,1.2.2,1.8.2"/>
  <path class="st2" d="M112.9,94.9c0,.5,0,1,0,1.6"/>
  <path class="st0" d="M88.4,106.1c-.2.3.2.6.5.5s.1-.7-.2-.7c-.4,0-.5.6-.3.9,0,0,0,0,0,0,.1,0,.3,0,.3-.2.2-.4,0-.9-.4-1.1-.2.2-.4.4-.4.7s.2.6.5.6c.1,0,.2,0,.3-.2.2-.2.2-.6,0-.9s-.5-.4-.8-.3c-.4.2-.2.8.1,1s.8,0,1.1-.4c0,0,.1-.2.1-.3,0,0-.1-.2-.2-.2-.4-.2-1-.2-1.3.2,0,0-.2.2-.2.4,0,.4.4.8.8.6.3-.2.4-.6.3-.9s-.4-.5-.6-.7"/>
  <ellipse class="st1" cx="88.3" cy="106" rx=".4" ry=".7"/>
</svg>