<?xml version="1.0" encoding="UTF-8"?><svg id="_Слой_2" data-name="Слой 2" xmlns="http://www.w3.org/2000/svg" viewBox="0 0 110.18 110.17"><defs><style>
.cls-1 {
fill: none;
stroke: #b8bac0;
}
.cls-1, .cls-2, .cls-3 {
stroke-miterlimit: 10;
stroke-width: .5px;
}
.cls-2 {
fill: #f39200;
}
.cls-2, .cls-3 {
stroke: #1d1d1b;
}
.cls-3 {
fill: #7e7e7d;
}
.cls-4 {
fill: #b8bac0;
}
.cls-4, .cls-5 {
stroke-width: 0px;
}
.cls-5 {
fill: #1d1d1b;
}
</style></defs><g id="scheme_w" data-name="scheme w"><circle class="cls-1" cx="12.69" cy="5.92" r="4.25"/><path class="cls-4" d="m20.16,2.02v1.41h1.36v.36h-1.36v1.42h-.38v-1.42h-1.35v-.36h1.35v-1.41h.38Z"/><path class="cls-1" d="m5.67,3.57v.39h-1.48v-.39h1.48Z"/><line class="cls-1" x1="24.49" y1="5.88" x2="16.84" y2="5.88"/><circle class="cls-1" cx="12.7" cy="17.27" r="4.25"/><path class="cls-4" d="m20.17,13.37v1.41h1.36v.36h-1.36v1.42h-.38v-1.42h-1.35v-.36h1.35v-1.41h.38Z"/><path class="cls-1" d="m5.68,14.92v.39h-1.48v-.39h1.48Z"/><line class="cls-1" x1="24.57" y1="17.27" x2="16.95" y2="17.27"/><line class="cls-1" x1="8.27" y1="17.27" x2=".83" y2="17.27"/><circle class="cls-1" cx=".82" cy="17.32" r=".57"/><circle class="cls-1" cx="12.7" cy="28.9" r="4.25"/><path class="cls-4" d="m20.17,25v1.41h1.36v.36h-1.36v1.42h-.38v-1.42h-1.35v-.36h1.35v-1.41h.38Z"/><path class="cls-1" d="m5.68,26.55v.39h-1.48v-.39h1.48Z"/><line class="cls-1" x1="24.57" y1="28.9" x2="16.95" y2="28.9"/><line class="cls-1" x1="8.27" y1="28.9" x2=".83" y2="28.9"/><circle class="cls-1" cx=".82" cy="28.95" r=".57"/><circle class="cls-1" cx="12.7" cy="40.02" r="4.25"/><path class="cls-4" d="m20.17,36.12v1.41h1.36v.36h-1.36v1.42h-.38v-1.42h-1.35v-.36h1.35v-1.41h.38Z"/><path class="cls-1" d="m5.68,37.67v.39h-1.48v-.39h1.48Z"/><line class="cls-1" x1="24.57" y1="40.02" x2="16.95" y2="40.02"/><line class="cls-1" x1="8.27" y1="40.02" x2=".83" y2="40.02"/><circle class="cls-1" cx=".82" cy="40.07" r=".57"/><path class="cls-4" d="m20.17,47.14v1.41h1.36v.36h-1.36v1.42h-.38v-1.42h-1.35v-.36h1.35v-1.41h.38Z"/><path class="cls-1" d="m5.68,48.69v.39h-1.48v-.39h1.48Z"/><line class="cls-1" x1="24.57" y1="51.04" x2="16.95" y2="51.04"/><line class="cls-1" x1="8.27" y1="51.04" x2=".83" y2="51.04"/><circle class="cls-1" cx=".82" cy="51.1" r=".57"/><circle class="cls-1" cx="12.69" cy="62.38" r="4.25"/><path class="cls-4" d="m20.16,58.48v1.41h1.36v.36h-1.36v1.42h-.38v-1.42h-1.35v-.36h1.35v-1.41h.38Z"/><path class="cls-1" d="m5.67,60.03v.39h-1.48v-.39h1.48Z"/><line class="cls-1" x1="24.56" y1="62.38" x2="16.95" y2="62.38"/><line class="cls-1" x1="8.26" y1="62.38" x2=".82" y2="62.38"/><circle class="cls-1" cx=".82" cy="62.43" r=".57"/><circle class="cls-1" cx="12.7" cy="74.1" r="4.25"/><path class="cls-4" d="m20.17,70.2v1.41h1.36v.36h-1.36v1.42h-.38v-1.42h-1.35v-.36h1.35v-1.41h.38Z"/><path class="cls-1" d="m5.68,71.75v.39h-1.48v-.39h1.48Z"/><line class="cls-1" x1="24.57" y1="74.1" x2="16.95" y2="74.1"/><line class="cls-1" x1="8.27" y1="74.1" x2=".83" y2="74.1"/><circle class="cls-1" cx=".82" cy="74.15" r=".57"/><circle class="cls-1" cx="12.7" cy="85.43" r="4.25"/><path class="cls-4" d="m20.17,81.53v1.41h1.36v.36h-1.36v1.42h-.38v-1.42h-1.35v-.36h1.35v-1.41h.38Z"/><path class="cls-1" d="m5.68,83.08v.39h-1.48v-.39h1.48Z"/><line class="cls-1" x1="24.57" y1="85.43" x2="16.95" y2="85.43"/><line class="cls-1" x1="8.27" y1="85.43" x2=".83" y2="85.43"/><circle class="cls-1" cx=".82" cy="85.48" r=".57"/><line class="cls-1" x1="23.85" y1="96.65" x2=".83" y2="96.65"/><circle class="cls-1" cx=".82" cy="96.7" r=".57"/><circle class="cls-1" cx="97.55" cy="5.92" r="4.25"/><path class="cls-4" d="m90.46,2.02v1.41h1.35v.36h-1.35v1.42h-.38v-1.42h-1.36v-.36h1.36v-1.41h.38Z"/><path class="cls-1" d="m106,3.55v.39h-1.48v-.39h1.48Z"/><line class="cls-1" x1="85.68" y1="5.92" x2="93.37" y2="5.88"/><circle class="cls-1" cx="97.54" cy="17.27" r="4.25"/><path class="cls-4" d="m90.45,13.37v1.41h1.35v.36h-1.35v1.42h-.38v-1.42h-1.36v-.36h1.36v-1.41h.38Z"/><path class="cls-1" d="m105.99,14.9v.39h-1.48v-.39h1.48Z"/><line class="cls-1" x1="85.67" y1="17.27" x2="93.29" y2="17.27"/><line class="cls-1" x1="101.92" y1="17.25" x2="109.36" y2="17.25"/><circle class="cls-1" cx="109.36" cy="17.3" r=".57"/><circle class="cls-1" cx="97.54" cy="28.9" r="4.25"/><path class="cls-4" d="m90.45,25v1.41h1.35v.36h-1.35v1.42h-.38v-1.42h-1.36v-.36h1.36v-1.41h.38Z"/><path class="cls-1" d="m105.99,26.53v.39h-1.48v-.39h1.48Z"/><line class="cls-1" x1="85.67" y1="28.9" x2="93.29" y2="28.9"/><line class="cls-1" x1="101.92" y1="28.88" x2="109.36" y2="28.88"/><circle class="cls-1" cx="109.36" cy="28.93" r=".57"/><circle class="cls-1" cx="97.54" cy="40.02" r="4.25"/><path class="cls-4" d="m90.45,36.12v1.41h1.35v.36h-1.35v1.42h-.38v-1.42h-1.36v-.36h1.36v-1.41h.38Z"/><path class="cls-1" d="m105.99,37.65v.39h-1.48v-.39h1.48Z"/><line class="cls-1" x1="85.67" y1="40.02" x2="93.29" y2="40.02"/><line class="cls-1" x1="101.92" y1="40" x2="109.36" y2="40"/><circle class="cls-1" cx="109.36" cy="40.05" r=".57"/><circle class="cls-1" cx="97.54" cy="51.04" r="4.25"/><path class="cls-4" d="m90.45,47.14v1.41h1.35v.36h-1.35v1.42h-.38v-1.42h-1.36v-.36h1.36v-1.41h.38Z"/><path class="cls-1" d="m105.99,48.67v.39h-1.48v-.39h1.48Z"/><line class="cls-1" x1="85.67" y1="51.04" x2="93.29" y2="51.04"/><line class="cls-1" x1="101.92" y1="51.02" x2="109.36" y2="51.02"/><circle class="cls-1" cx="109.36" cy="51.07" r=".57"/><circle class="cls-1" cx="97.54" cy="62.38" r="4.25"/><path class="cls-4" d="m90.46,58.48v1.41h1.35v.36h-1.35v1.42h-.38v-1.42h-1.36v-.36h1.36v-1.41h.38Z"/><path class="cls-1" d="m105.99,60.01v.39h-1.48v-.39h1.48Z"/><line class="cls-1" x1="85.67" y1="62.38" x2="93.29" y2="62.38"/><line class="cls-1" x1="101.92" y1="62.36" x2="109.36" y2="62.36"/><circle class="cls-1" cx="109.37" cy="62.41" r=".57"/><circle class="cls-1" cx="97.54" cy="74.1" r="4.25"/><path class="cls-4" d="m90.45,70.2v1.41h1.35v.36h-1.35v1.42h-.38v-1.42h-1.36v-.36h1.36v-1.41h.38Z"/><path class="cls-1" d="m105.99,71.73v.39h-1.48v-.39h1.48Z"/><line class="cls-1" x1="85.67" y1="74.1" x2="93.29" y2="74.1"/><line class="cls-1" x1="101.92" y1="74.08" x2="109.36" y2="74.08"/><circle class="cls-1" cx="109.36" cy="74.13" r=".57"/><circle class="cls-1" cx="97.54" cy="85.43" r="4.25"/><path class="cls-4" d="m90.45,81.53v1.41h1.35v.36h-1.35v1.42h-.38v-1.42h-1.36v-.36h1.36v-1.41h.38Z"/><path class="cls-1" d="m105.99,83.05v.39h-1.48v-.39h1.48Z"/><line class="cls-1" x1="85.67" y1="85.43" x2="93.29" y2="85.43"/><line class="cls-1" x1="101.92" y1="85.4" x2="109.36" y2="85.4"/><circle class="cls-1" cx="109.36" cy="85.46" r=".57"/><line class="cls-1" x1="85.86" y1="96.63" x2="109.36" y2="96.63"/><circle class="cls-1" cx="109.36" cy="96.68" r=".57"/><polyline class="cls-1" points="8.33 5.88 .68 5.88 .68 109.92 109.53 109.92 109.53 5.88 101.88 5.88"/><line class="cls-1" x1="8.97" y1="5.92" x2="16.06" y2="5.92"/><line class="cls-1" x1="101.1" y1="5.92" x2="94.01" y2="5.92"/><line class="cls-1" x1="9.15" y1="28.77" x2="16.23" y2="28.77"/><line class="cls-1" x1="101.27" y1="28.77" x2="94.19" y2="28.77"/><line class="cls-1" x1="9.15" y1="17.26" x2="16.23" y2="17.26"/><line class="cls-1" x1="101.27" y1="17.26" x2="94.19" y2="17.26"/><line class="cls-1" x1="9.15" y1="39.94" x2="16.23" y2="39.94"/><line class="cls-1" x1="101.27" y1="39.94" x2="94.19" y2="39.94"/><line class="cls-1" x1="9.32" y1="50.92" x2="16.41" y2="50.92"/><line class="cls-1" x1="101.45" y1="50.92" x2="94.36" y2="50.92"/><line class="cls-1" x1="9.15" y1="62.26" x2="16.23" y2="62.26"/><line class="cls-1" x1="101.27" y1="62.26" x2="94.19" y2="62.26"/><line class="cls-1" x1="9.15" y1="73.95" x2="16.23" y2="73.95"/><line class="cls-1" x1="101.27" y1="73.95" x2="94.19" y2="73.95"/><line class="cls-1" x1="9.15" y1="85.29" x2="16.23" y2="85.29"/><line class="cls-1" x1="101.27" y1="85.29" x2="94.19" y2="85.29"/><circle class="cls-1" cx="12.72" cy="50.95" r="4.25"/></g><g id="scheme"><rect class="cls-3" x="32.36" y=".25" width="22.68" height="11.34"/><rect class="cls-3" x="55.03" y=".25" width="22.68" height="11.34"/><rect class="cls-2" x="23.85" y=".25" width="8.5" height="11.34"/><rect class="cls-2" x="77.71" y=".25" width="8.5" height="11.34"/><rect class="cls-3" x="32.36" y="11.59" width="22.68" height="11.34"/><rect class="cls-3" x="55.03" y="11.59" width="22.68" height="11.34"/><rect class="cls-2" x="23.85" y="11.59" width="8.5" height="11.34"/><rect class="cls-2" x="77.71" y="11.59" width="8.5" height="11.34"/><rect class="cls-3" x="32.36" y="22.75" width="22.68" height="11.34"/><rect class="cls-3" x="55.03" y="22.75" width="22.68" height="11.34"/><rect class="cls-2" x="23.85" y="22.75" width="8.5" height="11.34"/><rect class="cls-2" x="77.71" y="22.75" width="8.5" height="11.34"/><rect class="cls-3" x="32.36" y="34.09" width="22.68" height="11.34"/><rect class="cls-3" x="55.03" y="34.09" width="22.68" height="11.34"/><rect class="cls-2" x="23.85" y="34.09" width="8.5" height="11.34"/><rect class="cls-2" x="77.71" y="34.09" width="8.5" height="11.34"/><rect class="cls-3" x="32.36" y="45.25" width="22.68" height="11.34"/><rect class="cls-3" x="55.03" y="45.25" width="22.68" height="11.34"/><rect class="cls-2" x="23.85" y="45.25" width="8.5" height="11.34"/><rect class="cls-2" x="77.71" y="45.25" width="8.5" height="11.34"/><rect class="cls-3" x="32.36" y="56.59" width="22.68" height="11.34"/><rect class="cls-3" x="55.03" y="56.59" width="22.68" height="11.34"/><rect class="cls-2" x="23.85" y="56.59" width="8.5" height="11.34"/><rect class="cls-2" x="77.71" y="56.59" width="8.5" height="11.34"/><rect class="cls-3" x="32.36" y="67.93" width="22.68" height="11.34"/><rect class="cls-3" x="55.03" y="67.93" width="22.68" height="11.34"/><rect class="cls-2" x="23.85" y="67.93" width="8.5" height="11.34"/><rect class="cls-2" x="77.71" y="67.93" width="8.5" height="11.34"/><rect class="cls-3" x="32.36" y="79.27" width="22.68" height="11.34"/><rect class="cls-3" x="55.03" y="79.27" width="22.68" height="11.34"/><rect class="cls-2" x="23.85" y="79.27" width="8.5" height="11.34"/><rect class="cls-2" x="77.71" y="79.27" width="8.5" height="11.34"/><rect class="cls-3" x="32.36" y="90.6" width="22.68" height="11.34"/><rect class="cls-3" x="55.03" y="90.6" width="22.68" height="11.34"/><rect class="cls-2" x="23.85" y="90.6" width="8.5" height="11.34"/><rect class="cls-2" x="77.71" y="90.6" width="8.5" height="11.34"/></g><g id="scheme_letters" data-name="scheme letters"><g><path class="cls-5" d="m41.07,6.88l-.42,1.27h-.54l1.37-4.04h.63l1.38,4.04h-.56l-.43-1.27h-1.43Zm1.33-.41l-.4-1.16c-.09-.26-.15-.5-.21-.74h-.01c-.06.24-.12.49-.2.73l-.4,1.17h1.22Z"/><path class="cls-5" d="m44.61,4.11v4.04h-.52v-4.04h.52Z"/><path class="cls-5" d="m46.48,4.75h-.01l-.68.37-.1-.4.85-.46h.45v3.9h-.51v-3.41Z"/></g><path class="cls-5" d="m27.8,4.64h-.01l-.68.37-.1-.4.85-.46h.45v3.9h-.51v-3.41Z"/><path class="cls-5" d="m80.77,8.05v-.32l.41-.4c1-.95,1.45-1.45,1.45-2.04,0-.4-.19-.76-.77-.76-.35,0-.65.18-.83.33l-.17-.37c.27-.23.65-.4,1.1-.4.84,0,1.19.58,1.19,1.13,0,.72-.52,1.3-1.34,2.09l-.31.29h0s1.75.01,1.75.01v.44h-2.49Z"/><g><path class="cls-5" d="m63.74,6.77l-.42,1.27h-.54l1.37-4.04h.63l1.38,4.04h-.56l-.43-1.27h-1.43Zm1.33-.41l-.4-1.16c-.09-.26-.15-.5-.21-.74h-.01c-.06.24-.13.49-.2.73l-.4,1.17h1.22Z"/><path class="cls-5" d="m67.28,4v4.04h-.52v-4.04h.52Z"/><path class="cls-5" d="m68.01,8.05v-.32l.41-.4c1-.95,1.45-1.45,1.45-2.04,0-.4-.19-.76-.77-.76-.35,0-.65.18-.83.33l-.17-.37c.27-.23.65-.4,1.1-.4.84,0,1.19.58,1.19,1.13,0,.72-.52,1.3-1.34,2.09l-.31.29h0s1.75.01,1.75.01v.44h-2.49Z"/></g><g><path class="cls-5" d="m41.07,18.22l-.42,1.27h-.54l1.37-4.04h.63l1.38,4.04h-.56l-.43-1.27h-1.43Zm1.33-.41l-.4-1.16c-.09-.26-.15-.5-.21-.74h-.01c-.06.24-.12.49-.2.73l-.4,1.17h1.22Z"/><path class="cls-5" d="m44.61,15.45v4.04h-.52v-4.04h.52Z"/><path class="cls-5" d="m45.46,18.88c.15.1.5.25.86.25.68,0,.89-.43.88-.76,0-.55-.5-.78-1.01-.78h-.29v-.4h.29c.38,0,.87-.2.87-.66,0-.31-.2-.59-.68-.59-.31,0-.61.14-.78.26l-.14-.38c.2-.15.6-.3,1.02-.3.77,0,1.12.46,1.12.93,0,.4-.24.74-.72.92h0c.48.11.87.47.87,1.01,0,.62-.49,1.17-1.42,1.17-.44,0-.82-.14-1.01-.26l.14-.41Z"/></g><path class="cls-5" d="m26.79,18.78c.12.1.41.25.71.25.56,0,.73-.43.73-.76,0-.55-.41-.78-.83-.78h-.24v-.4h.24c.32,0,.72-.2.72-.66,0-.31-.16-.59-.57-.59-.26,0-.51.14-.64.26l-.11-.38c.17-.15.5-.3.84-.3.63,0,.92.46.92.93,0,.4-.2.74-.6.92h0c.4.11.72.47.72,1.01,0,.62-.4,1.17-1.18,1.17-.36,0-.68-.14-.84-.26l.12-.41Z"/><path class="cls-5" d="m82.4,19.38v-1.06h-1.81v-.35l1.74-2.49h.57v2.42h.55v.41h-.55v1.06h-.5Zm0-1.48v-1.3c0-.2,0-.41.02-.61h-.02c-.12.23-.22.4-.32.58l-.95,1.33h0s1.28.01,1.28.01Z"/><g><path class="cls-5" d="m63.74,18.11l-.42,1.27h-.54l1.37-4.04h.63l1.38,4.04h-.56l-.43-1.27h-1.43Zm1.33-.41l-.4-1.16c-.09-.26-.15-.5-.21-.74h-.01c-.06.24-.13.49-.2.73l-.4,1.17h1.22Z"/><path class="cls-5" d="m67.28,15.34v4.04h-.52v-4.04h.52Z"/><path class="cls-5" d="m69.64,19.38v-1.06h-1.81v-.35l1.74-2.49h.57v2.42h.55v.41h-.55v1.06h-.5Zm0-1.48v-1.3c0-.2,0-.41.02-.61h-.02c-.12.23-.22.4-.32.58l-.95,1.33h0s1.28.01,1.28.01Z"/></g><g><path class="cls-5" d="m41.07,29.38l-.42,1.27h-.54l1.37-4.04h.63l1.38,4.04h-.56l-.43-1.27h-1.43Zm1.33-.41l-.4-1.16c-.09-.26-.15-.5-.21-.74h-.01c-.06.24-.12.49-.2.73l-.4,1.17h1.22Z"/><path class="cls-5" d="m44.61,26.61v4.04h-.52v-4.04h.52Z"/><path class="cls-5" d="m47.66,27.2h-1.49l-.15,1c.09-.01.17-.02.32-.02.3,0,.6.07.84.21.31.17.56.51.56,1,0,.76-.61,1.33-1.45,1.33-.43,0-.79-.12-.97-.24l.13-.4c.16.1.48.22.83.22.5,0,.92-.32.92-.85,0-.5-.34-.86-1.12-.86-.22,0-.4.02-.54.04l.25-1.87h1.87v.44Z"/></g><path class="cls-5" d="m28.98,27.09h-1.49l-.15,1c.09-.01.17-.02.32-.02.3,0,.6.07.84.21.31.17.56.51.56,1,0,.76-.61,1.33-1.45,1.33-.43,0-.79-.12-.97-.24l.13-.4c.16.1.48.22.83.22.5,0,.92-.32.92-.85,0-.5-.34-.86-1.12-.86-.22,0-.4.02-.54.04l.25-1.87h1.87v.44Z"/><path class="cls-5" d="m82.99,27.02c-.11,0-.25,0-.4.02-.83.14-1.27.74-1.36,1.39h.02c.19-.25.51-.45.94-.45.69,0,1.17.5,1.17,1.26,0,.71-.49,1.37-1.29,1.37s-1.38-.65-1.38-1.66c0-.77.28-1.37.66-1.76.32-.32.76-.52,1.25-.58.16-.02.29-.03.38-.03v.43Zm-.15,2.25c0-.56-.32-.89-.8-.89-.32,0-.61.2-.76.48-.04.06-.06.14-.06.23.01.64.31,1.12.86,1.12.46,0,.76-.38.76-.94Z"/><g><path class="cls-5" d="m63.74,29.27l-.42,1.27h-.54l1.37-4.04h.63l1.38,4.04h-.56l-.43-1.27h-1.43Zm1.33-.41l-.4-1.16c-.09-.26-.15-.5-.21-.74h-.01c-.06.24-.13.49-.2.73l-.4,1.17h1.22Z"/><path class="cls-5" d="m67.28,26.5v4.04h-.52v-4.04h.52Z"/><path class="cls-5" d="m70.24,27.02c-.11,0-.25,0-.4.02-.83.14-1.26.74-1.35,1.39h.02c.19-.25.51-.45.94-.45.69,0,1.18.5,1.18,1.26,0,.71-.49,1.37-1.3,1.37s-1.38-.65-1.38-1.66c0-.77.28-1.37.66-1.76.32-.32.76-.52,1.25-.58.16-.02.29-.03.38-.03v.43Zm-.15,2.25c0-.56-.32-.89-.8-.89-.32,0-.61.2-.75.48-.04.06-.06.14-.06.23.01.64.31,1.12.86,1.12.46,0,.76-.38.76-.94Z"/></g><g><path class="cls-5" d="m41.07,40.72l-.42,1.27h-.54l1.37-4.04h.63l1.38,4.04h-.56l-.43-1.27h-1.43Zm1.33-.41l-.4-1.16c-.09-.26-.15-.5-.21-.74h-.01c-.06.24-.12.49-.2.73l-.4,1.17h1.22Z"/><path class="cls-5" d="m44.61,37.95v4.04h-.52v-4.04h.52Z"/><path class="cls-5" d="m47.86,38.09v.35l-1.7,3.55h-.54l1.69-3.45h0s-1.91-.01-1.91-.01v-.44h2.46Z"/></g><path class="cls-5" d="m29.19,37.99v.35l-1.7,3.55h-.55l1.69-3.45h0s-1.91-.01-1.91-.01v-.44h2.46Z"/><path class="cls-5" d="m80.72,40.89c0-.49.29-.84.77-1.04v-.02c-.44-.2-.62-.54-.62-.88,0-.62.52-1.04,1.21-1.04.75,0,1.13.47,1.13.96,0,.33-.16.68-.64.91v.02c.49.19.79.53.79,1.01,0,.68-.58,1.13-1.33,1.13-.82,0-1.31-.49-1.31-1.06Zm2.1-.02c0-.47-.33-.7-.86-.85-.46.13-.7.43-.7.8-.02.4.28.74.78.74s.78-.29.78-.7Zm-1.45-1.95c0,.39.29.6.74.72.33-.11.59-.35.59-.71,0-.31-.19-.64-.66-.64-.44,0-.68.29-.68.62Z"/><g><path class="cls-5" d="m63.74,40.61l-.42,1.27h-.54l1.37-4.04h.63l1.38,4.04h-.56l-.43-1.27h-1.43Zm1.33-.41l-.4-1.16c-.09-.26-.15-.5-.21-.74h-.01c-.06.24-.13.49-.2.73l-.4,1.17h1.22Z"/><path class="cls-5" d="m67.28,37.84v4.04h-.52v-4.04h.52Z"/><path class="cls-5" d="m67.96,40.89c0-.49.29-.84.77-1.04v-.02c-.44-.2-.62-.54-.62-.88,0-.62.52-1.04,1.21-1.04.76,0,1.13.47,1.13.96,0,.33-.16.68-.64.91v.02c.49.19.79.53.79,1.01,0,.68-.58,1.13-1.33,1.13-.82,0-1.31-.49-1.31-1.06Zm2.1-.02c0-.47-.33-.7-.86-.85-.46.13-.7.43-.7.8-.02.4.28.74.78.74s.78-.29.78-.7Zm-1.45-1.95c0,.39.29.6.74.72.34-.11.59-.35.59-.71,0-.31-.19-.64-.66-.64-.44,0-.68.29-.68.62Z"/></g><g><path class="cls-5" d="m41.07,51.88l-.42,1.27h-.54l1.37-4.04h.63l1.38,4.04h-.56l-.43-1.27h-1.43Zm1.33-.41l-.4-1.16c-.09-.26-.15-.5-.21-.74h-.01c-.06.24-.12.49-.2.73l-.4,1.17h1.22Z"/><path class="cls-5" d="m44.61,49.11v4.04h-.52v-4.04h.52Z"/><path class="cls-5" d="m45.64,52.78c.11.01.25,0,.43-.02.31-.04.59-.17.82-.38.26-.23.44-.58.52-1.04h-.02c-.22.26-.53.42-.92.42-.7,0-1.15-.53-1.15-1.19,0-.74.53-1.39,1.33-1.39s1.29.65,1.29,1.64c0,.86-.29,1.46-.67,1.83-.3.29-.71.47-1.13.52-.19.03-.36.04-.49.03v-.43Zm.19-2.24c0,.49.29.83.75.83.35,0,.63-.17.77-.41.03-.05.05-.11.05-.19,0-.67-.25-1.18-.8-1.18-.45,0-.77.4-.77.95Z"/></g><path class="cls-5" d="m26.96,52.67c.11.01.25,0,.43-.02.31-.04.59-.17.82-.38.26-.23.44-.58.52-1.04h-.02c-.22.26-.53.42-.92.42-.7,0-1.15-.53-1.15-1.19,0-.74.53-1.39,1.33-1.39s1.29.65,1.29,1.64c0,.86-.29,1.46-.67,1.83-.3.29-.71.47-1.13.52-.19.03-.36.04-.49.03v-.43Zm.19-2.24c0,.49.29.83.75.83.35,0,.63-.17.77-.41.03-.05.05-.11.05-.19,0-.67-.25-1.18-.8-1.18-.45,0-.77.4-.77.95Z"/><g><path class="cls-5" d="m80.37,49.64h-.01l-.68.37-.1-.4.85-.46h.45v3.9h-.51v-3.41Z"/><path class="cls-5" d="m84.9,51.05c0,1.33-.49,2.06-1.36,2.06-.76,0-1.28-.71-1.29-2,0-1.31.56-2.03,1.36-2.03s1.29.73,1.29,1.97Zm-2.12.06c0,1.01.31,1.59.79,1.59.54,0,.8-.63.8-1.62s-.25-1.59-.79-1.59c-.46,0-.8.56-.8,1.62Z"/></g><g><path class="cls-5" d="m62.21,51.77l-.42,1.27h-.54l1.37-4.04h.63l1.38,4.04h-.56l-.43-1.27h-1.43Zm1.33-.41l-.4-1.16c-.09-.26-.15-.5-.21-.74h-.01c-.06.24-.13.49-.2.73l-.4,1.17h1.22Z"/><path class="cls-5" d="m65.75,49v4.04h-.52v-4.04h.52Z"/><path class="cls-5" d="m67.62,49.64h-.01l-.68.37-.1-.4.85-.46h.45v3.9h-.51v-3.41Z"/><path class="cls-5" d="m72.14,51.05c0,1.33-.49,2.06-1.35,2.06-.76,0-1.28-.71-1.29-2,0-1.31.56-2.03,1.36-2.03s1.29.73,1.29,1.97Zm-2.12.06c0,1.01.31,1.59.79,1.59.54,0,.8-.63.8-1.62s-.25-1.59-.79-1.59c-.46,0-.8.56-.8,1.62Z"/></g><g><path class="cls-5" d="m39.53,63.22l-.42,1.27h-.54l1.37-4.04h.63l1.38,4.04h-.56l-.43-1.27h-1.43Zm1.33-.41l-.4-1.16c-.09-.26-.15-.5-.21-.74h-.01c-.06.24-.12.49-.2.73l-.4,1.17h1.22Z"/><path class="cls-5" d="m43.07,60.45v4.04h-.52v-4.04h.52Z"/><path class="cls-5" d="m44.94,61.08h-.01l-.68.37-.1-.4.85-.46h.45v3.9h-.51v-3.41Z"/><path class="cls-5" d="m48.02,61.08h-.01l-.68.37-.1-.4.85-.46h.45v3.9h-.51v-3.41Z"/></g><g><path class="cls-5" d="m26.26,60.98h-.01l-.68.37-.1-.4.85-.46h.45v3.9h-.51v-3.41Z"/><path class="cls-5" d="m29.34,60.98h-.01l-.68.37-.1-.4.85-.46h.45v3.9h-.51v-3.41Z"/></g><g><path class="cls-5" d="m80.37,60.98h-.01l-.68.37-.1-.4.85-.46h.45v3.9h-.51v-3.41Z"/><path class="cls-5" d="m82.31,64.38v-.32l.41-.4c1-.95,1.45-1.45,1.45-2.04,0-.4-.19-.76-.77-.76-.35,0-.65.18-.83.33l-.17-.37c.27-.23.65-.4,1.1-.4.84,0,1.19.58,1.19,1.13,0,.72-.52,1.3-1.34,2.09l-.31.29h0s1.75.01,1.75.01v.44h-2.49Z"/></g><g><path class="cls-5" d="m62.21,63.11l-.42,1.27h-.54l1.37-4.04h.63l1.38,4.04h-.56l-.43-1.27h-1.43Zm1.33-.41l-.4-1.16c-.09-.26-.15-.5-.21-.74h-.01c-.06.24-.13.49-.2.73l-.4,1.17h1.22Z"/><path class="cls-5" d="m65.75,60.34v4.04h-.52v-4.04h.52Z"/><path class="cls-5" d="m67.62,60.98h-.01l-.68.37-.1-.4.85-.46h.45v3.9h-.51v-3.41Z"/><path class="cls-5" d="m69.55,64.38v-.32l.41-.4c1-.95,1.45-1.45,1.45-2.04,0-.4-.19-.76-.77-.76-.35,0-.65.18-.83.33l-.17-.37c.27-.23.65-.4,1.1-.4.84,0,1.19.58,1.19,1.13,0,.72-.52,1.3-1.34,2.09l-.31.29h0s1.75.01,1.75.01v.44h-2.49Z"/></g><g><path class="cls-5" d="m39.53,74.56l-.42,1.27h-.54l1.37-4.04h.63l1.38,4.04h-.56l-.43-1.27h-1.43Zm1.33-.41l-.4-1.16c-.09-.26-.15-.5-.21-.74h-.01c-.06.24-.12.49-.2.73l-.4,1.17h1.22Z"/><path class="cls-5" d="m43.07,71.79v4.04h-.52v-4.04h.52Z"/><path class="cls-5" d="m44.94,72.42h-.01l-.68.37-.1-.4.85-.46h.45v3.9h-.51v-3.41Z"/><path class="cls-5" d="m47,75.22c.15.1.5.25.86.25.68,0,.89-.43.88-.76,0-.55-.5-.78-1.01-.78h-.29v-.4h.29c.38,0,.87-.2.87-.66,0-.31-.2-.59-.68-.59-.31,0-.61.14-.78.26l-.14-.38c.2-.15.6-.3,1.02-.3.77,0,1.12.46,1.12.93,0,.4-.24.74-.72.92h0c.48.11.87.47.87,1.01,0,.62-.49,1.17-1.42,1.17-.44,0-.82-.14-1.01-.26l.14-.41Z"/></g><g><path class="cls-5" d="m26.26,72.32h-.01l-.68.37-.1-.4.85-.46h.45v3.9h-.51v-3.41Z"/><path class="cls-5" d="m28.32,75.12c.15.1.5.25.86.25.68,0,.89-.43.88-.76,0-.55-.5-.78-1.01-.78h-.29v-.4h.29c.38,0,.87-.2.87-.66,0-.31-.2-.59-.68-.59-.31,0-.61.14-.78.26l-.14-.38c.2-.15.6-.3,1.02-.3.77,0,1.12.46,1.12.93,0,.4-.24.74-.72.92h0c.48.11.87.47.87,1.01,0,.62-.49,1.17-1.42,1.17-.44,0-.82-.14-1.01-.26l.14-.41Z"/></g><g><path class="cls-5" d="m80.37,72.32h-.01l-.68.37-.1-.4.85-.46h.45v3.9h-.51v-3.41Z"/><path class="cls-5" d="m83.94,75.72v-1.06h-1.81v-.35l1.74-2.49h.57v2.42h.55v.41h-.55v1.06h-.5Zm0-1.48v-1.3c0-.2,0-.41.02-.61h-.02c-.12.23-.22.4-.32.58l-.95,1.33h0s1.28.01,1.28.01Z"/></g><g><path class="cls-5" d="m63.74,74.45l-.42,1.27h-.54l1.37-4.04h.63l1.38,4.04h-.56l-.43-1.27h-1.43Zm1.33-.41l-.4-1.16c-.09-.26-.15-.5-.21-.74h-.01c-.06.24-.13.49-.2.73l-.4,1.17h1.22Z"/><path class="cls-5" d="m67.28,71.68v4.04h-.52v-4.04h.52Z"/><path class="cls-5" d="m69.64,75.72v-1.06h-1.81v-.35l1.74-2.49h.57v2.42h.55v.41h-.55v1.06h-.5Zm0-1.48v-1.3c0-.2,0-.41.02-.61h-.02c-.12.23-.22.4-.32.58l-.95,1.33h0s1.28.01,1.28.01Z"/></g><g><path class="cls-5" d="m39.53,85.9l-.42,1.27h-.54l1.37-4.04h.63l1.38,4.04h-.56l-.43-1.27h-1.43Zm1.33-.41l-.4-1.16c-.09-.26-.15-.5-.21-.74h-.01c-.06.24-.12.49-.2.73l-.4,1.17h1.22Z"/><path class="cls-5" d="m43.07,83.13v4.04h-.52v-4.04h.52Z"/><path class="cls-5" d="m44.94,83.76h-.01l-.68.37-.1-.4.85-.46h.45v3.9h-.51v-3.41Z"/><path class="cls-5" d="m49.2,83.71h-1.49l-.15,1c.09-.01.17-.02.32-.02.3,0,.6.07.84.21.31.17.56.51.56,1,0,.76-.61,1.33-1.45,1.33-.43,0-.79-.12-.97-.24l.13-.4c.16.1.48.22.83.22.5,0,.92-.32.92-.85,0-.5-.34-.86-1.12-.86-.22,0-.4.02-.54.04l.25-1.87h1.87v.44Z"/></g><g><path class="cls-5" d="m26.26,83.65h-.01l-.68.37-.1-.4.85-.46h.45v3.9h-.51v-3.41Z"/><path class="cls-5" d="m30.52,83.61h-1.49l-.15,1c.09-.01.17-.02.32-.02.3,0,.6.07.84.21.31.17.56.51.56,1,0,.76-.61,1.33-1.45,1.33-.43,0-.79-.12-.97-.24l.13-.4c.16.1.48.22.83.22.5,0,.92-.32.92-.85,0-.5-.34-.86-1.12-.86-.22,0-.4.02-.54.04l.25-1.87h1.87v.44Z"/></g><g><path class="cls-5" d="m80.37,83.65h-.01l-.68.37-.1-.4.85-.46h.45v3.9h-.51v-3.41Z"/><path class="cls-5" d="m84.53,83.54c-.11,0-.25,0-.4.02-.83.14-1.27.74-1.36,1.39h.02c.19-.25.51-.45.94-.45.69,0,1.17.5,1.17,1.26,0,.71-.49,1.37-1.29,1.37s-1.38-.65-1.38-1.66c0-.77.28-1.37.66-1.76.32-.32.76-.52,1.25-.58.16-.02.29-.03.38-.03v.43Zm-.15,2.25c0-.56-.32-.89-.8-.89-.32,0-.61.2-.76.48-.04.06-.06.14-.06.23.01.64.31,1.12.86,1.12.46,0,.76-.38.76-.94Z"/></g><g><path class="cls-5" d="m62.21,85.79l-.42,1.27h-.54l1.37-4.04h.63l1.38,4.04h-.56l-.43-1.27h-1.43Zm1.33-.41l-.4-1.16c-.09-.26-.15-.5-.21-.74h-.01c-.06.24-.13.49-.2.73l-.4,1.17h1.22Z"/><path class="cls-5" d="m65.75,83.02v4.04h-.52v-4.04h.52Z"/><path class="cls-5" d="m67.62,83.65h-.01l-.68.37-.1-.4.85-.46h.45v3.9h-.51v-3.41Z"/><path class="cls-5" d="m71.77,83.54c-.11,0-.25,0-.4.02-.83.14-1.26.74-1.35,1.39h.02c.19-.25.51-.45.94-.45.69,0,1.18.5,1.18,1.26,0,.71-.49,1.37-1.3,1.37s-1.38-.65-1.38-1.66c0-.77.28-1.37.66-1.76.32-.32.76-.52,1.25-.58.16-.02.29-.03.38-.03v.43Zm-.15,2.25c0-.56-.32-.89-.8-.89-.32,0-.61.2-.75.48-.04.06-.06.14-.06.23.01.64.31,1.12.86,1.12.46,0,.76-.38.76-.94Z"/></g><g><path class="cls-5" d="m39.54,95.32v1.41h1.35v.36h-1.35v1.42h-.38v-1.42h-1.36v-.36h1.36v-1.41h.38Z"/><path class="cls-5" d="m41.4,98.51v-.32l.41-.4c1-.95,1.45-1.45,1.45-2.04,0-.4-.19-.76-.77-.76-.35,0-.65.18-.83.33l-.17-.37c.27-.23.65-.4,1.1-.4.84,0,1.19.58,1.19,1.13,0,.72-.52,1.3-1.34,2.09l-.31.29h0s1.75.01,1.75.01v.44h-2.49Z"/><path class="cls-5" d="m46.11,98.51v-1.06h-1.81v-.35l1.74-2.49h.57v2.42h.55v.41h-.55v1.06h-.5Zm0-1.48v-1.3c0-.2,0-.41.02-.61h-.02c-.12.23-.21.4-.32.58l-.95,1.33h0s1.28.01,1.28.01Z"/><path class="cls-5" d="m47.74,94.52c.23-.05.59-.08.95-.08.52,0,.86.09,1.11.29.21.16.34.4.34.71,0,.39-.26.73-.68.89h0c.38.11.83.43.83,1.03,0,.35-.14.61-.34.81-.28.26-.74.38-1.4.38-.36,0-.64-.02-.81-.05v-3.98Zm.52,1.66h.47c.55,0,.88-.29.88-.68,0-.47-.36-.66-.89-.66-.24,0-.38.02-.46.04v1.3Zm0,1.94c.1.02.25.02.44.02.54,0,1.04-.2,1.04-.79,0-.55-.47-.78-1.04-.78h-.43v1.54Z"/></g><g><path class="cls-5" d="m26.26,94.99h-.01l-.68.37-.1-.4.85-.46h.45v3.9h-.51v-3.41Z"/><path class="cls-5" d="m30.73,94.5v.35l-1.7,3.55h-.55l1.69-3.45h0s-1.91-.01-1.91-.01v-.44h2.46Z"/></g><g><path class="cls-5" d="m80.37,94.99h-.01l-.68.37-.1-.4.85-.46h.45v3.9h-.51v-3.41Z"/><path class="cls-5" d="m82.26,97.41c0-.49.29-.84.77-1.04v-.02c-.44-.2-.62-.54-.62-.88,0-.62.52-1.04,1.21-1.04.75,0,1.13.47,1.13.96,0,.33-.16.68-.64.91v.02c.49.19.79.53.79,1.01,0,.68-.58,1.13-1.33,1.13-.82,0-1.31-.49-1.31-1.06Zm2.1-.02c0-.47-.33-.7-.86-.85-.46.13-.7.43-.7.8-.02.4.28.74.78.74s.78-.29.78-.7Zm-1.45-1.95c0,.39.29.6.74.72.33-.11.59-.35.59-.71,0-.31-.19-.64-.66-.64-.44,0-.68.29-.68.62Z"/></g><g><path class="cls-5" d="m64.35,98.22c-.23.08-.7.22-1.24.22-.61,0-1.12-.16-1.51-.53-.35-.34-.56-.88-.56-1.51,0-1.21.83-2.09,2.19-2.09.47,0,.83.1,1.01.19l-.13.43c-.22-.1-.49-.17-.89-.17-.98,0-1.62.61-1.62,1.62s.62,1.63,1.56,1.63c.34,0,.58-.05.7-.11v-1.21h-.82v-.42h1.33v1.94Z"/><path class="cls-5" d="m65.15,98.4v-4.04h.57l1.3,2.04c.3.47.53.9.73,1.31h.01c-.05-.55-.06-1.04-.06-1.67v-1.69h.49v4.04h-.53l-1.28-2.05c-.28-.45-.55-.91-.76-1.35h-.02c.03.52.04,1,.04,1.67v1.73h-.49Z"/><path class="cls-5" d="m69.1,94.41c.32-.05.7-.08,1.11-.08.75,0,1.28.17,1.64.5.36.33.57.8.57,1.45s-.2,1.2-.58,1.57c-.38.38-1,.58-1.79.58-.37,0-.68-.02-.95-.05v-3.98Zm.52,3.57c.13.02.32.03.53.03,1.12,0,1.72-.62,1.72-1.71,0-.95-.53-1.56-1.64-1.56-.27,0-.47.02-.61.05v3.19Z"/></g></g></svg>