<?xml version="1.0" encoding="UTF-8"?><svg id="_Слой_2" data-name="Слой 2" xmlns="http://www.w3.org/2000/svg" viewBox="0 0 95.57 114.45"><defs><style>
.cls-1 {
fill: none;
stroke: #b8bac0;
}
.cls-1, .cls-2, .cls-3 {
stroke-miterlimit: 10;
stroke-width: .5px;
}
.cls-2 {
fill: #f39200;
}
.cls-2, .cls-3 {
stroke: #1d1d1b;
}
.cls-3 {
fill: #7e7e7d;
}
.cls-4 {
fill: #b8bac0;
}
.cls-4, .cls-5 {
stroke-width: 0px;
}
.cls-5 {
fill: #1d1d1b;
}
</style></defs><g id="scheme_w" data-name="scheme w"><rect class="cls-1" x="80.22" y="102.16" width="11.34" height="4.54" transform="translate(-18.53 190.31) rotate(-90)"/><polyline class="cls-1" points="95.57 108.96 90.47 108.96 80.27 99.04"/><g><path class="cls-4" d="m91.54,104.09v.83h.76v.4h-.76v1.56c0,.36.1.56.4.56.14,0,.24-.02.31-.04l.02.4c-.1.04-.26.07-.47.07-.25,0-.44-.08-.57-.22-.15-.16-.2-.41-.2-.76v-1.58h-.45v-.4h.45v-.7l.52-.14Z"/><path class="cls-4" d="m94.22,104.5c0,.49-.39.8-.8.8-.47,0-.79-.35-.79-.77,0-.46.35-.81.8-.81.49,0,.79.37.79.78Zm-1.26.03c0,.28.2.49.47.49s.47-.22.47-.52c0-.22-.13-.5-.47-.5-.31,0-.47.27-.47.53Z"/></g><polyline class="cls-1" points="8.79 15.27 3.97 15.27 3.97 4.79 77.39 4.79 77.39 7.9"/><polyline class="cls-1" points="8.75 49.31 .25 49.31 .28 .25 94.39 .25 94.39 29.45 77.39 29.45 77.39 41.07"/><polyline class="cls-1" points="85.89 110.23 85.89 114.2 3.69 114.2 3.69 94.64 8.79 94.64"/><polyline class="cls-1" points="68.88 94.6 85.89 94.6 85.89 98.9"/><path class="cls-4" d="m80.61,4.43v1.41h1.35v.36h-1.35v1.42h-.38v-1.42h-1.36v-.36h1.36v-1.41h.38Z"/><path class="cls-4" d="m81.46,14.31v.39h-1.48v-.39h1.48Z"/><circle class="cls-1" cx="77.39" cy="8.19" r=".57"/><polyline class="cls-1" points="77.39 8.19 83.91 8.19 88.72 10.46"/><polyline class="cls-1" points="77.39 12.72 83.91 12.72 88.72 10.46"/><circle class="cls-1" cx="77.39" cy="12.72" r=".57"/><circle class="cls-1" cx="88.72" cy="10.46" r=".57"/><polyline class="cls-1" points="68.31 15.84 77.39 15.84 77.39 13.01"/><path class="cls-4" d="m80.61,37.88v1.41h1.35v.36h-1.35v1.42h-.38v-1.42h-1.36v-.36h1.36v-1.41h.38Z"/><path class="cls-4" d="m81.46,47.76v.39h-1.48v-.39h1.48Z"/><circle class="cls-1" cx="77.39" cy="41.64" r=".57"/><polyline class="cls-1" points="77.39 41.64 83.91 41.64 88.72 43.9"/><polyline class="cls-1" points="77.39 46.17 83.91 46.17 88.72 43.9"/><circle class="cls-1" cx="77.39" cy="46.17" r=".57"/><circle class="cls-1" cx="88.72" cy="43.9" r=".57"/><polyline class="cls-1" points="68.31 49.29 77.39 49.29 77.39 46.46"/><circle class="cls-1" cx="80.65" cy="19.1" r=".71"/><circle class="cls-1" cx="80.65" cy="24.77" r=".71"/><circle class="cls-1" cx="80.65" cy="21.94" r=".71"/><circle class="cls-1" cx="80.5" cy="52.97" r=".71"/><circle class="cls-1" cx="80.5" cy="58.64" r=".71"/><circle class="cls-1" cx="80.5" cy="55.81" r=".71"/></g><g id="scheme"><rect class="cls-3" x="15.75" y="9.75" width="22.68" height="11.34"/><rect class="cls-3" x="38.43" y="9.75" width="22.68" height="11.34"/><rect class="cls-2" x="7.24" y="9.75" width="8.5" height="11.34"/><rect class="cls-2" x="61.1" y="9.75" width="8.5" height="11.34"/><rect class="cls-3" x="15.75" y="21.09" width="22.68" height="11.34"/><rect class="cls-3" x="38.43" y="21.09" width="22.68" height="11.34"/><rect class="cls-2" x="7.24" y="21.09" width="8.5" height="11.34"/><rect class="cls-2" x="61.1" y="21.09" width="8.5" height="11.34"/><rect class="cls-3" x="15.75" y="32.25" width="22.68" height="11.34"/><rect class="cls-3" x="38.43" y="32.25" width="22.68" height="11.34"/><rect class="cls-2" x="7.24" y="32.25" width="8.5" height="11.34"/><rect class="cls-2" x="61.1" y="32.25" width="8.5" height="11.34"/><rect class="cls-3" x="15.75" y="43.59" width="22.68" height="11.34"/><rect class="cls-3" x="38.43" y="43.59" width="22.68" height="11.34"/><rect class="cls-2" x="7.24" y="43.59" width="8.5" height="11.34"/><rect class="cls-2" x="61.1" y="43.59" width="8.5" height="11.34"/><rect class="cls-3" x="15.75" y="54.75" width="22.68" height="11.34"/><rect class="cls-3" x="38.43" y="54.75" width="22.68" height="11.34"/><rect class="cls-2" x="7.24" y="54.75" width="8.5" height="11.34"/><rect class="cls-2" x="61.1" y="54.75" width="8.5" height="11.34"/><rect class="cls-3" x="15.75" y="66.09" width="22.68" height="11.34"/><rect class="cls-3" x="38.43" y="66.09" width="22.68" height="11.34"/><rect class="cls-2" x="7.24" y="66.09" width="8.5" height="11.34"/><rect class="cls-2" x="61.1" y="66.09" width="8.5" height="11.34"/><rect class="cls-3" x="15.75" y="77.42" width="22.68" height="11.34"/><rect class="cls-3" x="38.43" y="77.42" width="22.68" height="11.34"/><rect class="cls-2" x="7.24" y="77.42" width="8.5" height="11.34"/><rect class="cls-2" x="61.1" y="77.42" width="8.5" height="11.34"/><rect class="cls-3" x="15.75" y="88.76" width="22.68" height="11.34"/><rect class="cls-3" x="38.43" y="88.76" width="22.68" height="11.34"/><rect class="cls-2" x="7.24" y="88.76" width="8.5" height="11.34"/><rect class="cls-2" x="61.1" y="88.76" width="8.5" height="11.34"/><rect class="cls-3" x="15.75" y="100.1" width="22.68" height="11.34"/><rect class="cls-3" x="38.43" y="100.1" width="22.68" height="11.34"/><rect class="cls-2" x="7.24" y="100.1" width="8.5" height="11.34"/><rect class="cls-2" x="61.1" y="100.1" width="8.5" height="11.34"/></g><g id="scheme_letters" data-name="scheme letters"><g><path class="cls-5" d="m21.85,14.05h-1.23v-.44h2.99v.44h-1.24v3.6h-.53v-3.6Z"/><path class="cls-5" d="m26.73,17.52c-.19.1-.58.19-1.07.19-1.14,0-2-.72-2-2.04s.86-2.12,2.11-2.12c.5,0,.82.11.96.18l-.13.43c-.2-.1-.48-.17-.82-.17-.95,0-1.58.61-1.58,1.67,0,.99.57,1.62,1.55,1.62.32,0,.64-.07.85-.17l.11.41Z"/><path class="cls-5" d="m28.34,14.24h-.01l-.68.37-.1-.4.85-.46h.45v3.9h-.51v-3.41Z"/><path class="cls-5" d="m31.99,14.46v1.41h1.35v.36h-1.35v1.42h-.38v-1.42h-1.36v-.36h1.36v-1.41h.38Z"/></g><path class="cls-5" d="m11.19,14.14h-.01l-.68.37-.1-.4.85-.46h.45v3.9h-.51v-3.41Z"/><path class="cls-5" d="m64.16,17.54v-.32l.41-.4c1-.95,1.45-1.45,1.45-2.04,0-.4-.19-.76-.77-.76-.35,0-.65.18-.83.33l-.17-.37c.27-.23.65-.4,1.1-.4.84,0,1.19.58,1.19,1.13,0,.72-.52,1.3-1.34,2.09l-.31.29h0s1.75.01,1.75.01v.44h-2.49Z"/><g><path class="cls-5" d="m45.73,13.94h-1.23v-.44h2.99v.44h-1.24v3.6h-.53v-3.6Z"/><path class="cls-5" d="m50.61,17.41c-.19.1-.58.19-1.07.19-1.14,0-2-.72-2-2.04s.86-2.12,2.11-2.12c.5,0,.82.11.96.18l-.12.43c-.2-.1-.48-.17-.82-.17-.95,0-1.58.61-1.58,1.67,0,.99.57,1.62,1.55,1.62.32,0,.64-.07.85-.17l.11.41Z"/><path class="cls-5" d="m52.22,14.14h-.01l-.68.37-.1-.4.85-.46h.45v3.9h-.51v-3.41Z"/><path class="cls-5" d="m55.55,15.73v.39h-1.48v-.39h1.48Z"/></g><g><path class="cls-5" d="m21.85,25.39h-1.23v-.44h2.99v.44h-1.24v3.6h-.53v-3.6Z"/><path class="cls-5" d="m26.73,28.85c-.19.1-.58.19-1.07.19-1.14,0-2-.72-2-2.04s.86-2.12,2.11-2.12c.5,0,.82.11.96.18l-.13.43c-.2-.1-.48-.17-.82-.17-.95,0-1.58.61-1.58,1.67,0,.99.57,1.62,1.55,1.62.32,0,.64-.07.85-.17l.11.41Z"/><path class="cls-5" d="m27.2,28.99v-.32l.41-.4c1-.95,1.45-1.45,1.45-2.04,0-.4-.19-.76-.77-.76-.35,0-.65.18-.83.33l-.17-.37c.27-.23.65-.4,1.1-.4.84,0,1.19.58,1.19,1.13,0,.72-.52,1.3-1.34,2.09l-.31.29h0s1.75.01,1.75.01v.44h-2.49Z"/><path class="cls-5" d="m31.99,25.8v1.41h1.35v.36h-1.35v1.42h-.38v-1.42h-1.36v-.36h1.36v-1.41h.38Z"/></g><path class="cls-5" d="m10.19,28.28c.12.1.41.25.71.25.56,0,.73-.43.73-.76,0-.55-.41-.78-.83-.78h-.24v-.4h.24c.32,0,.72-.2.72-.66,0-.31-.16-.59-.57-.59-.26,0-.51.14-.64.26l-.11-.38c.17-.15.5-.3.84-.3.63,0,.92.46.92.93,0,.4-.2.74-.6.92h0c.4.11.72.47.72,1.01,0,.62-.4,1.17-1.18,1.17-.36,0-.68-.14-.84-.26l.12-.41Z"/><path class="cls-5" d="m65.79,28.88v-1.06h-1.81v-.35l1.74-2.49h.57v2.42h.54v.41h-.54v1.06h-.5Zm0-1.48v-1.3c0-.2,0-.41.02-.61h-.02c-.12.23-.22.4-.32.58l-.95,1.33h0s1.28.01,1.28.01Z"/><g><path class="cls-5" d="m45.73,25.28h-1.23v-.44h2.99v.44h-1.24v3.6h-.53v-3.6Z"/><path class="cls-5" d="m50.61,28.75c-.19.1-.58.19-1.07.19-1.14,0-2-.72-2-2.04s.86-2.12,2.11-2.12c.5,0,.82.11.96.18l-.12.43c-.2-.1-.48-.17-.82-.17-.95,0-1.58.61-1.58,1.67,0,.99.57,1.62,1.55,1.62.32,0,.64-.07.85-.17l.11.41Z"/><path class="cls-5" d="m51.08,28.88v-.32l.41-.4c1-.95,1.45-1.45,1.45-2.04,0-.4-.19-.76-.77-.76-.35,0-.65.18-.83.33l-.17-.37c.27-.23.65-.4,1.1-.4.84,0,1.19.58,1.19,1.13,0,.72-.52,1.3-1.34,2.09l-.31.29h0s1.75.01,1.75.01v.44h-2.49Z"/><path class="cls-5" d="m55.55,27.06v.39h-1.48v-.39h1.48Z"/></g><g><path class="cls-5" d="m21.85,36.55h-1.23v-.44h2.99v.44h-1.24v3.6h-.53v-3.6Z"/><path class="cls-5" d="m26.73,40.02c-.19.1-.58.19-1.07.19-1.14,0-2-.72-2-2.04s.86-2.12,2.11-2.12c.5,0,.82.11.96.18l-.13.43c-.2-.1-.48-.17-.82-.17-.95,0-1.58.61-1.58,1.67,0,.99.57,1.62,1.55,1.62.32,0,.64-.07.85-.17l.11.41Z"/><path class="cls-5" d="m27.32,39.54c.15.1.5.25.86.25.68,0,.89-.43.88-.76,0-.55-.5-.78-1.01-.78h-.29v-.4h.29c.38,0,.87-.2.87-.66,0-.31-.2-.59-.68-.59-.31,0-.61.14-.78.26l-.14-.38c.2-.15.6-.3,1.02-.3.77,0,1.12.46,1.12.93,0,.4-.24.74-.72.92h0c.48.11.87.47.87,1.01,0,.62-.49,1.17-1.42,1.17-.44,0-.82-.14-1.01-.26l.14-.41Z"/><path class="cls-5" d="m31.99,36.96v1.41h1.35v.36h-1.35v1.42h-.38v-1.42h-1.36v-.36h1.36v-1.41h.38Z"/></g><path class="cls-5" d="m12.38,36.59h-1.49l-.15,1c.09-.01.17-.02.32-.02.3,0,.6.07.84.21.31.17.56.51.56,1,0,.76-.61,1.33-1.45,1.33-.43,0-.79-.12-.97-.24l.13-.4c.16.1.48.22.83.22.5,0,.92-.32.92-.85,0-.5-.34-.86-1.12-.86-.22,0-.4.02-.54.04l.25-1.87h1.87v.44Z"/><path class="cls-5" d="m66.38,36.52c-.11,0-.25,0-.4.02-.83.14-1.26.74-1.35,1.39h.02c.19-.25.51-.45.94-.45.69,0,1.17.5,1.17,1.26,0,.71-.49,1.37-1.3,1.37s-1.38-.65-1.38-1.66c0-.77.28-1.37.66-1.76.32-.32.76-.52,1.25-.58.16-.02.29-.03.38-.03v.43Zm-.15,2.25c0-.56-.32-.89-.8-.89-.32,0-.61.2-.76.48-.04.06-.06.14-.06.23.01.64.31,1.12.86,1.12.46,0,.76-.38.76-.94Z"/><g><path class="cls-5" d="m45.73,36.44h-1.23v-.44h2.99v.44h-1.24v3.6h-.53v-3.6Z"/><path class="cls-5" d="m50.61,39.91c-.19.1-.58.19-1.07.19-1.14,0-2-.72-2-2.04s.86-2.12,2.11-2.12c.5,0,.82.11.96.18l-.12.43c-.2-.1-.48-.17-.82-.17-.95,0-1.58.61-1.58,1.67,0,.99.57,1.62,1.55,1.62.32,0,.64-.07.85-.17l.11.41Z"/><path class="cls-5" d="m51.2,39.44c.15.1.5.25.86.25.68,0,.89-.43.88-.76,0-.55-.5-.78-1.01-.78h-.29v-.4h.29c.38,0,.87-.2.87-.66,0-.31-.2-.59-.68-.59-.31,0-.61.14-.78.26l-.14-.38c.2-.15.6-.3,1.02-.3.77,0,1.12.46,1.12.93,0,.4-.24.74-.72.92h0c.48.11.87.47.87,1.01,0,.62-.49,1.17-1.42,1.17-.44,0-.82-.14-1.01-.26l.14-.41Z"/><path class="cls-5" d="m55.55,38.23v.39h-1.48v-.39h1.48Z"/></g><g><path class="cls-5" d="m21.85,47.89h-1.23v-.44h2.99v.44h-1.24v3.6h-.53v-3.6Z"/><path class="cls-5" d="m26.73,51.35c-.19.1-.58.19-1.07.19-1.14,0-2-.72-2-2.04s.86-2.12,2.11-2.12c.5,0,.82.11.96.18l-.13.43c-.2-.1-.48-.17-.82-.17-.95,0-1.58.61-1.58,1.67,0,.99.57,1.62,1.55,1.62.32,0,.64-.07.85-.17l.11.41Z"/><path class="cls-5" d="m28.83,51.49v-1.06h-1.81v-.35l1.74-2.49h.57v2.42h.55v.41h-.55v1.06h-.5Zm0-1.48v-1.3c0-.2,0-.41.02-.61h-.02c-.12.23-.22.4-.32.58l-.95,1.33h0s1.28.01,1.28.01Z"/><path class="cls-5" d="m31.99,48.3v1.41h1.35v.36h-1.35v1.42h-.38v-1.42h-1.36v-.36h1.36v-1.41h.38Z"/></g><path class="cls-5" d="m12.58,47.48v.35l-1.7,3.55h-.55l1.69-3.45h0s-1.91-.01-1.91-.01v-.44h2.46Z"/><path class="cls-5" d="m64.11,50.39c0-.49.29-.84.77-1.04v-.02c-.44-.2-.62-.54-.62-.88,0-.62.52-1.04,1.21-1.04.76,0,1.13.47,1.13.96,0,.33-.16.68-.64.91v.02c.49.19.79.53.79,1.01,0,.68-.58,1.13-1.32,1.13-.82,0-1.31-.49-1.31-1.06Zm2.1-.02c0-.47-.33-.7-.86-.85-.46.13-.7.43-.7.8-.02.4.28.74.78.74s.78-.29.78-.7Zm-1.45-1.95c0,.39.29.6.74.72.33-.11.59-.35.59-.71,0-.31-.19-.64-.66-.64-.44,0-.68.29-.68.62Z"/><g><path class="cls-5" d="m45.24,47.78h-1.23v-.44h2.99v.44h-1.24v3.6h-.53v-3.6Z"/><path class="cls-5" d="m50.12,51.25c-.19.1-.58.19-1.07.19-1.14,0-2-.72-2-2.04s.86-2.12,2.11-2.12c.5,0,.82.11.96.18l-.13.43c-.2-.1-.48-.17-.82-.17-.95,0-1.58.61-1.58,1.67,0,.99.57,1.62,1.55,1.62.32,0,.64-.07.85-.17l.11.41Z"/><path class="cls-5" d="m52.22,51.38v-1.06h-1.81v-.35l1.74-2.49h.57v2.42h.55v.41h-.55v1.06h-.5Zm0-1.48v-1.3c0-.2,0-.41.02-.61h-.02c-.12.23-.22.4-.32.58l-.95,1.33h0s1.28.01,1.28.01Z"/><path class="cls-5" d="m55.06,49.56v.39h-1.48v-.39h1.48Z"/></g><g><path class="cls-5" d="m21.85,59.05h-1.23v-.44h2.99v.44h-1.24v3.6h-.53v-3.6Z"/><path class="cls-5" d="m26.73,62.52c-.19.1-.58.19-1.07.19-1.14,0-2-.72-2-2.04s.86-2.12,2.11-2.12c.5,0,.82.11.96.18l-.13.43c-.2-.1-.48-.17-.82-.17-.95,0-1.58.61-1.58,1.67,0,.99.57,1.62,1.55,1.62.32,0,.64-.07.85-.17l.11.41Z"/><path class="cls-5" d="m29.52,59.19h-1.49l-.15,1c.09-.01.17-.02.32-.02.3,0,.6.07.84.21.31.17.56.51.56,1,0,.76-.61,1.33-1.45,1.33-.43,0-.79-.12-.97-.24l.13-.4c.16.1.48.22.83.22.5,0,.92-.32.92-.85,0-.5-.34-.86-1.12-.86-.22,0-.4.02-.54.04l.25-1.87h1.87v.44Z"/><path class="cls-5" d="m31.99,59.46v1.41h1.35v.36h-1.35v1.42h-.38v-1.42h-1.36v-.36h1.36v-1.41h.38Z"/></g><path class="cls-5" d="m10.35,62.17c.11.01.25,0,.43-.02.31-.04.59-.17.82-.38.26-.23.44-.58.52-1.04h-.02c-.22.26-.53.42-.92.42-.7,0-1.15-.53-1.15-1.19,0-.74.53-1.39,1.33-1.39s1.29.65,1.29,1.64c0,.86-.29,1.46-.67,1.83-.3.29-.71.47-1.13.52-.19.03-.36.04-.49.03v-.43Zm.19-2.24c0,.49.29.83.75.83.35,0,.63-.17.77-.41.03-.05.05-.11.05-.19,0-.67-.25-1.18-.8-1.18-.45,0-.77.4-.77.95Z"/><g><path class="cls-5" d="m63.76,59.14h-.01l-.68.37-.1-.4.85-.46h.45v3.9h-.51v-3.41Z"/><path class="cls-5" d="m68.29,60.55c0,1.33-.49,2.06-1.35,2.06-.76,0-1.28-.71-1.29-2,0-1.31.56-2.03,1.36-2.03s1.29.73,1.29,1.97Zm-2.12.06c0,1.01.31,1.59.79,1.59.54,0,.8-.63.8-1.62s-.25-1.59-.79-1.59c-.46,0-.8.56-.8,1.62Z"/></g><g><path class="cls-5" d="m45.42,58.94h-1.23v-.44h2.99v.44h-1.24v3.6h-.53v-3.6Z"/><path class="cls-5" d="m50.29,62.41c-.19.1-.58.19-1.07.19-1.14,0-2-.72-2-2.04s.86-2.12,2.11-2.12c.5,0,.82.11.96.18l-.13.43c-.2-.1-.48-.17-.82-.17-.95,0-1.58.61-1.58,1.67,0,.99.57,1.62,1.55,1.62.32,0,.64-.07.85-.17l.11.41Z"/><path class="cls-5" d="m53.09,59.09h-1.49l-.15,1c.09-.01.17-.02.32-.02.3,0,.6.07.84.21.31.17.56.51.56,1,0,.76-.61,1.33-1.45,1.33-.43,0-.79-.12-.97-.24l.13-.4c.16.1.48.22.83.22.5,0,.92-.32.92-.85,0-.5-.34-.86-1.12-.86-.22,0-.4.02-.54.04l.25-1.87h1.87v.44Z"/><path class="cls-5" d="m55.23,60.73v.39h-1.48v-.39h1.48Z"/></g><g><path class="cls-5" d="m21.85,70.39h-1.23v-.44h2.99v.44h-1.24v3.6h-.53v-3.6Z"/><path class="cls-5" d="m26.73,73.85c-.19.1-.58.19-1.07.19-1.14,0-2-.72-2-2.04s.86-2.12,2.11-2.12c.5,0,.82.11.96.18l-.13.43c-.2-.1-.48-.17-.82-.17-.95,0-1.58.61-1.58,1.67,0,.99.57,1.62,1.55,1.62.32,0,.64-.07.85-.17l.11.41Z"/><path class="cls-5" d="m29.42,70.46c-.11,0-.25,0-.4.02-.83.14-1.26.74-1.35,1.39h.02c.19-.25.51-.45.94-.45.69,0,1.18.5,1.18,1.26,0,.71-.49,1.37-1.3,1.37s-1.38-.65-1.38-1.66c0-.77.28-1.37.66-1.76.32-.32.76-.52,1.25-.58.16-.02.29-.03.38-.03v.43Zm-.15,2.25c0-.56-.32-.89-.8-.89-.32,0-.61.2-.75.48-.04.06-.06.14-.06.23.01.64.31,1.12.86,1.12.46,0,.76-.38.76-.94Z"/><path class="cls-5" d="m31.99,70.8v1.41h1.35v.36h-1.35v1.42h-.38v-1.42h-1.36v-.36h1.36v-1.41h.38Z"/></g><g><path class="cls-5" d="m9.65,70.47h-.01l-.68.37-.1-.4.85-.46h.45v3.9h-.51v-3.41Z"/><path class="cls-5" d="m12.73,70.47h-.01l-.68.37-.1-.4.85-.46h.45v3.9h-.51v-3.41Z"/></g><g><path class="cls-5" d="m63.76,70.47h-.01l-.68.37-.1-.4.85-.46h.45v3.9h-.51v-3.41Z"/><path class="cls-5" d="m65.7,73.88v-.32l.41-.4c1-.95,1.45-1.45,1.45-2.04,0-.4-.19-.76-.77-.76-.35,0-.65.18-.83.33l-.17-.37c.27-.23.65-.4,1.1-.4.84,0,1.19.58,1.19,1.13,0,.72-.52,1.3-1.34,2.09l-.31.29h0s1.75.01,1.75.01v.44h-2.49Z"/></g><g><path class="cls-5" d="m45.73,70.28h-1.23v-.44h2.99v.44h-1.24v3.6h-.53v-3.6Z"/><path class="cls-5" d="m50.61,73.75c-.19.1-.58.19-1.07.19-1.14,0-2-.72-2-2.04s.86-2.12,2.11-2.12c.5,0,.82.11.96.18l-.12.43c-.2-.1-.48-.17-.82-.17-.95,0-1.58.61-1.58,1.67,0,.99.57,1.62,1.55,1.62.32,0,.64-.07.85-.17l.11.41Z"/><path class="cls-5" d="m53.3,70.35c-.11,0-.25,0-.4.02-.83.14-1.27.74-1.36,1.39h.02c.19-.25.51-.45.94-.45.69,0,1.17.5,1.17,1.26,0,.71-.49,1.37-1.29,1.37s-1.38-.65-1.38-1.66c0-.77.28-1.37.66-1.76.32-.32.76-.52,1.25-.58.16-.02.29-.03.38-.03v.43Zm-.15,2.25c0-.56-.32-.89-.8-.89-.32,0-.61.2-.75.48-.04.06-.06.14-.06.23.01.64.31,1.12.86,1.12.46,0,.76-.38.76-.94Z"/><path class="cls-5" d="m55.55,72.06v.39h-1.48v-.39h1.48Z"/></g><g><path class="cls-5" d="m21.85,81.73h-1.23v-.44h2.99v.44h-1.24v3.6h-.53v-3.6Z"/><path class="cls-5" d="m26.73,85.19c-.19.1-.58.19-1.07.19-1.14,0-2-.72-2-2.04s.86-2.12,2.11-2.12c.5,0,.82.11.96.18l-.13.43c-.2-.1-.48-.17-.82-.17-.95,0-1.58.61-1.58,1.67,0,.99.57,1.62,1.55,1.62.32,0,.64-.07.85-.17l.11.41Z"/><path class="cls-5" d="m29.73,81.43v.35l-1.7,3.55h-.55l1.69-3.45h0s-1.91-.01-1.91-.01v-.44h2.46Z"/><path class="cls-5" d="m31.99,82.14v1.41h1.35v.36h-1.35v1.42h-.38v-1.42h-1.36v-.36h1.36v-1.41h.38Z"/></g><g><path class="cls-5" d="m9.65,81.81h-.01l-.68.37-.1-.4.85-.46h.45v3.9h-.51v-3.41Z"/><path class="cls-5" d="m11.71,84.61c.15.1.5.25.86.25.68,0,.89-.43.88-.76,0-.55-.5-.78-1.01-.78h-.29v-.4h.29c.38,0,.87-.2.87-.66,0-.31-.2-.59-.68-.59-.31,0-.61.14-.78.26l-.14-.38c.2-.15.6-.3,1.02-.3.77,0,1.12.46,1.12.93,0,.4-.24.74-.72.92h0c.48.11.87.47.87,1.01,0,.62-.49,1.17-1.42,1.17-.44,0-.82-.14-1.01-.26l.14-.41Z"/></g><g><path class="cls-5" d="m63.76,81.81h-.01l-.68.37-.1-.4.85-.46h.45v3.9h-.51v-3.41Z"/><path class="cls-5" d="m67.33,85.22v-1.06h-1.81v-.35l1.74-2.49h.57v2.42h.54v.41h-.54v1.06h-.5Zm0-1.48v-1.3c0-.2,0-.41.02-.61h-.02c-.12.23-.22.4-.32.58l-.95,1.33h0s1.28.01,1.28.01Z"/></g><g><path class="cls-5" d="m45.73,81.62h-1.23v-.44h2.99v.44h-1.24v3.6h-.53v-3.6Z"/><path class="cls-5" d="m50.61,85.09c-.19.1-.58.19-1.07.19-1.14,0-2-.72-2-2.04s.86-2.12,2.11-2.12c.5,0,.82.11.96.18l-.12.43c-.2-.1-.48-.17-.82-.17-.95,0-1.58.61-1.58,1.67,0,.99.57,1.62,1.55,1.62.32,0,.64-.07.85-.17l.11.41Z"/><path class="cls-5" d="m53.61,81.32v.35l-1.7,3.55h-.55l1.69-3.45h0s-1.91-.01-1.91-.01v-.44h2.46Z"/><path class="cls-5" d="m55.55,83.4v.39h-1.48v-.39h1.48Z"/></g><g><path class="cls-5" d="m21.88,93.07h-1.23v-.44h2.99v.44h-1.24v3.6h-.53v-3.6Z"/><path class="cls-5" d="m26.7,96.53c-.19.1-.58.19-1.07.19-1.14,0-2-.72-2-2.04s.86-2.12,2.11-2.12c.5,0,.82.11.96.18l-.13.43c-.2-.1-.48-.17-.82-.17-.95,0-1.58.61-1.58,1.67,0,.99.57,1.62,1.55,1.62.32,0,.64-.07.85-.17l.11.41Z"/><path class="cls-5" d="m27.13,95.67c0-.49.29-.84.77-1.04v-.02c-.44-.2-.62-.54-.62-.88,0-.62.52-1.04,1.21-1.04.75,0,1.13.47,1.13.96,0,.33-.16.68-.64.91v.02c.49.19.79.53.79,1.01,0,.68-.58,1.13-1.33,1.13-.82,0-1.31-.49-1.31-1.06Zm2.1-.02c0-.47-.33-.7-.86-.85-.46.13-.7.43-.7.8-.02.4.28.74.78.74s.78-.29.78-.7Zm-1.45-1.95c0,.39.29.6.74.72.33-.11.59-.35.59-.71,0-.31-.19-.64-.66-.64-.44,0-.68.29-.68.62Z"/><path class="cls-5" d="m31.96,93.47v1.41h1.36v.36h-1.36v1.42h-.38v-1.42h-1.36v-.36h1.36v-1.41h.38Z"/></g><g><path class="cls-5" d="m9.65,93.15h-.01l-.68.37-.1-.4.85-.46h.45v3.9h-.51v-3.41Z"/><path class="cls-5" d="m13.91,93.1h-1.49l-.15,1c.09-.01.17-.02.32-.02.3,0,.6.07.84.21.31.17.56.51.56,1,0,.76-.61,1.33-1.45,1.33-.43,0-.79-.12-.97-.24l.13-.4c.16.1.48.22.83.22.5,0,.92-.32.92-.85,0-.5-.34-.86-1.12-.86-.22,0-.4.02-.54.04l.25-1.87h1.87v.44Z"/></g><g><path class="cls-5" d="m63.76,93.15h-.01l-.68.37-.1-.4.85-.46h.45v3.9h-.51v-3.41Z"/><path class="cls-5" d="m67.92,93.03c-.11,0-.25,0-.4.02-.83.14-1.26.74-1.35,1.39h.02c.19-.25.51-.45.94-.45.69,0,1.17.5,1.17,1.26,0,.71-.49,1.37-1.3,1.37s-1.38-.65-1.38-1.66c0-.77.28-1.37.66-1.76.32-.32.76-.52,1.25-.58.16-.02.29-.03.38-.03v.43Zm-.15,2.25c0-.56-.32-.89-.8-.89-.32,0-.61.2-.76.48-.04.06-.06.14-.06.23.01.64.31,1.12.86,1.12.46,0,.76-.38.76-.94Z"/></g><g><path class="cls-5" d="m45.65,92.96h-1.23v-.44h2.99v.44h-1.24v3.6h-.53v-3.6Z"/><path class="cls-5" d="m50.69,96.43c-.19.1-.58.19-1.07.19-1.14,0-2-.72-2-2.04s.86-2.12,2.11-2.12c.5,0,.82.11.96.18l-.13.43c-.2-.1-.48-.17-.81-.17-.95,0-1.58.61-1.58,1.67,0,.99.57,1.62,1.55,1.62.32,0,.64-.07.85-.17l.11.41Z"/><path class="cls-5" d="m51.11,95.57c0-.49.29-.84.77-1.04v-.02c-.44-.2-.62-.54-.62-.88,0-.62.52-1.04,1.21-1.04.75,0,1.13.47,1.13.96,0,.33-.16.68-.64.91v.02c.49.19.79.53.79,1.01,0,.68-.58,1.13-1.33,1.13-.82,0-1.31-.49-1.31-1.06Zm2.1-.02c0-.47-.33-.7-.86-.85-.46.13-.7.43-.7.8-.02.4.28.74.78.74s.78-.29.78-.7Zm-1.45-1.95c0,.39.29.6.74.72.34-.11.59-.35.59-.71,0-.31-.19-.64-.66-.64-.44,0-.68.29-.68.62Z"/><path class="cls-5" d="m55.63,94.74v.39h-1.48v-.39h1.48Z"/></g><g><path class="cls-5" d="m24.44,107.82c-.23.08-.7.22-1.24.22-.61,0-1.12-.16-1.51-.53-.35-.34-.56-.88-.56-1.51,0-1.21.83-2.09,2.19-2.09.47,0,.83.1,1.01.19l-.13.43c-.22-.1-.49-.17-.89-.17-.98,0-1.62.61-1.62,1.62s.62,1.63,1.56,1.63c.34,0,.58-.05.7-.11v-1.21h-.82v-.42h1.33v1.94Z"/><path class="cls-5" d="m25.24,108v-4.04h.57l1.3,2.04c.3.47.53.9.72,1.31h.01c-.05-.55-.06-1.04-.06-1.67v-1.69h.49v4.04h-.53l-1.28-2.05c-.28-.45-.55-.91-.76-1.35h-.02c.03.52.04,1,.04,1.67v1.73h-.49Z"/><path class="cls-5" d="m29.19,104.01c.32-.05.7-.08,1.11-.08.75,0,1.28.17,1.64.5.36.33.57.8.57,1.45s-.2,1.2-.58,1.57c-.38.38-1,.58-1.79.58-.37,0-.68-.02-.95-.05v-3.98Zm.52,3.57c.13.02.32.03.53.03,1.12,0,1.72-.62,1.72-1.71,0-.95-.53-1.56-1.64-1.56-.27,0-.47.02-.61.05v3.19Z"/></g><g><path class="cls-5" d="m9.65,104.49h-.01l-.68.37-.1-.4.85-.46h.45v3.9h-.51v-3.41Z"/><path class="cls-5" d="m14.12,104v.35l-1.7,3.55h-.55l1.69-3.45h0s-1.91-.01-1.91-.01v-.44h2.46Z"/></g><g><path class="cls-5" d="m63.76,104.49h-.01l-.68.37-.1-.4.85-.46h.45v3.9h-.51v-3.41Z"/><path class="cls-5" d="m65.65,106.91c0-.49.29-.84.77-1.04v-.02c-.44-.2-.62-.54-.62-.88,0-.62.52-1.04,1.21-1.04.76,0,1.13.47,1.13.96,0,.33-.16.68-.64.91v.02c.49.19.79.53.79,1.01,0,.68-.58,1.13-1.32,1.13-.82,0-1.31-.49-1.31-1.06Zm2.1-.02c0-.47-.33-.7-.86-.85-.46.13-.7.43-.7.8-.02.4.28.74.78.74s.78-.29.78-.7Zm-1.45-1.95c0,.39.29.6.74.72.33-.11.59-.35.59-.71,0-.31-.19-.64-.66-.64-.44,0-.68.29-.68.62Z"/></g><g><path class="cls-5" d="m47.74,107.72c-.23.08-.7.22-1.24.22-.61,0-1.12-.16-1.51-.53-.35-.34-.56-.88-.56-1.51,0-1.21.83-2.09,2.19-2.09.47,0,.83.1,1.01.19l-.13.43c-.22-.1-.49-.17-.89-.17-.98,0-1.62.61-1.62,1.62s.62,1.63,1.56,1.63c.34,0,.58-.05.7-.11v-1.21h-.82v-.42h1.33v1.94Z"/><path class="cls-5" d="m48.54,107.9v-4.04h.57l1.29,2.04c.3.47.53.9.73,1.31h.01c-.05-.55-.06-1.04-.06-1.67v-1.69h.49v4.04h-.53l-1.28-2.05c-.28-.45-.55-.91-.76-1.35h-.02c.03.52.04,1,.04,1.67v1.73h-.49Z"/><path class="cls-5" d="m52.49,103.91c.32-.05.7-.08,1.11-.08.75,0,1.28.17,1.64.5.36.33.57.8.57,1.45s-.2,1.2-.58,1.57c-.38.38-1,.58-1.79.58-.37,0-.68-.02-.95-.05v-3.98Zm.52,3.57c.13.02.32.03.53.03,1.12,0,1.72-.62,1.72-1.71,0-.95-.53-1.56-1.64-1.56-.27,0-.47.02-.61.05v3.19Z"/></g></g></svg>