<?xml version="1.0" encoding="UTF-8"?>
<svg id="_Слой_2" data-name="Слой 2" xmlns="http://www.w3.org/2000/svg" viewBox="0 0 100.28 118.7">
  <defs>
    <style>
      .cls-1 {
        fill: none;
        stroke: #b8bac0;
      }

      .cls-1, .cls-2, .cls-3 {
        stroke-miterlimit: 10;
        stroke-width: .5px;
      }

      .cls-2 {
        fill: #f39200;
      }

      .cls-2, .cls-3 {
        stroke: #1d1d1b;
      }

      .cls-3 {
        fill: #7e7e7d;
      }

      .cls-4 {
        fill: #b8bac0;
      }

      .cls-4, .cls-5 {
        stroke-width: 0px;
      }

      .cls-5 {
        fill: #1d1d1b;
      }
    </style>
  </defs>
  <g id="scheme_w" data-name="scheme w">
    <circle class="cls-1" cx="76.22" cy="94.08" r=".57"/>
    <rect class="cls-1" x="80.99" y="14.14" width="11.34" height="4.54" transform="translate(70.25 103.07) rotate(-90)"/>
    <polyline class="cls-1" points="96.34 20.94 91.24 20.94 81.04 11.02"/>
    <g>
      <path class="cls-4" d="m92.32,16.07v.83h.76v.4h-.76v1.56c0,.36.1.56.4.56.14,0,.24-.02.31-.04l.02.4c-.1.04-.26.07-.47.07-.25,0-.44-.08-.57-.22-.15-.16-.2-.41-.2-.76v-1.58h-.45v-.4h.45v-.7l.52-.14Z"/>
      <path class="cls-4" d="m94.99,16.48c0,.49-.39.8-.8.8-.47,0-.79-.35-.79-.77,0-.46.35-.81.8-.81.49,0,.79.37.79.78Zm-1.26.03c0,.28.2.49.47.49s.47-.22.47-.52c0-.22-.13-.5-.47-.5-.31,0-.47.27-.47.53Z"/>
    </g>
    <rect class="cls-1" x="80.99" y="57.79" width="11.34" height="4.54" transform="translate(26.6 146.72) rotate(-90)"/>
    <polyline class="cls-1" points="96.34 64.6 91.24 64.6 81.04 54.68"/>
    <g>
      <path class="cls-4" d="m92.32,59.73v.83h.76v.4h-.76v1.56c0,.36.1.56.4.56.14,0,.24-.02.31-.04l.02.4c-.1.04-.26.07-.47.07-.25,0-.44-.08-.57-.22-.15-.16-.2-.41-.2-.76v-1.58h-.45v-.4h.45v-.7l.52-.14Z"/>
      <path class="cls-4" d="m94.99,60.13c0,.49-.39.8-.8.8-.47,0-.79-.35-.79-.77,0-.46.35-.81.8-.81.49,0,.79.37.79.78Zm-1.26.03c0,.28.2.49.47.49s.47-.22.47-.52c0-.22-.13-.5-.47-.5-.31,0-.47.27-.47.53Z"/>
    </g>
    <rect class="cls-1" x="80.88" y="100.1" width="11.34" height="4.54" transform="translate(-15.82 188.92) rotate(-90)"/>
    <polyline class="cls-1" points="96.23 106.9 91.13 106.9 80.93 96.98"/>
    <g>
      <path class="cls-4" d="m92.2,102.03v.83h.76v.4h-.76v1.56c0,.36.1.56.4.56.14,0,.24-.02.31-.04l.02.4c-.1.04-.26.07-.47.07-.25,0-.44-.08-.57-.22-.15-.16-.2-.41-.2-.76v-1.58h-.45v-.4h.45v-.7l.52-.14Z"/>
      <path class="cls-4" d="m94.88,102.44c0,.49-.39.8-.8.8-.47,0-.79-.35-.79-.77,0-.46.35-.81.8-.81.49,0,.79.37.79.78Zm-1.26.03c0,.28.2.49.47.49s.47-.22.47-.52c0-.22-.13-.5-.47-.5-.31,0-.47.27-.47.53Z"/>
    </g>
    <path class="cls-4" d="m95.75,8.61h-.01l-.68.37-.1-.4.85-.46h.45v3.9h-.51v-3.41Z"/>
    <path class="cls-4" d="m93.78,55.53v-.32l.41-.4c1-.95,1.45-1.45,1.45-2.04,0-.4-.19-.76-.77-.76-.35,0-.65.18-.83.33l-.17-.37c.27-.23.65-.4,1.1-.4.84,0,1.19.58,1.19,1.13,0,.72-.52,1.3-1.34,2.09l-.31.29h0s1.75.01,1.75.01v.44h-2.49Z"/>
    <path class="cls-4" d="m93.48,97.58c.15.1.5.25.86.25.68,0,.89-.43.88-.76,0-.55-.5-.78-1.01-.78h-.29v-.4h.29c.38,0,.87-.2.87-.66,0-.31-.2-.59-.68-.59-.31,0-.61.14-.78.26l-.14-.38c.2-.15.6-.3,1.02-.3.77,0,1.12.46,1.12.93,0,.4-.24.74-.72.92h0c.48.11.87.47.87,1.01,0,.62-.49,1.17-1.42,1.17-.44,0-.82-.14-1.01-.26l.14-.41Z"/>
    <circle class="cls-1" cx="95.07" cy="53.68" r="3.54"/>
    <circle class="cls-1" cx="95.32" cy="9.89" r="3.54"/>
    <circle class="cls-1" cx="94.64" cy="96.06" r="3.54"/>
    <polyline class="cls-1" points="68.56 26.61 87.84 26.61 87.84 22.08"/>
    <polyline class="cls-1" points="69.13 15.27 77.07 15.27 77.07 24.06 85.57 24.06 85.57 22.08"/>
    <polyline class="cls-1" points="68.56 49.01 85.57 49.01 85.57 54.39"/>
    <polyline class="cls-1" points="68.85 37.67 87.84 37.67 87.84 54.39"/>
    <polyline class="cls-1" points="9.6 15.27 4.5 15.27 4.5 4.79 85.57 4.79 85.57 10.45"/>
    <polyline class="cls-1" points="9.32 26.61 .82 26.61 .82 .25 87.84 .25 87.84 10.74"/>
    <polyline class="cls-1" points="68.85 82.74 76.22 82.74 76.22 94.08 86.42 94.08 86.42 96.63"/>
    <line class="cls-1" x1="68.85" y1="94.08" x2="76.22" y2="94.08"/>
    <polyline class="cls-1" points="86.42 107.97 86.42 114.2 4.5 114.2 4.5 94.08 9.32 94.08"/>
    <polyline class="cls-1" points="9.6 82.74 4.5 82.74 4.5 94.08"/>
    <polyline class="cls-1" points="86.42 65.73 86.42 77.64 100.03 77.64 100.03 118.45 .82 118.45 .82 37.67 10.45 37.67"/>
    <line class="cls-1" x1="9.6" y1="49.01" x2=".82" y2="49.01"/>
    <circle class="cls-1" cx="4.5" cy="94.08" r=".57"/>
    <circle class="cls-1" cx=".82" cy="49.01" r=".57"/>
  </g>
  <g id="scheme">
    <rect class="cls-3" x="16.41" y="9.68" width="22.68" height="11.34"/>
    <rect class="cls-3" x="39.08" y="9.68" width="22.68" height="11.34"/>
    <rect class="cls-2" x="7.9" y="9.68" width="8.5" height="11.34"/>
    <rect class="cls-2" x="61.76" y="9.68" width="8.5" height="11.34"/>
    <rect class="cls-3" x="16.41" y="21.01" width="22.68" height="11.34"/>
    <rect class="cls-3" x="39.08" y="21.01" width="22.68" height="11.34"/>
    <rect class="cls-2" x="7.9" y="21.01" width="8.5" height="11.34"/>
    <rect class="cls-2" x="61.76" y="21.01" width="8.5" height="11.34"/>
    <rect class="cls-3" x="16.41" y="32.18" width="22.68" height="11.34"/>
    <rect class="cls-3" x="39.08" y="32.18" width="22.68" height="11.34"/>
    <rect class="cls-2" x="7.9" y="32.18" width="8.5" height="11.34"/>
    <rect class="cls-2" x="61.76" y="32.18" width="8.5" height="11.34"/>
    <rect class="cls-3" x="16.41" y="43.51" width="22.68" height="11.34"/>
    <rect class="cls-3" x="39.08" y="43.51" width="22.68" height="11.34"/>
    <rect class="cls-2" x="7.9" y="43.51" width="8.5" height="11.34"/>
    <rect class="cls-2" x="61.76" y="43.51" width="8.5" height="11.34"/>
    <rect class="cls-3" x="16.41" y="54.68" width="22.68" height="11.34"/>
    <rect class="cls-3" x="39.08" y="54.68" width="22.68" height="11.34"/>
    <rect class="cls-2" x="7.9" y="54.68" width="8.5" height="11.34"/>
    <rect class="cls-2" x="61.76" y="54.68" width="8.5" height="11.34"/>
    <rect class="cls-3" x="16.41" y="66.01" width="22.68" height="11.34"/>
    <rect class="cls-3" x="39.08" y="66.01" width="22.68" height="11.34"/>
    <rect class="cls-2" x="7.9" y="66.01" width="8.5" height="11.34"/>
    <rect class="cls-2" x="61.76" y="66.01" width="8.5" height="11.34"/>
    <rect class="cls-3" x="16.41" y="77.35" width="22.68" height="11.34"/>
    <rect class="cls-3" x="39.08" y="77.35" width="22.68" height="11.34"/>
    <rect class="cls-2" x="7.9" y="77.35" width="8.5" height="11.34"/>
    <rect class="cls-2" x="61.76" y="77.35" width="8.5" height="11.34"/>
    <rect class="cls-3" x="16.41" y="88.69" width="22.68" height="11.34"/>
    <rect class="cls-3" x="39.08" y="88.69" width="22.68" height="11.34"/>
    <rect class="cls-2" x="7.9" y="88.69" width="8.5" height="11.34"/>
    <rect class="cls-2" x="61.76" y="88.69" width="8.5" height="11.34"/>
    <rect class="cls-3" x="16.41" y="100.03" width="22.68" height="11.34"/>
    <rect class="cls-3" x="39.08" y="100.03" width="22.68" height="11.34"/>
    <rect class="cls-2" x="7.9" y="100.03" width="8.5" height="11.34"/>
    <rect class="cls-2" x="61.76" y="100.03" width="8.5" height="11.34"/>
  </g>
  <g id="scheme_letters" data-name="scheme letters">
    <g>
      <path class="cls-5" d="m19.76,13.59c.26-.05.64-.08,1-.08.56,0,.92.1,1.17.33.2.18.32.46.32.77,0,.53-.34.89-.76,1.03v.02c.31.11.5.4.59.82.13.56.23.95.31,1.11h-.54c-.07-.11-.16-.46-.27-.97-.12-.56-.34-.77-.81-.79h-.49v1.75h-.52v-3.99Zm.52,1.84h.53c.56,0,.91-.31.91-.77,0-.52-.38-.75-.93-.76-.25,0-.43.02-.52.05v1.48Z"/>
      <path class="cls-5" d="m23.81,13.98h-1.23v-.44h2.99v.44h-1.24v3.6h-.53v-3.6Z"/>
      <path class="cls-5" d="m26.03,13.59c.32-.05.7-.08,1.11-.08.75,0,1.28.17,1.64.5.36.33.57.8.57,1.45s-.2,1.2-.58,1.57c-.38.38-1,.58-1.79.58-.37,0-.68-.02-.95-.05v-3.98Zm.52,3.57c.13.02.32.03.53.03,1.12,0,1.72-.62,1.72-1.71,0-.95-.53-1.56-1.64-1.56-.27,0-.47.02-.61.05v3.19Z"/>
      <path class="cls-5" d="m30.98,14.17h-.01l-.68.37-.1-.4.85-.46h.45v3.9h-.51v-3.41Z"/>
      <path class="cls-5" d="m34.62,14.39v1.41h1.35v.36h-1.35v1.42h-.38v-1.42h-1.36v-.36h1.36v-1.41h.38Z"/>
    </g>
    <path class="cls-5" d="m11.85,14.06h-.01l-.68.37-.1-.4.85-.46h.45v3.9h-.51v-3.41Z"/>
    <path class="cls-5" d="m64.82,17.47v-.32l.41-.4c1-.95,1.45-1.45,1.45-2.04,0-.4-.19-.76-.77-.76-.35,0-.65.18-.83.33l-.17-.37c.27-.23.65-.4,1.1-.4.84,0,1.19.58,1.19,1.13,0,.72-.52,1.3-1.34,2.09l-.31.29h0s1.75.01,1.75.01v.44h-2.49Z"/>
    <g>
      <path class="cls-5" d="m43.64,13.48c.26-.05.64-.08,1-.08.56,0,.92.1,1.17.33.21.18.32.46.32.77,0,.53-.34.89-.76,1.03v.02c.31.11.5.4.59.82.13.56.23.95.31,1.11h-.54c-.07-.11-.16-.46-.27-.97-.12-.56-.34-.77-.81-.79h-.49v1.75h-.52v-3.99Zm.52,1.84h.53c.56,0,.91-.31.91-.77,0-.52-.38-.75-.93-.76-.25,0-.43.02-.52.05v1.48Z"/>
      <path class="cls-5" d="m47.69,13.87h-1.23v-.44h2.99v.44h-1.24v3.6h-.53v-3.6Z"/>
      <path class="cls-5" d="m49.91,13.48c.32-.05.7-.08,1.11-.08.75,0,1.28.17,1.64.5.36.33.57.8.57,1.45s-.21,1.2-.58,1.57c-.38.38-1,.58-1.79.58-.37,0-.68-.02-.95-.05v-3.98Zm.52,3.57c.13.02.32.03.53.03,1.12,0,1.72-.62,1.72-1.71,0-.95-.53-1.56-1.64-1.56-.27,0-.47.02-.61.05v3.19Z"/>
      <path class="cls-5" d="m54.86,14.06h-.01l-.68.37-.1-.4.85-.46h.45v3.9h-.51v-3.41Z"/>
      <path class="cls-5" d="m58.19,15.65v.39h-1.48v-.39h1.48Z"/>
    </g>
    <g>
      <path class="cls-5" d="m19.21,24.87v4.04h-.52v-4.04h.52Z"/>
      <path class="cls-5" d="m20.12,24.93c.32-.05.7-.08,1.11-.08.75,0,1.28.17,1.64.5.36.33.57.8.57,1.45s-.2,1.2-.58,1.57c-.38.38-1,.58-1.79.58-.37,0-.68-.02-.95-.05v-3.98Zm.52,3.57c.13.02.32.03.53.03,1.12,0,1.72-.62,1.72-1.71,0-.95-.53-1.56-1.64-1.56-.27,0-.47.02-.61.05v3.19Z"/>
      <path class="cls-5" d="m24.69,27.64l-.42,1.27h-.54l1.37-4.04h.63l1.38,4.04h-.56l-.43-1.27h-1.43Zm1.33-.41l-.4-1.16c-.09-.26-.15-.5-.21-.74h-.01c-.06.24-.13.49-.2.73l-.4,1.17h1.22Z"/>
      <path class="cls-5" d="m30.44,28.78c-.19.1-.58.19-1.07.19-1.14,0-2-.72-2-2.04s.86-2.12,2.11-2.12c.5,0,.82.11.96.18l-.13.43c-.2-.1-.48-.17-.82-.17-.95,0-1.58.61-1.58,1.67,0,.99.57,1.62,1.55,1.62.32,0,.64-.07.85-.17l.11.41Z"/>
      <path class="cls-5" d="m32.06,25.51h-.01l-.68.37-.1-.4.85-.46h.45v3.9h-.51v-3.41Z"/>
      <path class="cls-5" d="m35.7,25.72v1.41h1.35v.36h-1.35v1.42h-.38v-1.42h-1.36v-.36h1.36v-1.41h.38Z"/>
    </g>
    <path class="cls-5" d="m10.84,28.2c.12.1.41.25.71.25.56,0,.73-.43.73-.76,0-.55-.41-.78-.83-.78h-.24v-.4h.24c.32,0,.72-.2.72-.66,0-.31-.16-.59-.57-.59-.26,0-.51.14-.64.26l-.11-.38c.17-.15.5-.3.84-.3.63,0,.92.46.92.93,0,.4-.2.74-.59.92h0c.4.11.72.47.72,1.01,0,.62-.4,1.17-1.17,1.17-.36,0-.68-.14-.84-.26l.12-.41Z"/>
    <path class="cls-5" d="m66.45,28.81v-1.06h-1.81v-.35l1.74-2.49h.57v2.42h.55v.41h-.55v1.06h-.5Zm0-1.48v-1.3c0-.2,0-.41.02-.61h-.02c-.12.23-.21.4-.32.58l-.95,1.33h0s1.28.01,1.28.01Z"/>
    <g>
      <path class="cls-5" d="m43.09,24.77v4.04h-.52v-4.04h.52Z"/>
      <path class="cls-5" d="m44,24.82c.32-.05.7-.08,1.11-.08.75,0,1.28.17,1.64.5.36.33.57.8.57,1.45s-.2,1.2-.58,1.57c-.38.38-1,.58-1.79.58-.37,0-.68-.02-.95-.05v-3.98Zm.52,3.57c.13.02.32.03.53.03,1.12,0,1.72-.62,1.72-1.71,0-.95-.53-1.56-1.64-1.56-.27,0-.47.02-.61.05v3.19Z"/>
      <path class="cls-5" d="m48.57,27.54l-.42,1.27h-.54l1.37-4.04h.63l1.38,4.04h-.56l-.43-1.27h-1.43Zm1.32-.41l-.39-1.16c-.09-.26-.15-.5-.21-.74h-.01c-.06.24-.13.49-.2.73l-.4,1.17h1.22Z"/>
      <path class="cls-5" d="m54.32,28.68c-.19.1-.58.19-1.07.19-1.14,0-2-.72-2-2.04s.86-2.12,2.11-2.12c.5,0,.82.11.96.18l-.13.43c-.2-.1-.48-.17-.82-.17-.95,0-1.58.61-1.58,1.67,0,.99.57,1.62,1.55,1.62.32,0,.64-.07.85-.17l.11.41Z"/>
      <path class="cls-5" d="m55.94,25.4h-.01l-.68.37-.1-.4.85-.46h.45v3.9h-.51v-3.41Z"/>
      <path class="cls-5" d="m59.26,26.99v.39h-1.48v-.39h1.48Z"/>
    </g>
    <g>
      <path class="cls-5" d="m19.76,36.09c.26-.05.64-.08,1-.08.56,0,.92.1,1.17.33.2.18.32.46.32.77,0,.53-.34.89-.76,1.03v.02c.31.11.5.4.59.82.13.56.23.95.31,1.11h-.54c-.07-.11-.16-.46-.27-.97-.12-.56-.34-.77-.81-.79h-.49v1.75h-.52v-3.99Zm.52,1.84h.53c.56,0,.91-.31.91-.77,0-.52-.38-.75-.93-.76-.25,0-.43.02-.52.05v1.48Z"/>
      <path class="cls-5" d="m23.81,36.48h-1.23v-.44h2.99v.44h-1.24v3.6h-.53v-3.6Z"/>
      <path class="cls-5" d="m26.03,36.09c.32-.05.7-.08,1.11-.08.75,0,1.28.17,1.64.5.36.33.57.8.57,1.45s-.2,1.2-.58,1.57c-.38.38-1,.58-1.79.58-.37,0-.68-.02-.95-.05v-3.98Zm.52,3.57c.13.02.32.03.53.03,1.12,0,1.72-.62,1.72-1.71,0-.95-.53-1.56-1.64-1.56-.27,0-.47.02-.61.05v3.19Z"/>
      <path class="cls-5" d="m29.84,40.08v-.32l.41-.4c1-.95,1.45-1.45,1.45-2.04,0-.4-.19-.76-.77-.76-.35,0-.65.18-.83.33l-.17-.37c.27-.23.65-.4,1.1-.4.84,0,1.19.58,1.19,1.13,0,.72-.52,1.3-1.34,2.09l-.31.29h0s1.75.01,1.75.01v.44h-2.49Z"/>
      <path class="cls-5" d="m34.62,36.89v1.41h1.35v.36h-1.35v1.42h-.38v-1.42h-1.36v-.36h1.36v-1.41h.38Z"/>
    </g>
    <path class="cls-5" d="m13.04,36.52h-1.49l-.15,1c.09-.01.17-.02.32-.02.3,0,.6.07.84.21.31.17.56.51.56,1,0,.76-.61,1.33-1.45,1.33-.43,0-.79-.12-.97-.24l.13-.4c.16.1.48.22.83.22.5,0,.92-.32.92-.85,0-.5-.34-.86-1.12-.86-.22,0-.4.02-.54.04l.25-1.87h1.87v.44Z"/>
    <path class="cls-5" d="m67.04,36.44c-.11,0-.25,0-.4.02-.83.14-1.26.74-1.35,1.39h.02c.19-.25.51-.45.94-.45.69,0,1.18.5,1.18,1.26,0,.71-.49,1.37-1.3,1.37s-1.38-.65-1.38-1.66c0-.77.28-1.37.66-1.76.32-.32.76-.52,1.25-.58.16-.02.29-.03.38-.03v.43Zm-.15,2.25c0-.56-.32-.89-.8-.89-.32,0-.61.2-.76.48-.04.06-.06.14-.06.23.01.64.31,1.12.86,1.12.46,0,.76-.38.76-.94Z"/>
    <g>
      <path class="cls-5" d="m43.64,35.98c.26-.05.64-.08,1-.08.56,0,.92.1,1.17.33.21.18.32.46.32.77,0,.53-.34.89-.76,1.03v.02c.31.11.5.4.59.82.13.56.23.95.31,1.11h-.54c-.07-.11-.16-.46-.27-.97-.12-.56-.34-.77-.81-.79h-.49v1.75h-.52v-3.99Zm.52,1.84h.53c.56,0,.91-.31.91-.77,0-.52-.38-.75-.93-.76-.25,0-.43.02-.52.05v1.48Z"/>
      <path class="cls-5" d="m47.69,36.37h-1.23v-.44h2.99v.44h-1.24v3.6h-.53v-3.6Z"/>
      <path class="cls-5" d="m49.91,35.98c.32-.05.7-.08,1.11-.08.75,0,1.28.17,1.64.5.36.33.57.8.57,1.45s-.21,1.2-.58,1.57c-.38.38-1,.58-1.79.58-.37,0-.68-.02-.95-.05v-3.98Zm.52,3.57c.13.02.32.03.53.03,1.12,0,1.72-.62,1.72-1.71,0-.95-.53-1.56-1.64-1.56-.27,0-.47.02-.61.05v3.19Z"/>
      <path class="cls-5" d="m53.72,39.97v-.32l.41-.4c1-.95,1.45-1.45,1.45-2.04,0-.4-.19-.76-.77-.76-.35,0-.65.18-.83.33l-.17-.37c.27-.23.65-.4,1.1-.4.84,0,1.19.58,1.19,1.13,0,.72-.52,1.3-1.34,2.09l-.31.29h0s1.75.01,1.75.01v.44h-2.49Z"/>
      <path class="cls-5" d="m58.19,38.15v.39h-1.48v-.39h1.48Z"/>
    </g>
    <g>
      <path class="cls-5" d="m19.21,47.37v4.04h-.52v-4.04h.52Z"/>
      <path class="cls-5" d="m20.12,47.43c.32-.05.7-.08,1.11-.08.75,0,1.28.17,1.64.5.36.33.57.8.57,1.45s-.2,1.2-.58,1.57c-.38.38-1,.58-1.79.58-.37,0-.68-.02-.95-.05v-3.98Zm.52,3.57c.13.02.32.03.53.03,1.12,0,1.72-.62,1.72-1.71,0-.95-.53-1.56-1.64-1.56-.27,0-.47.02-.61.05v3.19Z"/>
      <path class="cls-5" d="m24.69,50.14l-.42,1.27h-.54l1.37-4.04h.63l1.38,4.04h-.56l-.43-1.27h-1.43Zm1.33-.41l-.4-1.16c-.09-.26-.15-.5-.21-.74h-.01c-.06.24-.13.49-.2.73l-.4,1.17h1.22Z"/>
      <path class="cls-5" d="m30.44,51.28c-.19.1-.58.19-1.07.19-1.14,0-2-.72-2-2.04s.86-2.12,2.11-2.12c.5,0,.82.11.96.18l-.13.43c-.2-.1-.48-.17-.82-.17-.95,0-1.58.61-1.58,1.67,0,.99.57,1.62,1.55,1.62.32,0,.64-.07.85-.17l.11.41Z"/>
      <path class="cls-5" d="m30.91,51.42v-.32l.41-.4c1-.95,1.45-1.45,1.45-2.04,0-.4-.19-.76-.77-.76-.35,0-.65.18-.83.33l-.17-.37c.27-.23.65-.4,1.1-.4.84,0,1.19.58,1.19,1.13,0,.72-.52,1.3-1.34,2.09l-.31.29h0s1.75.01,1.75.01v.44h-2.49Z"/>
      <path class="cls-5" d="m35.7,48.22v1.41h1.35v.36h-1.35v1.42h-.38v-1.42h-1.36v-.36h1.36v-1.41h.38Z"/>
    </g>
    <path class="cls-5" d="m13.24,47.41v.35l-1.7,3.55h-.55l1.69-3.45h0s-1.91-.01-1.91-.01v-.44h2.46Z"/>
    <path class="cls-5" d="m64.77,50.32c0-.49.29-.84.77-1.04v-.02c-.44-.2-.62-.54-.62-.88,0-.62.52-1.04,1.21-1.04.75,0,1.13.47,1.13.96,0,.33-.16.68-.64.91v.02c.49.19.79.53.79,1.01,0,.68-.58,1.13-1.33,1.13-.82,0-1.31-.49-1.31-1.06Zm2.1-.02c0-.47-.33-.7-.86-.85-.46.13-.7.43-.7.8-.02.4.28.74.78.74s.78-.29.78-.7Zm-1.45-1.95c0,.39.29.6.74.72.34-.11.59-.35.59-.71,0-.31-.19-.64-.66-.64-.44,0-.68.29-.68.62Z"/>
    <g>
      <path class="cls-5" d="m42.6,47.27v4.04h-.52v-4.04h.52Z"/>
      <path class="cls-5" d="m43.51,47.32c.32-.05.7-.08,1.11-.08.75,0,1.28.17,1.64.5.36.33.57.8.57,1.45s-.2,1.2-.58,1.57c-.38.38-1,.58-1.79.58-.37,0-.68-.02-.95-.05v-3.98Zm.52,3.57c.13.02.32.03.53.03,1.12,0,1.72-.62,1.72-1.71,0-.95-.53-1.56-1.64-1.56-.27,0-.47.02-.61.05v3.19Z"/>
      <path class="cls-5" d="m48.08,50.04l-.42,1.27h-.54l1.37-4.04h.63l1.38,4.04h-.56l-.43-1.27h-1.43Zm1.33-.41l-.4-1.16c-.09-.26-.15-.5-.21-.74h-.01c-.06.24-.13.49-.2.73l-.4,1.17h1.22Z"/>
      <path class="cls-5" d="m53.83,51.18c-.19.1-.58.19-1.07.19-1.14,0-2-.72-2-2.04s.86-2.12,2.11-2.12c.5,0,.82.11.96.18l-.13.43c-.2-.1-.48-.17-.82-.17-.95,0-1.58.61-1.58,1.67,0,.99.57,1.62,1.55,1.62.32,0,.64-.07.85-.17l.11.41Z"/>
      <path class="cls-5" d="m54.3,51.31v-.32l.41-.4c1-.95,1.45-1.45,1.45-2.04,0-.4-.19-.76-.77-.76-.35,0-.65.18-.83.33l-.17-.37c.27-.23.65-.4,1.1-.4.84,0,1.19.58,1.19,1.13,0,.72-.52,1.3-1.34,2.09l-.31.29h0s1.75.01,1.75.01v.44h-2.49Z"/>
      <path class="cls-5" d="m58.77,49.49v.39h-1.48v-.39h1.48Z"/>
    </g>
    <g>
      <path class="cls-5" d="m19.76,58.59c.26-.05.64-.08,1-.08.56,0,.92.1,1.17.33.2.18.32.46.32.77,0,.53-.34.89-.76,1.03v.02c.31.11.5.4.59.82.13.56.23.95.31,1.11h-.54c-.07-.11-.16-.46-.27-.97-.12-.56-.34-.77-.81-.79h-.49v1.75h-.52v-3.99Zm.52,1.84h.53c.56,0,.91-.31.91-.77,0-.52-.38-.75-.93-.76-.25,0-.43.02-.52.05v1.48Z"/>
      <path class="cls-5" d="m23.81,58.98h-1.23v-.44h2.99v.44h-1.24v3.6h-.53v-3.6Z"/>
      <path class="cls-5" d="m26.03,58.59c.32-.05.7-.08,1.11-.08.75,0,1.28.17,1.64.5.36.33.57.8.57,1.45s-.2,1.2-.58,1.57c-.38.38-1,.58-1.79.58-.37,0-.68-.02-.95-.05v-3.98Zm.52,3.57c.13.02.32.03.53.03,1.12,0,1.72-.62,1.72-1.71,0-.95-.53-1.56-1.64-1.56-.27,0-.47.02-.61.05v3.19Z"/>
      <path class="cls-5" d="m29.96,61.97c.15.1.5.25.86.25.68,0,.89-.43.88-.76,0-.55-.5-.78-1.01-.78h-.29v-.4h.29c.38,0,.87-.2.87-.66,0-.31-.2-.59-.68-.59-.31,0-.61.14-.78.26l-.14-.38c.2-.15.6-.3,1.02-.3.77,0,1.12.46,1.12.93,0,.4-.24.74-.72.92h0c.48.11.87.47.87,1.01,0,.62-.49,1.17-1.42,1.17-.44,0-.82-.14-1.01-.26l.14-.41Z"/>
      <path class="cls-5" d="m34.62,59.39v1.41h1.35v.36h-1.35v1.42h-.38v-1.42h-1.36v-.36h1.36v-1.41h.38Z"/>
    </g>
    <path class="cls-5" d="m11.01,62.1c.11.01.25,0,.43-.02.3-.04.59-.17.81-.38.26-.23.44-.58.52-1.04h-.02c-.22.26-.53.42-.92.42-.7,0-1.15-.53-1.15-1.19,0-.74.53-1.39,1.33-1.39s1.29.65,1.29,1.64c0,.86-.29,1.46-.67,1.83-.3.29-.71.47-1.13.52-.19.03-.36.04-.49.03v-.43Zm.19-2.24c0,.49.29.83.75.83.35,0,.63-.17.77-.41.03-.05.05-.11.05-.19,0-.67-.25-1.18-.8-1.18-.45,0-.77.4-.77.95Z"/>
    <g>
      <path class="cls-5" d="m64.42,59.06h-.01l-.68.37-.1-.4.85-.46h.45v3.9h-.51v-3.41Z"/>
      <path class="cls-5" d="m68.95,60.48c0,1.33-.49,2.06-1.35,2.06-.76,0-1.28-.71-1.29-2,0-1.31.56-2.03,1.36-2.03s1.29.73,1.29,1.97Zm-2.12.06c0,1.01.31,1.59.79,1.59.54,0,.8-.63.8-1.62s-.25-1.59-.79-1.59c-.46,0-.8.56-.8,1.62Z"/>
    </g>
    <g>
      <path class="cls-5" d="m43.33,58.48c.26-.05.64-.08,1-.08.56,0,.92.1,1.17.33.2.18.32.46.32.77,0,.53-.34.89-.76,1.03v.02c.31.11.5.4.59.82.13.56.23.95.31,1.11h-.54c-.07-.11-.16-.46-.27-.97-.12-.56-.34-.77-.81-.79h-.49v1.75h-.52v-3.99Zm.52,1.84h.53c.56,0,.91-.31.91-.77,0-.52-.38-.75-.93-.76-.25,0-.43.02-.52.05v1.48Z"/>
      <path class="cls-5" d="m47.38,58.87h-1.23v-.44h2.99v.44h-1.24v3.6h-.53v-3.6Z"/>
      <path class="cls-5" d="m49.59,58.48c.32-.05.7-.08,1.11-.08.75,0,1.28.17,1.64.5.36.33.57.8.57,1.45s-.2,1.2-.58,1.57c-.38.38-1,.58-1.79.58-.37,0-.68-.02-.95-.05v-3.98Zm.52,3.57c.13.02.32.03.53.03,1.12,0,1.72-.62,1.72-1.71,0-.95-.53-1.56-1.64-1.56-.27,0-.47.02-.61.05v3.19Z"/>
      <path class="cls-5" d="m53.53,61.86c.15.1.5.25.86.25.68,0,.89-.43.88-.76,0-.55-.5-.78-1.01-.78h-.29v-.4h.29c.38,0,.87-.2.87-.66,0-.31-.2-.59-.68-.59-.31,0-.61.14-.78.26l-.14-.38c.2-.15.6-.3,1.02-.3.77,0,1.12.46,1.12.93,0,.4-.24.74-.72.92h0c.48.11.87.47.87,1.01,0,.62-.49,1.17-1.42,1.17-.44,0-.82-.14-1.01-.26l.14-.41Z"/>
      <path class="cls-5" d="m57.87,60.65v.39h-1.48v-.39h1.48Z"/>
    </g>
    <g>
      <path class="cls-5" d="m19.21,69.87v4.04h-.52v-4.04h.52Z"/>
      <path class="cls-5" d="m20.12,69.93c.32-.05.7-.08,1.11-.08.75,0,1.28.17,1.64.5.36.33.57.8.57,1.45s-.2,1.2-.58,1.57c-.38.38-1,.58-1.79.58-.37,0-.68-.02-.95-.05v-3.98Zm.52,3.57c.13.02.32.03.53.03,1.12,0,1.72-.62,1.72-1.71,0-.95-.53-1.56-1.64-1.56-.27,0-.47.02-.61.05v3.19Z"/>
      <path class="cls-5" d="m24.69,72.64l-.42,1.27h-.54l1.37-4.04h.63l1.38,4.04h-.56l-.43-1.27h-1.43Zm1.33-.41l-.4-1.16c-.09-.26-.15-.5-.21-.74h-.01c-.06.24-.13.49-.2.73l-.4,1.17h1.22Z"/>
      <path class="cls-5" d="m30.44,73.78c-.19.1-.58.19-1.07.19-1.14,0-2-.72-2-2.04s.86-2.12,2.11-2.12c.5,0,.82.11.96.18l-.13.43c-.2-.1-.48-.17-.82-.17-.95,0-1.58.61-1.58,1.67,0,.99.57,1.62,1.55,1.62.32,0,.64-.07.85-.17l.11.41Z"/>
      <path class="cls-5" d="m31.04,73.31c.15.1.5.25.86.25.68,0,.89-.43.88-.76,0-.55-.5-.78-1.01-.78h-.29v-.4h.29c.38,0,.87-.2.87-.66,0-.31-.2-.59-.68-.59-.31,0-.61.14-.78.26l-.14-.38c.2-.15.6-.3,1.02-.3.77,0,1.12.46,1.12.93,0,.4-.24.74-.72.92h0c.48.11.87.47.87,1.01,0,.62-.49,1.17-1.42,1.17-.44,0-.82-.14-1.01-.26l.14-.41Z"/>
      <path class="cls-5" d="m35.7,70.72v1.41h1.35v.36h-1.35v1.42h-.38v-1.42h-1.36v-.36h1.36v-1.41h.38Z"/>
    </g>
    <g>
      <path class="cls-5" d="m10.31,70.4h-.01l-.68.37-.1-.4.85-.46h.45v3.9h-.51v-3.41Z"/>
      <path class="cls-5" d="m13.39,70.4h-.01l-.68.37-.1-.4.85-.46h.45v3.9h-.51v-3.41Z"/>
    </g>
    <g>
      <path class="cls-5" d="m64.42,70.4h-.01l-.68.37-.1-.4.85-.46h.45v3.9h-.51v-3.41Z"/>
      <path class="cls-5" d="m66.36,73.81v-.32l.41-.4c1-.95,1.45-1.45,1.45-2.04,0-.4-.19-.76-.77-.76-.35,0-.65.18-.83.33l-.17-.37c.27-.23.65-.4,1.1-.4.84,0,1.19.58,1.19,1.13,0,.72-.52,1.3-1.34,2.09l-.31.29h0s1.75.01,1.75.01v.44h-2.49Z"/>
    </g>
    <g>
      <path class="cls-5" d="m43.09,69.77v4.04h-.52v-4.04h.52Z"/>
      <path class="cls-5" d="m44,69.82c.32-.05.7-.08,1.11-.08.75,0,1.28.17,1.64.5.36.33.57.8.57,1.45s-.2,1.2-.58,1.57c-.38.38-1,.58-1.79.58-.37,0-.68-.02-.95-.05v-3.98Zm.52,3.57c.13.02.32.03.53.03,1.12,0,1.72-.62,1.72-1.71,0-.95-.53-1.56-1.64-1.56-.27,0-.47.02-.61.05v3.19Z"/>
      <path class="cls-5" d="m48.57,72.54l-.42,1.27h-.54l1.37-4.04h.63l1.38,4.04h-.56l-.43-1.27h-1.43Zm1.32-.41l-.39-1.16c-.09-.26-.15-.5-.21-.74h-.01c-.06.24-.13.49-.2.73l-.4,1.17h1.22Z"/>
      <path class="cls-5" d="m54.32,73.68c-.19.1-.58.19-1.07.19-1.14,0-2-.72-2-2.04s.86-2.12,2.11-2.12c.5,0,.82.11.96.18l-.13.43c-.2-.1-.48-.17-.82-.17-.95,0-1.58.61-1.58,1.67,0,.99.57,1.62,1.55,1.62.32,0,.64-.07.85-.17l.11.41Z"/>
      <path class="cls-5" d="m54.92,73.2c.15.1.5.25.86.25.68,0,.89-.43.88-.76,0-.55-.5-.78-1.01-.78h-.29v-.4h.29c.38,0,.87-.2.87-.66,0-.31-.2-.59-.68-.59-.31,0-.61.14-.78.26l-.14-.38c.2-.15.6-.3,1.02-.3.77,0,1.12.46,1.12.93,0,.4-.24.74-.72.92h0c.48.11.87.47.87,1.01,0,.62-.49,1.17-1.42,1.17-.44,0-.82-.14-1.01-.26l.14-.41Z"/>
      <path class="cls-5" d="m59.26,71.99v.39h-1.48v-.39h1.48Z"/>
    </g>
    <g>
      <path class="cls-5" d="m19.76,81.27c.26-.05.64-.08,1-.08.56,0,.92.1,1.17.33.2.18.32.46.32.77,0,.53-.34.89-.76,1.03v.02c.31.11.5.4.59.82.13.56.23.95.31,1.11h-.54c-.07-.11-.16-.46-.27-.97-.12-.56-.34-.77-.81-.79h-.49v1.75h-.52v-3.99Zm.52,1.84h.53c.56,0,.91-.31.91-.77,0-.52-.38-.75-.93-.76-.25,0-.43.02-.52.05v1.48Z"/>
      <path class="cls-5" d="m23.81,81.66h-1.23v-.44h2.99v.44h-1.24v3.6h-.53v-3.6Z"/>
      <path class="cls-5" d="m26.03,81.27c.32-.05.7-.08,1.11-.08.75,0,1.28.17,1.64.5.36.33.57.8.57,1.45s-.2,1.2-.58,1.57c-.38.38-1,.58-1.79.58-.37,0-.68-.02-.95-.05v-3.98Zm.52,3.57c.13.02.32.03.53.03,1.12,0,1.72-.62,1.72-1.71,0-.95-.53-1.56-1.64-1.56-.27,0-.47.02-.61.05v3.19Z"/>
      <path class="cls-5" d="m31.47,85.25v-1.06h-1.81v-.35l1.74-2.49h.57v2.42h.54v.41h-.54v1.06h-.5Zm0-1.48v-1.3c0-.2,0-.41.02-.61h-.02c-.12.23-.22.4-.32.58l-.95,1.33h0s1.28.01,1.28.01Z"/>
      <path class="cls-5" d="m34.62,82.06v1.41h1.35v.36h-1.35v1.42h-.38v-1.42h-1.36v-.36h1.36v-1.41h.38Z"/>
    </g>
    <g>
      <path class="cls-5" d="m10.31,81.74h-.01l-.68.37-.1-.4.85-.46h.45v3.9h-.51v-3.41Z"/>
      <path class="cls-5" d="m12.37,84.54c.15.1.5.25.86.25.68,0,.89-.43.88-.76,0-.55-.5-.78-1.01-.78h-.29v-.4h.29c.38,0,.87-.2.87-.66,0-.31-.2-.59-.68-.59-.31,0-.61.14-.78.26l-.14-.38c.2-.15.6-.3,1.02-.3.77,0,1.12.46,1.12.93,0,.4-.24.74-.72.92h0c.48.11.87.47.87,1.01,0,.62-.49,1.17-1.42,1.17-.44,0-.82-.14-1.01-.26l.14-.41Z"/>
    </g>
    <g>
      <path class="cls-5" d="m64.42,81.74h-.01l-.68.37-.1-.4.85-.46h.45v3.9h-.51v-3.41Z"/>
      <path class="cls-5" d="m67.99,85.15v-1.06h-1.81v-.35l1.74-2.49h.57v2.42h.55v.41h-.55v1.06h-.5Zm0-1.48v-1.3c0-.2,0-.41.02-.61h-.02c-.12.23-.21.4-.32.58l-.95,1.33h0s1.28.01,1.28.01Z"/>
    </g>
    <g>
      <path class="cls-5" d="m43.64,81.16c.26-.05.64-.08,1-.08.56,0,.92.1,1.17.33.21.18.32.46.32.77,0,.53-.34.89-.76,1.03v.02c.31.11.5.4.59.82.13.56.23.95.31,1.11h-.54c-.07-.11-.16-.46-.27-.97-.12-.56-.34-.77-.81-.79h-.49v1.75h-.52v-3.99Zm.52,1.84h.53c.56,0,.91-.31.91-.77,0-.52-.38-.75-.93-.76-.25,0-.43.02-.52.05v1.48Z"/>
      <path class="cls-5" d="m47.69,81.55h-1.23v-.44h2.99v.44h-1.24v3.6h-.53v-3.6Z"/>
      <path class="cls-5" d="m49.91,81.16c.32-.05.7-.08,1.11-.08.75,0,1.28.17,1.64.5.36.33.57.8.57,1.45s-.21,1.2-.58,1.57c-.38.38-1,.58-1.79.58-.37,0-.68-.02-.95-.05v-3.98Zm.52,3.57c.13.02.32.03.53.03,1.12,0,1.72-.62,1.72-1.71,0-.95-.53-1.56-1.64-1.56-.27,0-.47.02-.61.05v3.19Z"/>
      <path class="cls-5" d="m55.35,85.15v-1.06h-1.81v-.35l1.74-2.49h.57v2.42h.54v.41h-.54v1.06h-.5Zm0-1.48v-1.3c0-.2,0-.41.02-.61h-.02c-.12.23-.22.4-.32.58l-.95,1.33h0s1.28.01,1.28.01Z"/>
      <path class="cls-5" d="m58.19,83.33v.39h-1.48v-.39h1.48Z"/>
    </g>
    <g>
      <path class="cls-5" d="m19.21,92.55v4.04h-.52v-4.04h.52Z"/>
      <path class="cls-5" d="m20.12,92.6c.32-.05.7-.08,1.11-.08.75,0,1.28.17,1.64.5.36.33.57.8.57,1.45s-.2,1.2-.58,1.57c-.38.38-1,.58-1.79.58-.37,0-.68-.02-.95-.05v-3.98Zm.52,3.57c.13.02.32.03.53.03,1.12,0,1.72-.62,1.72-1.71,0-.95-.53-1.56-1.64-1.56-.27,0-.47.02-.61.05v3.19Z"/>
      <path class="cls-5" d="m24.69,95.32l-.42,1.27h-.54l1.37-4.04h.63l1.38,4.04h-.56l-.43-1.27h-1.43Zm1.33-.41l-.4-1.16c-.09-.26-.15-.5-.21-.74h-.01c-.06.24-.13.49-.2.73l-.4,1.17h1.22Z"/>
      <path class="cls-5" d="m30.44,96.46c-.19.1-.58.19-1.07.19-1.14,0-2-.72-2-2.04s.86-2.12,2.11-2.12c.5,0,.82.11.96.18l-.13.43c-.2-.1-.48-.17-.82-.17-.95,0-1.58.61-1.58,1.67,0,.99.57,1.62,1.55,1.62.32,0,.64-.07.85-.17l.11.41Z"/>
      <path class="cls-5" d="m32.54,96.59v-1.06h-1.81v-.35l1.74-2.49h.57v2.42h.54v.41h-.54v1.06h-.5Zm0-1.48v-1.3c0-.2,0-.41.02-.61h-.02c-.12.23-.22.4-.32.58l-.95,1.33h0s1.28.01,1.28.01Z"/>
      <path class="cls-5" d="m35.7,93.4v1.41h1.35v.36h-1.35v1.42h-.38v-1.42h-1.36v-.36h1.36v-1.41h.38Z"/>
    </g>
    <g>
      <path class="cls-5" d="m10.31,93.08h-.01l-.68.37-.1-.4.85-.46h.45v3.9h-.51v-3.41Z"/>
      <path class="cls-5" d="m14.57,93.03h-1.49l-.15,1c.09-.01.17-.02.32-.02.3,0,.6.07.84.21.31.17.56.51.56,1,0,.76-.61,1.33-1.45,1.33-.43,0-.79-.12-.97-.24l.13-.4c.16.1.48.22.83.22.5,0,.92-.32.92-.85,0-.5-.34-.86-1.12-.86-.22,0-.4.02-.54.04l.25-1.87h1.87v.44Z"/>
    </g>
    <g>
      <path class="cls-5" d="m64.42,93.08h-.01l-.68.37-.1-.4.85-.46h.45v3.9h-.51v-3.41Z"/>
      <path class="cls-5" d="m68.58,92.96c-.11,0-.25,0-.4.02-.83.14-1.26.74-1.35,1.39h.02c.19-.25.51-.45.94-.45.69,0,1.18.5,1.18,1.26,0,.71-.49,1.37-1.3,1.37s-1.38-.65-1.38-1.66c0-.77.28-1.37.66-1.76.32-.32.76-.52,1.25-.58.16-.02.29-.03.38-.03v.43Zm-.15,2.25c0-.56-.32-.89-.8-.89-.32,0-.61.2-.76.48-.04.06-.06.14-.06.23.01.64.31,1.12.86,1.12.46,0,.76-.38.76-.94Z"/>
    </g>
    <g>
      <path class="cls-5" d="m43.09,92.44v4.04h-.52v-4.04h.52Z"/>
      <path class="cls-5" d="m44,92.5c.32-.05.7-.08,1.11-.08.75,0,1.28.17,1.64.5.36.33.57.8.57,1.45s-.2,1.2-.58,1.57c-.38.38-1,.58-1.79.58-.37,0-.68-.02-.95-.05v-3.98Zm.52,3.57c.13.02.32.03.53.03,1.12,0,1.72-.62,1.72-1.71,0-.95-.53-1.56-1.64-1.56-.27,0-.47.02-.61.05v3.19Z"/>
      <path class="cls-5" d="m48.57,95.21l-.42,1.27h-.54l1.37-4.04h.63l1.38,4.04h-.56l-.43-1.27h-1.43Zm1.32-.41l-.39-1.16c-.09-.26-.15-.5-.21-.74h-.01c-.06.24-.13.49-.2.73l-.4,1.17h1.22Z"/>
      <path class="cls-5" d="m54.32,96.35c-.19.1-.58.19-1.07.19-1.14,0-2-.72-2-2.04s.86-2.12,2.11-2.12c.5,0,.82.11.96.18l-.13.43c-.2-.1-.48-.17-.82-.17-.95,0-1.58.61-1.58,1.67,0,.99.57,1.62,1.55,1.62.32,0,.64-.07.85-.17l.11.41Z"/>
      <path class="cls-5" d="m56.42,96.49v-1.06h-1.81v-.35l1.74-2.49h.57v2.42h.55v.41h-.55v1.06h-.5Zm0-1.48v-1.3c0-.2,0-.41.02-.61h-.02c-.12.23-.22.4-.32.58l-.95,1.33h0s1.28.01,1.28.01Z"/>
      <path class="cls-5" d="m59.26,94.67v.39h-1.48v-.39h1.48Z"/>
    </g>
    <g>
      <path class="cls-5" d="m25.1,107.75c-.23.08-.7.22-1.24.22-.61,0-1.12-.16-1.51-.53-.35-.34-.56-.88-.56-1.51,0-1.21.83-2.09,2.19-2.09.47,0,.83.1,1.01.19l-.12.43c-.22-.1-.49-.17-.89-.17-.98,0-1.62.61-1.62,1.62s.62,1.63,1.56,1.63c.34,0,.58-.05.7-.11v-1.21h-.82v-.42h1.33v1.94Z"/>
      <path class="cls-5" d="m25.9,107.93v-4.04h.57l1.29,2.04c.3.47.53.9.73,1.31h.01c-.05-.55-.06-1.04-.06-1.67v-1.69h.49v4.04h-.53l-1.28-2.05c-.28-.45-.55-.91-.76-1.35h-.02c.03.52.04,1,.04,1.67v1.73h-.49Z"/>
      <path class="cls-5" d="m29.85,103.94c.32-.05.7-.08,1.11-.08.75,0,1.28.17,1.64.5.36.33.57.8.57,1.45s-.2,1.2-.58,1.57c-.38.38-1,.58-1.79.58-.37,0-.68-.02-.95-.05v-3.98Zm.52,3.57c.13.02.32.03.53.03,1.12,0,1.72-.62,1.72-1.71,0-.95-.53-1.56-1.64-1.56-.27,0-.47.02-.61.05v3.19Z"/>
    </g>
    <g>
      <path class="cls-5" d="m10.31,104.42h-.01l-.68.37-.1-.4.85-.46h.45v3.9h-.51v-3.41Z"/>
      <path class="cls-5" d="m14.78,103.93v.35l-1.7,3.55h-.55l1.69-3.45h0s-1.91-.01-1.91-.01v-.44h2.46Z"/>
    </g>
    <g>
      <path class="cls-5" d="m64.42,104.42h-.01l-.68.37-.1-.4.85-.46h.45v3.9h-.51v-3.41Z"/>
      <path class="cls-5" d="m66.31,106.84c0-.49.29-.84.77-1.04v-.02c-.44-.2-.62-.54-.62-.88,0-.62.52-1.04,1.21-1.04.75,0,1.13.47,1.13.96,0,.33-.16.68-.64.91v.02c.49.19.79.53.79,1.01,0,.68-.58,1.13-1.33,1.13-.82,0-1.31-.49-1.31-1.06Zm2.1-.02c0-.47-.33-.7-.86-.85-.46.13-.7.43-.7.8-.02.4.28.74.78.74s.78-.29.78-.7Zm-1.45-1.95c0,.39.29.6.74.72.34-.11.59-.35.59-.71,0-.31-.19-.64-.66-.64-.44,0-.68.29-.68.62Z"/>
    </g>
    <g>
      <path class="cls-5" d="m48.4,107.65c-.23.08-.7.22-1.24.22-.61,0-1.12-.16-1.51-.53-.35-.34-.56-.88-.56-1.51,0-1.21.83-2.09,2.19-2.09.47,0,.83.1,1.01.19l-.13.43c-.21-.1-.49-.17-.89-.17-.98,0-1.62.61-1.62,1.62s.62,1.63,1.56,1.63c.34,0,.58-.05.7-.11v-1.21h-.82v-.42h1.33v1.94Z"/>
      <path class="cls-5" d="m49.2,107.82v-4.04h.57l1.3,2.04c.3.47.53.9.73,1.31h.01c-.05-.55-.06-1.04-.06-1.67v-1.69h.49v4.04h-.53l-1.28-2.05c-.28-.45-.55-.91-.76-1.35h-.02c.03.52.04,1,.04,1.67v1.73h-.49Z"/>
      <path class="cls-5" d="m53.15,103.84c.32-.05.7-.08,1.11-.08.75,0,1.28.17,1.64.5.36.33.57.8.57,1.45s-.21,1.2-.58,1.57c-.38.38-1,.58-1.79.58-.37,0-.68-.02-.95-.05v-3.98Zm.52,3.57c.13.02.32.03.53.03,1.12,0,1.72-.62,1.72-1.71,0-.95-.53-1.56-1.64-1.56-.27,0-.47.02-.61.05v3.19Z"/>
    </g>
  </g>
</svg>