<?xml version="1.0" encoding="UTF-8"?>
<svg id="_Слой_2" data-name="Слой 2" xmlns="http://www.w3.org/2000/svg" viewBox="0 0 91.78 107.93">
  <defs>
    <style>
      .cls-1 {
        fill: none;
        stroke: #b8bac0;
      }

      .cls-1, .cls-2, .cls-3 {
        stroke-miterlimit: 10;
        stroke-width: .5px;
      }

      .cls-2 {
        fill: #f39200;
      }

      .cls-2, .cls-3 {
        stroke: #1d1d1b;
      }

      .cls-3 {
        fill: #7e7e7d;
      }

      .cls-4 {
        fill: #b8bac0;
      }

      .cls-4, .cls-5 {
        stroke-width: 0px;
      }

      .cls-5 {
        fill: #1d1d1b;
      }
    </style>
  </defs>
  <g id="scheme_w" data-name="scheme w">
    <line class="cls-1" x1="20.66" y1="5.92" x2="11.87" y2="5.92"/>
    <line class="cls-1" x1="11.65" y1="1.67" x2="11.65" y2="10.17"/>
    <line class="cls-1" x1="9.52" y1="8.05" x2="9.52" y2="3.79"/>
    <path class="cls-4" d="m15.83,1.88v1.41h1.36v.36h-1.36v1.42h-.38v-1.42h-1.36v-.36h1.36v-1.41h.38Z"/>
    <path class="cls-4" d="m6.8,3.22v.39h-1.48v-.39h1.48Z"/>
    <line class="cls-1" x1="20.66" y1="17.26" x2="11.87" y2="17.26"/>
    <line class="cls-1" x1="11.65" y1="13.01" x2="11.65" y2="21.51"/>
    <line class="cls-1" x1="9.52" y1="19.38" x2="9.52" y2="15.13"/>
    <path class="cls-4" d="m15.83,13.22v1.41h1.36v.36h-1.36v1.42h-.38v-1.42h-1.36v-.36h1.36v-1.41h.38Z"/>
    <path class="cls-4" d="m6.8,14.56v.39h-1.48v-.39h1.48Z"/>
    <line class="cls-1" x1=".82" y1="17.26" x2="9.32" y2="17.26"/>
    <line class="cls-1" x1="20.66" y1="28.31" x2="11.87" y2="28.31"/>
    <line class="cls-1" x1="11.65" y1="24.06" x2="11.65" y2="32.56"/>
    <line class="cls-1" x1="9.52" y1="30.44" x2="9.52" y2="26.19"/>
    <path class="cls-4" d="m15.83,24.27v1.41h1.36v.36h-1.36v1.42h-.38v-1.42h-1.36v-.36h1.36v-1.41h.38Z"/>
    <path class="cls-4" d="m6.8,25.61v.39h-1.48v-.39h1.48Z"/>
    <line class="cls-1" x1=".82" y1="28.31" x2="9.32" y2="28.31"/>
    <line class="cls-1" x1="20.66" y1="39.65" x2="11.87" y2="39.65"/>
    <line class="cls-1" x1="11.65" y1="35.4" x2="11.65" y2="43.9"/>
    <line class="cls-1" x1="9.52" y1="41.78" x2="9.52" y2="37.53"/>
    <path class="cls-4" d="m15.83,35.61v1.41h1.36v.36h-1.36v1.42h-.38v-1.42h-1.36v-.36h1.36v-1.41h.38Z"/>
    <path class="cls-4" d="m6.8,36.95v.39h-1.48v-.39h1.48Z"/>
    <line class="cls-1" x1=".82" y1="39.65" x2="9.32" y2="39.65"/>
    <line class="cls-1" x1="20.66" y1="50.71" x2="11.87" y2="50.71"/>
    <line class="cls-1" x1="11.65" y1="46.45" x2="11.65" y2="54.96"/>
    <line class="cls-1" x1="9.52" y1="52.83" x2="9.52" y2="48.58"/>
    <path class="cls-4" d="m15.83,46.67v1.41h1.36v.36h-1.36v1.42h-.38v-1.42h-1.36v-.36h1.36v-1.41h.38Z"/>
    <path class="cls-4" d="m6.8,48v.39h-1.48v-.39h1.48Z"/>
    <line class="cls-1" x1=".82" y1="50.71" x2="9.32" y2="50.71"/>
    <line class="cls-1" x1="20.66" y1="62.05" x2="11.87" y2="62.05"/>
    <line class="cls-1" x1="11.65" y1="57.79" x2="11.65" y2="66.3"/>
    <line class="cls-1" x1="9.52" y1="64.17" x2="9.52" y2="59.92"/>
    <path class="cls-4" d="m15.83,58v1.41h1.36v.36h-1.36v1.42h-.38v-1.42h-1.36v-.36h1.36v-1.41h.38Z"/>
    <path class="cls-4" d="m6.8,59.34v.39h-1.48v-.39h1.48Z"/>
    <line class="cls-1" x1=".82" y1="62.05" x2="9.32" y2="62.05"/>
    <line class="cls-1" x1="20.66" y1="73.38" x2="11.87" y2="73.38"/>
    <line class="cls-1" x1="11.65" y1="69.13" x2="11.65" y2="77.64"/>
    <line class="cls-1" x1="9.52" y1="75.51" x2="9.52" y2="71.26"/>
    <path class="cls-4" d="m15.83,69.34v1.41h1.36v.36h-1.36v1.42h-.38v-1.42h-1.36v-.36h1.36v-1.41h.38Z"/>
    <path class="cls-4" d="m6.8,70.68v.39h-1.48v-.39h1.48Z"/>
    <line class="cls-1" x1=".82" y1="73.38" x2="9.32" y2="73.38"/>
    <line class="cls-1" x1="20.66" y1="84.72" x2="11.87" y2="84.72"/>
    <line class="cls-1" x1="11.65" y1="80.47" x2="11.65" y2="88.97"/>
    <line class="cls-1" x1="9.52" y1="86.85" x2="9.52" y2="82.6"/>
    <path class="cls-4" d="m15.83,80.68v1.41h1.36v.36h-1.36v1.42h-.38v-1.42h-1.36v-.36h1.36v-1.41h.38Z"/>
    <path class="cls-4" d="m6.8,82.02v.39h-1.48v-.39h1.48Z"/>
    <line class="cls-1" x1=".82" y1="84.72" x2="9.32" y2="84.72"/>
    <polyline class="cls-1" points="82.45 5.92 90.96 5.92 90.96 107.68 .82 107.68 .79 5.92 .82 5.92 9.32 5.92"/>
    <line class="cls-1" x1="90.96" y1="17.26" x2="82.17" y2="17.26"/>
    <line class="cls-1" x1="90.96" y1="28.31" x2="82.45" y2="28.31"/>
    <line class="cls-1" x1="90.96" y1="39.65" x2="82.45" y2="39.65"/>
    <line class="cls-1" x1="90.96" y1="50.71" x2="82.45" y2="50.71"/>
    <line class="cls-1" x1="90.96" y1="62.05" x2="82.45" y2="62.05"/>
    <line class="cls-1" x1="90.96" y1="73.38" x2="82.17" y2="73.38"/>
    <line class="cls-1" x1="90.96" y1="84.72" x2="82.45" y2="84.72"/>
    <circle class="cls-1" cx=".82" cy="17.26" r=".57"/>
    <circle class="cls-1" cx=".82" cy="28.31" r=".57"/>
    <circle class="cls-1" cx=".82" cy="39.65" r=".57"/>
    <circle class="cls-1" cx=".82" cy="50.71" r=".57"/>
    <circle class="cls-1" cx=".82" cy="62.05" r=".57"/>
    <circle class="cls-1" cx=".82" cy="73.38" r=".57"/>
    <circle class="cls-1" cx=".82" cy="84.72" r=".57"/>
    <circle class="cls-1" cx="90.96" cy="84.72" r=".57"/>
    <circle class="cls-1" cx="90.96" cy="73.38" r=".57"/>
    <circle class="cls-1" cx="90.96" cy="62.05" r=".57"/>
    <circle class="cls-1" cx="90.96" cy="50.71" r=".57"/>
    <circle class="cls-1" cx="90.96" cy="39.65" r=".57"/>
    <circle class="cls-1" cx="90.96" cy="28.31" r=".57"/>
    <circle class="cls-1" cx="90.96" cy="17.26" r=".57"/>
  </g>
  <g id="scheme">
    <rect class="cls-3" x="28.96" y=".25" width="22.68" height="11.34"/>
    <rect class="cls-3" x="51.64" y=".25" width="22.68" height="11.34"/>
    <rect class="cls-2" x="20.46" y=".25" width="8.5" height="11.34"/>
    <rect class="cls-2" x="74.31" y=".25" width="8.5" height="11.34"/>
    <rect class="cls-3" x="28.96" y="11.59" width="22.68" height="11.34"/>
    <rect class="cls-3" x="51.64" y="11.59" width="22.68" height="11.34"/>
    <rect class="cls-2" x="20.46" y="11.59" width="8.5" height="11.34"/>
    <rect class="cls-2" x="74.31" y="11.59" width="8.5" height="11.34"/>
    <rect class="cls-3" x="28.96" y="22.75" width="22.68" height="11.34"/>
    <rect class="cls-3" x="51.64" y="22.75" width="22.68" height="11.34"/>
    <rect class="cls-2" x="20.46" y="22.75" width="8.5" height="11.34"/>
    <rect class="cls-2" x="74.31" y="22.75" width="8.5" height="11.34"/>
    <rect class="cls-3" x="28.96" y="34.09" width="22.68" height="11.34"/>
    <rect class="cls-3" x="51.64" y="34.09" width="22.68" height="11.34"/>
    <rect class="cls-2" x="20.46" y="34.09" width="8.5" height="11.34"/>
    <rect class="cls-2" x="74.31" y="34.09" width="8.5" height="11.34"/>
    <rect class="cls-3" x="28.96" y="45.25" width="22.68" height="11.34"/>
    <rect class="cls-3" x="51.64" y="45.25" width="22.68" height="11.34"/>
    <rect class="cls-2" x="20.46" y="45.25" width="8.5" height="11.34"/>
    <rect class="cls-2" x="74.31" y="45.25" width="8.5" height="11.34"/>
    <rect class="cls-3" x="28.96" y="56.59" width="22.68" height="11.34"/>
    <rect class="cls-3" x="51.64" y="56.59" width="22.68" height="11.34"/>
    <rect class="cls-2" x="20.46" y="56.59" width="8.5" height="11.34"/>
    <rect class="cls-2" x="74.31" y="56.59" width="8.5" height="11.34"/>
    <rect class="cls-3" x="28.96" y="67.93" width="22.68" height="11.34"/>
    <rect class="cls-3" x="51.64" y="67.93" width="22.68" height="11.34"/>
    <rect class="cls-2" x="20.46" y="67.93" width="8.5" height="11.34"/>
    <rect class="cls-2" x="74.31" y="67.93" width="8.5" height="11.34"/>
    <rect class="cls-3" x="28.96" y="79.27" width="22.68" height="11.34"/>
    <rect class="cls-3" x="51.64" y="79.27" width="22.68" height="11.34"/>
    <rect class="cls-2" x="20.46" y="79.27" width="8.5" height="11.34"/>
    <rect class="cls-2" x="74.31" y="79.27" width="8.5" height="11.34"/>
    <rect class="cls-3" x="28.96" y="90.6" width="22.68" height="11.34"/>
    <rect class="cls-3" x="51.64" y="90.6" width="22.68" height="11.34"/>
    <rect class="cls-2" x="20.46" y="90.6" width="8.5" height="11.34"/>
    <rect class="cls-2" x="74.31" y="90.6" width="8.5" height="11.34"/>
  </g>
  <g id="scheme_letters" data-name="scheme letters">
    <g>
      <path class="cls-5" d="m37.34,6.88l-.42,1.27h-.54l1.37-4.04h.63l1.38,4.04h-.56l-.43-1.27h-1.43Zm1.32-.41l-.39-1.16c-.09-.26-.15-.5-.21-.74h-.01c-.06.24-.13.49-.2.73l-.4,1.17h1.22Z"/>
      <path class="cls-5" d="m40.88,4.11v4.04h-.52v-4.04h.52Z"/>
      <path class="cls-5" d="m42.75,4.75h-.01l-.68.37-.1-.4.85-.46h.45v3.9h-.51v-3.41Z"/>
    </g>
    <path class="cls-5" d="m24.41,4.64h-.01l-.68.37-.1-.4.85-.46h.45v3.9h-.51v-3.41Z"/>
    <path class="cls-5" d="m77.37,8.05v-.32l.41-.4c1-.95,1.45-1.45,1.45-2.04,0-.4-.19-.76-.77-.76-.35,0-.65.18-.83.33l-.17-.37c.27-.23.65-.4,1.1-.4.84,0,1.19.58,1.19,1.13,0,.72-.52,1.3-1.34,2.09l-.31.29h0s1.75.01,1.75.01v.44h-2.49Z"/>
    <g>
      <path class="cls-5" d="m61.1,7.87c-.23.08-.7.22-1.24.22-.61,0-1.12-.16-1.51-.53-.35-.34-.56-.88-.56-1.51,0-1.21.83-2.09,2.19-2.09.47,0,.83.1,1.01.19l-.13.43c-.22-.1-.49-.17-.89-.17-.98,0-1.62.61-1.62,1.62s.62,1.63,1.56,1.63c.34,0,.58-.05.7-.11v-1.21h-.82v-.42h1.33v1.94Z"/>
      <path class="cls-5" d="m61.75,8.05v-4.04h.57l1.29,2.04c.3.47.53.9.73,1.31h.01c-.05-.55-.06-1.04-.06-1.67v-1.69h.49v4.04h-.53l-1.28-2.05c-.28-.45-.55-.91-.76-1.35h-.02c.03.52.04,1,.04,1.67v1.73h-.49Z"/>
      <path class="cls-5" d="m65.55,4.06c.32-.05.7-.08,1.11-.08.75,0,1.28.17,1.64.5.36.33.57.8.57,1.45s-.2,1.2-.58,1.57c-.38.38-1,.58-1.79.58-.37,0-.68-.02-.95-.05v-3.98Zm.52,3.57c.13.02.32.03.53.03,1.12,0,1.72-.62,1.72-1.71,0-.95-.53-1.56-1.64-1.56-.27,0-.47.02-.61.05v3.19Z"/>
    </g>
    <g>
      <path class="cls-5" d="m37.34,18.22l-.42,1.27h-.54l1.37-4.04h.63l1.38,4.04h-.56l-.43-1.27h-1.43Zm1.32-.41l-.39-1.16c-.09-.26-.15-.5-.21-.74h-.01c-.06.24-.13.49-.2.73l-.4,1.17h1.22Z"/>
      <path class="cls-5" d="m40.88,15.45v4.04h-.52v-4.04h.52Z"/>
      <path class="cls-5" d="m41.6,19.49v-.32l.41-.4c1-.95,1.45-1.45,1.45-2.04,0-.4-.19-.76-.77-.76-.35,0-.65.18-.83.33l-.17-.37c.27-.23.65-.4,1.1-.4.84,0,1.19.58,1.19,1.13,0,.72-.52,1.3-1.34,2.09l-.31.29h0s1.75.01,1.75.01v.44h-2.49Z"/>
    </g>
    <path class="cls-5" d="m23.4,18.78c.12.1.41.25.71.25.56,0,.73-.43.73-.76,0-.55-.41-.78-.83-.78h-.24v-.4h.24c.32,0,.72-.2.72-.66,0-.31-.16-.59-.57-.59-.26,0-.51.14-.64.26l-.11-.38c.17-.15.5-.3.84-.3.63,0,.92.46.92.93,0,.4-.2.74-.59.92h0c.4.11.72.47.72,1.01,0,.62-.4,1.17-1.17,1.17-.36,0-.68-.14-.84-.26l.12-.41Z"/>
    <path class="cls-5" d="m79,19.38v-1.06h-1.81v-.35l1.74-2.49h.57v2.42h.54v.41h-.54v1.06h-.5Zm0-1.48v-1.3c0-.2,0-.41.02-.61h-.02c-.12.23-.22.4-.32.58l-.95,1.33h0s1.28.01,1.28.01Z"/>
    <g>
      <path class="cls-5" d="m61.1,19.2c-.23.08-.7.22-1.24.22-.61,0-1.12-.16-1.51-.53-.35-.34-.56-.88-.56-1.51,0-1.21.83-2.09,2.19-2.09.47,0,.83.1,1.01.19l-.13.43c-.22-.1-.49-.17-.89-.17-.98,0-1.62.61-1.62,1.62s.62,1.63,1.56,1.63c.34,0,.58-.05.7-.11v-1.21h-.82v-.42h1.33v1.94Z"/>
      <path class="cls-5" d="m61.75,19.38v-4.04h.57l1.29,2.04c.3.47.53.9.73,1.31h.01c-.05-.55-.06-1.04-.06-1.67v-1.69h.49v4.04h-.53l-1.28-2.05c-.28-.45-.55-.91-.76-1.35h-.02c.03.52.04,1,.04,1.67v1.73h-.49Z"/>
      <path class="cls-5" d="m65.55,15.4c.32-.05.7-.08,1.11-.08.75,0,1.28.17,1.64.5.36.33.57.8.57,1.45s-.2,1.2-.58,1.57c-.38.38-1,.58-1.79.58-.37,0-.68-.02-.95-.05v-3.98Zm.52,3.57c.13.02.32.03.53.03,1.12,0,1.72-.62,1.72-1.71,0-.95-.53-1.56-1.64-1.56-.27,0-.47.02-.61.05v3.19Z"/>
    </g>
    <g>
      <path class="cls-5" d="m37.34,29.38l-.42,1.27h-.54l1.37-4.04h.63l1.38,4.04h-.56l-.43-1.27h-1.43Zm1.32-.41l-.39-1.16c-.09-.26-.15-.5-.21-.74h-.01c-.06.24-.13.49-.2.73l-.4,1.17h1.22Z"/>
      <path class="cls-5" d="m40.88,26.61v4.04h-.52v-4.04h.52Z"/>
      <path class="cls-5" d="m41.73,30.05c.15.1.5.25.86.25.68,0,.89-.43.88-.76,0-.55-.5-.78-1.01-.78h-.29v-.4h.29c.38,0,.87-.2.87-.66,0-.31-.2-.59-.68-.59-.31,0-.61.14-.78.26l-.14-.38c.2-.15.6-.3,1.02-.3.77,0,1.12.46,1.12.93,0,.4-.24.74-.72.92h0c.48.11.87.47.87,1.01,0,.62-.49,1.17-1.42,1.17-.44,0-.82-.14-1.01-.26l.14-.41Z"/>
    </g>
    <path class="cls-5" d="m25.59,27.09h-1.49l-.15,1c.09-.01.17-.02.32-.02.3,0,.6.07.84.21.31.17.56.51.56,1,0,.76-.61,1.33-1.45,1.33-.43,0-.79-.12-.97-.24l.13-.4c.16.1.48.22.83.22.5,0,.92-.32.92-.85,0-.5-.34-.86-1.12-.86-.22,0-.4.02-.54.04l.25-1.87h1.87v.44Z"/>
    <path class="cls-5" d="m79.6,27.02c-.11,0-.25,0-.4.02-.83.14-1.26.74-1.35,1.39h.02c.19-.25.51-.45.94-.45.69,0,1.18.5,1.18,1.26,0,.71-.49,1.37-1.3,1.37s-1.38-.65-1.38-1.66c0-.77.28-1.37.66-1.76.32-.32.75-.52,1.25-.58.16-.02.29-.03.38-.03v.43Zm-.15,2.25c0-.56-.32-.89-.8-.89-.32,0-.61.2-.75.48-.04.06-.06.14-.06.23.01.64.31,1.12.86,1.12.46,0,.76-.38.76-.94Z"/>
    <g>
      <path class="cls-5" d="m61.1,30.37c-.23.08-.7.22-1.24.22-.61,0-1.12-.16-1.51-.53-.35-.34-.56-.88-.56-1.51,0-1.21.83-2.09,2.19-2.09.47,0,.83.1,1.01.19l-.13.43c-.22-.1-.49-.17-.89-.17-.98,0-1.62.61-1.62,1.62s.62,1.63,1.56,1.63c.34,0,.58-.05.7-.11v-1.21h-.82v-.42h1.33v1.94Z"/>
      <path class="cls-5" d="m61.75,30.55v-4.04h.57l1.29,2.04c.3.47.53.9.73,1.31h.01c-.05-.55-.06-1.04-.06-1.67v-1.69h.49v4.04h-.53l-1.28-2.05c-.28-.45-.55-.91-.76-1.35h-.02c.03.52.04,1,.04,1.67v1.73h-.49Z"/>
      <path class="cls-5" d="m65.55,26.56c.32-.05.7-.08,1.11-.08.75,0,1.28.17,1.64.5.36.33.57.8.57,1.45s-.2,1.2-.58,1.57c-.38.38-1,.58-1.79.58-.37,0-.68-.02-.95-.05v-3.98Zm.52,3.57c.13.02.32.03.53.03,1.12,0,1.72-.62,1.72-1.71,0-.95-.53-1.56-1.64-1.56-.27,0-.47.02-.61.05v3.19Z"/>
    </g>
    <g>
      <path class="cls-5" d="m37.34,40.72l-.42,1.27h-.54l1.37-4.04h.63l1.38,4.04h-.56l-.43-1.27h-1.43Zm1.32-.41l-.39-1.16c-.09-.26-.15-.5-.21-.74h-.01c-.06.24-.13.49-.2.73l-.4,1.17h1.22Z"/>
      <path class="cls-5" d="m40.88,37.95v4.04h-.52v-4.04h.52Z"/>
      <path class="cls-5" d="m43.23,41.99v-1.06h-1.81v-.35l1.74-2.49h.57v2.42h.55v.41h-.55v1.06h-.5Zm0-1.48v-1.3c0-.2,0-.41.02-.61h-.02c-.12.23-.21.4-.32.58l-.95,1.33h0s1.28.01,1.28.01Z"/>
    </g>
    <path class="cls-5" d="m25.79,37.99v.35l-1.7,3.55h-.55l1.69-3.45h0s-1.91-.01-1.91-.01v-.44h2.46Z"/>
    <path class="cls-5" d="m77.32,40.89c0-.49.29-.84.77-1.04v-.02c-.44-.2-.62-.54-.62-.88,0-.62.52-1.04,1.21-1.04.76,0,1.13.47,1.13.96,0,.33-.16.68-.64.91v.02c.49.19.79.53.79,1.01,0,.68-.58,1.13-1.33,1.13-.82,0-1.31-.49-1.31-1.06Zm2.1-.02c0-.47-.33-.7-.86-.85-.46.13-.7.43-.7.8-.02.4.28.74.78.74s.78-.29.78-.7Zm-1.45-1.95c0,.39.29.6.74.72.34-.11.59-.35.59-.71,0-.31-.19-.64-.66-.64-.44,0-.68.29-.68.62Z"/>
    <g>
      <path class="cls-5" d="m60.61,41.7c-.23.08-.7.22-1.24.22-.61,0-1.12-.16-1.51-.53-.35-.34-.56-.88-.56-1.51,0-1.21.83-2.09,2.19-2.09.47,0,.83.1,1.01.19l-.12.43c-.22-.1-.49-.17-.89-.17-.98,0-1.62.61-1.62,1.62s.62,1.63,1.56,1.63c.34,0,.58-.05.7-.11v-1.21h-.82v-.42h1.33v1.94Z"/>
      <path class="cls-5" d="m61.26,41.88v-4.04h.57l1.29,2.04c.3.47.53.9.73,1.31h.01c-.05-.55-.06-1.04-.06-1.67v-1.69h.49v4.04h-.53l-1.28-2.05c-.28-.45-.55-.91-.76-1.35h-.02c.03.52.04,1,.04,1.67v1.73h-.49Z"/>
      <path class="cls-5" d="m65.06,37.9c.32-.05.7-.08,1.11-.08.75,0,1.28.17,1.64.5.36.33.57.8.57,1.45s-.21,1.2-.58,1.57c-.38.38-1,.58-1.79.58-.37,0-.68-.02-.95-.05v-3.98Zm.52,3.57c.13.02.32.03.53.03,1.12,0,1.72-.62,1.72-1.71,0-.95-.53-1.56-1.64-1.56-.27,0-.47.02-.61.05v3.19Z"/>
    </g>
    <g>
      <path class="cls-5" d="m37.34,51.88l-.42,1.27h-.54l1.37-4.04h.63l1.38,4.04h-.56l-.43-1.27h-1.43Zm1.32-.41l-.39-1.16c-.09-.26-.15-.5-.21-.74h-.01c-.06.24-.13.49-.2.73l-.4,1.17h1.22Z"/>
      <path class="cls-5" d="m40.88,49.11v4.04h-.52v-4.04h.52Z"/>
      <path class="cls-5" d="m43.93,49.7h-1.49l-.15,1c.09-.01.17-.02.32-.02.3,0,.6.07.84.21.31.17.56.51.56,1,0,.76-.61,1.33-1.45,1.33-.43,0-.79-.12-.97-.24l.13-.4c.16.1.48.22.83.22.5,0,.92-.32.92-.85,0-.5-.34-.86-1.12-.86-.22,0-.4.02-.54.04l.25-1.87h1.87v.44Z"/>
    </g>
    <path class="cls-5" d="m23.57,52.67c.11.01.25,0,.43-.02.31-.04.59-.17.82-.38.26-.23.44-.58.52-1.04h-.02c-.22.26-.53.42-.92.42-.7,0-1.15-.53-1.15-1.19,0-.74.53-1.39,1.33-1.39s1.29.65,1.29,1.64c0,.86-.29,1.46-.67,1.83-.3.29-.71.47-1.13.52-.19.03-.36.04-.49.03v-.43Zm.19-2.24c0,.49.29.83.75.83.35,0,.63-.17.77-.41.03-.05.05-.11.05-.19,0-.67-.25-1.18-.8-1.18-.45,0-.77.4-.77.95Z"/>
    <g>
      <path class="cls-5" d="m76.98,49.64h-.01l-.68.37-.1-.4.85-.46h.45v3.9h-.51v-3.41Z"/>
      <path class="cls-5" d="m81.5,51.05c0,1.33-.49,2.06-1.35,2.06-.76,0-1.28-.71-1.29-2,0-1.31.56-2.03,1.36-2.03s1.29.73,1.29,1.97Zm-2.12.06c0,1.01.31,1.59.79,1.59.54,0,.8-.63.8-1.62s-.25-1.59-.79-1.59c-.46,0-.8.56-.8,1.62Z"/>
    </g>
    <g>
      <path class="cls-5" d="m60.79,52.87c-.23.08-.7.22-1.24.22-.61,0-1.12-.16-1.51-.53-.35-.34-.56-.88-.56-1.51,0-1.21.83-2.09,2.19-2.09.47,0,.83.1,1.01.19l-.13.43c-.22-.1-.49-.17-.89-.17-.98,0-1.62.61-1.62,1.62s.62,1.63,1.56,1.63c.34,0,.58-.05.7-.11v-1.21h-.82v-.42h1.33v1.94Z"/>
      <path class="cls-5" d="m61.44,53.05v-4.04h.57l1.3,2.04c.3.47.53.9.73,1.31h.01c-.05-.55-.06-1.04-.06-1.67v-1.69h.49v4.04h-.53l-1.28-2.05c-.28-.45-.55-.91-.76-1.35h-.02c.03.52.04,1,.04,1.67v1.73h-.49Z"/>
      <path class="cls-5" d="m65.24,49.06c.32-.05.7-.08,1.11-.08.75,0,1.28.17,1.64.5.36.33.57.8.57,1.45s-.2,1.2-.58,1.57c-.38.38-1,.58-1.79.58-.37,0-.68-.02-.95-.05v-3.98Zm.52,3.57c.13.02.32.03.53.03,1.12,0,1.72-.62,1.72-1.71,0-.95-.53-1.56-1.64-1.56-.27,0-.47.02-.61.05v3.19Z"/>
    </g>
    <g>
      <path class="cls-5" d="m37.34,63.22l-.42,1.27h-.54l1.37-4.04h.63l1.38,4.04h-.56l-.43-1.27h-1.43Zm1.32-.41l-.39-1.16c-.09-.26-.15-.5-.21-.74h-.01c-.06.24-.13.49-.2.73l-.4,1.17h1.22Z"/>
      <path class="cls-5" d="m40.88,60.45v4.04h-.52v-4.04h.52Z"/>
      <path class="cls-5" d="m43.83,60.96c-.11,0-.25,0-.4.02-.83.14-1.26.74-1.35,1.39h.02c.19-.25.51-.45.94-.45.69,0,1.18.5,1.18,1.26,0,.71-.49,1.37-1.3,1.37s-1.38-.65-1.38-1.66c0-.77.28-1.37.66-1.76.32-.32.76-.52,1.25-.58.16-.02.29-.03.38-.03v.43Zm-.15,2.25c0-.56-.32-.89-.8-.89-.32,0-.61.2-.76.48-.04.06-.06.14-.06.23.01.64.31,1.12.86,1.12.46,0,.76-.38.76-.94Z"/>
    </g>
    <g>
      <path class="cls-5" d="m22.87,60.98h-.01l-.68.37-.1-.4.85-.46h.45v3.9h-.51v-3.41Z"/>
      <path class="cls-5" d="m25.95,60.98h-.01l-.68.37-.1-.4.85-.46h.45v3.9h-.51v-3.41Z"/>
    </g>
    <g>
      <path class="cls-5" d="m76.98,60.98h-.01l-.68.37-.1-.4.85-.46h.45v3.9h-.51v-3.41Z"/>
      <path class="cls-5" d="m78.91,64.38v-.32l.41-.4c1-.95,1.45-1.45,1.45-2.04,0-.4-.19-.76-.77-.76-.35,0-.65.18-.83.33l-.17-.37c.27-.23.65-.4,1.1-.4.84,0,1.19.58,1.19,1.13,0,.72-.52,1.3-1.34,2.09l-.31.29h0s1.75.01,1.75.01v.44h-2.49Z"/>
    </g>
    <g>
      <path class="cls-5" d="m61.1,64.2c-.23.08-.7.22-1.24.22-.61,0-1.12-.16-1.51-.53-.35-.34-.56-.88-.56-1.51,0-1.21.83-2.09,2.19-2.09.47,0,.83.1,1.01.19l-.13.43c-.22-.1-.49-.17-.89-.17-.98,0-1.62.61-1.62,1.62s.62,1.63,1.56,1.63c.34,0,.58-.05.7-.11v-1.21h-.82v-.42h1.33v1.94Z"/>
      <path class="cls-5" d="m61.75,64.38v-4.04h.57l1.29,2.04c.3.47.53.9.73,1.31h.01c-.05-.55-.06-1.04-.06-1.67v-1.69h.49v4.04h-.53l-1.28-2.05c-.28-.45-.55-.91-.76-1.35h-.02c.03.52.04,1,.04,1.67v1.73h-.49Z"/>
      <path class="cls-5" d="m65.55,60.4c.32-.05.7-.08,1.11-.08.75,0,1.28.17,1.64.5.36.33.57.8.57,1.45s-.2,1.2-.58,1.57c-.38.38-1,.58-1.79.58-.37,0-.68-.02-.95-.05v-3.98Zm.52,3.57c.13.02.32.03.53.03,1.12,0,1.72-.62,1.72-1.71,0-.95-.53-1.56-1.64-1.56-.27,0-.47.02-.61.05v3.19Z"/>
    </g>
    <g>
      <path class="cls-5" d="m37.34,74.56l-.42,1.27h-.54l1.37-4.04h.63l1.38,4.04h-.56l-.43-1.27h-1.43Zm1.32-.41l-.39-1.16c-.09-.26-.15-.5-.21-.74h-.01c-.06.24-.13.49-.2.73l-.4,1.17h1.22Z"/>
      <path class="cls-5" d="m40.88,71.79v4.04h-.52v-4.04h.52Z"/>
      <path class="cls-5" d="m44.13,71.93v.35l-1.7,3.55h-.55l1.69-3.45h0s-1.91-.01-1.91-.01v-.44h2.46Z"/>
    </g>
    <g>
      <path class="cls-5" d="m22.87,72.32h-.01l-.68.37-.1-.4.85-.46h.45v3.9h-.51v-3.41Z"/>
      <path class="cls-5" d="m24.93,75.12c.15.1.5.25.86.25.68,0,.89-.43.88-.76,0-.55-.5-.78-1.01-.78h-.29v-.4h.29c.38,0,.87-.2.87-.66,0-.31-.2-.59-.68-.59-.31,0-.61.14-.78.26l-.14-.38c.2-.15.6-.3,1.02-.3.77,0,1.12.46,1.12.93,0,.4-.24.74-.72.92h0c.48.11.87.47.87,1.01,0,.62-.49,1.17-1.42,1.17-.44,0-.82-.14-1.01-.26l.14-.41Z"/>
    </g>
    <g>
      <path class="cls-5" d="m76.98,72.32h-.01l-.68.37-.1-.4.85-.46h.45v3.9h-.51v-3.41Z"/>
      <path class="cls-5" d="m80.54,75.72v-1.06h-1.81v-.35l1.74-2.49h.57v2.42h.54v.41h-.54v1.06h-.5Zm0-1.48v-1.3c0-.2,0-.41.02-.61h-.02c-.12.23-.22.4-.32.58l-.95,1.33h0s1.28.01,1.28.01Z"/>
    </g>
    <g>
      <path class="cls-5" d="m61.1,75.54c-.23.08-.7.22-1.24.22-.61,0-1.12-.16-1.51-.53-.35-.34-.56-.88-.56-1.51,0-1.21.83-2.09,2.19-2.09.47,0,.83.1,1.01.19l-.13.43c-.22-.1-.49-.17-.89-.17-.98,0-1.62.61-1.62,1.62s.62,1.63,1.56,1.63c.34,0,.58-.05.7-.11v-1.21h-.82v-.42h1.33v1.94Z"/>
      <path class="cls-5" d="m61.75,75.72v-4.04h.57l1.29,2.04c.3.47.53.9.73,1.31h.01c-.05-.55-.06-1.04-.06-1.67v-1.69h.49v4.04h-.53l-1.28-2.05c-.28-.45-.55-.91-.76-1.35h-.02c.03.52.04,1,.04,1.67v1.73h-.49Z"/>
      <path class="cls-5" d="m65.55,71.73c.32-.05.7-.08,1.11-.08.75,0,1.28.17,1.64.5.36.33.57.8.57,1.45s-.2,1.2-.58,1.57c-.38.38-1,.58-1.79.58-.37,0-.68-.02-.95-.05v-3.98Zm.52,3.57c.13.02.32.03.53.03,1.12,0,1.72-.62,1.72-1.71,0-.95-.53-1.56-1.64-1.56-.27,0-.47.02-.61.05v3.19Z"/>
    </g>
    <g>
      <path class="cls-5" d="m37.34,85.9l-.42,1.27h-.54l1.37-4.04h.63l1.38,4.04h-.56l-.43-1.27h-1.43Zm1.32-.41l-.39-1.16c-.09-.26-.15-.5-.21-.74h-.01c-.06.24-.13.49-.2.73l-.4,1.17h1.22Z"/>
      <path class="cls-5" d="m40.88,83.13v4.04h-.52v-4.04h.52Z"/>
      <path class="cls-5" d="m41.55,86.18c0-.49.29-.84.77-1.04v-.02c-.44-.2-.62-.54-.62-.88,0-.62.52-1.04,1.21-1.04.75,0,1.13.47,1.13.96,0,.33-.16.68-.64.91v.02c.49.19.79.53.79,1.01,0,.68-.58,1.13-1.33,1.13-.82,0-1.31-.49-1.31-1.06Zm2.1-.02c0-.47-.33-.7-.86-.85-.46.13-.7.43-.7.8-.02.4.28.74.78.74s.78-.29.78-.7Zm-1.45-1.95c0,.39.29.6.74.72.34-.11.59-.35.59-.71,0-.31-.19-.64-.66-.64-.44,0-.68.29-.68.62Z"/>
    </g>
    <g>
      <path class="cls-5" d="m22.87,83.66h-.01l-.68.37-.1-.4.85-.46h.45v3.9h-.51v-3.41Z"/>
      <path class="cls-5" d="m27.13,83.61h-1.49l-.15,1c.09-.01.17-.02.32-.02.3,0,.6.07.84.21.31.17.56.51.56,1,0,.76-.61,1.33-1.45,1.33-.43,0-.79-.12-.97-.24l.13-.4c.16.1.48.22.83.22.5,0,.92-.32.92-.85,0-.5-.34-.86-1.12-.86-.22,0-.4.02-.54.04l.25-1.87h1.87v.44Z"/>
    </g>
    <g>
      <path class="cls-5" d="m76.98,83.65h-.01l-.68.37-.1-.4.85-.46h.45v3.9h-.51v-3.41Z"/>
      <path class="cls-5" d="m81.14,83.54c-.11,0-.25,0-.4.02-.83.14-1.26.74-1.35,1.39h.02c.19-.25.51-.45.94-.45.69,0,1.18.5,1.18,1.26,0,.71-.49,1.37-1.3,1.37s-1.38-.65-1.38-1.66c0-.77.28-1.37.66-1.76.32-.32.75-.52,1.25-.58.16-.02.29-.03.38-.03v.43Zm-.15,2.25c0-.56-.32-.89-.8-.89-.32,0-.61.2-.75.48-.04.06-.06.14-.06.23.01.64.31,1.12.86,1.12.46,0,.76-.38.76-.94Z"/>
    </g>
    <g>
      <path class="cls-5" d="m61.1,86.88c-.23.08-.7.22-1.24.22-.61,0-1.12-.16-1.51-.53-.35-.34-.56-.88-.56-1.51,0-1.21.83-2.09,2.19-2.09.47,0,.83.1,1.01.19l-.13.43c-.22-.1-.49-.17-.89-.17-.98,0-1.62.61-1.62,1.62s.62,1.63,1.56,1.63c.34,0,.58-.05.7-.11v-1.21h-.82v-.42h1.33v1.94Z"/>
      <path class="cls-5" d="m61.75,87.06v-4.04h.57l1.29,2.04c.3.47.53.9.73,1.31h.01c-.05-.55-.06-1.04-.06-1.67v-1.69h.49v4.04h-.53l-1.28-2.05c-.28-.45-.55-.91-.76-1.35h-.02c.03.52.04,1,.04,1.67v1.73h-.49Z"/>
      <path class="cls-5" d="m65.55,83.07c.32-.05.7-.08,1.11-.08.75,0,1.28.17,1.64.5.36.33.57.8.57,1.45s-.2,1.2-.58,1.57c-.38.38-1,.58-1.79.58-.37,0-.68-.02-.95-.05v-3.98Zm.52,3.57c.13.02.32.03.53.03,1.12,0,1.72-.62,1.72-1.71,0-.95-.53-1.56-1.64-1.56-.27,0-.47.02-.61.05v3.19Z"/>
    </g>
    <g>
      <path class="cls-5" d="m37.66,98.33c-.23.08-.7.22-1.24.22-.61,0-1.12-.16-1.51-.53-.35-.34-.56-.88-.56-1.51,0-1.21.83-2.09,2.19-2.09.47,0,.83.1,1.01.19l-.13.43c-.22-.1-.49-.17-.89-.17-.98,0-1.62.61-1.62,1.62s.62,1.63,1.56,1.63c.34,0,.58-.05.7-.11v-1.21h-.82v-.42h1.33v1.94Z"/>
      <path class="cls-5" d="m38.46,98.51v-4.04h.57l1.29,2.04c.3.47.53.9.73,1.31h.01c-.05-.55-.06-1.04-.06-1.67v-1.69h.49v4.04h-.53l-1.28-2.05c-.28-.45-.55-.91-.76-1.35h-.02c.03.52.04,1,.04,1.67v1.73h-.49Z"/>
      <path class="cls-5" d="m42.4,94.52c.32-.05.7-.08,1.11-.08.75,0,1.28.17,1.64.5.36.33.57.8.57,1.45s-.2,1.2-.58,1.57c-.38.38-1,.58-1.79.58-.37,0-.68-.02-.95-.05v-3.98Zm.52,3.57c.13.02.32.03.53.03,1.12,0,1.72-.62,1.72-1.71,0-.95-.53-1.56-1.64-1.56-.27,0-.47.02-.61.05v3.19Z"/>
    </g>
    <g>
      <path class="cls-5" d="m22.87,94.99h-.01l-.68.37-.1-.4.85-.46h.45v3.9h-.51v-3.41Z"/>
      <path class="cls-5" d="m27.33,94.5v.35l-1.7,3.55h-.55l1.69-3.45h0s-1.91-.01-1.91-.01v-.44h2.46Z"/>
    </g>
    <g>
      <path class="cls-5" d="m76.98,94.99h-.01l-.68.37-.1-.4.85-.46h.45v3.9h-.51v-3.41Z"/>
      <path class="cls-5" d="m78.86,97.41c0-.49.29-.84.77-1.04v-.02c-.44-.2-.62-.54-.62-.88,0-.62.52-1.04,1.21-1.04.76,0,1.13.47,1.13.96,0,.33-.16.68-.64.91v.02c.49.19.79.53.79,1.01,0,.68-.58,1.13-1.33,1.13-.82,0-1.31-.49-1.31-1.06Zm2.1-.02c0-.47-.33-.7-.86-.85-.46.13-.7.43-.7.8-.02.4.28.74.78.74s.78-.29.78-.7Zm-1.45-1.95c0,.39.29.6.74.72.34-.11.59-.35.59-.71,0-.31-.19-.64-.66-.64-.44,0-.68.29-.68.62Z"/>
    </g>
    <g>
      <path class="cls-5" d="m60.95,98.22c-.23.08-.7.22-1.24.22-.61,0-1.12-.16-1.51-.53-.35-.34-.56-.88-.56-1.51,0-1.21.83-2.09,2.19-2.09.47,0,.83.1,1.01.19l-.13.43c-.22-.1-.49-.17-.89-.17-.98,0-1.62.61-1.62,1.62s.62,1.63,1.56,1.63c.34,0,.58-.05.7-.11v-1.21h-.82v-.42h1.33v1.94Z"/>
      <path class="cls-5" d="m61.75,98.4v-4.04h.57l1.29,2.04c.3.47.53.9.73,1.31h.01c-.05-.55-.06-1.04-.06-1.67v-1.69h.49v4.04h-.53l-1.28-2.05c-.28-.45-.55-.91-.76-1.35h-.02c.03.52.04,1,.04,1.67v1.73h-.49Z"/>
      <path class="cls-5" d="m65.7,94.41c.32-.05.7-.08,1.11-.08.75,0,1.28.17,1.64.5.36.33.57.8.57,1.45s-.2,1.2-.58,1.57c-.38.38-1,.58-1.79.58-.37,0-.68-.02-.95-.05v-3.98Zm.52,3.57c.13.02.32.03.53.03,1.12,0,1.72-.62,1.72-1.71,0-.95-.53-1.56-1.64-1.56-.27,0-.47.02-.61.05v3.19Z"/>
    </g>
  </g>
</svg>