<?xml version="1.0" encoding="UTF-8"?>
<svg id="_Слой_2" data-name="Слой 2" xmlns="http://www.w3.org/2000/svg" viewBox="0 0 104.24 107.98">
  <defs>
    <style>
      .cls-1 {
        fill: none;
        stroke: #b8bac0;
      }

      .cls-1, .cls-2, .cls-3 {
        stroke-miterlimit: 10;
        stroke-width: .5px;
      }

      .cls-2 {
        fill: #f39200;
      }

      .cls-2, .cls-3 {
        stroke: #1d1d1b;
      }

      .cls-3 {
        fill: #7e7e7d;
      }

      .cls-4 {
        fill: #b8bac0;
      }

      .cls-4, .cls-5 {
        stroke-width: 0px;
      }

      .cls-5 {
        fill: #1d1d1b;
      }
    </style>
  </defs>
  <g id="scheme_w" data-name="scheme w">
    <line class="cls-1" x1="32.85" y1="5.97" x2="27.46" y2="5.97"/>
    <path class="cls-4" d="m30.29,2.21v1.41h1.36v.36h-1.36v1.42h-.38v-1.42h-1.35v-.36h1.35v-1.41h.38Z"/>
    <path class="cls-4" d="m5.6,3.3v.39h-1.48v-.39h1.48Z"/>
    <polyline class="cls-1" points="94.92 5.92 103.42 5.92 103.42 107.68 .82 107.73 .82 5.97 7.67 5.97"/>
    <line class="cls-1" x1="103.42" y1="17.26" x2="94.64" y2="17.26"/>
    <line class="cls-1" x1="103.42" y1="28.31" x2="94.92" y2="28.31"/>
    <line class="cls-1" x1="103.42" y1="39.65" x2="94.92" y2="39.65"/>
    <line class="cls-1" x1="103.42" y1="50.71" x2="94.92" y2="50.71"/>
    <line class="cls-1" x1="103.42" y1="62.05" x2="94.92" y2="62.05"/>
    <line class="cls-1" x1="103.42" y1="73.38" x2="94.64" y2="73.38"/>
    <line class="cls-1" x1="103.42" y1="84.72" x2="94.92" y2="84.72"/>
    <circle class="cls-1" cx="103.42" cy="84.72" r=".57"/>
    <circle class="cls-1" cx="103.42" cy="73.38" r=".57"/>
    <circle class="cls-1" cx="103.42" cy="62.05" r=".57"/>
    <circle class="cls-1" cx="103.42" cy="50.71" r=".57"/>
    <circle class="cls-1" cx="103.42" cy="39.65" r=".57"/>
    <circle class="cls-1" cx="103.42" cy="28.31" r=".57"/>
    <circle class="cls-1" cx="103.42" cy="17.26" r=".57"/>
    <rect class="cls-1" x="7.6" y="2.57" width="19.84" height="7.09"/>
    <g>
      <path class="cls-4" d="m10.21,4.19l.8,1.72c.1.24.2.47.29.71h.01c.07-.21.15-.44.25-.73l.63-1.7h.55l-.85,2.08c-.22.54-.47,1.16-.76,1.54-.26.33-.56.5-.92.5-.13,0-.23-.01-.29-.04l.05-.43s.1.02.19.02c.42,0,.67-.41.79-.7.04-.09.03-.15-.02-.25l-1.34-2.72h.59Z"/>
      <path class="cls-4" d="m14.77,8.13c-.14.07-.44.17-.83.17-.88,0-1.45-.59-1.45-1.48s.61-1.54,1.56-1.54c.31,0,.59.08.73.15l-.12.41c-.13-.07-.32-.14-.61-.14-.67,0-1.03.49-1.03,1.1,0,.67.43,1.09,1.01,1.09.3,0,.5-.08.65-.14l.09.4Z"/>
      <path class="cls-4" d="m17.29,5.33v.42h-.91v2.48h-.52v-2.48h-.91v-.42h2.33Z"/>
      <path class="cls-4" d="m18.67,6.42v.39h-1.48v-.39h1.48Z"/>
      <path class="cls-4" d="m19.13,5.37c.2-.04.58-.07.92-.07.49,0,1.29.08,1.29.73,0,.36-.28.58-.61.65h0c.43.07.74.31.74.73,0,.76-.96.86-1.53.86-.32,0-.66-.02-.82-.04v-2.87Zm.5,2.52c.15.02.26.02.43.02.35,0,.88-.08.88-.5s-.42-.51-.92-.51h-.38v.99Zm0-1.34h.4c.39,0,.79-.11.79-.46,0-.29-.25-.43-.78-.43-.17,0-.28.01-.41.02v.86Z"/>
      <path class="cls-4" d="m24.62,6.76c0,1.07-.74,1.54-1.45,1.54-.79,0-1.39-.58-1.39-1.49,0-.97.64-1.54,1.44-1.54s1.4.61,1.4,1.49Zm-2.3.03c0,.64.37,1.12.88,1.12s.88-.47.88-1.13c0-.49-.25-1.12-.87-1.12s-.89.58-.89,1.13Z"/>
    </g>
    <line class="cls-1" x1="1.1" y1="96.06" x2="34.27" y2="96.06"/>
    <circle class="cls-1" cx=".82" cy="96.11" r=".57"/>
    <line class="cls-1" x1="32.85" y1="17.31" x2="27.46" y2="17.31"/>
    <path class="cls-4" d="m30.29,13.55v1.41h1.36v.36h-1.36v1.42h-.38v-1.42h-1.36v-.36h1.36v-1.41h.38Z"/>
    <path class="cls-4" d="m5.6,14.64v.39h-1.48v-.39h1.48Z"/>
    <rect class="cls-1" x="7.6" y="13.9" width="19.84" height="7.09"/>
    <g>
      <path class="cls-4" d="m10.21,15.53l.8,1.72c.1.24.2.47.29.71h.01c.07-.21.15-.44.25-.73l.63-1.7h.55l-.85,2.08c-.22.54-.47,1.16-.76,1.54-.26.33-.56.5-.92.5-.13,0-.23-.01-.29-.04l.05-.43s.1.02.19.02c.42,0,.67-.41.79-.7.04-.09.03-.15-.02-.25l-1.34-2.72h.59Z"/>
      <path class="cls-4" d="m14.77,19.47c-.14.07-.44.17-.83.17-.88,0-1.45-.59-1.45-1.48s.61-1.54,1.56-1.54c.31,0,.59.08.73.15l-.12.41c-.13-.07-.32-.14-.61-.14-.67,0-1.03.49-1.03,1.1,0,.67.43,1.09,1.01,1.09.3,0,.5-.08.65-.14l.09.4Z"/>
      <path class="cls-4" d="m17.3,16.67v.42h-.91v2.48h-.52v-2.48h-.91v-.42h2.33Z"/>
      <path class="cls-4" d="m18.67,17.76v.39h-1.48v-.39h1.48Z"/>
      <path class="cls-4" d="m19.13,16.71c.2-.04.58-.07.92-.07.49,0,1.29.08,1.29.73,0,.36-.28.58-.61.65h0c.43.07.74.31.74.73,0,.76-.96.86-1.53.86-.32,0-.66-.02-.82-.04v-2.87Zm.5,2.52c.15.02.26.02.43.02.35,0,.88-.08.88-.5s-.42-.51-.92-.51h-.38v.99Zm0-1.34h.4c.39,0,.79-.11.79-.46,0-.29-.25-.43-.78-.43-.17,0-.28.01-.41.02v.86Z"/>
      <path class="cls-4" d="m24.62,18.1c0,1.07-.74,1.54-1.45,1.54-.79,0-1.39-.58-1.39-1.49,0-.97.64-1.54,1.44-1.54s1.4.61,1.4,1.49Zm-2.3.03c0,.64.37,1.12.88,1.12s.88-.47.88-1.13c0-.49-.25-1.12-.87-1.12s-.89.58-.89,1.13Z"/>
    </g>
    <line class="cls-1" x1="32.85" y1="28.27" x2="27.46" y2="28.27"/>
    <path class="cls-4" d="m30.29,24.51v1.41h1.36v.36h-1.36v1.42h-.38v-1.42h-1.35v-.36h1.35v-1.41h.38Z"/>
    <path class="cls-4" d="m5.6,25.6v.39h-1.48v-.39h1.48Z"/>
    <rect class="cls-1" x="7.6" y="24.86" width="19.84" height="7.09"/>
    <g>
      <path class="cls-4" d="m10.21,26.49l.8,1.72c.1.24.2.47.29.71h.01c.07-.21.15-.44.25-.73l.63-1.7h.55l-.85,2.08c-.22.54-.47,1.16-.76,1.54-.26.33-.56.5-.92.5-.13,0-.23-.01-.29-.04l.05-.43s.1.02.19.02c.42,0,.67-.41.79-.7.04-.09.03-.15-.02-.25l-1.34-2.72h.59Z"/>
      <path class="cls-4" d="m14.77,30.43c-.14.07-.44.17-.83.17-.88,0-1.45-.59-1.45-1.48s.61-1.54,1.56-1.54c.31,0,.59.08.73.15l-.12.41c-.13-.07-.32-.14-.61-.14-.67,0-1.03.49-1.03,1.1,0,.67.43,1.09,1.01,1.09.3,0,.5-.08.65-.14l.09.4Z"/>
      <path class="cls-4" d="m17.29,27.63v.42h-.91v2.48h-.52v-2.48h-.91v-.42h2.33Z"/>
      <path class="cls-4" d="m18.67,28.72v.39h-1.48v-.39h1.48Z"/>
      <path class="cls-4" d="m19.13,27.67c.2-.04.58-.07.92-.07.49,0,1.29.08,1.29.73,0,.36-.28.58-.61.65h0c.43.07.74.31.74.73,0,.76-.96.86-1.53.86-.32,0-.66-.02-.82-.04v-2.87Zm.5,2.52c.15.02.26.02.43.02.35,0,.88-.08.88-.5s-.42-.51-.92-.51h-.38v.99Zm0-1.34h.4c.39,0,.79-.11.79-.46,0-.29-.25-.43-.78-.43-.17,0-.28.01-.41.02v.86Z"/>
      <path class="cls-4" d="m24.62,29.06c0,1.07-.74,1.54-1.45,1.54-.79,0-1.39-.58-1.39-1.49,0-.97.64-1.54,1.44-1.54s1.4.61,1.4,1.49Zm-2.3.03c0,.64.37,1.12.88,1.12s.88-.47.88-1.13c0-.49-.25-1.12-.87-1.12s-.89.58-.89,1.13Z"/>
    </g>
    <line class="cls-1" x1="32.85" y1="39.6" x2="27.46" y2="39.6"/>
    <path class="cls-4" d="m30.29,35.85v1.41h1.36v.36h-1.36v1.42h-.38v-1.42h-1.35v-.36h1.35v-1.41h.38Z"/>
    <path class="cls-4" d="m5.6,36.94v.39h-1.48v-.39h1.48Z"/>
    <rect class="cls-1" x="7.6" y="36.2" width="19.84" height="7.09"/>
    <g>
      <path class="cls-4" d="m10.21,37.83l.8,1.72c.1.24.2.47.29.71h.01c.07-.21.15-.44.25-.73l.63-1.7h.55l-.85,2.08c-.22.54-.47,1.16-.76,1.54-.26.33-.56.5-.92.5-.13,0-.23-.01-.29-.04l.05-.43s.1.02.19.02c.42,0,.67-.41.79-.7.04-.09.03-.15-.02-.25l-1.34-2.72h.59Z"/>
      <path class="cls-4" d="m14.77,41.76c-.14.07-.44.17-.83.17-.88,0-1.45-.59-1.45-1.48s.61-1.54,1.56-1.54c.31,0,.59.08.73.15l-.12.41c-.13-.07-.32-.14-.61-.14-.67,0-1.03.49-1.03,1.1,0,.67.43,1.09,1.01,1.09.3,0,.5-.08.65-.14l.09.4Z"/>
      <path class="cls-4" d="m17.29,38.97v.42h-.91v2.48h-.52v-2.48h-.91v-.42h2.33Z"/>
      <path class="cls-4" d="m18.67,40.06v.39h-1.48v-.39h1.48Z"/>
      <path class="cls-4" d="m19.13,39.01c.2-.04.58-.07.92-.07.49,0,1.29.08,1.29.73,0,.36-.28.58-.61.65h0c.43.07.74.31.74.73,0,.76-.96.86-1.53.86-.32,0-.66-.02-.82-.04v-2.87Zm.5,2.52c.15.02.26.02.43.02.35,0,.88-.08.88-.5s-.42-.51-.92-.51h-.38v.99Zm0-1.34h.4c.39,0,.79-.11.79-.46,0-.29-.25-.43-.78-.43-.17,0-.28.01-.41.02v.86Z"/>
      <path class="cls-4" d="m24.62,40.4c0,1.07-.74,1.54-1.45,1.54-.79,0-1.39-.58-1.39-1.49,0-.97.64-1.54,1.44-1.54s1.4.61,1.4,1.49Zm-2.3.03c0,.64.37,1.12.88,1.12s.88-.47.88-1.13c0-.49-.25-1.12-.87-1.12s-.89.58-.89,1.13Z"/>
    </g>
    <line class="cls-1" x1="32.85" y1="50.66" x2="27.46" y2="50.66"/>
    <path class="cls-4" d="m30.29,46.9v1.41h1.36v.36h-1.36v1.42h-.38v-1.42h-1.36v-.36h1.36v-1.41h.38Z"/>
    <path class="cls-4" d="m5.6,47.99v.39h-1.48v-.39h1.48Z"/>
    <rect class="cls-1" x="7.6" y="47.26" width="19.84" height="7.09"/>
    <g>
      <path class="cls-4" d="m10.21,48.89l.8,1.72c.1.24.2.47.29.71h.01c.07-.21.15-.44.25-.73l.63-1.7h.55l-.85,2.08c-.22.54-.47,1.16-.76,1.54-.26.33-.56.5-.92.5-.13,0-.23-.01-.29-.04l.05-.43s.1.02.19.02c.42,0,.67-.41.79-.7.04-.09.03-.15-.02-.25l-1.34-2.72h.59Z"/>
      <path class="cls-4" d="m14.77,52.82c-.14.07-.44.17-.83.17-.88,0-1.45-.59-1.45-1.48s.61-1.54,1.56-1.54c.31,0,.59.08.73.15l-.12.41c-.13-.07-.32-.14-.61-.14-.67,0-1.03.49-1.03,1.1,0,.67.43,1.09,1.01,1.09.3,0,.5-.08.65-.14l.09.4Z"/>
      <path class="cls-4" d="m17.3,50.03v.42h-.91v2.48h-.52v-2.48h-.91v-.42h2.33Z"/>
      <path class="cls-4" d="m18.67,51.11v.39h-1.48v-.39h1.48Z"/>
      <path class="cls-4" d="m19.13,50.06c.2-.04.58-.07.92-.07.49,0,1.29.08,1.29.73,0,.36-.28.58-.61.65h0c.43.07.74.31.74.73,0,.76-.96.86-1.53.86-.32,0-.66-.02-.82-.04v-2.87Zm.5,2.52c.15.02.26.02.43.02.35,0,.88-.08.88-.5s-.42-.51-.92-.51h-.38v.99Zm0-1.34h.4c.39,0,.79-.11.79-.46,0-.29-.25-.43-.78-.43-.17,0-.28.01-.41.02v.86Z"/>
      <path class="cls-4" d="m24.62,51.45c0,1.07-.74,1.54-1.45,1.54-.79,0-1.39-.58-1.39-1.49,0-.97.64-1.54,1.44-1.54s1.4.61,1.4,1.49Zm-2.3.03c0,.64.37,1.12.88,1.12s.88-.47.88-1.13c0-.49-.25-1.12-.87-1.12s-.89.58-.89,1.13Z"/>
    </g>
    <line class="cls-1" x1="32.85" y1="62" x2="27.46" y2="62"/>
    <path class="cls-4" d="m30.29,58.24v1.41h1.36v.36h-1.36v1.42h-.38v-1.42h-1.35v-.36h1.35v-1.41h.38Z"/>
    <path class="cls-4" d="m5.6,59.33v.39h-1.48v-.39h1.48Z"/>
    <rect class="cls-1" x="7.6" y="58.6" width="19.84" height="7.09"/>
    <g>
      <path class="cls-4" d="m10.21,60.22l.8,1.72c.1.24.2.47.29.71h.01c.07-.21.15-.44.25-.73l.63-1.7h.55l-.85,2.08c-.22.54-.47,1.16-.76,1.54-.26.33-.56.5-.92.5-.13,0-.23-.01-.29-.04l.05-.43s.1.02.19.02c.42,0,.67-.41.79-.7.04-.09.03-.15-.02-.25l-1.34-2.72h.59Z"/>
      <path class="cls-4" d="m14.77,64.16c-.14.07-.44.17-.83.17-.88,0-1.45-.59-1.45-1.48s.61-1.54,1.56-1.54c.31,0,.59.08.73.15l-.12.41c-.13-.07-.32-.14-.61-.14-.67,0-1.03.49-1.03,1.1,0,.67.43,1.09,1.01,1.09.3,0,.5-.08.65-.14l.09.4Z"/>
      <path class="cls-4" d="m17.29,61.36v.42h-.91v2.48h-.52v-2.48h-.91v-.42h2.33Z"/>
      <path class="cls-4" d="m18.67,62.45v.39h-1.48v-.39h1.48Z"/>
      <path class="cls-4" d="m19.13,61.4c.2-.04.58-.07.92-.07.49,0,1.29.08,1.29.73,0,.36-.28.58-.61.65h0c.43.07.74.31.74.73,0,.76-.96.86-1.53.86-.32,0-.66-.02-.82-.04v-2.87Zm.5,2.52c.15.02.26.02.43.02.35,0,.88-.08.88-.5s-.42-.51-.92-.51h-.38v.99Zm0-1.34h.4c.39,0,.79-.11.79-.46,0-.29-.25-.43-.78-.43-.17,0-.28.01-.41.02v.86Z"/>
      <path class="cls-4" d="m24.62,62.79c0,1.07-.74,1.54-1.45,1.54-.79,0-1.39-.58-1.39-1.49,0-.97.64-1.54,1.44-1.54s1.4.61,1.4,1.49Zm-2.3.03c0,.64.37,1.12.88,1.12s.88-.47.88-1.13c0-.49-.25-1.12-.87-1.12s-.89.58-.89,1.13Z"/>
    </g>
    <line class="cls-1" x1="32.85" y1="73.43" x2="27.46" y2="73.43"/>
    <path class="cls-4" d="m30.29,69.67v1.41h1.36v.36h-1.36v1.42h-.38v-1.42h-1.35v-.36h1.35v-1.41h.38Z"/>
    <path class="cls-4" d="m5.6,70.76v.39h-1.48v-.39h1.48Z"/>
    <rect class="cls-1" x="7.6" y="70.03" width="19.84" height="7.09"/>
    <g>
      <path class="cls-4" d="m10.21,71.66l.8,1.72c.1.24.2.47.29.71h.01c.07-.21.15-.44.25-.73l.63-1.7h.55l-.85,2.08c-.22.54-.47,1.16-.76,1.54-.26.33-.56.5-.92.5-.13,0-.23-.01-.29-.04l.05-.43s.1.02.19.02c.42,0,.67-.41.79-.7.04-.09.03-.15-.02-.25l-1.34-2.72h.59Z"/>
      <path class="cls-4" d="m14.77,75.59c-.14.07-.44.17-.83.17-.88,0-1.45-.59-1.45-1.48s.61-1.54,1.56-1.54c.31,0,.59.08.73.15l-.12.41c-.13-.07-.32-.14-.61-.14-.67,0-1.03.49-1.03,1.1,0,.67.43,1.09,1.01,1.09.3,0,.5-.08.65-.14l.09.4Z"/>
      <path class="cls-4" d="m17.29,72.8v.42h-.91v2.48h-.52v-2.48h-.91v-.42h2.33Z"/>
      <path class="cls-4" d="m18.67,73.88v.39h-1.48v-.39h1.48Z"/>
      <path class="cls-4" d="m19.13,72.83c.2-.04.58-.07.92-.07.49,0,1.29.08,1.29.73,0,.36-.28.58-.61.65h0c.43.07.74.31.74.73,0,.76-.96.86-1.53.86-.32,0-.66-.02-.82-.04v-2.87Zm.5,2.52c.15.02.26.02.43.02.35,0,.88-.08.88-.5s-.42-.51-.92-.51h-.38v.99Zm0-1.34h.4c.39,0,.79-.11.79-.46,0-.29-.25-.43-.78-.43-.17,0-.28.01-.41.02v.86Z"/>
      <path class="cls-4" d="m24.62,74.22c0,1.07-.74,1.54-1.45,1.54-.79,0-1.39-.58-1.39-1.49,0-.97.64-1.54,1.44-1.54s1.4.61,1.4,1.49Zm-2.3.03c0,.64.37,1.12.88,1.12s.88-.47.88-1.13c0-.49-.25-1.12-.87-1.12s-.89.58-.89,1.13Z"/>
    </g>
    <line class="cls-1" x1="32.85" y1="84.77" x2="27.46" y2="84.77"/>
    <path class="cls-4" d="m30.29,81.01v1.41h1.36v.36h-1.36v1.42h-.38v-1.42h-1.36v-.36h1.36v-1.41h.38Z"/>
    <path class="cls-4" d="m5.6,82.1v.39h-1.48v-.39h1.48Z"/>
    <rect class="cls-1" x="7.6" y="81.37" width="19.84" height="7.09"/>
    <g>
      <path class="cls-4" d="m10.21,83l.8,1.72c.1.24.2.47.29.71h.01c.07-.21.15-.44.25-.73l.63-1.7h.55l-.85,2.08c-.22.54-.47,1.16-.76,1.54-.26.33-.56.5-.92.5-.13,0-.23-.01-.29-.04l.05-.43s.1.02.19.02c.42,0,.67-.41.79-.7.04-.09.03-.15-.02-.25l-1.34-2.72h.59Z"/>
      <path class="cls-4" d="m14.77,86.93c-.14.07-.44.17-.83.17-.88,0-1.45-.59-1.45-1.48s.61-1.54,1.56-1.54c.31,0,.59.08.73.15l-.12.41c-.13-.07-.32-.14-.61-.14-.67,0-1.03.49-1.03,1.1,0,.67.43,1.09,1.01,1.09.3,0,.5-.08.65-.14l.09.4Z"/>
      <path class="cls-4" d="m17.3,84.14v.42h-.91v2.48h-.52v-2.48h-.91v-.42h2.33Z"/>
      <path class="cls-4" d="m18.67,85.22v.39h-1.48v-.39h1.48Z"/>
      <path class="cls-4" d="m19.13,84.17c.2-.04.58-.07.92-.07.49,0,1.29.08,1.29.73,0,.36-.28.58-.61.65h0c.43.07.74.31.74.73,0,.76-.96.86-1.53.86-.32,0-.66-.02-.82-.04v-2.87Zm.5,2.52c.15.02.26.02.43.02.35,0,.88-.08.88-.5s-.42-.51-.92-.51h-.38v.99Zm0-1.34h.4c.39,0,.79-.11.79-.46,0-.29-.25-.43-.78-.43-.17,0-.28.01-.41.02v.86Z"/>
      <path class="cls-4" d="m24.62,85.56c0,1.07-.74,1.54-1.45,1.54-.79,0-1.39-.58-1.39-1.49,0-.97.64-1.54,1.44-1.54s1.4.61,1.4,1.49Zm-2.3.03c0,.64.37,1.12.88,1.12s.88-.47.88-1.13c0-.49-.25-1.12-.87-1.12s-.89.58-.89,1.13Z"/>
    </g>
    <line class="cls-1" x1=".82" y1="84.72" x2="7.62" y2="84.72"/>
    <circle class="cls-1" cx=".82" cy="84.72" r=".57"/>
    <line class="cls-1" x1=".82" y1="73.38" x2="7.62" y2="73.38"/>
    <circle class="cls-1" cx=".82" cy="73.38" r=".57"/>
    <line class="cls-1" x1=".82" y1="62.05" x2="7.62" y2="62.05"/>
    <circle class="cls-1" cx=".82" cy="62.05" r=".57"/>
    <line class="cls-1" x1=".82" y1="50.71" x2="7.62" y2="50.71"/>
    <circle class="cls-1" cx=".82" cy="50.71" r=".57"/>
    <line class="cls-1" x1=".82" y1="39.65" x2="7.62" y2="39.65"/>
    <circle class="cls-1" cx=".82" cy="39.65" r=".57"/>
    <line class="cls-1" x1=".82" y1="28.31" x2="7.62" y2="28.31"/>
    <circle class="cls-1" cx=".82" cy="28.31" r=".57"/>
    <line class="cls-1" x1=".82" y1="17.31" x2="7.62" y2="17.31"/>
    <circle class="cls-1" cx=".82" cy="17.31" r=".57"/>
  </g>
  <g id="scheme">
    <rect class="cls-3" x="41.43" y=".25" width="22.68" height="11.34"/>
    <rect class="cls-3" x="64.1" y=".25" width="22.68" height="11.34"/>
    <rect class="cls-2" x="32.92" y=".25" width="8.5" height="11.34"/>
    <rect class="cls-2" x="86.78" y=".25" width="8.5" height="11.34"/>
    <rect class="cls-3" x="41.43" y="11.59" width="22.68" height="11.34"/>
    <rect class="cls-3" x="64.1" y="11.59" width="22.68" height="11.34"/>
    <rect class="cls-2" x="32.92" y="11.59" width="8.5" height="11.34"/>
    <rect class="cls-2" x="86.78" y="11.59" width="8.5" height="11.34"/>
    <rect class="cls-3" x="41.43" y="22.75" width="22.68" height="11.34"/>
    <rect class="cls-3" x="64.1" y="22.75" width="22.68" height="11.34"/>
    <rect class="cls-2" x="32.92" y="22.75" width="8.5" height="11.34"/>
    <rect class="cls-2" x="86.78" y="22.75" width="8.5" height="11.34"/>
    <rect class="cls-3" x="41.43" y="34.09" width="22.68" height="11.34"/>
    <rect class="cls-3" x="64.1" y="34.09" width="22.68" height="11.34"/>
    <rect class="cls-2" x="32.92" y="34.09" width="8.5" height="11.34"/>
    <rect class="cls-2" x="86.78" y="34.09" width="8.5" height="11.34"/>
    <rect class="cls-3" x="41.43" y="45.25" width="22.68" height="11.34"/>
    <rect class="cls-3" x="64.1" y="45.25" width="22.68" height="11.34"/>
    <rect class="cls-2" x="32.92" y="45.25" width="8.5" height="11.34"/>
    <rect class="cls-2" x="86.78" y="45.25" width="8.5" height="11.34"/>
    <rect class="cls-3" x="41.43" y="56.59" width="22.68" height="11.34"/>
    <rect class="cls-3" x="64.1" y="56.59" width="22.68" height="11.34"/>
    <rect class="cls-2" x="32.92" y="56.59" width="8.5" height="11.34"/>
    <rect class="cls-2" x="86.78" y="56.59" width="8.5" height="11.34"/>
    <rect class="cls-3" x="41.43" y="67.93" width="22.68" height="11.34"/>
    <rect class="cls-3" x="64.1" y="67.93" width="22.68" height="11.34"/>
    <rect class="cls-2" x="32.92" y="67.93" width="8.5" height="11.34"/>
    <rect class="cls-2" x="86.78" y="67.93" width="8.5" height="11.34"/>
    <rect class="cls-3" x="41.43" y="79.27" width="22.68" height="11.34"/>
    <rect class="cls-3" x="64.1" y="79.27" width="22.68" height="11.34"/>
    <rect class="cls-2" x="32.92" y="79.27" width="8.5" height="11.34"/>
    <rect class="cls-2" x="86.78" y="79.27" width="8.5" height="11.34"/>
    <rect class="cls-3" x="41.43" y="90.6" width="22.68" height="11.34"/>
    <rect class="cls-3" x="64.1" y="90.6" width="22.68" height="11.34"/>
    <rect class="cls-2" x="32.92" y="90.6" width="8.5" height="11.34"/>
    <rect class="cls-2" x="86.78" y="90.6" width="8.5" height="11.34"/>
  </g>
  <g id="scheme_letters" data-name="scheme letters">
    <g>
      <path class="cls-5" d="m48.5,6.88l-.42,1.27h-.54l1.37-4.04h.63l1.38,4.04h-.56l-.43-1.27h-1.43Zm1.33-.41l-.4-1.16c-.09-.26-.15-.5-.21-.74h-.01c-.06.24-.13.49-.2.73l-.4,1.17h1.22Z"/>
      <path class="cls-5" d="m54.88,6.09c0,1.39-.85,2.13-1.88,2.13s-1.82-.83-1.82-2.05c0-1.28.8-2.12,1.88-2.12s1.82.85,1.82,2.04Zm-3.14.07c0,.86.47,1.64,1.29,1.64s1.3-.76,1.3-1.68c0-.8-.42-1.64-1.29-1.64s-1.3.8-1.3,1.69Z"/>
      <path class="cls-5" d="m56.52,4.75h-.01l-.68.37-.1-.4.85-.46h.45v3.9h-.51v-3.41Z"/>
    </g>
    <path class="cls-5" d="m36.87,4.64h-.01l-.68.37-.1-.4.85-.46h.45v3.9h-.51v-3.41Z"/>
    <path class="cls-5" d="m89.84,8.05v-.32l.41-.4c1-.95,1.45-1.45,1.45-2.04,0-.4-.19-.76-.77-.76-.35,0-.65.18-.83.33l-.17-.37c.27-.23.65-.4,1.1-.4.84,0,1.19.58,1.19,1.13,0,.72-.52,1.3-1.34,2.09l-.31.29h0s1.75.01,1.75.01v.44h-2.49Z"/>
    <g>
      <path class="cls-5" d="m73.57,7.87c-.23.08-.7.22-1.24.22-.61,0-1.12-.16-1.51-.53-.35-.34-.56-.88-.56-1.51,0-1.21.83-2.09,2.19-2.09.47,0,.83.1,1.01.19l-.13.43c-.21-.1-.49-.17-.89-.17-.98,0-1.62.61-1.62,1.62s.62,1.63,1.56,1.63c.34,0,.58-.05.7-.11v-1.21h-.82v-.42h1.33v1.94Z"/>
      <path class="cls-5" d="m74.22,8.05v-4.04h.57l1.3,2.04c.3.47.53.9.72,1.31h.01c-.05-.55-.06-1.04-.06-1.67v-1.69h.49v4.04h-.53l-1.28-2.05c-.28-.45-.55-.91-.76-1.35h-.02c.03.52.04,1,.04,1.67v1.73h-.49Z"/>
      <path class="cls-5" d="m78.01,4.06c.32-.05.7-.08,1.11-.08.75,0,1.28.17,1.64.5.36.33.57.8.57,1.45s-.2,1.2-.58,1.57c-.38.38-1,.58-1.79.58-.37,0-.68-.02-.95-.05v-3.98Zm.52,3.57c.13.02.32.03.53.03,1.12,0,1.72-.62,1.72-1.71,0-.95-.53-1.56-1.64-1.56-.27,0-.47.02-.61.05v3.19Z"/>
    </g>
    <g>
      <path class="cls-5" d="m48.5,18.22l-.42,1.27h-.54l1.37-4.04h.63l1.38,4.04h-.56l-.43-1.27h-1.43Zm1.33-.41l-.4-1.16c-.09-.26-.15-.5-.21-.74h-.01c-.06.24-.13.49-.2.73l-.4,1.17h1.22Z"/>
      <path class="cls-5" d="m54.88,17.43c0,1.39-.85,2.13-1.88,2.13s-1.82-.83-1.82-2.05c0-1.28.8-2.12,1.88-2.12s1.82.85,1.82,2.04Zm-3.14.07c0,.86.47,1.64,1.29,1.64s1.3-.76,1.3-1.68c0-.8-.42-1.64-1.29-1.64s-1.3.8-1.3,1.69Z"/>
      <path class="cls-5" d="m55.37,19.49v-.32l.41-.4c1-.95,1.45-1.45,1.45-2.04,0-.4-.19-.76-.77-.76-.35,0-.65.18-.83.33l-.17-.37c.27-.23.65-.4,1.1-.4.84,0,1.19.58,1.19,1.13,0,.72-.52,1.3-1.34,2.09l-.31.29h0s1.75.01,1.75.01v.44h-2.49Z"/>
    </g>
    <path class="cls-5" d="m35.86,18.78c.12.1.41.25.71.25.56,0,.73-.43.73-.76,0-.55-.41-.78-.83-.78h-.24v-.4h.24c.32,0,.72-.2.72-.66,0-.31-.16-.59-.57-.59-.26,0-.51.14-.64.26l-.11-.38c.17-.15.5-.3.84-.3.63,0,.92.46.92.93,0,.4-.2.74-.6.92h0c.4.11.72.47.72,1.01,0,.62-.4,1.17-1.18,1.17-.36,0-.68-.14-.84-.26l.12-.41Z"/>
    <path class="cls-5" d="m91.47,19.38v-1.06h-1.81v-.35l1.74-2.49h.57v2.42h.55v.41h-.55v1.06h-.5Zm0-1.48v-1.3c0-.2,0-.41.02-.61h-.02c-.12.23-.22.4-.32.58l-.95,1.33h0s1.28.01,1.28.01Z"/>
    <g>
      <path class="cls-5" d="m73.57,19.2c-.23.08-.7.22-1.24.22-.61,0-1.12-.16-1.51-.53-.35-.34-.56-.88-.56-1.51,0-1.21.83-2.09,2.19-2.09.47,0,.83.1,1.01.19l-.13.43c-.21-.1-.49-.17-.89-.17-.98,0-1.62.61-1.62,1.62s.62,1.63,1.56,1.63c.34,0,.58-.05.7-.11v-1.21h-.82v-.42h1.33v1.94Z"/>
      <path class="cls-5" d="m74.22,19.38v-4.04h.57l1.3,2.04c.3.47.53.9.72,1.31h.01c-.05-.55-.06-1.04-.06-1.67v-1.69h.49v4.04h-.53l-1.28-2.05c-.28-.45-.55-.91-.76-1.35h-.02c.03.52.04,1,.04,1.67v1.73h-.49Z"/>
      <path class="cls-5" d="m78.01,15.4c.32-.05.7-.08,1.11-.08.75,0,1.28.17,1.64.5.36.33.57.8.57,1.45s-.2,1.2-.58,1.57c-.38.38-1,.58-1.79.58-.37,0-.68-.02-.95-.05v-3.98Zm.52,3.57c.13.02.32.03.53.03,1.12,0,1.72-.62,1.72-1.71,0-.95-.53-1.56-1.64-1.56-.27,0-.47.02-.61.05v3.19Z"/>
    </g>
    <g>
      <path class="cls-5" d="m48.5,29.38l-.42,1.27h-.54l1.37-4.04h.63l1.38,4.04h-.56l-.43-1.27h-1.43Zm1.33-.41l-.4-1.16c-.09-.26-.15-.5-.21-.74h-.01c-.06.24-.13.49-.2.73l-.4,1.17h1.22Z"/>
      <path class="cls-5" d="m54.88,28.59c0,1.39-.85,2.13-1.88,2.13s-1.82-.83-1.82-2.05c0-1.28.8-2.12,1.88-2.12s1.82.85,1.82,2.04Zm-3.14.07c0,.86.47,1.64,1.29,1.64s1.3-.76,1.3-1.68c0-.8-.42-1.64-1.29-1.64s-1.3.8-1.3,1.69Z"/>
      <path class="cls-5" d="m55.5,30.05c.15.1.5.25.86.25.68,0,.89-.43.88-.76,0-.55-.5-.78-1.01-.78h-.29v-.4h.29c.38,0,.87-.2.87-.66,0-.31-.2-.59-.68-.59-.31,0-.61.14-.78.26l-.14-.38c.2-.15.6-.3,1.02-.3.77,0,1.12.46,1.12.93,0,.4-.24.74-.72.92h0c.48.11.87.47.87,1.01,0,.62-.49,1.17-1.42,1.17-.44,0-.82-.14-1.01-.26l.14-.41Z"/>
    </g>
    <path class="cls-5" d="m38.05,27.09h-1.49l-.15,1c.09-.01.17-.02.32-.02.3,0,.6.07.84.21.31.17.56.51.56,1,0,.76-.61,1.33-1.45,1.33-.43,0-.79-.12-.97-.24l.13-.4c.16.1.48.22.83.22.5,0,.92-.32.92-.85,0-.5-.34-.86-1.12-.86-.22,0-.4.02-.54.04l.25-1.87h1.87v.44Z"/>
    <path class="cls-5" d="m92.06,27.02c-.11,0-.25,0-.4.02-.83.14-1.27.74-1.36,1.39h.02c.19-.25.51-.45.94-.45.69,0,1.18.5,1.18,1.26,0,.71-.49,1.37-1.29,1.37s-1.38-.65-1.38-1.66c0-.77.28-1.37.66-1.76.32-.32.75-.52,1.25-.58.16-.02.29-.03.38-.03v.43Zm-.15,2.25c0-.56-.32-.89-.8-.89-.32,0-.61.2-.75.48-.04.06-.06.14-.06.23.01.64.3,1.12.86,1.12.46,0,.76-.38.76-.94Z"/>
    <g>
      <path class="cls-5" d="m73.57,30.37c-.23.08-.7.22-1.24.22-.61,0-1.12-.16-1.51-.53-.35-.34-.56-.88-.56-1.51,0-1.21.83-2.09,2.19-2.09.47,0,.83.1,1.01.19l-.13.43c-.21-.1-.49-.17-.89-.17-.98,0-1.62.61-1.62,1.62s.62,1.63,1.56,1.63c.34,0,.58-.05.7-.11v-1.21h-.82v-.42h1.33v1.94Z"/>
      <path class="cls-5" d="m74.22,30.55v-4.04h.57l1.3,2.04c.3.47.53.9.72,1.31h.01c-.05-.55-.06-1.04-.06-1.67v-1.69h.49v4.04h-.53l-1.28-2.05c-.28-.45-.55-.91-.76-1.35h-.02c.03.52.04,1,.04,1.67v1.73h-.49Z"/>
      <path class="cls-5" d="m78.01,26.56c.32-.05.7-.08,1.11-.08.75,0,1.28.17,1.64.5.36.33.57.8.57,1.45s-.2,1.2-.58,1.57c-.38.38-1,.58-1.79.58-.37,0-.68-.02-.95-.05v-3.98Zm.52,3.57c.13.02.32.03.53.03,1.12,0,1.72-.62,1.72-1.71,0-.95-.53-1.56-1.64-1.56-.27,0-.47.02-.61.05v3.19Z"/>
    </g>
    <g>
      <path class="cls-5" d="m48.5,40.72l-.42,1.27h-.54l1.37-4.04h.63l1.38,4.04h-.56l-.43-1.27h-1.43Zm1.33-.41l-.4-1.16c-.09-.26-.15-.5-.21-.74h-.01c-.06.24-.13.49-.2.73l-.4,1.17h1.22Z"/>
      <path class="cls-5" d="m54.88,39.93c0,1.39-.85,2.13-1.88,2.13s-1.82-.83-1.82-2.05c0-1.28.8-2.12,1.88-2.12s1.82.85,1.82,2.04Zm-3.14.07c0,.86.47,1.64,1.29,1.64s1.3-.76,1.3-1.68c0-.8-.42-1.64-1.29-1.64s-1.3.8-1.3,1.69Z"/>
      <path class="cls-5" d="m57,41.99v-1.06h-1.81v-.35l1.74-2.49h.57v2.42h.54v.41h-.54v1.06h-.5Zm0-1.48v-1.3c0-.2,0-.41.02-.61h-.02c-.12.23-.22.4-.32.58l-.95,1.33h0s1.28.01,1.28.01Z"/>
    </g>
    <path class="cls-5" d="m38.26,37.99v.35l-1.7,3.55h-.55l1.69-3.45h0s-1.91-.01-1.91-.01v-.44h2.46Z"/>
    <path class="cls-5" d="m89.79,40.89c0-.49.29-.84.77-1.04v-.02c-.44-.2-.62-.54-.62-.88,0-.62.52-1.04,1.21-1.04.75,0,1.13.47,1.13.96,0,.33-.16.68-.64.91v.02c.49.19.79.53.79,1.01,0,.68-.58,1.13-1.33,1.13-.82,0-1.31-.49-1.31-1.06Zm2.1-.02c0-.47-.33-.7-.86-.85-.46.13-.7.43-.7.8-.02.4.28.74.78.74s.78-.29.78-.7Zm-1.45-1.95c0,.39.29.6.74.72.34-.11.59-.35.59-.71,0-.31-.19-.64-.66-.64-.44,0-.68.29-.68.62Z"/>
    <g>
      <path class="cls-5" d="m73.08,41.7c-.23.08-.7.22-1.24.22-.61,0-1.12-.16-1.51-.53-.35-.34-.56-.88-.56-1.51,0-1.21.83-2.09,2.19-2.09.47,0,.83.1,1.01.19l-.13.43c-.22-.1-.49-.17-.89-.17-.98,0-1.62.61-1.62,1.62s.62,1.63,1.56,1.63c.34,0,.58-.05.7-.11v-1.21h-.82v-.42h1.33v1.94Z"/>
      <path class="cls-5" d="m73.73,41.88v-4.04h.57l1.29,2.04c.3.47.53.9.73,1.31h.01c-.05-.55-.06-1.04-.06-1.67v-1.69h.49v4.04h-.53l-1.28-2.05c-.28-.45-.55-.91-.76-1.35h-.02c.03.52.04,1,.04,1.67v1.73h-.49Z"/>
      <path class="cls-5" d="m77.52,37.9c.32-.05.7-.08,1.11-.08.75,0,1.28.17,1.64.5.36.33.57.8.57,1.45s-.2,1.2-.58,1.57c-.38.38-1,.58-1.79.58-.37,0-.68-.02-.95-.05v-3.98Zm.52,3.57c.13.02.32.03.53.03,1.12,0,1.72-.62,1.72-1.71,0-.95-.53-1.56-1.64-1.56-.27,0-.47.02-.61.05v3.19Z"/>
    </g>
    <g>
      <path class="cls-5" d="m48.5,51.88l-.42,1.27h-.54l1.37-4.04h.63l1.38,4.04h-.56l-.43-1.27h-1.43Zm1.33-.41l-.4-1.16c-.09-.26-.15-.5-.21-.74h-.01c-.06.24-.13.49-.2.73l-.4,1.17h1.22Z"/>
      <path class="cls-5" d="m54.88,51.09c0,1.39-.85,2.13-1.88,2.13s-1.82-.83-1.82-2.05c0-1.28.8-2.12,1.88-2.12s1.82.85,1.82,2.04Zm-3.14.07c0,.86.47,1.64,1.29,1.64s1.3-.76,1.3-1.68c0-.8-.42-1.64-1.29-1.64s-1.3.8-1.3,1.69Z"/>
      <path class="cls-5" d="m57.7,49.7h-1.49l-.15,1c.09-.01.17-.02.32-.02.3,0,.6.07.84.21.31.17.56.51.56,1,0,.76-.61,1.33-1.45,1.33-.43,0-.79-.12-.97-.24l.13-.4c.16.1.48.22.83.22.5,0,.92-.32.92-.85,0-.5-.34-.86-1.12-.86-.22,0-.4.02-.54.04l.25-1.87h1.87v.44Z"/>
    </g>
    <path class="cls-5" d="m36.03,52.67c.11.01.25,0,.43-.02.31-.04.59-.17.82-.38.26-.23.44-.58.52-1.04h-.02c-.22.26-.53.42-.92.42-.7,0-1.15-.53-1.15-1.19,0-.74.53-1.39,1.33-1.39s1.29.65,1.29,1.64c0,.86-.29,1.46-.67,1.83-.3.29-.71.47-1.13.52-.19.03-.36.04-.49.03v-.43Zm.19-2.24c0,.49.29.83.75.83.35,0,.63-.17.77-.41.03-.05.05-.11.05-.19,0-.67-.25-1.18-.8-1.18-.45,0-.77.4-.77.95Z"/>
    <g>
      <path class="cls-5" d="m89.44,49.64h-.01l-.68.37-.1-.4.85-.46h.45v3.9h-.51v-3.41Z"/>
      <path class="cls-5" d="m93.97,51.05c0,1.33-.49,2.06-1.36,2.06-.76,0-1.28-.71-1.29-2,0-1.31.56-2.03,1.36-2.03s1.29.73,1.29,1.97Zm-2.12.06c0,1.01.31,1.59.79,1.59.54,0,.8-.63.8-1.62s-.25-1.59-.79-1.59c-.46,0-.8.56-.8,1.62Z"/>
    </g>
    <g>
      <path class="cls-5" d="m73.25,52.87c-.23.08-.7.22-1.24.22-.61,0-1.12-.16-1.51-.53-.35-.34-.56-.88-.56-1.51,0-1.21.83-2.09,2.19-2.09.47,0,.83.1,1.01.19l-.13.43c-.22-.1-.49-.17-.89-.17-.98,0-1.62.61-1.62,1.62s.62,1.63,1.56,1.63c.34,0,.58-.05.7-.11v-1.21h-.82v-.42h1.33v1.94Z"/>
      <path class="cls-5" d="m73.9,53.05v-4.04h.57l1.29,2.04c.3.47.53.9.73,1.31h.01c-.05-.55-.06-1.04-.06-1.67v-1.69h.49v4.04h-.53l-1.28-2.05c-.28-.45-.55-.91-.76-1.35h-.02c.03.52.04,1,.04,1.67v1.73h-.49Z"/>
      <path class="cls-5" d="m77.7,49.06c.32-.05.7-.08,1.11-.08.75,0,1.28.17,1.64.5.36.33.57.8.57,1.45s-.2,1.2-.58,1.57c-.38.38-1,.58-1.79.58-.37,0-.68-.02-.95-.05v-3.98Zm.52,3.57c.13.02.32.03.53.03,1.12,0,1.72-.62,1.72-1.71,0-.95-.53-1.56-1.64-1.56-.27,0-.47.02-.61.05v3.19Z"/>
    </g>
    <g>
      <path class="cls-5" d="m48.5,63.22l-.42,1.27h-.54l1.37-4.04h.63l1.38,4.04h-.56l-.43-1.27h-1.43Zm1.33-.41l-.4-1.16c-.09-.26-.15-.5-.21-.74h-.01c-.06.24-.13.49-.2.73l-.4,1.17h1.22Z"/>
      <path class="cls-5" d="m54.88,62.43c0,1.39-.85,2.13-1.88,2.13s-1.82-.83-1.82-2.05c0-1.28.8-2.12,1.88-2.12s1.82.85,1.82,2.04Zm-3.14.07c0,.86.47,1.64,1.29,1.64s1.3-.76,1.3-1.68c0-.8-.42-1.64-1.29-1.64s-1.3.8-1.3,1.69Z"/>
      <path class="cls-5" d="m57.6,60.96c-.11,0-.25,0-.4.02-.83.14-1.26.74-1.35,1.39h.02c.19-.25.51-.45.94-.45.69,0,1.17.5,1.17,1.26,0,.71-.49,1.37-1.3,1.37s-1.38-.65-1.38-1.66c0-.77.28-1.37.66-1.76.32-.32.76-.52,1.25-.58.16-.02.29-.03.38-.03v.43Zm-.15,2.25c0-.56-.32-.89-.8-.89-.32,0-.61.2-.76.48-.04.06-.06.14-.06.23.01.64.31,1.12.86,1.12.46,0,.76-.38.76-.94Z"/>
    </g>
    <g>
      <path class="cls-5" d="m35.33,60.98h-.01l-.68.37-.1-.4.85-.46h.45v3.9h-.51v-3.41Z"/>
      <path class="cls-5" d="m38.41,60.98h-.01l-.68.37-.1-.4.85-.46h.45v3.9h-.51v-3.41Z"/>
    </g>
    <g>
      <path class="cls-5" d="m89.44,60.98h-.01l-.68.37-.1-.4.85-.46h.45v3.9h-.51v-3.41Z"/>
      <path class="cls-5" d="m91.38,64.38v-.32l.41-.4c1-.95,1.45-1.45,1.45-2.04,0-.4-.19-.76-.77-.76-.35,0-.65.18-.83.33l-.17-.37c.27-.23.65-.4,1.1-.4.84,0,1.19.58,1.19,1.13,0,.72-.52,1.3-1.34,2.09l-.31.29h0s1.75.01,1.75.01v.44h-2.49Z"/>
    </g>
    <g>
      <path class="cls-5" d="m73.57,64.2c-.23.08-.7.22-1.24.22-.61,0-1.12-.16-1.51-.53-.35-.34-.56-.88-.56-1.51,0-1.21.83-2.09,2.19-2.09.47,0,.83.1,1.01.19l-.13.43c-.21-.1-.49-.17-.89-.17-.98,0-1.62.61-1.62,1.62s.62,1.63,1.56,1.63c.34,0,.58-.05.7-.11v-1.21h-.82v-.42h1.33v1.94Z"/>
      <path class="cls-5" d="m74.22,64.38v-4.04h.57l1.3,2.04c.3.47.53.9.72,1.31h.01c-.05-.55-.06-1.04-.06-1.67v-1.69h.49v4.04h-.53l-1.28-2.05c-.28-.45-.55-.91-.76-1.35h-.02c.03.52.04,1,.04,1.67v1.73h-.49Z"/>
      <path class="cls-5" d="m78.01,60.4c.32-.05.7-.08,1.11-.08.75,0,1.28.17,1.64.5.36.33.57.8.57,1.45s-.2,1.2-.58,1.57c-.38.38-1,.58-1.79.58-.37,0-.68-.02-.95-.05v-3.98Zm.52,3.57c.13.02.32.03.53.03,1.12,0,1.72-.62,1.72-1.71,0-.95-.53-1.56-1.64-1.56-.27,0-.47.02-.61.05v3.19Z"/>
    </g>
    <g>
      <path class="cls-5" d="m48.5,74.56l-.42,1.27h-.54l1.37-4.04h.63l1.38,4.04h-.56l-.43-1.27h-1.43Zm1.33-.41l-.4-1.16c-.09-.26-.15-.5-.21-.74h-.01c-.06.24-.13.49-.2.73l-.4,1.17h1.22Z"/>
      <path class="cls-5" d="m54.88,73.77c0,1.39-.85,2.13-1.88,2.13s-1.82-.83-1.82-2.05c0-1.28.8-2.12,1.88-2.12s1.82.85,1.82,2.04Zm-3.14.07c0,.86.47,1.64,1.29,1.64s1.3-.76,1.3-1.68c0-.8-.42-1.64-1.29-1.64s-1.3.8-1.3,1.69Z"/>
      <path class="cls-5" d="m57.9,71.93v.35l-1.7,3.55h-.55l1.69-3.45h0s-1.91-.01-1.91-.01v-.44h2.46Z"/>
    </g>
    <g>
      <path class="cls-5" d="m35.33,72.32h-.01l-.68.37-.1-.4.85-.46h.45v3.9h-.51v-3.41Z"/>
      <path class="cls-5" d="m37.39,75.12c.15.1.5.25.86.25.68,0,.89-.43.88-.76,0-.55-.5-.78-1.01-.78h-.29v-.4h.29c.38,0,.87-.2.87-.66,0-.31-.2-.59-.68-.59-.31,0-.61.14-.78.26l-.14-.38c.2-.15.6-.3,1.02-.3.77,0,1.12.46,1.12.93,0,.4-.24.74-.72.92h0c.48.11.87.47.87,1.01,0,.62-.49,1.17-1.42,1.17-.44,0-.82-.14-1.01-.26l.14-.41Z"/>
    </g>
    <g>
      <path class="cls-5" d="m89.44,72.32h-.01l-.68.37-.1-.4.85-.46h.45v3.9h-.51v-3.41Z"/>
      <path class="cls-5" d="m93.01,75.72v-1.06h-1.81v-.35l1.74-2.49h.57v2.42h.55v.41h-.55v1.06h-.5Zm0-1.48v-1.3c0-.2,0-.41.02-.61h-.02c-.12.23-.22.4-.32.58l-.95,1.33h0s1.28.01,1.28.01Z"/>
    </g>
    <g>
      <path class="cls-5" d="m73.57,75.54c-.23.08-.7.22-1.24.22-.61,0-1.12-.16-1.51-.53-.35-.34-.56-.88-.56-1.51,0-1.21.83-2.09,2.19-2.09.47,0,.83.1,1.01.19l-.13.43c-.21-.1-.49-.17-.89-.17-.98,0-1.62.61-1.62,1.62s.62,1.63,1.56,1.63c.34,0,.58-.05.7-.11v-1.21h-.82v-.42h1.33v1.94Z"/>
      <path class="cls-5" d="m74.22,75.72v-4.04h.57l1.3,2.04c.3.47.53.9.72,1.31h.01c-.05-.55-.06-1.04-.06-1.67v-1.69h.49v4.04h-.53l-1.28-2.05c-.28-.45-.55-.91-.76-1.35h-.02c.03.52.04,1,.04,1.67v1.73h-.49Z"/>
      <path class="cls-5" d="m78.01,71.73c.32-.05.7-.08,1.11-.08.75,0,1.28.17,1.64.5.36.33.57.8.57,1.45s-.2,1.2-.58,1.57c-.38.38-1,.58-1.79.58-.37,0-.68-.02-.95-.05v-3.98Zm.52,3.57c.13.02.32.03.53.03,1.12,0,1.72-.62,1.72-1.71,0-.95-.53-1.56-1.64-1.56-.27,0-.47.02-.61.05v3.19Z"/>
    </g>
    <g>
      <path class="cls-5" d="m48.5,85.9l-.42,1.27h-.54l1.37-4.04h.63l1.38,4.04h-.56l-.43-1.27h-1.43Zm1.33-.41l-.4-1.16c-.09-.26-.15-.5-.21-.74h-.01c-.06.24-.13.49-.2.73l-.4,1.17h1.22Z"/>
      <path class="cls-5" d="m54.88,85.1c0,1.39-.85,2.13-1.88,2.13s-1.82-.83-1.82-2.05c0-1.28.8-2.12,1.88-2.12s1.82.85,1.82,2.04Zm-3.14.07c0,.86.47,1.64,1.29,1.64s1.3-.76,1.3-1.68c0-.8-.42-1.64-1.29-1.64s-1.3.8-1.3,1.69Z"/>
      <path class="cls-5" d="m55.32,86.18c0-.49.29-.84.77-1.04v-.02c-.44-.2-.62-.54-.62-.88,0-.62.52-1.04,1.21-1.04.76,0,1.13.47,1.13.96,0,.33-.16.68-.64.91v.02c.49.19.79.53.79,1.01,0,.68-.58,1.13-1.32,1.13-.82,0-1.31-.49-1.31-1.06Zm2.1-.02c0-.47-.33-.7-.86-.85-.46.13-.7.43-.7.8-.02.4.28.74.78.74s.78-.29.78-.7Zm-1.45-1.95c0,.39.29.6.74.72.33-.11.59-.35.59-.71,0-.31-.19-.64-.66-.64-.44,0-.68.29-.68.62Z"/>
    </g>
    <g>
      <path class="cls-5" d="m35.33,83.65h-.01l-.68.37-.1-.4.85-.46h.45v3.9h-.51v-3.41Z"/>
      <path class="cls-5" d="m39.59,83.61h-1.49l-.15,1c.09-.01.17-.02.32-.02.3,0,.6.07.84.21.31.17.56.51.56,1,0,.76-.61,1.33-1.45,1.33-.43,0-.79-.12-.97-.24l.13-.4c.16.1.48.22.83.22.5,0,.92-.32.92-.85,0-.5-.34-.86-1.12-.86-.22,0-.4.02-.54.04l.25-1.87h1.87v.44Z"/>
    </g>
    <g>
      <path class="cls-5" d="m89.44,83.65h-.01l-.68.37-.1-.4.85-.46h.45v3.9h-.51v-3.41Z"/>
      <path class="cls-5" d="m93.6,83.54c-.11,0-.25,0-.4.02-.83.14-1.27.74-1.36,1.39h.02c.19-.25.51-.45.94-.45.69,0,1.18.5,1.18,1.26,0,.71-.49,1.37-1.29,1.37s-1.38-.65-1.38-1.66c0-.77.28-1.37.66-1.76.32-.32.75-.52,1.25-.58.16-.02.29-.03.38-.03v.43Zm-.15,2.25c0-.56-.32-.89-.8-.89-.32,0-.61.2-.75.48-.04.06-.06.14-.06.23.01.64.3,1.12.86,1.12.46,0,.76-.38.76-.94Z"/>
    </g>
    <g>
      <path class="cls-5" d="m73.57,86.88c-.23.08-.7.22-1.24.22-.61,0-1.12-.16-1.51-.53-.35-.34-.56-.88-.56-1.51,0-1.21.83-2.09,2.19-2.09.47,0,.83.1,1.01.19l-.13.43c-.21-.1-.49-.17-.89-.17-.98,0-1.62.61-1.62,1.62s.62,1.63,1.56,1.63c.34,0,.58-.05.7-.11v-1.21h-.82v-.42h1.33v1.94Z"/>
      <path class="cls-5" d="m74.22,87.06v-4.04h.57l1.3,2.04c.3.47.53.9.72,1.31h.01c-.05-.55-.06-1.04-.06-1.67v-1.69h.49v4.04h-.53l-1.28-2.05c-.28-.45-.55-.91-.76-1.35h-.02c.03.52.04,1,.04,1.67v1.73h-.49Z"/>
      <path class="cls-5" d="m78.01,83.07c.32-.05.7-.08,1.11-.08.75,0,1.28.17,1.64.5.36.33.57.8.57,1.45s-.2,1.2-.58,1.57c-.38.38-1,.58-1.79.58-.37,0-.68-.02-.95-.05v-3.98Zm.52,3.57c.13.02.32.03.53.03,1.12,0,1.72-.62,1.72-1.71,0-.95-.53-1.56-1.64-1.56-.27,0-.47.02-.61.05v3.19Z"/>
    </g>
    <g>
      <path class="cls-5" d="m50.12,98.33c-.23.08-.7.22-1.24.22-.61,0-1.12-.16-1.51-.53-.35-.34-.56-.88-.56-1.51,0-1.21.83-2.09,2.19-2.09.47,0,.83.1,1.01.19l-.13.43c-.22-.1-.49-.17-.89-.17-.98,0-1.62.61-1.62,1.62s.62,1.63,1.56,1.63c.34,0,.58-.05.7-.11v-1.21h-.82v-.42h1.33v1.94Z"/>
      <path class="cls-5" d="m50.92,98.51v-4.04h.57l1.3,2.04c.3.47.53.9.73,1.31h.01c-.05-.55-.06-1.04-.06-1.67v-1.69h.49v4.04h-.53l-1.28-2.05c-.28-.45-.55-.91-.76-1.35h-.02c.03.52.04,1,.04,1.67v1.73h-.49Z"/>
      <path class="cls-5" d="m54.87,94.52c.32-.05.7-.08,1.11-.08.75,0,1.28.17,1.64.5.36.33.57.8.57,1.45s-.2,1.2-.58,1.57c-.38.38-1,.58-1.79.58-.37,0-.68-.02-.95-.05v-3.98Zm.52,3.57c.13.02.32.03.53.03,1.12,0,1.72-.62,1.72-1.71,0-.95-.53-1.56-1.64-1.56-.27,0-.47.02-.61.05v3.19Z"/>
    </g>
    <g>
      <path class="cls-5" d="m35.33,94.99h-.01l-.68.37-.1-.4.85-.46h.45v3.9h-.51v-3.41Z"/>
      <path class="cls-5" d="m39.8,94.5v.35l-1.7,3.55h-.55l1.69-3.45h0s-1.91-.01-1.91-.01v-.44h2.46Z"/>
    </g>
    <g>
      <path class="cls-5" d="m89.44,94.99h-.01l-.68.37-.1-.4.85-.46h.45v3.9h-.51v-3.41Z"/>
      <path class="cls-5" d="m91.33,97.41c0-.49.29-.84.77-1.04v-.02c-.44-.2-.62-.54-.62-.88,0-.62.52-1.04,1.21-1.04.75,0,1.13.47,1.13.96,0,.33-.16.68-.64.91v.02c.49.19.79.53.79,1.01,0,.68-.58,1.13-1.33,1.13-.82,0-1.31-.49-1.31-1.06Zm2.1-.02c0-.47-.33-.7-.86-.85-.46.13-.7.43-.7.8-.02.4.28.74.78.74s.78-.29.78-.7Zm-1.45-1.95c0,.39.29.6.74.72.34-.11.59-.35.59-.71,0-.31-.19-.64-.66-.64-.44,0-.68.29-.68.62Z"/>
    </g>
    <g>
      <path class="cls-5" d="m73.42,98.22c-.23.08-.7.22-1.24.22-.61,0-1.12-.16-1.51-.53-.35-.34-.56-.88-.56-1.51,0-1.21.83-2.09,2.19-2.09.47,0,.83.1,1.01.19l-.13.43c-.22-.1-.49-.17-.89-.17-.98,0-1.62.61-1.62,1.62s.62,1.63,1.56,1.63c.34,0,.58-.05.7-.11v-1.21h-.82v-.42h1.33v1.94Z"/>
      <path class="cls-5" d="m74.22,98.4v-4.04h.57l1.3,2.04c.3.47.53.9.72,1.31h.01c-.05-.55-.06-1.04-.06-1.67v-1.69h.49v4.04h-.53l-1.28-2.05c-.28-.45-.55-.91-.76-1.35h-.02c.03.52.04,1,.04,1.67v1.73h-.49Z"/>
      <path class="cls-5" d="m78.17,94.41c.32-.05.7-.08,1.11-.08.75,0,1.28.17,1.64.5.36.33.57.8.57,1.45s-.2,1.2-.58,1.57c-.38.38-1,.58-1.79.58-.37,0-.68-.02-.95-.05v-3.98Zm.52,3.57c.13.02.32.03.53.03,1.12,0,1.72-.62,1.72-1.71,0-.95-.53-1.56-1.64-1.56-.27,0-.47.02-.61.05v3.19Z"/>
    </g>
  </g>
</svg>