<?xml version="1.0" encoding="UTF-8"?><svg id="_Слой_2" data-name="Слой 2" xmlns="http://www.w3.org/2000/svg" viewBox="0 0 113.6 120.97"><defs><style>
.cls-1 {
stroke-dasharray: 0 0 2.92 2.92;
}
.cls-1, .cls-2, .cls-3, .cls-4, .cls-5, .cls-6, .cls-7, .cls-8, .cls-9, .cls-10 {
stroke-miterlimit: 10;
stroke-width: .5px;
}
.cls-1, .cls-2, .cls-4, .cls-5, .cls-6, .cls-8, .cls-9, .cls-10 {
stroke: #b8bac0;
}
.cls-1, .cls-2, .cls-4, .cls-5, .cls-6, .cls-9, .cls-10 {
fill: none;
}
.cls-3 {
fill: #f39200;
}
.cls-3, .cls-7 {
stroke: #1d1d1b;
}
.cls-4 {
stroke-dasharray: 0 3;
}
.cls-5 {
stroke-dasharray: 0 0 2.92 2.92;
}
.cls-6 {
stroke-dasharray: 0 0 2.4 2.4;
}
.cls-7 {
fill: #7e7e7d;
}
.cls-8 {
fill: #fff;
}
.cls-11 {
fill: #b8bac0;
}
.cls-11, .cls-12 {
stroke-width: 0px;
}
.cls-9 {
stroke-dasharray: 0 0 2.95 2.95;
}
.cls-10 {
stroke-dasharray: 0 0 2.31 2.31;
}
.cls-12 {
fill: #1d1d1b;
}
</style></defs><g id="scheme_w" data-name="scheme w"><circle class="cls-2" cx="5.81" cy="17.28" r=".57"/><circle class="cls-2" cx="5.8" cy="28.31" r=".57"/><circle class="cls-2" cx="5.85" cy="39.6" r=".57"/><circle class="cls-2" cx="5.8" cy="50.71" r=".57"/><circle class="cls-2" cx="5.8" cy="62.05" r=".57"/><circle class="cls-2" cx="5.8" cy="73.38" r=".57"/><circle class="cls-2" cx="5.8" cy="84.72" r=".57"/><circle class="cls-2" cx="107.56" cy="17.26" r=".57"/><circle class="cls-2" cx="107.56" cy="28.31" r=".57"/><circle class="cls-2" cx="107.56" cy="39.65" r=".57"/><circle class="cls-2" cx="107.56" cy="50.71" r=".57"/><circle class="cls-2" cx="107.56" cy="62.05" r=".57"/><circle class="cls-2" cx="107.56" cy="73.38" r=".57"/><circle class="cls-2" cx="107.56" cy="84.72" r=".57"/><polyline class="cls-2" points="14.02 5.92 5.8 5.92 5.85 117.21 107.55 117.05 107.56 5.92 99.62 5.92"/><line class="cls-2" x1="5.8" y1="17.26" x2="13.73" y2="17.26"/><line class="cls-2" x1="5.8" y1="28.31" x2="13.73" y2="28.27"/><line class="cls-2" x1="5.8" y1="39.65" x2="13.73" y2="39.65"/><line class="cls-2" x1="5.8" y1="50.71" x2="13.73" y2="50.71"/><line class="cls-2" x1="5.8" y1="62.05" x2="13.73" y2="62.05"/><line class="cls-2" x1="5.8" y1="73.38" x2="13.73" y2="73.38"/><line class="cls-2" x1="5.8" y1="84.67" x2="13.73" y2="84.67"/><polyline class="cls-2" points="25.64 84.72 18.27 84.72 18.27 84.72 14.05 80.79"/><line class="cls-2" x1="107.56" y1="17.26" x2="99.91" y2="17.26"/><line class="cls-2" x1="107.56" y1="28.31" x2="99.91" y2="28.31"/><line class="cls-2" x1="107.56" y1="39.65" x2="99.91" y2="39.65"/><line class="cls-2" x1="107.56" y1="50.71" x2="99.91" y2="50.71"/><line class="cls-2" x1="107.84" y1="62.05" x2="99.91" y2="62.05"/><line class="cls-2" x1="107.56" y1="73.38" x2="99.91" y2="73.38"/><line class="cls-2" x1="107.56" y1="84.72" x2="99.91" y2="84.72"/><polyline class="cls-2" points="87.72 84.72 95.66 84.72 95.66 84.72 99.65 81.18"/><line class="cls-2" x1="21.39" y1="96.24" x2="17.13" y2="96.24"/><line class="cls-2" x1="16.91" y1="92.07" x2="16.91" y2="100.57"/><line class="cls-2" x1="14.78" y1="98.45" x2="14.78" y2="94.2"/><path class="cls-11" d="m20,92.25v1.41h1.36v.36h-1.36v1.42h-.38v-1.42h-1.35v-.36h1.35v-1.41h.38Z"/><path class="cls-11" d="m12.06,93.62v.39h-1.48v-.39h1.48Z"/><polyline class="cls-2" points="14.65 96.24 10.4 96.24 5.87 96.24"/><line class="cls-2" x1="21.17" y1="96.24" x2="25.71" y2="96.24"/><circle class="cls-2" cx="6" cy="96.33" r=".57"/><line class="cls-2" x1="10.47" y1="110.13" x2="14.72" y2="110.13"/><line class="cls-2" x1="14.95" y1="105.96" x2="14.95" y2="114.46"/><line class="cls-2" x1="17.07" y1="112.34" x2="17.07" y2="108.09"/><path class="cls-11" d="m12.25,106.14v1.41h1.35v.36h-1.35v1.42h-.38v-1.42h-1.36v-.36h1.36v-1.41h.38Z"/><path class="cls-2" d="m21.28,107.51v.39h-1.48v-.39h1.48Z"/><line class="cls-2" x1="21.46" y1="110.13" x2="17.2" y2="110.13"/><g><path class="cls-11" d="m12.72,102.52v.82c0,.31,0,.5-.02.78h.01c.12-.23.18-.37.31-.59l.6-1h.41v1.94h-.34v-.82c0-.32,0-.48.02-.79h-.01c-.12.25-.21.4-.32.6-.18.3-.4.67-.6,1.01h-.4v-1.94h.33Z"/><path class="cls-11" d="m15.98,102.52v1.94h-.35v-1.66h-.66v.5c0,.54-.05.91-.3,1.07-.1.08-.2.12-.38.12l-.04-.28c.07-.01.14-.04.19-.08.18-.13.2-.4.2-.84v-.78h1.34Z"/><path class="cls-11" d="m16.78,102.52v.82c0,.31,0,.5-.02.78h.01c.12-.23.18-.37.31-.59l.6-1h.41v1.94h-.33v-.82c0-.32,0-.48.02-.79h-.01c-.12.25-.21.4-.32.6-.18.3-.4.67-.6,1.01h-.4v-1.94h.33Z"/></g><circle class="cls-2" cx="102.74" cy="5.92" r=".57"/><circle class="cls-2" cx="102.59" cy="17.24" r=".57"/><circle class="cls-2" cx="102.46" cy="28.31" r=".57"/><circle class="cls-2" cx="102.58" cy="39.6" r=".57"/><circle class="cls-2" cx="102.61" cy="62" r=".57"/><circle class="cls-2" cx="102.65" cy="73.34" r=".57"/><circle class="cls-2" cx="102.6" cy="84.76" r=".57"/><circle class="cls-2" cx="10.9" cy="5.92" r=".57"/><circle class="cls-2" cx="10.9" cy="17.26" r=".57"/><circle class="cls-2" cx="10.98" cy="28.27" r=".57"/><circle class="cls-2" cx="10.9" cy="39.65" r=".57"/><circle class="cls-2" cx="10.9" cy="50.71" r=".57"/><circle class="cls-2" cx="10.9" cy="62.05" r=".57"/><circle class="cls-2" cx="10.9" cy="73.38" r=".57"/><circle class="cls-2" cx="10.81" cy="84.67" r=".57"/><circle class="cls-2" cx="102.74" cy="50.71" r=".57"/><polyline class="cls-2" points="25.69 73.36 18.32 73.36 18.32 73.36 14.1 69.43"/><polyline class="cls-2" points="87.77 73.36 95.71 73.36 95.71 73.36 99.71 69.82"/><polyline class="cls-2" points="25.8 61.98 18.43 61.98 18.43 61.98 14.21 58.05"/><polyline class="cls-2" points="87.88 61.98 95.82 61.98 95.82 61.98 99.81 58.44"/><polyline class="cls-2" points="25.77 50.64 18.4 50.64 18.4 50.64 14.18 46.71"/><polyline class="cls-2" points="87.85 50.64 95.79 50.64 95.79 50.64 99.78 47.1"/><polyline class="cls-2" points="25.78 39.59 18.41 39.59 18.41 39.59 14.19 35.66"/><polyline class="cls-2" points="87.86 39.59 95.8 39.59 95.8 39.59 99.8 36.04"/><polyline class="cls-2" points="25.89 28.31 18.52 28.31 18.52 28.31 14.3 24.38"/><polyline class="cls-2" points="87.97 28.31 95.91 28.31 95.91 28.31 99.91 24.77"/><polyline class="cls-2" points="25.93 17.33 18.56 17.33 18.56 17.33 14.34 13.4"/><polyline class="cls-2" points="88.01 17.33 95.95 17.33 95.95 17.33 99.95 13.78"/><polyline class="cls-2" points="25.75 5.96 18.38 5.96 18.38 5.96 14.16 2.03"/><polyline class="cls-2" points="87.83 5.96 95.77 5.96 95.77 5.96 99.76 2.42"/><circle class="cls-8" cx="112.79" cy="95.21" r=".57"/><g><line class="cls-2" x1="102.74" y1="84.72" x2="102.74" y2="86.22"/><polyline class="cls-2" points="102.74 87.19 102.74 88.69 104.24 88.69"/><line class="cls-10" x1="106.54" y1="88.69" x2="110.01" y2="88.69"/><line class="cls-2" x1="111.16" y1="88.69" x2="112.66" y2="88.69"/></g><g><line class="cls-2" x1="102.74" y1="73.1" x2="102.74" y2="74.6"/><polyline class="cls-2" points="102.74 75.57 102.74 77.07 104.24 77.07"/><line class="cls-10" x1="106.54" y1="77.07" x2="110.01" y2="77.07"/><line class="cls-2" x1="111.16" y1="77.07" x2="112.66" y2="77.07"/></g><g><line class="cls-2" x1="102.86" y1="50.71" x2="102.86" y2="52.21"/><polyline class="cls-2" points="102.86 53.18 102.86 54.68 104.36 54.68"/><line class="cls-10" x1="106.67" y1="54.68" x2="110.13" y2="54.68"/><line class="cls-2" x1="111.29" y1="54.68" x2="112.79" y2="54.68"/></g><g><line class="cls-2" x1="102.74" y1="39.37" x2="102.74" y2="40.87"/><polyline class="cls-2" points="102.74 41.84 102.74 43.34 104.24 43.34"/><line class="cls-10" x1="106.54" y1="43.34" x2="110.01" y2="43.34"/><line class="cls-2" x1="111.16" y1="43.34" x2="112.66" y2="43.34"/></g><g><line class="cls-2" x1="102.58" y1="28.03" x2="102.58" y2="29.53"/><polyline class="cls-2" points="102.58 30.5 102.58 32 104.08 32"/><line class="cls-10" x1="106.39" y1="32" x2="109.85" y2="32"/><line class="cls-2" x1="111" y1="32" x2="112.5" y2="32"/></g><g><line class="cls-2" x1="102.74" y1="16.69" x2="102.74" y2="18.19"/><polyline class="cls-2" points="102.74 19.16 102.74 20.66 104.24 20.66"/><line class="cls-10" x1="106.54" y1="20.66" x2="110.01" y2="20.66"/><line class="cls-2" x1="111.16" y1="20.66" x2="112.66" y2="20.66"/></g><g><line class="cls-2" x1="102.74" y1="61.76" x2="102.74" y2="63.26"/><polyline class="cls-2" points="102.74 64.23 102.74 65.73 104.24 65.73"/><line class="cls-10" x1="106.54" y1="65.73" x2="110.01" y2="65.73"/><line class="cls-2" x1="111.16" y1="65.73" x2="112.66" y2="65.73"/></g><g><line class="cls-2" x1="11.02" y1="84.27" x2="11.02" y2="85.77"/><polyline class="cls-2" points="11.02 87.01 11.02 88.51 9.52 88.51"/><line class="cls-6" x1="7.12" y1="88.51" x2="3.52" y2="88.51"/><line class="cls-2" x1="2.32" y1="88.51" x2=".82" y2="88.51"/></g><g><line class="cls-2" x1="11.02" y1="73.38" x2="11.02" y2="74.88"/><polyline class="cls-2" points="11.02 75.68 11.02 77.18 9.52 77.18"/><line class="cls-6" x1="7.12" y1="77.18" x2="3.52" y2="77.18"/><line class="cls-2" x1="2.32" y1="77.18" x2=".82" y2="77.18"/></g><g><line class="cls-2" x1="11.02" y1="51.27" x2="11.02" y2="52.77"/><polyline class="cls-2" points="11.02 53.74 11.02 55.24 9.52 55.24"/><line class="cls-10" x1="7.21" y1="55.24" x2="3.75" y2="55.24"/><line class="cls-2" x1="2.6" y1="55.24" x2="1.1" y2="55.24"/></g><g><line class="cls-2" x1="11.02" y1="39.65" x2="11.02" y2="41.15"/><polyline class="cls-2" points="11.02 42.12 11.02 43.62 9.52 43.62"/><line class="cls-10" x1="7.21" y1="43.62" x2="3.75" y2="43.62"/><line class="cls-2" x1="2.6" y1="43.62" x2="1.1" y2="43.62"/></g><g><line class="cls-2" x1="11.02" y1="28.31" x2="11.02" y2="29.81"/><polyline class="cls-2" points="11.02 30.78 11.02 32.28 9.52 32.28"/><line class="cls-10" x1="7.21" y1="32.28" x2="3.75" y2="32.28"/><line class="cls-2" x1="2.6" y1="32.28" x2="1.1" y2="32.28"/></g><g><line class="cls-2" x1="11.02" y1="16.97" x2="11.02" y2="18.47"/><polyline class="cls-2" points="11.02 19.44 11.02 20.94 9.52 20.94"/><line class="cls-10" x1="7.21" y1="20.94" x2="3.75" y2="20.94"/><line class="cls-2" x1="2.6" y1="20.94" x2="1.1" y2="20.94"/></g><g><line class="cls-2" x1="11.02" y1="62.05" x2="11.02" y2="63.55"/><polyline class="cls-2" points="11.02 64.51 11.02 66.01 9.52 66.01"/><line class="cls-10" x1="7.21" y1="66.01" x2="3.75" y2="66.01"/><line class="cls-2" x1="2.6" y1="66.01" x2="1.1" y2="66.01"/></g><circle class="cls-8" cx="112.79" cy="20.77" r=".57"/><circle class="cls-8" cx="112.65" cy="32.09" r=".57"/><circle class="cls-8" cx="112.66" cy="43.34" r=".57"/><circle class="cls-8" cx="112.79" cy="54.78" r=".57"/><circle class="cls-8" cx="112.79" cy="65.84" r=".57"/><circle class="cls-8" cx="112.79" cy="76.89" r=".57"/><circle class="cls-8" cx="112.79" cy="88.8" r=".57"/><circle class="cls-8" cx=".82" cy="21.05" r=".57"/><circle class="cls-8" cx=".98" cy="32.37" r=".57"/><circle class="cls-8" cx=".82" cy="43.73" r=".57"/><circle class="cls-8" cx=".82" cy="55.35" r=".57"/><circle class="cls-8" cx=".82" cy="66.12" r=".57"/><circle class="cls-8" cx=".82" cy="77.18" r=".57"/><circle class="cls-8" cx=".82" cy="88.51" r=".57"/><g><line class="cls-2" x1="11.02" y1="5.92" x2="11.02" y2="7.42"/><polyline class="cls-2" points="11.02 8.21 11.02 9.71 9.52 9.71"/><line class="cls-6" x1="7.12" y1="9.71" x2="3.52" y2="9.71"/><polyline class="cls-2" points="2.32 9.71 .82 9.71 .82 11.21"/><line class="cls-1" x1=".82" y1="14.13" x2=".82" y2="117.76"/><polyline class="cls-2" points=".82 119.22 .82 120.72 2.32 120.72"/><line class="cls-9" x1="5.26" y1="120.72" x2="109.81" y2="120.72"/><polyline class="cls-2" points="111.29 120.72 112.79 120.72 112.78 119.22"/><line class="cls-5" x1="112.78" y1="116.3" x2="112.66" y2="12.57"/><polyline class="cls-2" points="112.66 11.1 112.66 9.6 111.16 9.6"/><line class="cls-10" x1="108.85" y1="9.6" x2="105.39" y2="9.6"/><polyline class="cls-2" points="104.24 9.6 102.74 9.6 102.74 8.1"/><line class="cls-2" x1="102.74" y1="7.14" x2="102.74" y2="5.64"/></g><line class="cls-4" x1="112.79" y1="95.21" x2="87.56" y2="95.21"/></g><g id="scheme"><rect class="cls-7" x="34.19" y=".25" width="22.68" height="11.34"/><rect class="cls-7" x="56.87" y=".25" width="22.68" height="11.34"/><rect class="cls-3" x="25.69" y=".25" width="8.5" height="11.34"/><rect class="cls-3" x="79.55" y=".25" width="8.5" height="11.34"/><rect class="cls-7" x="34.19" y="11.59" width="22.68" height="11.34"/><rect class="cls-7" x="56.87" y="11.59" width="22.68" height="11.34"/><rect class="cls-3" x="25.69" y="11.59" width="8.5" height="11.34"/><rect class="cls-3" x="79.55" y="11.59" width="8.5" height="11.34"/><rect class="cls-7" x="34.19" y="22.75" width="22.68" height="11.34"/><rect class="cls-7" x="56.87" y="22.75" width="22.68" height="11.34"/><rect class="cls-3" x="25.69" y="22.75" width="8.5" height="11.34"/><rect class="cls-3" x="79.55" y="22.75" width="8.5" height="11.34"/><rect class="cls-7" x="34.19" y="34.09" width="22.68" height="11.34"/><rect class="cls-7" x="56.87" y="34.09" width="22.68" height="11.34"/><rect class="cls-3" x="25.69" y="34.09" width="8.5" height="11.34"/><rect class="cls-3" x="79.55" y="34.09" width="8.5" height="11.34"/><rect class="cls-7" x="34.19" y="45.25" width="22.68" height="11.34"/><rect class="cls-7" x="56.87" y="45.25" width="22.68" height="11.34"/><rect class="cls-3" x="25.69" y="45.25" width="8.5" height="11.34"/><rect class="cls-3" x="79.55" y="45.25" width="8.5" height="11.34"/><rect class="cls-7" x="34.19" y="56.59" width="22.68" height="11.34"/><rect class="cls-7" x="56.87" y="56.59" width="22.68" height="11.34"/><rect class="cls-3" x="25.69" y="56.59" width="8.5" height="11.34"/><rect class="cls-3" x="79.55" y="56.59" width="8.5" height="11.34"/><rect class="cls-7" x="34.19" y="67.93" width="22.68" height="11.34"/><rect class="cls-7" x="56.87" y="67.93" width="22.68" height="11.34"/><rect class="cls-3" x="25.69" y="67.93" width="8.5" height="11.34"/><rect class="cls-3" x="79.55" y="67.93" width="8.5" height="11.34"/><rect class="cls-7" x="34.19" y="79.27" width="22.68" height="11.34"/><rect class="cls-7" x="56.87" y="79.27" width="22.68" height="11.34"/><rect class="cls-3" x="25.69" y="79.27" width="8.5" height="11.34"/><rect class="cls-3" x="79.55" y="79.27" width="8.5" height="11.34"/><rect class="cls-7" x="34.19" y="90.6" width="22.68" height="11.34"/><rect class="cls-7" x="56.87" y="90.6" width="22.68" height="11.34"/><rect class="cls-3" x="25.69" y="90.6" width="8.5" height="11.34"/><rect class="cls-3" x="79.55" y="90.6" width="8.5" height="11.34"/></g><g id="scheme_letters" data-name="scheme letters"><g><path class="cls-12" d="m41.75,4.16c.32-.05.7-.08,1.11-.08.75,0,1.28.17,1.64.5.36.33.57.8.57,1.45s-.2,1.2-.58,1.57c-.38.38-1,.58-1.79.58-.37,0-.68-.02-.95-.05v-3.98Zm.52,3.57c.13.02.32.03.53.03,1.12,0,1.72-.62,1.72-1.71,0-.95-.53-1.56-1.64-1.56-.27,0-.47.02-.61.05v3.19Z"/><path class="cls-12" d="m46.27,4.11v4.04h-.52v-4.04h.52Z"/><path class="cls-12" d="m48.14,4.75h-.01l-.68.37-.1-.4.85-.46h.45v3.9h-.51v-3.41Z"/></g><path class="cls-12" d="m29.64,4.64h-.01l-.68.37-.1-.4.85-.46h.45v3.9h-.51v-3.41Z"/><path class="cls-12" d="m82.6,8.05v-.32l.41-.4c1-.95,1.45-1.45,1.45-2.04,0-.4-.19-.76-.77-.76-.35,0-.65.18-.83.33l-.17-.37c.27-.23.65-.4,1.1-.4.84,0,1.19.58,1.19,1.13,0,.72-.52,1.3-1.34,2.09l-.31.29h0s1.75.01,1.75.01v.44h-2.49Z"/><g><path class="cls-12" d="m64.76,4.06c.32-.05.7-.08,1.11-.08.75,0,1.28.17,1.64.5.36.33.57.8.57,1.45s-.2,1.2-.58,1.57c-.38.38-1,.58-1.79.58-.37,0-.68-.02-.95-.05v-3.98Zm.52,3.57c.13.02.32.03.53.03,1.12,0,1.72-.62,1.72-1.71,0-.95-.53-1.56-1.64-1.56-.27,0-.47.02-.61.05v3.19Z"/><path class="cls-12" d="m69.28,4v4.04h-.52v-4.04h.52Z"/><path class="cls-12" d="m70.01,8.05v-.32l.41-.4c1-.95,1.45-1.45,1.45-2.04,0-.4-.19-.76-.77-.76-.35,0-.65.18-.83.33l-.17-.37c.27-.23.65-.4,1.1-.4.84,0,1.19.58,1.19,1.13,0,.72-.52,1.3-1.34,2.09l-.31.29h0s1.75.01,1.75.01v.44h-2.49Z"/></g><g><path class="cls-12" d="m41.75,15.5c.32-.05.7-.08,1.11-.08.75,0,1.28.17,1.64.5.36.33.57.8.57,1.45s-.2,1.2-.58,1.57c-.38.38-1,.58-1.79.58-.37,0-.68-.02-.95-.05v-3.98Zm.52,3.57c.13.02.32.03.53.03,1.12,0,1.72-.62,1.72-1.71,0-.95-.53-1.56-1.64-1.56-.27,0-.47.02-.61.05v3.19Z"/><path class="cls-12" d="m46.27,15.45v4.04h-.52v-4.04h.52Z"/><path class="cls-12" d="m47.12,18.88c.15.1.5.25.86.25.68,0,.89-.43.88-.76,0-.55-.5-.78-1.01-.78h-.29v-.4h.29c.38,0,.87-.2.87-.66,0-.31-.2-.59-.68-.59-.31,0-.61.14-.78.26l-.14-.38c.2-.15.6-.3,1.02-.3.77,0,1.12.46,1.12.93,0,.4-.24.74-.72.92h0c.48.11.87.47.87,1.01,0,.62-.49,1.17-1.42,1.17-.44,0-.82-.14-1.01-.26l.14-.41Z"/></g><path class="cls-12" d="m28.63,18.78c.12.1.41.25.71.25.56,0,.73-.43.73-.76,0-.55-.41-.78-.83-.78h-.24v-.4h.24c.32,0,.72-.2.72-.66,0-.31-.16-.59-.57-.59-.26,0-.51.14-.64.26l-.11-.38c.17-.15.5-.3.84-.3.63,0,.92.46.92.93,0,.4-.2.74-.59.92h0c.4.11.72.47.72,1.01,0,.62-.4,1.17-1.17,1.17-.36,0-.68-.14-.84-.26l.12-.41Z"/><path class="cls-12" d="m84.23,19.38v-1.06h-1.81v-.35l1.74-2.49h.57v2.42h.55v.41h-.55v1.06h-.5Zm0-1.48v-1.3c0-.2,0-.41.02-.61h-.02c-.12.23-.22.4-.32.58l-.95,1.33h0s1.28.01,1.28.01Z"/><g><path class="cls-12" d="m64.76,15.4c.32-.05.7-.08,1.11-.08.75,0,1.28.17,1.64.5.36.33.57.8.57,1.45s-.2,1.2-.58,1.57c-.38.38-1,.58-1.79.58-.37,0-.68-.02-.95-.05v-3.98Zm.52,3.57c.13.02.32.03.53.03,1.12,0,1.72-.62,1.72-1.71,0-.95-.53-1.56-1.64-1.56-.27,0-.47.02-.61.05v3.19Z"/><path class="cls-12" d="m69.28,15.34v4.04h-.52v-4.04h.52Z"/><path class="cls-12" d="m71.64,19.38v-1.06h-1.81v-.35l1.74-2.49h.57v2.42h.55v.41h-.55v1.06h-.5Zm0-1.48v-1.3c0-.2,0-.41.02-.61h-.02c-.12.23-.22.4-.32.58l-.95,1.33h0s1.28.01,1.28.01Z"/></g><g><path class="cls-12" d="m41.75,26.66c.32-.05.7-.08,1.11-.08.75,0,1.28.17,1.64.5.36.33.57.8.57,1.45s-.2,1.2-.58,1.57c-.38.38-1,.58-1.79.58-.37,0-.68-.02-.95-.05v-3.98Zm.52,3.57c.13.02.32.03.53.03,1.12,0,1.72-.62,1.72-1.71,0-.95-.53-1.56-1.64-1.56-.27,0-.47.02-.61.05v3.19Z"/><path class="cls-12" d="m46.27,26.61v4.04h-.52v-4.04h.52Z"/><path class="cls-12" d="m49.32,27.2h-1.49l-.15,1c.09-.01.17-.02.32-.02.3,0,.6.07.84.21.31.17.56.51.56,1,0,.76-.61,1.33-1.45,1.33-.43,0-.79-.12-.97-.24l.13-.4c.16.1.48.22.83.22.5,0,.92-.32.92-.85,0-.5-.34-.86-1.12-.86-.22,0-.4.02-.54.04l.25-1.87h1.87v.44Z"/></g><path class="cls-12" d="m30.82,27.09h-1.49l-.15,1c.09-.01.17-.02.32-.02.3,0,.6.07.84.21.31.17.56.51.56,1,0,.76-.61,1.33-1.45,1.33-.43,0-.79-.12-.97-.24l.13-.4c.16.1.48.22.83.22.5,0,.92-.32.92-.85,0-.5-.34-.86-1.12-.86-.22,0-.4.02-.54.04l.25-1.87h1.87v.44Z"/><path class="cls-12" d="m84.83,27.02c-.11,0-.25,0-.4.02-.83.14-1.27.74-1.36,1.39h.02c.19-.25.51-.45.94-.45.69,0,1.17.5,1.17,1.26,0,.71-.49,1.37-1.29,1.37s-1.38-.65-1.38-1.66c0-.77.28-1.37.66-1.76.32-.32.76-.52,1.25-.58.16-.02.29-.03.38-.03v.43Zm-.15,2.25c0-.56-.32-.89-.8-.89-.32,0-.61.2-.76.48-.04.06-.06.14-.06.23.01.64.31,1.12.86,1.12.46,0,.76-.38.76-.94Z"/><g><path class="cls-12" d="m64.76,26.56c.32-.05.7-.08,1.11-.08.75,0,1.28.17,1.64.5.36.33.57.8.57,1.45s-.2,1.2-.58,1.57c-.38.38-1,.58-1.79.58-.37,0-.68-.02-.95-.05v-3.98Zm.52,3.57c.13.02.32.03.53.03,1.12,0,1.72-.62,1.72-1.71,0-.95-.53-1.56-1.64-1.56-.27,0-.47.02-.61.05v3.19Z"/><path class="cls-12" d="m69.28,26.5v4.04h-.52v-4.04h.52Z"/><path class="cls-12" d="m72.23,27.02c-.11,0-.25,0-.4.02-.83.14-1.27.74-1.36,1.39h.02c.19-.25.51-.45.94-.45.69,0,1.17.5,1.17,1.26,0,.71-.49,1.37-1.29,1.37s-1.38-.65-1.38-1.66c0-.77.28-1.37.66-1.76.32-.32.76-.52,1.25-.58.16-.02.29-.03.38-.03v.43Zm-.15,2.25c0-.56-.32-.89-.8-.89-.32,0-.61.2-.76.48-.04.06-.06.14-.06.23.01.64.31,1.12.86,1.12.46,0,.76-.38.76-.94Z"/></g><g><path class="cls-12" d="m41.75,38c.32-.05.7-.08,1.11-.08.75,0,1.28.17,1.64.5.36.33.57.8.57,1.45s-.2,1.2-.58,1.57c-.38.38-1,.58-1.79.58-.37,0-.68-.02-.95-.05v-3.98Zm.52,3.57c.13.02.32.03.53.03,1.12,0,1.72-.62,1.72-1.71,0-.95-.53-1.56-1.64-1.56-.27,0-.47.02-.61.05v3.19Z"/><path class="cls-12" d="m46.27,37.95v4.04h-.52v-4.04h.52Z"/><path class="cls-12" d="m49.53,38.09v.35l-1.7,3.55h-.55l1.69-3.45h0s-1.91-.01-1.91-.01v-.44h2.46Z"/></g><path class="cls-12" d="m31.03,37.99v.35l-1.7,3.55h-.55l1.69-3.45h0s-1.91-.01-1.91-.01v-.44h2.46Z"/><path class="cls-12" d="m82.56,40.89c0-.49.29-.84.77-1.04v-.02c-.44-.2-.62-.54-.62-.88,0-.62.52-1.04,1.21-1.04.75,0,1.13.47,1.13.96,0,.33-.16.68-.64.91v.02c.49.19.79.53.79,1.01,0,.68-.58,1.13-1.33,1.13-.82,0-1.31-.49-1.31-1.06Zm2.1-.02c0-.47-.33-.7-.86-.85-.46.13-.7.43-.7.8-.02.4.28.74.78.74s.78-.29.78-.7Zm-1.45-1.95c0,.39.29.6.74.72.33-.11.59-.35.59-.71,0-.31-.19-.64-.66-.64-.44,0-.68.29-.68.62Z"/><g><path class="cls-12" d="m64.27,37.9c.32-.05.7-.08,1.11-.08.75,0,1.28.17,1.64.5.36.33.57.8.57,1.45s-.2,1.2-.58,1.57c-.38.38-1,.58-1.79.58-.37,0-.68-.02-.95-.05v-3.98Zm.52,3.57c.13.02.32.03.53.03,1.12,0,1.72-.62,1.72-1.71,0-.95-.53-1.56-1.64-1.56-.27,0-.47.02-.61.05v3.19Z"/><path class="cls-12" d="m68.79,37.84v4.04h-.52v-4.04h.52Z"/><path class="cls-12" d="m69.47,40.9c0-.49.29-.84.77-1.04v-.02c-.44-.2-.62-.54-.62-.88,0-.62.52-1.04,1.21-1.04.76,0,1.13.47,1.13.96,0,.33-.16.68-.64.91v.02c.49.19.79.53.79,1.01,0,.68-.58,1.13-1.33,1.13-.82,0-1.31-.49-1.31-1.06Zm2.1-.02c0-.47-.33-.7-.86-.85-.46.13-.7.43-.7.8-.02.4.28.74.78.74s.78-.29.78-.7Zm-1.45-1.95c0,.39.29.6.74.72.34-.11.59-.35.59-.71,0-.31-.19-.64-.66-.64-.44,0-.68.29-.68.62Z"/></g><g><path class="cls-12" d="m41.75,49.16c.32-.05.7-.08,1.11-.08.75,0,1.28.17,1.64.5.36.33.57.8.57,1.45s-.2,1.2-.58,1.57c-.38.38-1,.58-1.79.58-.37,0-.68-.02-.95-.05v-3.98Zm.52,3.57c.13.02.32.03.53.03,1.12,0,1.72-.62,1.72-1.71,0-.95-.53-1.56-1.64-1.56-.27,0-.47.02-.61.05v3.19Z"/><path class="cls-12" d="m46.27,49.11v4.04h-.52v-4.04h.52Z"/><path class="cls-12" d="m47.3,52.78c.11.01.25,0,.43-.02.31-.04.59-.17.82-.38.26-.23.44-.58.52-1.04h-.02c-.22.26-.53.42-.92.42-.7,0-1.15-.53-1.15-1.19,0-.74.53-1.39,1.33-1.39s1.29.65,1.29,1.64c0,.86-.29,1.46-.67,1.83-.3.29-.71.47-1.13.52-.19.03-.36.04-.49.03v-.43Zm.19-2.24c0,.49.29.83.75.83.35,0,.63-.17.77-.41.03-.05.05-.11.05-.19,0-.67-.25-1.18-.8-1.18-.45,0-.77.4-.77.95Z"/></g><path class="cls-12" d="m28.8,52.67c.11.01.25,0,.43-.02.3-.04.59-.17.81-.38.26-.23.44-.58.52-1.04h-.02c-.22.26-.53.42-.92.42-.7,0-1.15-.53-1.15-1.19,0-.74.53-1.39,1.33-1.39s1.29.65,1.29,1.64c0,.86-.29,1.46-.67,1.83-.3.29-.71.47-1.13.52-.19.03-.36.04-.49.03v-.43Zm.19-2.24c0,.49.29.83.75.83.35,0,.63-.17.77-.41.03-.05.05-.11.05-.19,0-.67-.25-1.18-.8-1.18-.45,0-.77.4-.77.95Z"/><g><path class="cls-12" d="m82.21,49.64h-.01l-.68.37-.1-.4.85-.46h.45v3.9h-.51v-3.41Z"/><path class="cls-12" d="m86.73,51.05c0,1.33-.49,2.06-1.36,2.06-.76,0-1.28-.71-1.29-2,0-1.31.56-2.03,1.36-2.03s1.29.73,1.29,1.97Zm-2.12.06c0,1.01.31,1.59.79,1.59.54,0,.8-.63.8-1.62s-.25-1.59-.79-1.59c-.46,0-.8.56-.8,1.62Z"/></g><g><path class="cls-12" d="m62.91,49.06c.32-.05.7-.08,1.11-.08.75,0,1.28.17,1.64.5.36.33.57.8.57,1.45s-.2,1.2-.58,1.57c-.38.38-1,.58-1.79.58-.37,0-.68-.02-.95-.05v-3.98Zm.52,3.57c.13.02.32.03.53.03,1.12,0,1.72-.62,1.72-1.71,0-.95-.53-1.56-1.64-1.56-.27,0-.47.02-.61.05v3.19Z"/><path class="cls-12" d="m67.43,49v4.04h-.52v-4.04h.52Z"/><path class="cls-12" d="m69.3,49.64h-.01l-.68.37-.1-.4.85-.46h.45v3.9h-.51v-3.41Z"/><path class="cls-12" d="m73.82,51.05c0,1.33-.49,2.06-1.36,2.06-.76,0-1.28-.71-1.29-2,0-1.31.56-2.03,1.36-2.03s1.29.73,1.29,1.97Zm-2.12.06c0,1.01.31,1.59.79,1.59.54,0,.8-.63.8-1.62s-.25-1.59-.79-1.59c-.46,0-.8.56-.8,1.62Z"/></g><g><path class="cls-12" d="m40.21,60.5c.32-.05.7-.08,1.11-.08.75,0,1.28.17,1.64.5.36.33.57.8.57,1.45s-.2,1.2-.58,1.57c-.38.38-1,.58-1.79.58-.37,0-.68-.02-.95-.05v-3.98Zm.52,3.57c.13.02.32.03.53.03,1.12,0,1.72-.62,1.72-1.71,0-.95-.53-1.56-1.64-1.56-.27,0-.47.02-.61.05v3.19Z"/><path class="cls-12" d="m44.73,60.45v4.04h-.52v-4.04h.52Z"/><path class="cls-12" d="m46.6,61.08h-.01l-.68.37-.1-.4.85-.46h.45v3.9h-.51v-3.41Z"/><path class="cls-12" d="m49.68,61.08h-.01l-.68.37-.1-.4.85-.46h.45v3.9h-.51v-3.41Z"/></g><g><path class="cls-12" d="m28.1,60.98h-.01l-.68.37-.1-.4.85-.46h.45v3.9h-.51v-3.41Z"/><path class="cls-12" d="m31.18,60.98h-.01l-.68.37-.1-.4.85-.46h.45v3.9h-.51v-3.41Z"/></g><g><path class="cls-12" d="m82.21,60.98h-.01l-.68.37-.1-.4.85-.46h.45v3.9h-.51v-3.41Z"/><path class="cls-12" d="m84.14,64.38v-.32l.41-.4c1-.95,1.45-1.45,1.45-2.04,0-.4-.19-.76-.77-.76-.35,0-.65.18-.83.33l-.17-.37c.27-.23.65-.4,1.1-.4.84,0,1.19.58,1.19,1.13,0,.72-.52,1.3-1.34,2.09l-.31.29h0s1.75.01,1.75.01v.44h-2.49Z"/></g><g><path class="cls-12" d="m63.23,60.4c.32-.05.7-.08,1.11-.08.75,0,1.28.17,1.64.5.36.33.57.8.57,1.45s-.2,1.2-.58,1.57c-.38.38-1,.58-1.79.58-.37,0-.68-.02-.95-.05v-3.98Zm.52,3.57c.13.02.32.03.53.03,1.12,0,1.72-.62,1.72-1.71,0-.95-.53-1.56-1.64-1.56-.27,0-.47.02-.61.05v3.19Z"/><path class="cls-12" d="m67.74,60.34v4.04h-.52v-4.04h.52Z"/><path class="cls-12" d="m69.62,60.98h-.01l-.68.37-.1-.4.85-.46h.45v3.9h-.51v-3.41Z"/><path class="cls-12" d="m71.55,64.38v-.32l.41-.4c1-.95,1.45-1.45,1.45-2.04,0-.4-.19-.76-.77-.76-.35,0-.65.18-.83.33l-.17-.37c.27-.23.65-.4,1.1-.4.84,0,1.19.58,1.19,1.13,0,.72-.52,1.3-1.34,2.09l-.31.29h0s1.75.01,1.75.01v.44h-2.49Z"/></g><g><path class="cls-12" d="m40.21,71.84c.32-.05.7-.08,1.11-.08.75,0,1.28.17,1.64.5.36.33.57.8.57,1.45s-.2,1.2-.58,1.57c-.38.38-1,.58-1.79.58-.37,0-.68-.02-.95-.05v-3.98Zm.52,3.57c.13.02.32.03.53.03,1.12,0,1.72-.62,1.72-1.71,0-.95-.53-1.56-1.64-1.56-.27,0-.47.02-.61.05v3.19Z"/><path class="cls-12" d="m44.73,71.79v4.04h-.52v-4.04h.52Z"/><path class="cls-12" d="m46.6,72.42h-.01l-.68.37-.1-.4.85-.46h.45v3.9h-.51v-3.41Z"/><path class="cls-12" d="m48.66,75.22c.15.1.5.25.86.25.68,0,.89-.43.88-.76,0-.55-.5-.78-1.01-.78h-.29v-.4h.29c.38,0,.87-.2.87-.66,0-.31-.2-.59-.68-.59-.31,0-.61.14-.78.26l-.14-.38c.2-.15.6-.3,1.02-.3.77,0,1.12.46,1.12.93,0,.4-.24.74-.72.92h0c.48.11.87.47.87,1.01,0,.62-.49,1.17-1.42,1.17-.44,0-.82-.14-1.01-.26l.14-.41Z"/></g><g><path class="cls-12" d="m28.1,72.32h-.01l-.68.37-.1-.4.85-.46h.45v3.9h-.51v-3.41Z"/><path class="cls-12" d="m30.16,75.12c.15.1.5.25.86.25.68,0,.89-.43.88-.76,0-.55-.5-.78-1.01-.78h-.29v-.4h.29c.38,0,.87-.2.87-.66,0-.31-.2-.59-.68-.59-.31,0-.61.14-.78.26l-.14-.38c.2-.15.6-.3,1.02-.3.77,0,1.12.46,1.12.93,0,.4-.24.74-.72.92h0c.48.11.87.47.87,1.01,0,.62-.49,1.17-1.42,1.17-.44,0-.82-.14-1.01-.26l.14-.41Z"/></g><g><path class="cls-12" d="m82.21,72.32h-.01l-.68.37-.1-.4.85-.46h.45v3.9h-.51v-3.41Z"/><path class="cls-12" d="m85.77,75.72v-1.06h-1.81v-.35l1.74-2.49h.57v2.42h.55v.41h-.55v1.06h-.5Zm0-1.48v-1.3c0-.2,0-.41.02-.61h-.02c-.12.23-.22.4-.32.58l-.95,1.33h0s1.28.01,1.28.01Z"/></g><g><path class="cls-12" d="m63.23,71.73c.32-.05.7-.08,1.11-.08.75,0,1.28.17,1.64.5.36.33.57.8.57,1.45s-.2,1.2-.58,1.57c-.38.38-1,.58-1.79.58-.37,0-.68-.02-.95-.05v-3.98Zm.52,3.57c.13.02.32.03.53.03,1.12,0,1.72-.62,1.72-1.71,0-.95-.53-1.56-1.64-1.56-.27,0-.47.02-.61.05v3.19Z"/><path class="cls-12" d="m67.74,71.68v4.04h-.52v-4.04h.52Z"/><path class="cls-12" d="m69.62,72.32h-.01l-.68.37-.1-.4.85-.46h.45v3.9h-.51v-3.41Z"/><path class="cls-12" d="m73.18,75.72v-1.06h-1.81v-.35l1.74-2.49h.57v2.42h.55v.41h-.55v1.06h-.5Zm0-1.48v-1.3c0-.2,0-.41.02-.61h-.02c-.12.23-.22.4-.32.58l-.95,1.33h0s1.28.01,1.28.01Z"/></g><g><path class="cls-12" d="m40.21,83.18c.32-.05.7-.08,1.11-.08.75,0,1.28.17,1.64.5.36.33.57.8.57,1.45s-.2,1.2-.58,1.57c-.38.38-1,.58-1.79.58-.37,0-.68-.02-.95-.05v-3.98Zm.52,3.57c.13.02.32.03.53.03,1.12,0,1.72-.62,1.72-1.71,0-.95-.53-1.56-1.64-1.56-.27,0-.47.02-.61.05v3.19Z"/><path class="cls-12" d="m44.73,83.13v4.04h-.52v-4.04h.52Z"/><path class="cls-12" d="m46.6,83.76h-.01l-.68.37-.1-.4.85-.46h.45v3.9h-.51v-3.41Z"/><path class="cls-12" d="m50.86,83.71h-1.49l-.15,1c.09-.01.17-.02.32-.02.3,0,.6.07.84.21.31.17.56.51.56,1,0,.76-.61,1.33-1.45,1.33-.43,0-.79-.12-.97-.24l.13-.4c.16.1.48.22.83.22.5,0,.92-.32.92-.85,0-.5-.34-.86-1.12-.86-.22,0-.4.02-.54.04l.25-1.87h1.87v.44Z"/></g><g><path class="cls-12" d="m28.1,83.65h-.01l-.68.37-.1-.4.85-.46h.45v3.9h-.51v-3.41Z"/><path class="cls-12" d="m32.36,83.61h-1.49l-.15,1c.09-.01.17-.02.32-.02.3,0,.6.07.84.21.31.17.56.51.56,1,0,.76-.61,1.33-1.45,1.33-.43,0-.79-.12-.97-.24l.13-.4c.16.1.48.22.83.22.5,0,.92-.32.92-.85,0-.5-.34-.86-1.12-.86-.22,0-.4.02-.54.04l.25-1.87h1.87v.44Z"/></g><g><path class="cls-12" d="m82.21,83.65h-.01l-.68.37-.1-.4.85-.46h.45v3.9h-.51v-3.41Z"/><path class="cls-12" d="m86.37,83.54c-.11,0-.25,0-.4.02-.83.14-1.27.74-1.36,1.39h.02c.19-.25.51-.45.94-.45.69,0,1.17.5,1.17,1.26,0,.71-.49,1.37-1.29,1.37s-1.38-.65-1.38-1.66c0-.77.28-1.37.66-1.76.32-.32.76-.52,1.25-.58.16-.02.29-.03.38-.03v.43Zm-.15,2.25c0-.56-.32-.89-.8-.89-.32,0-.61.2-.76.48-.04.06-.06.14-.06.23.01.64.31,1.12.86,1.12.46,0,.76-.38.76-.94Z"/></g><g><path class="cls-12" d="m63.23,83.07c.32-.05.7-.08,1.11-.08.75,0,1.28.17,1.64.5.36.33.57.8.57,1.45s-.2,1.2-.58,1.57c-.38.38-1,.58-1.79.58-.37,0-.68-.02-.95-.05v-3.98Zm.52,3.57c.13.02.32.03.53.03,1.12,0,1.72-.62,1.72-1.71,0-.95-.53-1.56-1.64-1.56-.27,0-.47.02-.61.05v3.19Z"/><path class="cls-12" d="m67.74,83.02v4.04h-.52v-4.04h.52Z"/><path class="cls-12" d="m69.62,83.65h-.01l-.68.37-.1-.4.85-.46h.45v3.9h-.51v-3.41Z"/><path class="cls-12" d="m73.77,83.54c-.11,0-.25,0-.4.02-.83.14-1.27.74-1.36,1.39h.02c.19-.25.51-.45.94-.45.69,0,1.17.5,1.17,1.26,0,.71-.49,1.37-1.29,1.37s-1.38-.65-1.38-1.66c0-.77.28-1.37.66-1.76.32-.32.76-.52,1.25-.58.16-.02.29-.03.38-.03v.43Zm-.15,2.25c0-.56-.32-.89-.8-.89-.32,0-.61.2-.76.48-.04.06-.06.14-.06.23.01.64.31,1.12.86,1.12.46,0,.76-.38.76-.94Z"/></g><g><path class="cls-12" d="m40.11,98.33c-.23.08-.7.22-1.24.22-.61,0-1.12-.16-1.51-.53-.35-.34-.56-.88-.56-1.51,0-1.21.83-2.09,2.19-2.09.47,0,.83.1,1.01.19l-.12.43c-.22-.1-.49-.17-.89-.17-.98,0-1.62.61-1.62,1.62s.62,1.63,1.56,1.63c.34,0,.58-.05.7-.11v-1.21h-.82v-.42h1.33v1.94Z"/><path class="cls-12" d="m43.3,98.96v.3h-3v-.3h3Z"/><path class="cls-12" d="m44.27,98.51l-1.03-4.04h.55l.48,2.04c.12.5.23,1.01.3,1.4h.01c.07-.4.19-.88.33-1.4l.54-2.04h.55l.49,2.05c.11.48.22.96.28,1.39h.01c.08-.44.2-.89.32-1.4l.53-2.04h.53l-1.14,4.04h-.55l-.51-2.1c-.12-.52-.21-.91-.26-1.32h-.01c-.07.4-.16.8-.31,1.32l-.58,2.1h-.55Z"/><path class="cls-12" d="m50.63,96.61h-1.57v1.46h1.75v.44h-2.27v-4.04h2.18v.44h-1.66v1.28h1.57v.43Z"/><path class="cls-12" d="m52.2,94.91h-1.23v-.44h2.99v.44h-1.24v3.6h-.53v-3.6Z"/></g><g><path class="cls-12" d="m28.1,94.99h-.01l-.68.37-.1-.4.85-.46h.45v3.9h-.51v-3.41Z"/><path class="cls-12" d="m32.56,94.5v.35l-1.7,3.55h-.55l1.69-3.45h0s-1.91-.01-1.91-.01v-.44h2.46Z"/></g><g><path class="cls-12" d="m82.21,94.99h-.01l-.68.37-.1-.4.85-.46h.45v3.9h-.51v-3.41Z"/><path class="cls-12" d="m84.09,97.41c0-.49.29-.84.77-1.04v-.02c-.44-.2-.62-.54-.62-.88,0-.62.52-1.04,1.21-1.04.75,0,1.13.47,1.13.96,0,.33-.16.68-.64.91v.02c.49.19.79.53.79,1.01,0,.68-.58,1.13-1.33,1.13-.82,0-1.31-.49-1.31-1.06Zm2.1-.02c0-.47-.33-.7-.86-.85-.46.13-.7.43-.7.8-.02.4.28.74.78.74s.78-.29.78-.7Zm-1.45-1.95c0,.39.29.6.74.72.33-.11.59-.35.59-.71,0-.31-.19-.64-.66-.64-.44,0-.68.29-.68.62Z"/></g><g><path class="cls-12" d="m63.76,98.22c-.23.08-.7.22-1.24.22-.61,0-1.12-.16-1.51-.53-.35-.34-.56-.88-.56-1.51,0-1.21.83-2.09,2.19-2.09.47,0,.83.1,1.01.19l-.13.43c-.22-.1-.49-.17-.89-.17-.98,0-1.62.61-1.62,1.62s.62,1.63,1.56,1.63c.34,0,.58-.05.7-.11v-1.21h-.82v-.42h1.33v1.94Z"/><path class="cls-12" d="m66.95,98.85v.3h-3v-.3h3Z"/><path class="cls-12" d="m67.26,94.41c.32-.05.7-.08,1.11-.08.75,0,1.28.17,1.64.5.36.33.57.8.57,1.45s-.2,1.2-.58,1.57c-.38.38-1,.58-1.79.58-.37,0-.68-.02-.95-.05v-3.98Zm.52,3.57c.13.02.32.03.53.03,1.12,0,1.72-.62,1.72-1.71,0-.95-.53-1.56-1.64-1.56-.27,0-.47.02-.61.05v3.19Z"/><path class="cls-12" d="m71.1,94.41c.26-.05.64-.08,1-.08.56,0,.92.1,1.17.33.2.18.32.46.32.77,0,.53-.34.89-.76,1.03v.02c.31.11.5.4.59.82.13.56.23.95.31,1.11h-.54c-.07-.11-.16-.46-.27-.97-.12-.56-.34-.77-.81-.79h-.49v1.75h-.52v-3.99Zm.52,1.84h.53c.56,0,.91-.31.91-.77,0-.52-.38-.75-.93-.76-.25,0-.43.02-.52.05v1.48Z"/><path class="cls-12" d="m75.01,98.4v-1.71l-1.28-2.33h.59l.57,1.12c.16.31.28.55.4.83h.01c.11-.26.25-.53.41-.83l.58-1.12h.59l-1.36,2.32v1.72h-.53Z"/></g></g></svg>