<?xml version="1.0" encoding="UTF-8"?><svg id="_Слой_2" data-name="Слой 2" xmlns="http://www.w3.org/2000/svg" viewBox="0 0 123.49 124.61"><defs><style>
.cls-1 {
fill: none;
stroke: #b8bac0;
stroke-miterlimit: 10;
stroke-width: .5px;
}
.cls-2 {
fill: #b8bac0;
stroke-width: 0px;
}
</style></defs><g id="scheme_w" data-name="scheme w"><rect class="cls-1" x="92.21" y="41.16" width="8.67" height="19.6"/><rect class="cls-1" x="92.21" y="25" width="8.67" height="10.66"/><line class="cls-1" x1="94.55" y1="27.75" x2="98.21" y2="27.75"/><line class="cls-1" x1="94.55" y1="30.5" x2="98.21" y2="30.5"/><line class="cls-1" x1="94.55" y1="33.25" x2="98.21" y2="33.25"/><line class="cls-1" x1="94.55" y1="44.25" x2="98.21" y2="44.25"/><line class="cls-1" x1="94.55" y1="47" x2="98.21" y2="47"/><line class="cls-1" x1="94.55" y1="49.75" x2="98.21" y2="49.75"/><line class="cls-1" x1="94.55" y1="52.5" x2="98.21" y2="52.5"/><line class="cls-1" x1="94.55" y1="55.25" x2="98.21" y2="55.25"/><line class="cls-1" x1="94.55" y1="58.01" x2="98.21" y2="58.01"/><polyline class="cls-1" points="116.21 117.14 116.21 124.36 119.88 124.36 119.88 117.14"/><line class="cls-1" x1="15.89" y1="109.23" x2="15.89" y2="60.07"/><rect class="cls-1" x="15.89" y="98.92" width="16" height="12.72"/><rect class="cls-1" x="15.89" y="82.76" width="16" height="12.72"/><rect class="cls-1" x="15.89" y="66.6" width="16" height="12.72"/><rect class="cls-1" x="36.97" y="7.81" width="4.17" height="6.36"/><rect class="cls-1" x="51.55" y="11.24" width="26" height="25.1"/><ellipse class="cls-1" cx="64.3" cy="23.55" rx="11.28" ry="10.83"/><line class="cls-1" x1="60.97" y1="27.18" x2="67.83" y2="27.18"/><g><path class="cls-2" d="m20.55,72.9h-1.85v1.77h2.06v.53h-2.67v-4.91h2.57v.53h-1.95v1.55h1.85v.52Z"/><path class="cls-2" d="m22.27,70.66v1.01h.89v.49h-.89v1.9c0,.44.12.68.47.68.16,0,.28-.02.36-.04l.03.48c-.12.05-.31.09-.55.09-.29,0-.52-.09-.67-.27-.18-.19-.24-.5-.24-.92v-1.92h-.53v-.49h.53v-.84l.61-.17Z"/><path class="cls-2" d="m23.85,70.03h.62v2.2h.01c.1-.18.25-.34.44-.45.18-.11.4-.18.63-.18.46,0,1.19.29,1.19,1.51v2.1h-.62v-2.02c0-.57-.21-1.05-.79-1.05-.4,0-.72.29-.83.64-.04.09-.04.18-.04.31v2.13h-.62v-5.17Z"/><path class="cls-2" d="m28.92,71.06h-.01l-.8.44-.12-.49,1-.55h.53v4.73h-.6v-4.13Z"/></g><g><path class="cls-2" d="m20.55,89.4h-1.85v1.77h2.06v.53h-2.67v-4.91h2.57v.53h-1.95v1.55h1.85v.52Z"/><path class="cls-2" d="m22.27,87.17v1.01h.89v.49h-.89v1.9c0,.44.12.68.47.68.16,0,.28-.02.36-.04l.03.48c-.12.05-.31.09-.55.09-.29,0-.52-.09-.67-.27-.18-.19-.24-.5-.24-.92v-1.92h-.53v-.49h.53v-.84l.61-.17Z"/><path class="cls-2" d="m23.85,86.53h.62v2.2h.01c.1-.18.25-.34.44-.45.18-.11.4-.18.63-.18.46,0,1.19.29,1.19,1.51v2.1h-.62v-2.02c0-.57-.21-1.05-.79-1.05-.4,0-.72.29-.83.64-.04.09-.04.18-.04.31v2.13h-.62v-5.17Z"/><path class="cls-2" d="m27.57,91.7v-.39l.49-.49c1.17-1.15,1.7-1.76,1.71-2.47,0-.48-.23-.92-.91-.92-.42,0-.76.22-.97.4l-.2-.45c.32-.28.77-.48,1.3-.48.99,0,1.4.7,1.4,1.38,0,.87-.61,1.58-1.58,2.54l-.37.35h0s2.06.01,2.06.01v.53h-2.93Z"/></g><g><path class="cls-2" d="m20.55,105.56h-1.85v1.77h2.06v.53h-2.67v-4.91h2.57v.53h-1.95v1.55h1.85v.52Z"/><path class="cls-2" d="m22.27,103.33v1.01h.89v.49h-.89v1.9c0,.44.12.68.47.68.16,0,.28-.02.36-.04l.03.48c-.12.05-.31.09-.55.09-.29,0-.52-.09-.67-.27-.18-.19-.24-.5-.24-.92v-1.92h-.53v-.49h.53v-.84l.61-.17Z"/><path class="cls-2" d="m23.85,102.69h.62v2.2h.01c.1-.18.25-.34.44-.45.18-.11.4-.18.63-.18.46,0,1.19.29,1.19,1.51v2.1h-.62v-2.02c0-.57-.21-1.05-.79-1.05-.4,0-.72.29-.83.64-.04.09-.04.18-.04.31v2.13h-.62v-5.17Z"/><path class="cls-2" d="m27.72,107.12c.18.12.59.3,1.02.3.8,0,1.04-.52,1.04-.92,0-.66-.58-.95-1.18-.95h-.34v-.48h.34c.45,0,1.02-.24,1.02-.8,0-.38-.23-.71-.8-.71-.37,0-.72.17-.92.31l-.16-.47c.24-.18.71-.36,1.2-.36.9,0,1.31.55,1.31,1.13,0,.49-.28.9-.85,1.11h0c.56.13,1.02.57,1.02,1.23,0,.76-.57,1.42-1.67,1.42-.51,0-.97-.17-1.19-.32l.17-.5Z"/></g><g><path class="cls-2" d="m35.49,4.7c-.18.09-.54.18-1,.18-1.06,0-1.87-.69-1.87-1.97s.8-2.04,1.97-2.04c.47,0,.77.1.9.17l-.12.41c-.18-.09-.45-.16-.76-.16-.88,0-1.47.58-1.47,1.6,0,.95.53,1.56,1.45,1.56.3,0,.6-.06.79-.16l.1.4Z"/><path class="cls-2" d="m38.05,1.09c-.14.05-.39.1-.57.13-.44.07-.76.22-.96.52-.17.25-.27.63-.3.92h.02c.17-.4.55-.63.94-.63.67,0,1.15.49,1.15,1.38s-.46,1.48-1.25,1.48c-.95,0-1.27-.94-1.27-1.87,0-.63.13-1.15.42-1.55.26-.39.64-.57,1.17-.66.22-.03.49-.08.67-.15l-.02.42Zm-.97,1.32c-.29,0-.5.16-.61.38-.09.17-.13.37-.13.59,0,.46.22,1.12.76,1.12s.74-.54.74-1.06c0-.46-.17-1.04-.76-1.04Z"/><path class="cls-2" d="m38.96,2.95c0-.36-.01-.65-.02-.91h.44l.02.48h.01c.2-.34.52-.54.96-.54.66,0,1.15.57,1.15,1.42,0,1-.59,1.5-1.23,1.5-.36,0-.67-.16-.83-.44h-.01v1.52h-.49v-3.02Zm.49.74c0,.08.01.14.02.21.09.35.39.59.74.59.52,0,.82-.44.82-1.08,0-.56-.29-1.04-.81-1.04-.34,0-.65.25-.75.63-.02.06-.03.14-.03.21v.48Z"/><path class="cls-2" d="m44.59,3.41c0,1.03-.69,1.48-1.35,1.48-.73,0-1.3-.55-1.3-1.44,0-.93.59-1.48,1.34-1.48s1.3.58,1.3,1.44Zm-2.15.03c0,.61.34,1.07.82,1.07s.82-.46.82-1.08c0-.47-.23-1.07-.81-1.07s-.83.55-.83,1.08Z"/><path class="cls-2" d="m47.14,4.73c-.13.07-.41.16-.78.16-.82,0-1.35-.57-1.35-1.42s.57-1.48,1.46-1.48c.29,0,.55.07.68.14l-.11.39c-.12-.07-.3-.13-.57-.13-.62,0-.96.47-.96,1.06,0,.65.4,1.04.94,1.04.28,0,.46-.07.6-.14l.08.38Z"/></g><g><path class="cls-2" d="m58.03,23.35c-.18.09-.54.18-1,.18-1.06,0-1.87-.69-1.87-1.97s.8-2.04,1.97-2.04c.47,0,.77.1.9.17l-.12.41c-.18-.09-.45-.16-.76-.16-.88,0-1.47.58-1.47,1.6,0,.95.53,1.56,1.45,1.56.3,0,.6-.06.79-.16l.1.4Z"/><path class="cls-2" d="m58.64,19.64c.25-.05.6-.08.93-.08.52,0,.86.1,1.09.32.19.17.3.44.3.74,0,.51-.31.85-.71.99v.02c.29.1.46.38.55.78.12.54.21.92.29,1.07h-.5c-.06-.11-.15-.44-.25-.93-.11-.54-.31-.74-.76-.76h-.46v1.68h-.49v-3.84Zm.49,1.77h.5c.52,0,.85-.29.85-.74,0-.5-.35-.72-.87-.73-.24,0-.4.02-.48.05v1.42Z"/><path class="cls-2" d="m62.54,20.2h-.01l-.63.35-.1-.39.8-.44h.42v3.75h-.48v-3.28Z"/><path class="cls-2" d="m66.42,20.08c-.1,0-.23,0-.37.02-.77.13-1.18.72-1.27,1.33h.02c.17-.24.48-.43.88-.43.64,0,1.1.48,1.1,1.21,0,.69-.45,1.32-1.21,1.32s-1.29-.62-1.29-1.6c0-.74.26-1.32.62-1.69.3-.31.71-.5,1.17-.55.15-.02.27-.03.36-.03v.42Zm-.14,2.16c0-.54-.3-.86-.75-.86-.3,0-.57.19-.71.46-.03.06-.06.13-.06.23.01.62.29,1.07.8,1.07.43,0,.71-.36.71-.9Z"/><path class="cls-2" d="m67.21,23.48v-.31l.39-.39c.93-.91,1.35-1.4,1.35-1.96,0-.38-.18-.73-.72-.73-.33,0-.61.17-.77.32l-.16-.36c.25-.22.61-.38,1.03-.38.78,0,1.11.55,1.11,1.09,0,.69-.49,1.25-1.25,2.01l-.29.28h0s1.64.01,1.64.01v.42h-2.32Z"/><path class="cls-2" d="m72.5,21.56c0,1.27-.46,1.98-1.27,1.98-.71,0-1.19-.69-1.2-1.93,0-1.26.53-1.95,1.27-1.95s1.2.7,1.2,1.9Zm-1.98.06c0,.98.29,1.53.74,1.53.5,0,.75-.61.75-1.56s-.23-1.53-.74-1.53c-.43,0-.75.54-.75,1.56Z"/></g><g><path class="cls-2" d="m39.64,71.53h-.01l-.66.37-.1-.4.83-.46h.44v3.9h-.49v-3.41Z"/><path class="cls-2" d="m44.03,72.94c0,1.33-.48,2.06-1.31,2.06-.74,0-1.24-.71-1.25-2,0-1.31.55-2.03,1.31-2.03s1.25.73,1.25,1.97Zm-2.05.06c0,1.01.3,1.59.77,1.59.52,0,.77-.63.77-1.62s-.24-1.59-.77-1.59c-.45,0-.77.56-.77,1.62Z"/><path class="cls-2" d="m47.01,72.94c0,1.33-.48,2.06-1.31,2.06-.74,0-1.24-.71-1.25-2,0-1.31.55-2.03,1.31-2.03s1.25.73,1.25,1.97Zm-2.05.06c0,1.01.3,1.59.77,1.59.52,0,.77-.63.77-1.62s-.24-1.59-.77-1.59c-.45,0-.77.56-.77,1.62Z"/><path class="cls-2" d="m50,72.94c0,1.33-.48,2.06-1.31,2.06-.74,0-1.24-.71-1.25-2,0-1.31.55-2.03,1.31-2.03s1.25.73,1.25,1.97Zm-2.05.06c0,1.01.3,1.59.77,1.59.52,0,.77-.63.77-1.62s-.24-1.59-.77-1.59c-.45,0-.77.56-.77,1.62Z"/><path class="cls-2" d="m55.19,73.16c-.03-.56-.06-1.24-.06-1.75h-.02c-.13.47-.3.98-.49,1.54l-.69,1.96h-.38l-.63-1.92c-.19-.57-.34-1.09-.45-1.57h-.01c-.01.5-.04,1.18-.08,1.79l-.11,1.73h-.48l.27-4.04h.65l.67,1.96c.16.5.3.94.4,1.36h.02c.1-.41.24-.85.41-1.36l.7-1.96h.65l.24,4.04h-.49l-.1-1.77Z"/><path class="cls-2" d="m58.68,71.05c-.14.05-.4.1-.59.13-.45.07-.79.23-1,.55-.18.26-.28.65-.31.96h.02c.18-.42.58-.65.98-.65.69,0,1.2.51,1.2,1.43s-.48,1.54-1.3,1.54c-.99,0-1.31-.98-1.31-1.94,0-.66.13-1.2.44-1.61.27-.4.66-.59,1.21-.68.23-.04.51-.08.7-.16l-.02.44Zm-1,1.37c-.3,0-.52.16-.63.4-.09.17-.14.38-.14.62,0,.48.23,1.17.78,1.17s.77-.56.77-1.1c0-.47-.18-1.09-.78-1.09Z"/><path class="cls-2" d="m59.19,75.17l1.62-4.35h.4l-1.63,4.35h-.39Z"/><path class="cls-2" d="m63.62,74.82c-.13.07-.43.17-.81.17-.85,0-1.4-.59-1.4-1.48s.59-1.54,1.51-1.54c.3,0,.57.08.71.15l-.12.41c-.12-.07-.31-.14-.59-.14-.65,0-.99.49-.99,1.1,0,.67.42,1.09.98,1.09.29,0,.48-.08.63-.14l.09.4Z"/></g><g><path class="cls-2" d="m39.07,87.97h-.01l-.66.37-.1-.4.83-.46h.44v3.9h-.49v-3.41Z"/><path class="cls-2" d="m43.46,89.38c0,1.33-.48,2.06-1.31,2.06-.74,0-1.24-.71-1.25-2,0-1.31.55-2.03,1.31-2.03s1.25.73,1.25,1.97Zm-2.05.06c0,1.01.3,1.59.77,1.59.52,0,.77-.63.77-1.62s-.24-1.59-.77-1.59c-.45,0-.77.56-.77,1.62Z"/><path class="cls-2" d="m46.45,89.38c0,1.33-.48,2.06-1.31,2.06-.74,0-1.24-.71-1.25-2,0-1.31.55-2.03,1.31-2.03s1.25.73,1.25,1.97Zm-2.05.06c0,1.01.3,1.59.77,1.59.52,0,.77-.63.77-1.62s-.24-1.59-.77-1.59c-.45,0-.77.56-.77,1.62Z"/><path class="cls-2" d="m51.64,89.6c-.03-.56-.06-1.24-.06-1.75h-.02c-.13.47-.3.98-.49,1.54l-.69,1.96h-.38l-.63-1.92c-.19-.57-.34-1.09-.45-1.57h-.01c-.01.5-.04,1.18-.08,1.79l-.11,1.73h-.48l.27-4.04h.65l.67,1.96c.16.5.3.94.4,1.36h.02c.1-.41.24-.85.41-1.36l.7-1.96h.65l.24,4.04h-.49l-.1-1.77Z"/><path class="cls-2" d="m55.12,87.49c-.14.05-.4.1-.59.13-.45.07-.79.23-1,.55-.18.26-.28.65-.31.96h.02c.18-.42.58-.65.98-.65.69,0,1.2.51,1.2,1.43s-.48,1.54-1.3,1.54c-.99,0-1.31-.98-1.31-1.94,0-.66.13-1.2.44-1.61.27-.4.66-.59,1.21-.68.23-.04.51-.08.7-.16l-.02.44Zm-1,1.37c-.3,0-.52.16-.63.4-.09.17-.14.38-.14.62,0,.48.23,1.17.78,1.17s.77-.56.77-1.1c0-.47-.18-1.09-.78-1.09Z"/><path class="cls-2" d="m55.64,91.61l1.62-4.35h.4l-1.63,4.35h-.39Z"/><path class="cls-2" d="m60.07,91.27c-.13.07-.43.17-.81.17-.85,0-1.4-.59-1.4-1.48s.59-1.54,1.51-1.54c.3,0,.57.08.71.15l-.12.41c-.12-.07-.31-.14-.59-.14-.65,0-.99.49-.99,1.1,0,.67.42,1.09.98,1.09.29,0,.48-.08.63-.14l.09.4Z"/></g><g><path class="cls-2" d="m39.07,104.12h-.01l-.66.37-.1-.4.83-.46h.44v3.9h-.49v-3.41Z"/><path class="cls-2" d="m43.46,105.54c0,1.33-.48,2.06-1.31,2.06-.74,0-1.24-.71-1.25-2,0-1.31.55-2.03,1.31-2.03s1.25.73,1.25,1.97Zm-2.05.06c0,1.01.3,1.59.77,1.59.52,0,.77-.63.77-1.62s-.24-1.59-.77-1.59c-.45,0-.77.56-.77,1.62Z"/><path class="cls-2" d="m46.45,105.54c0,1.33-.48,2.06-1.31,2.06-.74,0-1.24-.71-1.25-2,0-1.31.55-2.03,1.31-2.03s1.25.73,1.25,1.97Zm-2.05.06c0,1.01.3,1.59.77,1.59.52,0,.77-.63.77-1.62s-.24-1.59-.77-1.59c-.45,0-.77.56-.77,1.62Z"/><path class="cls-2" d="m51.64,105.76c-.03-.56-.06-1.24-.06-1.75h-.02c-.13.47-.3.98-.49,1.54l-.69,1.96h-.38l-.63-1.92c-.19-.57-.34-1.09-.45-1.57h-.01c-.01.5-.04,1.18-.08,1.79l-.11,1.73h-.48l.27-4.04h.65l.67,1.96c.16.5.3.94.4,1.36h.02c.1-.41.24-.85.41-1.36l.7-1.96h.65l.24,4.04h-.49l-.1-1.77Z"/><path class="cls-2" d="m55.12,103.65c-.14.05-.4.1-.59.13-.45.07-.79.23-1,.55-.18.26-.28.65-.31.96h.02c.18-.42.58-.65.98-.65.69,0,1.2.51,1.2,1.43s-.48,1.54-1.3,1.54c-.99,0-1.31-.98-1.31-1.94,0-.66.13-1.2.44-1.61.27-.4.66-.59,1.21-.68.23-.04.51-.08.7-.16l-.02.44Zm-1,1.37c-.3,0-.52.16-.63.4-.09.17-.14.38-.14.62,0,.48.23,1.17.78,1.17s.77-.56.77-1.1c0-.47-.18-1.09-.78-1.09Z"/><path class="cls-2" d="m55.64,107.77l1.62-4.35h.4l-1.63,4.35h-.39Z"/><path class="cls-2" d="m60.07,107.42c-.13.07-.43.17-.81.17-.85,0-1.4-.59-1.4-1.48s.59-1.54,1.51-1.54c.3,0,.57.08.71.15l-.12.41c-.12-.07-.31-.14-.59-.14-.65,0-.99.49-.99,1.1,0,.67.42,1.09.98,1.09.29,0,.48-.08.63-.14l.09.4Z"/></g><ellipse class="cls-1" cx="25.22" cy="53.88" rx="4.27" ry="4.36"/><polyline class="cls-1" points="20.95 52.43 11.47 47.59 12.89 45.17 22.85 50.49"/><rect class="cls-1" x="33.22" y="14.17" width="11.67" height="4.98"/><polyline class="cls-1" points="15.89 39.78 15.89 11.24 15.89 11.24 36.89 11.24"/><polyline class="cls-1" points="115.21 11.24 115.21 2.65 115.21 2.65 118.88 2.65 118.88 2.65 118.88 11.24"/><polyline class="cls-1" points="41.31 11.27 123.17 11.27 123.17 47.41 113.53 47.41 113.53 80.22 123.24 80.22 123.24 117.28 123.24 117.31 15.91 117.65 15.9 117.65 15.9 111.64"/><line class="cls-1" x1="15.89" y1="39.78" x2="15.89" y2="46.66"/><polyline class="cls-1" points="21.08 58.06 12.22 61.62 11.35 58.99 19.22 55.94"/><line class="cls-1" x1="15.89" y1="49.75" x2="15.88" y2="57.1"/><line class="cls-1" x1="21.15" y1="55.19" x2="20.13" y2="55.6"/><g><path class="cls-2" d="m1.61,38.72c.25-.05.6-.08.93-.08.52,0,.86.1,1.09.32.19.17.3.44.3.74,0,.51-.31.85-.71.99v.02c.29.1.46.38.55.78.12.54.21.92.29,1.07h-.5c-.06-.11-.15-.44-.25-.93-.11-.54-.31-.74-.76-.76h-.46v1.68h-.49v-3.84Zm.49,1.77h.5c.52,0,.85-.29.85-.74,0-.5-.35-.72-.87-.73-.24,0-.4.02-.48.05v1.42Z"/><path class="cls-2" d="m5.11,38.67v2.3c0,.87.38,1.24.88,1.24.56,0,.92-.38.92-1.24v-2.3h.49v2.27c0,1.19-.61,1.68-1.43,1.68-.77,0-1.36-.46-1.36-1.66v-2.29h.49Z"/><path class="cls-2" d="m8.24,42.56v-3.89h.53l1.21,1.97c.28.46.5.87.68,1.26h.01c-.04-.52-.06-1-.06-1.6v-1.63h.46v3.89h-.49l-1.2-1.97c-.26-.43-.52-.88-.71-1.3h-.02c.03.5.04.96.04,1.61v1.66h-.46Z"/></g><g><path class="cls-2" d="m1.81,68.94c.22.14.54.25.87.25.5,0,.79-.27.79-.66,0-.36-.2-.57-.71-.77-.62-.22-1-.55-1-1.1,0-.61.49-1.06,1.22-1.06.39,0,.67.09.83.19l-.13.41c-.12-.07-.38-.18-.72-.18-.52,0-.71.32-.71.58,0,.36.23.54.75.75.64.25.96.57.96,1.14,0,.6-.43,1.12-1.32,1.12-.36,0-.76-.11-.96-.25l.12-.42Z"/><path class="cls-2" d="m5.36,66.09h-1.15v-.43h2.79v.43h-1.15v3.46h-.49v-3.46Z"/><path class="cls-2" d="m10.49,67.56c0,1.34-.79,2.05-1.75,2.05s-1.7-.8-1.7-1.97c0-1.23.75-2.04,1.75-2.04s1.7.81,1.7,1.97Zm-2.93.06c0,.83.44,1.57,1.2,1.57s1.21-.73,1.21-1.61c0-.77-.39-1.58-1.2-1.58s-1.21.77-1.21,1.62Z"/><path class="cls-2" d="m11.12,65.71c.24-.04.54-.08.93-.08.48,0,.83.12,1.06.32.21.18.33.47.33.81s-.1.63-.29.83c-.26.28-.68.43-1.15.43-.15,0-.28,0-.39-.03v1.56h-.49v-3.84Zm.49,1.87c.11.03.24.04.4.04.59,0,.95-.29.95-.83s-.35-.76-.89-.76c-.21,0-.38.02-.46.04v1.51Z"/></g><line class="cls-1" x1="22.03" y1="57.65" x2="22.7" y2="57.38"/></g></svg>