<?xml version="1.0" encoding="UTF-8"?>
<svg id="_Слой_2" data-name="Слой 2" xmlns="http://www.w3.org/2000/svg" viewBox="0 0 106.64 121.68">
  <defs>
    <style>
      .cls-1 {
        fill: none;
        stroke: #b8bac0;
      }

      .cls-1, .cls-2, .cls-3 {
        stroke-miterlimit: 10;
        stroke-width: .5px;
      }

      .cls-2 {
        fill: #f39200;
      }

      .cls-2, .cls-3 {
        stroke: #1d1d1b;
      }

      .cls-3 {
        fill: #7e7e7d;
      }

      .cls-4 {
        fill: #b8bac0;
      }

      .cls-4, .cls-5 {
        stroke-width: 0px;
      }

      .cls-5 {
        fill: #1d1d1b;
      }
    </style>
  </defs>
  <g id="scheme_w" data-name="scheme w">
    <rect class="cls-1" x="97.88" y="13.54" width="8.5" height="51.02"/>
    <rect class="cls-1" x="89.2" y="13.54" width="8.5" height="8.5"/>
    <path class="cls-4" d="m94.31,18.52l1.27.42v.54l-4.04-1.37v-.63l4.04-1.38v.56l-1.27.43v1.43Zm-.41-1.33l-1.16.4c-.26.09-.5.15-.74.21h0c.24.07.49.14.73.22l1.17.4v-1.22Z"/>
    <rect class="cls-1" x="89.2" y="22.04" width="8.5" height="8.5"/>
    <path class="cls-4" d="m95.27,27.78l-3.28-2.24h-.02v2.05h-.44v-2.73h.32l3.27,2.23h.02v-2.26h.44v2.95h-.31Z"/>
    <rect class="cls-1" x="89.2" y="30.55" width="8.5" height="8.5"/>
    <path class="cls-4" d="m95.76,35.42h-1.71l-2.33,1.28v-.59l1.12-.57c.31-.16.55-.28.83-.4h0c-.26-.13-.53-.26-.83-.42l-1.12-.58v-.59l2.32,1.36h1.72v.53Z"/>
    <rect class="cls-1" x="89.2" y="39.05" width="8.5" height="8.5"/>
    <path class="cls-4" d="m91.59,44.65c-.05-.23-.08-.59-.08-.95,0-.52.09-.86.29-1.11.16-.21.4-.34.71-.34.39,0,.73.26.89.68h.01c.1-.38.41-.83,1.01-.83.35,0,.61.14.81.34.26.28.38.74.38,1.4,0,.36-.02.64-.05.81h-3.98Zm1.66-.52v-.47c0-.55-.29-.88-.68-.88-.47,0-.66.36-.66.89,0,.24.02.38.04.46h1.3Zm1.94,0c.02-.1.02-.25.02-.44,0-.54-.2-1.04-.79-1.04-.55,0-.78.47-.78,1.04v.43h1.54Z"/>
    <rect class="cls-1" x="97.53" y="78.73" width="8.5" height="34.02"/>
    <rect class="cls-1" x="89.2" y="78.73" width="8.5" height="8.5"/>
    <path class="cls-4" d="m91.77,84.52c-.05-.23-.08-.59-.08-.95,0-.52.09-.86.29-1.11.16-.21.4-.34.71-.34.39,0,.73.26.89.68h.01c.1-.38.41-.83,1.01-.83.35,0,.61.14.81.34.26.28.38.74.38,1.4,0,.36-.02.64-.05.81h-3.98Zm1.66-.52v-.47c0-.55-.29-.88-.68-.88-.47,0-.66.36-.66.89,0,.24.02.38.04.46h1.3Zm1.94,0c.02-.1.02-.25.02-.44,0-.54-.2-1.04-.79-1.04-.55,0-.78.47-.78,1.04v.43h1.54Z"/>
    <rect class="cls-1" x="89.2" y="104.25" width="8.5" height="8.5"/>
    <path class="cls-4" d="m94.13,109.41l1.27.42v.54l-4.04-1.37v-.63l4.04-1.38v.56l-1.27.43v1.43Zm-.41-1.33l-1.16.4c-.26.09-.5.15-.74.21h0c.24.07.49.14.73.22l1.17.4v-1.22Z"/>
    <rect class="cls-1" x="89.2" y="87.24" width="8.5" height="17.01"/>
    <g>
      <path class="cls-4" d="m95.58,98.12c.08.23.22.7.22,1.24,0,.61-.16,1.12-.53,1.51-.34.35-.88.56-1.51.56-1.21,0-2.09-.83-2.09-2.19,0-.47.1-.83.19-1.01l.43.13c-.1.22-.17.49-.17.89,0,.98.61,1.62,1.62,1.62s1.63-.62,1.63-1.56c0-.34-.05-.58-.11-.7h-1.21v.82h-.42v-1.33h1.94Z"/>
      <path class="cls-4" d="m95.76,97.32h-4.04v-.57l2.04-1.3c.47-.3.9-.53,1.31-.73h0c-.54.04-1.03.05-1.66.05h-1.69v-.49h4.04v.53l-2.05,1.28c-.45.28-.91.55-1.35.76v.02c.52-.03,1-.04,1.67-.04h1.73v.49Z"/>
      <path class="cls-4" d="m91.77,93.38c-.05-.32-.08-.7-.08-1.11,0-.75.17-1.28.5-1.64.33-.36.8-.57,1.45-.57s1.2.2,1.57.58c.38.38.58,1,.58,1.79,0,.37-.02.68-.05.95h-3.98Zm3.57-.52c.02-.13.03-.32.03-.53,0-1.12-.62-1.72-1.71-1.72-.95,0-1.56.53-1.56,1.64,0,.27.02.47.05.61h3.19Z"/>
    </g>
    <g>
      <path class="cls-4" d="m99.92,102.82c-.05-.26-.08-.64-.08-1,0-.56.1-.92.33-1.17.18-.2.46-.32.77-.32.53,0,.89.34,1.03.76h.02c.11-.31.4-.5.82-.59.56-.13.95-.23,1.11-.31v.54c-.11.07-.46.16-.97.27-.56.12-.77.34-.79.81v.49h1.75v.52h-3.99Zm1.84-.52v-.53c0-.56-.31-.91-.77-.91-.52,0-.75.38-.76.93,0,.25.02.43.05.52h1.48Z"/>
      <path class="cls-4" d="m103.27,99.67c.14-.23.26-.58.26-.94,0-.53-.28-.85-.69-.85-.38,0-.59.22-.8.76-.23.66-.58,1.07-1.15,1.07-.63,0-1.1-.52-1.1-1.31,0-.41.1-.71.2-.89l.43.14c-.07.13-.19.4-.19.77,0,.55.33.76.61.76.38,0,.56-.25.78-.8.26-.68.59-1.03,1.19-1.03.62,0,1.16.46,1.16,1.42,0,.39-.11.82-.26,1.03l-.44-.13Z"/>
      <path class="cls-4" d="m103.91,95.19h-1.06v1.81h-.35l-2.49-1.74v-.57h2.42v-.55h.41v.55h1.06v.5Zm-1.48,0h-1.3c-.2,0-.41,0-.61-.02v.02c.23.12.4.22.58.32l1.33.95h.01v-1.28Z"/>
      <path class="cls-4" d="m102.92,93.79c-.49,0-.84-.29-1.04-.77h-.02c-.2.44-.54.62-.88.62-.62,0-1.04-.52-1.04-1.21,0-.76.47-1.13.96-1.13.33,0,.68.16.91.64h.02c.19-.49.53-.79,1.01-.79.68,0,1.13.58,1.13,1.33,0,.82-.49,1.31-1.06,1.31Zm-1.97-.65c.39,0,.6-.29.72-.74-.11-.34-.35-.59-.71-.59-.31,0-.64.19-.64.66,0,.44.29.68.62.68Zm1.95-1.45c-.47,0-.7.33-.85.86.13.46.43.7.8.7.4.02.74-.28.74-.78s-.29-.78-.7-.78Z"/>
      <path class="cls-4" d="m100.45,88.34v1.49l1,.15c-.01-.09-.02-.17-.02-.32,0-.3.07-.6.21-.84.17-.31.51-.56,1-.56.76,0,1.33.61,1.33,1.45,0,.43-.12.79-.24.97l-.4-.13c.1-.16.22-.48.22-.83,0-.5-.32-.92-.85-.92-.5,0-.86.34-.86,1.12,0,.22.02.4.04.54l-1.87-.25v-1.87h.44Z"/>
    </g>
    <g>
      <path class="cls-4" d="m100.45,46.31c-.05-.26-.08-.64-.08-1,0-.56.1-.92.33-1.17.18-.2.46-.32.77-.32.53,0,.89.34,1.03.76h.02c.11-.31.4-.5.82-.59.56-.13.95-.23,1.11-.31v.54c-.11.07-.46.16-.97.27-.56.12-.77.34-.79.81v.49h1.75v.52h-3.99Zm1.84-.52v-.53c0-.56-.31-.91-.77-.91-.52,0-.75.38-.76.93,0,.25.02.43.05.52h1.48Z"/>
      <path class="cls-4" d="m103.8,43.15c.14-.23.26-.58.26-.94,0-.53-.28-.85-.69-.85-.38,0-.59.22-.8.76-.23.66-.58,1.07-1.15,1.07-.63,0-1.1-.52-1.1-1.31,0-.41.1-.71.2-.89l.43.14c-.07.13-.19.4-.19.77,0,.55.33.76.61.76.38,0,.56-.25.78-.8.26-.68.59-1.03,1.19-1.03.62,0,1.16.46,1.16,1.42,0,.39-.11.82-.26,1.03l-.44-.13Z"/>
      <path class="cls-4" d="m104.44,38.68h-1.06v1.81h-.35l-2.49-1.74v-.57h2.42v-.55h.41v.55h1.06v.5Zm-1.48,0h-1.3c-.2,0-.41,0-.61-.02v.02c.23.12.4.22.58.32l1.33.95h.01v-1.28Z"/>
      <path class="cls-4" d="m104.44,37.23h-.32l-.4-.41c-.95-1-1.45-1.45-2.04-1.45-.4,0-.76.19-.76.77,0,.35.18.65.33.83l-.37.17c-.23-.27-.4-.65-.4-1.1,0-.84.58-1.19,1.13-1.19.72,0,1.3.52,2.09,1.34l.29.31h.01v-1.75h.44v2.49Z"/>
      <path class="cls-4" d="m104.44,34.15h-.32l-.4-.41c-.95-1-1.45-1.45-2.04-1.45-.4,0-.76.19-.76.77,0,.35.18.65.33.83l-.37.17c-.23-.27-.4-.65-.4-1.1,0-.84.58-1.19,1.13-1.19.72,0,1.3.52,2.09,1.34l.29.31h.01v-1.75h.44v2.49Z"/>
    </g>
    <rect class="cls-1" x="89.2" y="47.55" width="8.5" height="17.01"/>
    <g>
      <path class="cls-4" d="m95.58,58.44c.08.23.22.7.22,1.24,0,.61-.16,1.12-.53,1.51-.34.35-.88.56-1.51.56-1.21,0-2.09-.83-2.09-2.19,0-.47.1-.83.19-1.01l.43.13c-.1.22-.17.49-.17.89,0,.98.61,1.62,1.62,1.62s1.63-.62,1.63-1.56c0-.34-.05-.58-.11-.7h-1.21v.82h-.42v-1.33h1.94Z"/>
      <path class="cls-4" d="m95.76,57.64h-4.04v-.57l2.04-1.3c.47-.3.9-.53,1.31-.73h0c-.54.04-1.03.05-1.66.05h-1.69v-.49h4.04v.53l-2.05,1.28c-.45.28-.91.55-1.35.76v.02c.52-.03,1-.04,1.67-.04h1.73v.49Z"/>
      <path class="cls-4" d="m91.77,53.69c-.05-.32-.08-.7-.08-1.11,0-.75.17-1.28.5-1.64.33-.36.8-.57,1.45-.57s1.2.2,1.57.58c.38.38.58,1,.58,1.79,0,.37-.02.68-.05.95h-3.98Zm3.57-.52c.02-.13.03-.32.03-.53,0-1.12-.62-1.72-1.71-1.72-.95,0-1.56.53-1.56,1.64,0,.27.02.47.05.61h3.19Z"/>
    </g>
    <polyline class="cls-1" points="11.25 29.87 .25 29.87 .26 .25 86.37 .25 86.37 18.14 89.2 18.14"/>
    <polyline class="cls-1" points="10.19 19.21 4.16 19.21 4.16 7.16 82.62 7.32 82.62 26.28 89.2 26.29"/>
    <polyline class="cls-1" points="70.07 18.68 79.46 18.68 79.46 34.97 89.2 34.97"/>
    <polyline class="cls-1" points="70.07 30.55 76.45 30.55 76.45 43.48 89.2 43.48"/>
    <polyline class="cls-1" points="70.07 41.18 73.26 41.18 73.26 56.23 89.4 56.31"/>
    <polyline class="cls-1" points="7.96 98.75 3.28 98.75 3.28 121.43 83.17 121.43 83.18 108.32 89.2 108.32"/>
    <polyline class="cls-1" points="69.89 109.03 78.39 109.03 78.39 95.39 89.2 95.39"/>
    <polyline class="cls-1" points="69.54 98.05 73.43 98.05 73.43 83.16 89.2 83.16"/>
  </g>
  <g id="scheme">
    <rect class="cls-3" x="16.21" y="13.18" width="22.68" height="11.34"/>
    <rect class="cls-3" x="38.89" y="13.18" width="22.68" height="11.34"/>
    <rect class="cls-2" x="7.71" y="13.18" width="8.5" height="11.34"/>
    <rect class="cls-2" x="61.56" y="13.18" width="8.5" height="11.34"/>
    <rect class="cls-3" x="16.21" y="24.52" width="22.68" height="11.34"/>
    <rect class="cls-3" x="38.89" y="24.52" width="22.68" height="11.34"/>
    <rect class="cls-2" x="7.71" y="24.52" width="8.5" height="11.34"/>
    <rect class="cls-2" x="61.56" y="24.52" width="8.5" height="11.34"/>
    <rect class="cls-3" x="16.21" y="35.68" width="22.68" height="11.34"/>
    <rect class="cls-3" x="38.89" y="35.68" width="22.68" height="11.34"/>
    <rect class="cls-2" x="7.71" y="35.68" width="8.5" height="11.34"/>
    <rect class="cls-2" x="61.56" y="35.68" width="8.5" height="11.34"/>
    <rect class="cls-3" x="16.21" y="47.02" width="22.68" height="11.34"/>
    <rect class="cls-3" x="38.89" y="47.02" width="22.68" height="11.34"/>
    <rect class="cls-2" x="7.71" y="47.02" width="8.5" height="11.34"/>
    <rect class="cls-2" x="61.56" y="47.02" width="8.5" height="11.34"/>
    <rect class="cls-3" x="16.21" y="58.18" width="22.68" height="11.34"/>
    <rect class="cls-3" x="38.89" y="58.18" width="22.68" height="11.34"/>
    <rect class="cls-2" x="7.71" y="58.18" width="8.5" height="11.34"/>
    <rect class="cls-2" x="61.56" y="58.18" width="8.5" height="11.34"/>
    <rect class="cls-3" x="16.21" y="69.52" width="22.68" height="11.34"/>
    <rect class="cls-3" x="38.89" y="69.52" width="22.68" height="11.34"/>
    <rect class="cls-2" x="7.71" y="69.52" width="8.5" height="11.34"/>
    <rect class="cls-2" x="61.56" y="69.52" width="8.5" height="11.34"/>
    <rect class="cls-3" x="16.21" y="80.86" width="22.68" height="11.34"/>
    <rect class="cls-3" x="38.89" y="80.86" width="22.68" height="11.34"/>
    <rect class="cls-2" x="7.71" y="80.86" width="8.5" height="11.34"/>
    <rect class="cls-2" x="61.56" y="80.86" width="8.5" height="11.34"/>
    <rect class="cls-3" x="16.21" y="92.2" width="22.68" height="11.34"/>
    <rect class="cls-3" x="38.89" y="92.2" width="22.68" height="11.34"/>
    <rect class="cls-2" x="7.71" y="92.2" width="8.5" height="11.34"/>
    <rect class="cls-2" x="61.56" y="92.2" width="8.5" height="11.34"/>
    <rect class="cls-3" x="16.21" y="103.54" width="22.68" height="11.34"/>
    <rect class="cls-3" x="38.89" y="103.54" width="22.68" height="11.34"/>
    <rect class="cls-2" x="7.71" y="103.54" width="8.5" height="11.34"/>
    <rect class="cls-2" x="61.56" y="103.54" width="8.5" height="11.34"/>
  </g>
  <g id="scheme_letters" data-name="scheme letters">
    <g>
      <path class="cls-5" d="m20.88,17.06c.22-.05.54-.08.85-.08.47,0,.78.1.99.33.17.18.27.46.27.77,0,.53-.28.89-.65,1.03v.02c.26.11.42.4.5.82.11.56.19.95.26,1.11h-.46c-.06-.11-.13-.46-.23-.97-.1-.56-.28-.77-.69-.79h-.42v1.75h-.44v-3.99Zm.44,1.84h.45c.47,0,.77-.31.77-.77,0-.52-.32-.75-.79-.76-.21,0-.37.02-.44.05v1.48Z"/>
      <path class="cls-5" d="m25.52,21.05l-.44-.89c-.18-.34-.29-.56-.4-.8h-.01c-.1.23-.19.45-.37.8l-.41.89h-.51l1.05-2.04-1.01-2h.51l.45.95c.13.26.22.47.31.68h.02c.1-.24.18-.43.31-.68l.47-.95h.51l-1.04,1.97,1.07,2.07h-.51Z"/>
      <path class="cls-5" d="m27.5,16.89c-.37.59-.64,1.37-.64,2.45s.28,1.83.64,2.43h-.35c-.32-.5-.67-1.27-.67-2.43,0-1.18.35-1.95.67-2.45h.35Z"/>
      <path class="cls-5" d="m28.49,19.78l-.36,1.27h-.46l1.16-4.04h.53l1.17,4.04h-.47l-.37-1.27h-1.21Zm1.12-.41l-.34-1.16c-.08-.26-.13-.5-.18-.74h-.01c-.05.24-.11.49-.17.73l-.34,1.17h1.03Z"/>
      <path class="cls-5" d="m30.72,21.77c.36-.59.64-1.37.64-2.45s-.27-1.84-.64-2.43h.35c.33.49.67,1.26.67,2.44s-.34,1.94-.67,2.45h-.35Z"/>
      <path class="cls-5" d="m33.74,17.86v1.41h1.15v.36h-1.15v1.42h-.33v-1.42h-1.15v-.36h1.15v-1.41h.33Z"/>
    </g>
    <path class="cls-5" d="m11.66,17.57h-.01l-.68.37-.1-.4.85-.46h.45v3.9h-.51v-3.41Z"/>
    <path class="cls-5" d="m64.62,20.98v-.32l.41-.4c1-.95,1.45-1.45,1.45-2.04,0-.4-.19-.76-.77-.76-.35,0-.65.18-.83.33l-.17-.37c.27-.23.65-.4,1.1-.4.84,0,1.19.58,1.19,1.13,0,.72-.52,1.3-1.34,2.09l-.31.29h0s1.75.01,1.75.01v.44h-2.49Z"/>
    <g>
      <path class="cls-5" d="m43.44,16.99c.26-.05.64-.08,1-.08.56,0,.92.1,1.17.33.2.18.32.46.32.77,0,.53-.34.89-.76,1.03v.02c.31.11.5.4.59.82.13.56.23.95.31,1.11h-.54c-.07-.11-.16-.46-.27-.97-.12-.56-.34-.77-.81-.79h-.49v1.75h-.52v-3.99Zm.52,1.84h.53c.56,0,.91-.31.91-.77,0-.52-.38-.75-.93-.76-.25,0-.43.02-.52.05v1.48Z"/>
      <path class="cls-5" d="m48.91,20.98l-.52-.89c-.21-.34-.34-.56-.47-.8h-.01c-.11.23-.23.45-.44.8l-.49.89h-.6l1.24-2.04-1.19-2h.61l.53.95c.15.26.26.47.37.68h.02c.11-.24.22-.43.37-.68l.55-.95h.6l-1.23,1.97,1.26,2.07h-.61Z"/>
      <path class="cls-5" d="m51.25,16.82c-.44.59-.76,1.37-.76,2.45s.33,1.83.76,2.43h-.41c-.38-.5-.79-1.27-.79-2.43,0-1.18.41-1.95.79-2.45h.41Z"/>
      <path class="cls-5" d="m51.83,16.99c.23-.05.59-.08.95-.08.52,0,.86.09,1.11.29.21.16.34.4.34.71,0,.39-.26.73-.68.89h0c.38.11.83.43.83,1.03,0,.35-.14.61-.34.81-.28.26-.74.38-1.4.38-.36,0-.64-.02-.81-.05v-3.98Zm.52,1.66h.47c.55,0,.88-.29.88-.68,0-.47-.36-.66-.89-.66-.24,0-.38.02-.46.04v1.3Zm0,1.94c.1.02.25.02.44.02.54,0,1.04-.2,1.04-.79,0-.55-.47-.78-1.04-.78h-.43v1.54Z"/>
      <path class="cls-5" d="m54.75,21.7c.43-.59.76-1.37.76-2.45s-.32-1.84-.76-2.43h.41c.38.49.79,1.26.79,2.44s-.4,1.94-.79,2.45h-.41Z"/>
      <path class="cls-5" d="m57.99,19.16v.39h-1.48v-.39h1.48Z"/>
    </g>
    <g>
      <path class="cls-5" d="m21.47,28.86h-1.23v-.44h2.99v.44h-1.24v3.6h-.53v-3.6Z"/>
      <path class="cls-5" d="m26.02,32.46l-.52-.89c-.21-.34-.34-.56-.47-.8h-.01c-.11.23-.23.45-.44.8l-.49.89h-.6l1.24-2.04-1.19-2h.61l.53.95c.15.26.26.47.37.68h.02c.11-.24.22-.43.37-.68l.55-.95h.6l-1.23,1.97,1.26,2.07h-.61Z"/>
      <path class="cls-5" d="m28.37,28.3c-.44.59-.76,1.37-.76,2.45s.33,1.83.76,2.43h-.41c-.38-.5-.79-1.27-.79-2.43,0-1.18.41-1.95.79-2.45h.41Z"/>
      <path class="cls-5" d="m28.67,32.15l2.24-3.28v-.02h-2.05v-.44h2.73v.32l-2.23,3.27v.02h2.26v.44h-2.95v-.31Z"/>
      <path class="cls-5" d="m31.92,33.18c.43-.59.76-1.37.76-2.45s-.32-1.84-.76-2.43h.41c.38.49.79,1.26.79,2.44s-.4,1.94-.79,2.45h-.41Z"/>
      <path class="cls-5" d="m35.17,30.64v.39h-1.48v-.39h1.48Z"/>
    </g>
    <path class="cls-5" d="m10.65,31.71c.12.1.41.25.71.25.56,0,.73-.43.73-.76,0-.55-.41-.78-.83-.78h-.24v-.4h.24c.32,0,.72-.2.72-.66,0-.31-.16-.59-.57-.59-.26,0-.51.14-.64.26l-.11-.38c.17-.15.5-.3.84-.3.63,0,.92.46.92.93,0,.4-.2.74-.6.92h0c.4.11.72.47.72,1.01,0,.62-.4,1.17-1.18,1.17-.36,0-.68-.14-.84-.26l.12-.41Z"/>
    <path class="cls-5" d="m66.25,32.32v-1.06h-1.81v-.35l1.74-2.49h.57v2.42h.55v.41h-.55v1.06h-.5Zm0-1.48v-1.3c0-.2,0-.41.02-.61h-.02c-.12.23-.22.4-.32.58l-.95,1.33h0s1.28.01,1.28.01Z"/>
    <g>
      <path class="cls-5" d="m43.13,28.72h-1.23v-.44h2.99v.44h-1.24v3.6h-.53v-3.6Z"/>
      <path class="cls-5" d="m47.69,32.32l-.52-.89c-.21-.34-.34-.56-.47-.8h-.01c-.11.23-.23.45-.44.8l-.49.89h-.6l1.24-2.04-1.19-2h.61l.53.95c.15.26.26.47.37.68h.02c.11-.24.22-.43.37-.68l.55-.95h.6l-1.23,1.97,1.26,2.07h-.61Z"/>
      <path class="cls-5" d="m50.03,28.16c-.44.59-.76,1.37-.76,2.45s.33,1.83.76,2.43h-.41c-.38-.5-.79-1.27-.79-2.43,0-1.18.41-1.95.79-2.45h.41Z"/>
      <path class="cls-5" d="m51.75,32.32v-1.71l-1.28-2.33h.59l.57,1.12c.16.31.28.55.4.83h.01c.11-.26.25-.53.41-.83l.58-1.12h.59l-1.36,2.32v1.72h-.53Z"/>
      <path class="cls-5" d="m54.1,33.04c.43-.59.76-1.37.76-2.45s-.32-1.84-.76-2.43h.41c.38.49.79,1.26.79,2.44s-.4,1.94-.79,2.45h-.41Z"/>
      <path class="cls-5" d="m57.66,29.13v1.41h1.35v.36h-1.35v1.42h-.38v-1.42h-1.36v-.36h1.36v-1.41h.38Z"/>
    </g>
    <g>
      <path class="cls-5" d="m25.42,43.44c-.23.08-.7.22-1.24.22-.61,0-1.12-.16-1.51-.53-.35-.34-.56-.88-.56-1.51,0-1.21.83-2.09,2.19-2.09.47,0,.83.1,1.01.19l-.13.43c-.22-.1-.49-.17-.89-.17-.98,0-1.62.61-1.62,1.62s.62,1.63,1.56,1.63c.34,0,.58-.05.7-.11v-1.21h-.82v-.42h1.33v1.94Z"/>
      <path class="cls-5" d="m26.22,43.62v-4.04h.57l1.3,2.04c.3.47.53.9.73,1.31h.01c-.05-.55-.06-1.04-.06-1.67v-1.69h.49v4.04h-.53l-1.28-2.05c-.28-.45-.55-.91-.76-1.35h-.02c.03.52.04,1,.04,1.67v1.73h-.49Z"/>
      <path class="cls-5" d="m30.17,39.63c.32-.05.7-.08,1.11-.08.75,0,1.28.17,1.64.5.36.33.57.8.57,1.45s-.2,1.2-.58,1.57c-.38.38-1,.58-1.79.58-.37,0-.68-.02-.95-.05v-3.98Zm.52,3.57c.13.02.32.03.53.03,1.12,0,1.72-.62,1.72-1.71,0-.95-.53-1.56-1.64-1.56-.27,0-.47.02-.61.05v3.19Z"/>
    </g>
    <path class="cls-5" d="m12.84,40.02h-1.49l-.15,1c.09-.01.17-.02.32-.02.3,0,.6.07.84.21.31.17.56.51.56,1,0,.76-.61,1.33-1.45,1.33-.43,0-.79-.12-.97-.24l.13-.4c.16.1.48.22.83.22.5,0,.92-.32.92-.85,0-.5-.34-.86-1.12-.86-.22,0-.4.02-.54.04l.25-1.87h1.87v.44Z"/>
    <path class="cls-5" d="m66.84,39.95c-.11,0-.25,0-.4.02-.83.14-1.27.74-1.35,1.39h.02c.19-.25.51-.45.94-.45.69,0,1.18.5,1.18,1.26,0,.71-.49,1.37-1.3,1.37s-1.38-.65-1.38-1.66c0-.77.28-1.37.66-1.76.32-.32.76-.52,1.25-.58.16-.02.29-.03.38-.03v.43Zm-.15,2.25c0-.56-.32-.89-.8-.89-.32,0-.61.2-.76.48-.04.06-.06.14-.06.23.01.64.31,1.12.86,1.12.46,0,.76-.38.76-.94Z"/>
    <g>
      <path class="cls-5" d="m48.2,43.3c-.23.08-.7.22-1.24.22-.61,0-1.12-.16-1.51-.53-.35-.34-.56-.88-.56-1.51,0-1.21.83-2.09,2.19-2.09.47,0,.83.1,1.01.19l-.13.43c-.22-.1-.49-.17-.89-.17-.98,0-1.62.61-1.62,1.62s.62,1.63,1.56,1.63c.34,0,.58-.05.7-.11v-1.21h-.82v-.42h1.33v1.94Z"/>
      <path class="cls-5" d="m49,43.48v-4.04h.57l1.3,2.04c.3.47.53.9.73,1.31h.01c-.05-.55-.06-1.04-.06-1.67v-1.69h.49v4.04h-.53l-1.28-2.05c-.28-.45-.55-.91-.76-1.35h-.02c.03.52.04,1,.04,1.67v1.73h-.49Z"/>
      <path class="cls-5" d="m52.95,39.49c.32-.05.7-.08,1.11-.08.75,0,1.28.17,1.64.5.36.33.57.8.57,1.45s-.2,1.2-.58,1.57c-.38.38-1,.58-1.79.58-.37,0-.68-.02-.95-.05v-3.98Zm.52,3.57c.13.02.32.03.53.03,1.12,0,1.72-.62,1.72-1.71,0-.95-.53-1.56-1.64-1.56-.27,0-.47.02-.61.05v3.19Z"/>
    </g>
    <path class="cls-5" d="m28.54,53.14v.39h-1.48v-.39h1.48Z"/>
    <path class="cls-5" d="m13.04,50.92v.35l-1.7,3.55h-.55l1.69-3.45h0s-1.91-.01-1.91-.01v-.44h2.46Z"/>
    <path class="cls-5" d="m64.57,53.83c0-.49.29-.84.77-1.04v-.02c-.44-.2-.62-.54-.62-.88,0-.62.52-1.04,1.21-1.04.76,0,1.13.47,1.13.96,0,.33-.16.68-.64.91v.02c.49.19.79.53.79,1.01,0,.68-.58,1.13-1.33,1.13-.82,0-1.31-.49-1.31-1.06Zm2.1-.02c0-.47-.33-.7-.86-.85-.46.13-.7.43-.7.8-.02.4.28.74.78.74s.78-.29.78-.7Zm-1.45-1.95c0,.39.29.6.74.72.34-.11.59-.35.59-.71,0-.31-.19-.64-.66-.64-.44,0-.68.29-.68.62Z"/>
    <path class="cls-5" d="m51.32,53v.39h-1.48v-.39h1.48Z"/>
    <path class="cls-5" d="m28.54,64.3v.39h-1.48v-.39h1.48Z"/>
    <path class="cls-5" d="m10.82,65.61c.11.01.25,0,.43-.02.31-.04.59-.17.82-.38.26-.23.44-.58.52-1.04h-.02c-.22.26-.53.42-.92.42-.7,0-1.15-.53-1.15-1.19,0-.74.53-1.39,1.33-1.39s1.29.65,1.29,1.64c0,.86-.29,1.46-.67,1.83-.3.29-.71.47-1.13.52-.19.03-.36.04-.49.03v-.43Zm.19-2.24c0,.49.29.83.75.83.35,0,.63-.17.77-.41.03-.05.05-.11.05-.19,0-.67-.25-1.18-.8-1.18-.45,0-.77.4-.77.95Z"/>
    <g>
      <path class="cls-5" d="m64.23,62.57h-.01l-.68.37-.1-.4.85-.46h.45v3.9h-.51v-3.41Z"/>
      <path class="cls-5" d="m68.75,63.99c0,1.33-.49,2.06-1.35,2.06-.76,0-1.28-.71-1.29-2,0-1.31.56-2.03,1.36-2.03s1.29.73,1.29,1.97Zm-2.12.06c0,1.01.31,1.59.79,1.59.54,0,.8-.63.8-1.62s-.25-1.59-.79-1.59c-.46,0-.8.56-.8,1.62Z"/>
    </g>
    <path class="cls-5" d="m51.32,64.16v.39h-1.48v-.39h1.48Z"/>
    <path class="cls-5" d="m28.54,75.64v.39h-1.48v-.39h1.48Z"/>
    <g>
      <path class="cls-5" d="m10.12,73.91h-.01l-.68.37-.1-.4.85-.46h.45v3.9h-.51v-3.41Z"/>
      <path class="cls-5" d="m13.2,73.91h-.01l-.68.37-.1-.4.85-.46h.45v3.9h-.51v-3.41Z"/>
    </g>
    <g>
      <path class="cls-5" d="m64.23,73.91h-.01l-.68.37-.1-.4.85-.46h.45v3.9h-.51v-3.41Z"/>
      <path class="cls-5" d="m66.16,77.32v-.32l.41-.4c1-.95,1.45-1.45,1.45-2.04,0-.4-.19-.76-.77-.76-.35,0-.65.18-.83.33l-.17-.37c.27-.23.65-.4,1.1-.4.84,0,1.19.58,1.19,1.13,0,.72-.52,1.3-1.34,2.09l-.31.29h0s1.75.01,1.75.01v.44h-2.49Z"/>
    </g>
    <path class="cls-5" d="m51.32,75.5v.39h-1.48v-.39h1.48Z"/>
    <path class="cls-5" d="m28.54,86.98v.39h-1.48v-.39h1.48Z"/>
    <g>
      <path class="cls-5" d="m10.12,85.25h-.01l-.68.37-.1-.4.85-.46h.45v3.9h-.51v-3.41Z"/>
      <path class="cls-5" d="m12.18,88.05c.15.1.5.25.86.25.68,0,.89-.43.88-.76,0-.55-.5-.78-1.01-.78h-.29v-.4h.29c.38,0,.87-.2.87-.66,0-.31-.2-.59-.68-.59-.31,0-.61.14-.78.26l-.14-.38c.2-.15.6-.3,1.02-.3.77,0,1.12.46,1.12.93,0,.4-.24.74-.72.92h0c.48.11.87.47.87,1.01,0,.62-.49,1.17-1.42,1.17-.44,0-.82-.14-1.01-.26l.14-.41Z"/>
    </g>
    <g>
      <path class="cls-5" d="m64.23,85.25h-.01l-.68.37-.1-.4.85-.46h.45v3.9h-.51v-3.41Z"/>
      <path class="cls-5" d="m67.79,88.66v-1.06h-1.81v-.35l1.74-2.49h.57v2.42h.55v.41h-.55v1.06h-.5Zm0-1.48v-1.3c0-.2,0-.41.02-.61h-.02c-.12.23-.22.4-.32.58l-.95,1.33h0s1.28.01,1.28.01Z"/>
    </g>
    <path class="cls-5" d="m51.32,86.84v.39h-1.48v-.39h1.48Z"/>
    <g>
      <path class="cls-5" d="m19.81,100.14v-1.06h-1.81v-.35l1.74-2.49h.57v2.42h.55v.41h-.55v1.06h-.5Zm0-1.48v-1.3c0-.2,0-.41.02-.61h-.02c-.12.23-.22.4-.32.58l-.95,1.33h0s1.28.01,1.28.01Z"/>
      <path class="cls-5" d="m21.21,99.15c0-.49.29-.84.77-1.04v-.02c-.44-.2-.62-.54-.62-.88,0-.62.52-1.04,1.21-1.04.76,0,1.13.47,1.13.96,0,.33-.16.68-.64.91v.02c.49.19.79.53.79,1.01,0,.68-.58,1.13-1.33,1.13-.82,0-1.31-.49-1.31-1.06Zm2.1-.02c0-.47-.33-.7-.86-.85-.46.13-.7.43-.7.8-.02.4.28.74.78.74s.78-.29.78-.7Zm-1.45-1.95c0,.39.29.6.74.72.34-.11.59-.35.59-.71,0-.31-.19-.64-.66-.64-.44,0-.68.29-.68.62Z"/>
      <path class="cls-5" d="m26.66,96.68h-1.49l-.15,1c.09-.01.17-.02.32-.02.3,0,.6.07.84.21.31.17.56.51.56,1,0,.76-.61,1.33-1.45,1.33-.43,0-.79-.12-.97-.24l.13-.4c.16.1.48.22.83.22.5,0,.92-.32.92-.85,0-.5-.34-.86-1.12-.86-.22,0-.4.02-.54.04l.25-1.87h1.87v.44Z"/>
      <path class="cls-5" d="m28.73,95.97c-.44.59-.76,1.37-.76,2.45s.33,1.83.76,2.43h-.41c-.38-.5-.79-1.27-.79-2.43,0-1.18.41-1.95.79-2.45h.41Z"/>
      <path class="cls-5" d="m29.89,98.86l-.42,1.27h-.54l1.37-4.04h.63l1.38,4.04h-.56l-.43-1.27h-1.43Zm1.33-.41l-.4-1.16c-.09-.26-.15-.5-.21-.74h-.01c-.06.24-.13.49-.2.73l-.4,1.17h1.22Z"/>
      <path class="cls-5" d="m32.52,100.86c.43-.59.76-1.37.76-2.45s-.32-1.84-.76-2.43h.41c.38.49.79,1.26.79,2.44s-.4,1.94-.79,2.45h-.41Z"/>
      <path class="cls-5" d="m36.08,96.95v1.41h1.35v.36h-1.35v1.42h-.38v-1.42h-1.36v-.36h1.36v-1.41h.38Z"/>
    </g>
    <g>
      <path class="cls-5" d="m10.12,96.59h-.01l-.68.37-.1-.4.85-.46h.45v3.9h-.51v-3.41Z"/>
      <path class="cls-5" d="m14.38,96.54h-1.49l-.15,1c.09-.01.17-.02.32-.02.3,0,.6.07.84.21.31.17.56.51.56,1,0,.76-.61,1.33-1.45,1.33-.43,0-.79-.12-.97-.24l.13-.4c.16.1.48.22.83.22.5,0,.92-.32.92-.85,0-.5-.34-.86-1.12-.86-.22,0-.4.02-.54.04l.25-1.87h1.87v.44Z"/>
    </g>
    <g>
      <path class="cls-5" d="m64.23,96.59h-.01l-.68.37-.1-.4.85-.46h.45v3.9h-.51v-3.41Z"/>
      <path class="cls-5" d="m68.38,96.47c-.11,0-.25,0-.4.02-.83.14-1.27.74-1.35,1.39h.02c.19-.25.51-.45.94-.45.69,0,1.18.5,1.18,1.26,0,.71-.49,1.37-1.3,1.37s-1.38-.65-1.38-1.66c0-.77.28-1.37.66-1.76.32-.32.76-.52,1.25-.58.16-.02.29-.03.38-.03v.43Zm-.15,2.25c0-.56-.32-.89-.8-.89-.32,0-.61.2-.76.48-.04.06-.06.14-.06.23.01.64.31,1.12.86,1.12.46,0,.76-.38.76-.94Z"/>
    </g>
    <g>
      <path class="cls-5" d="m43.61,99.99v-1.06h-1.81v-.35l1.74-2.49h.57v2.42h.55v.41h-.55v1.06h-.5Zm0-1.48v-1.3c0-.2,0-.41.02-.61h-.02c-.12.23-.22.4-.32.58l-.95,1.33h0s1.28.01,1.28.01Z"/>
      <path class="cls-5" d="m45.01,99c0-.49.29-.84.77-1.04v-.02c-.44-.2-.62-.54-.62-.88,0-.62.52-1.04,1.21-1.04.76,0,1.13.47,1.13.96,0,.33-.16.68-.64.91v.02c.49.19.79.53.79,1.01,0,.68-.58,1.13-1.33,1.13-.82,0-1.31-.49-1.31-1.06Zm2.1-.02c0-.47-.33-.7-.86-.85-.46.13-.7.43-.7.8-.02.4.28.74.78.74s.78-.29.78-.7Zm-1.45-1.95c0,.39.29.6.74.72.34-.11.59-.35.59-.71,0-.31-.19-.64-.66-.64-.44,0-.68.29-.68.62Z"/>
      <path class="cls-5" d="m50.46,96.54h-1.49l-.15,1c.09-.01.17-.02.32-.02.3,0,.6.07.84.21.31.17.56.51.56,1,0,.76-.61,1.33-1.45,1.33-.43,0-.79-.12-.97-.24l.13-.4c.16.1.48.22.83.22.5,0,.92-.32.92-.85,0-.5-.34-.86-1.12-.86-.22,0-.4.02-.54.04l.25-1.87h1.87v.44Z"/>
      <path class="cls-5" d="m52.53,95.83c-.44.59-.76,1.37-.76,2.45s.33,1.83.76,2.43h-.41c-.38-.5-.79-1.27-.79-2.43,0-1.18.41-1.95.79-2.45h.41Z"/>
      <path class="cls-5" d="m53.1,96.01c.23-.05.59-.08.95-.08.52,0,.86.09,1.11.29.21.16.34.4.34.71,0,.39-.26.73-.68.89h0c.38.11.83.43.83,1.03,0,.35-.14.61-.34.81-.28.26-.74.38-1.4.38-.36,0-.64-.02-.81-.05v-3.98Zm.52,1.66h.47c.55,0,.88-.29.88-.68,0-.47-.36-.66-.89-.66-.24,0-.38.02-.46.04v1.3Zm0,1.94c.1.02.25.02.44.02.54,0,1.04-.2,1.04-.79,0-.55-.47-.78-1.04-.78h-.43v1.54Z"/>
      <path class="cls-5" d="m56.02,100.72c.43-.59.76-1.37.76-2.45s-.32-1.84-.76-2.43h.41c.38.49.79,1.26.79,2.44s-.4,1.94-.79,2.45h-.41Z"/>
      <path class="cls-5" d="m59.27,98.18v.39h-1.48v-.39h1.48Z"/>
    </g>
    <g>
      <path class="cls-5" d="m25.42,111.3c-.23.08-.7.22-1.24.22-.61,0-1.12-.16-1.51-.53-.35-.34-.56-.88-.56-1.51,0-1.21.83-2.09,2.19-2.09.47,0,.83.1,1.01.19l-.13.43c-.22-.1-.49-.17-.89-.17-.98,0-1.62.61-1.62,1.62s.62,1.63,1.56,1.63c.34,0,.58-.05.7-.11v-1.21h-.82v-.42h1.33v1.94Z"/>
      <path class="cls-5" d="m26.22,111.47v-4.04h.57l1.3,2.04c.3.47.53.9.73,1.31h.01c-.05-.55-.06-1.04-.06-1.67v-1.69h.49v4.04h-.53l-1.28-2.05c-.28-.45-.55-.91-.76-1.35h-.02c.03.52.04,1,.04,1.67v1.73h-.49Z"/>
      <path class="cls-5" d="m30.17,107.49c.32-.05.7-.08,1.11-.08.75,0,1.28.17,1.64.5.36.33.57.8.57,1.45s-.2,1.2-.58,1.57c-.38.38-1,.58-1.79.58-.37,0-.68-.02-.95-.05v-3.98Zm.52,3.57c.13.02.32.03.53.03,1.12,0,1.72-.62,1.72-1.71,0-.95-.53-1.56-1.64-1.56-.27,0-.47.02-.61.05v3.19Z"/>
    </g>
    <g>
      <path class="cls-5" d="m10.12,107.93h-.01l-.68.37-.1-.4.85-.46h.45v3.9h-.51v-3.41Z"/>
      <path class="cls-5" d="m14.58,107.43v.35l-1.7,3.55h-.55l1.69-3.45h0s-1.91-.01-1.91-.01v-.44h2.46Z"/>
    </g>
    <g>
      <path class="cls-5" d="m64.23,107.93h-.01l-.68.37-.1-.4.85-.46h.45v3.9h-.51v-3.41Z"/>
      <path class="cls-5" d="m66.11,110.34c0-.49.29-.84.77-1.04v-.02c-.44-.2-.62-.54-.62-.88,0-.62.52-1.04,1.21-1.04.76,0,1.13.47,1.13.96,0,.33-.16.68-.64.91v.02c.49.19.79.53.79,1.01,0,.68-.58,1.13-1.33,1.13-.82,0-1.31-.49-1.31-1.06Zm2.1-.02c0-.47-.33-.7-.86-.85-.46.13-.7.43-.7.8-.02.4.28.74.78.74s.78-.29.78-.7Zm-1.45-1.95c0,.39.29.6.74.72.34-.11.59-.35.59-.71,0-.31-.19-.64-.66-.64-.44,0-.68.29-.68.62Z"/>
    </g>
    <g>
      <path class="cls-5" d="m48.2,111.15c-.23.08-.7.22-1.24.22-.61,0-1.12-.16-1.51-.53-.35-.34-.56-.88-.56-1.51,0-1.21.83-2.09,2.19-2.09.47,0,.83.1,1.01.19l-.13.43c-.22-.1-.49-.17-.89-.17-.98,0-1.62.61-1.62,1.62s.62,1.63,1.56,1.63c.34,0,.58-.05.7-.11v-1.21h-.82v-.42h1.33v1.94Z"/>
      <path class="cls-5" d="m49,111.33v-4.04h.57l1.3,2.04c.3.47.53.9.73,1.31h.01c-.05-.55-.06-1.04-.06-1.67v-1.69h.49v4.04h-.53l-1.28-2.05c-.28-.45-.55-.91-.76-1.35h-.02c.03.52.04,1,.04,1.67v1.73h-.49Z"/>
      <path class="cls-5" d="m52.95,107.34c.32-.05.7-.08,1.11-.08.75,0,1.28.17,1.64.5.36.33.57.8.57,1.45s-.2,1.2-.58,1.57c-.38.38-1,.58-1.79.58-.37,0-.68-.02-.95-.05v-3.98Zm.52,3.57c.13.02.32.03.53.03,1.12,0,1.72-.62,1.72-1.71,0-.95-.53-1.56-1.64-1.56-.27,0-.47.02-.61.05v3.19Z"/>
    </g>
  </g>
</svg>