<?xml version="1.0" encoding="UTF-8"?><svg id="_Слой_2" data-name="Слой 2" xmlns="http://www.w3.org/2000/svg" viewBox="0 0 100.6 124.03"><defs><style>
.cls-1 {
stroke-dasharray: 0 0 2.95 2.95;
}
.cls-1, .cls-2, .cls-3, .cls-4, .cls-5, .cls-6, .cls-7 {
stroke-miterlimit: 10;
stroke-width: .5px;
}
.cls-1, .cls-2, .cls-3, .cls-5, .cls-7 {
fill: none;
stroke: #b8bac0;
}
.cls-3 {
stroke-dasharray: 0 0 2.01 2.01;
}
.cls-4 {
fill: #f39200;
}
.cls-4, .cls-6 {
stroke: #1d1d1b;
}
.cls-8 {
opacity: .99;
}
.cls-8, .cls-9, .cls-10 {
stroke-width: 0px;
}
.cls-8, .cls-10 {
fill: #1d1d1b;
}
.cls-5 {
stroke-dasharray: 0 0 2.14 2.14;
}
.cls-6 {
fill: #7e7e7d;
}
.cls-7 {
stroke-dasharray: 0 0 2.2 2.2;
}
.cls-9 {
fill: #b8bac0;
}
</style></defs><g id="scheme_w" data-name="scheme w"><circle class="cls-2" cx="18.57" cy="60.99" r=".57"/><polyline class="cls-2" points="24.77 72.33 18.57 72.33 18.57 60.64"/><path class="cls-2" d="m23.39,106.35h-9.64c0,3.39.02,6.78.03,10.17,27.02.01,54.03.02,81.05.04v-10.2h-10.49"/><line class="cls-2" x1="18.57" y1="60.99" x2="13.47" y2="60.99"/><line class="cls-2" x1="13.37" y1="56.63" x2="13.37" y2="65.14"/><line class="cls-2" x1="11.25" y1="63.01" x2="11.25" y2="58.76"/><path class="cls-9" d="m16.46,56.81v1.41h1.36v.36h-1.36v1.42h-.38v-1.42h-1.35v-.36h1.35v-1.41h.38Z"/><path class="cls-9" d="m8.35,58.18v.39h-1.48v-.39h1.48Z"/><line class="cls-2" x1="94.93" y1="116.52" x2="94.93" y2="119.53"/><line class="cls-2" x1="89.26" y1="119.53" x2="100.6" y2="119.53"/><line class="cls-2" x1="92.09" y1="121.65" x2="97.76" y2="121.65"/><line class="cls-2" x1="93.51" y1="123.78" x2="96.34" y2="123.78"/><circle class="cls-2" cx="94.82" cy="116.55" r=".57"/><line class="cls-2" x1="18.57" y1="60.99" x2="24.24" y2="60.99"/><circle class="cls-2" cx="18.26" cy="84.63" r=".57"/><polyline class="cls-2" points="24.46 95.97 18.26 95.97 18.26 84.27"/><line class="cls-2" x1="18.26" y1="84.63" x2="13.16" y2="84.63"/><line class="cls-2" x1="13.07" y1="80.27" x2="13.07" y2="88.77"/><line class="cls-2" x1="10.94" y1="86.65" x2="10.94" y2="82.39"/><path class="cls-9" d="m16.15,80.44v1.41h1.36v.36h-1.36v1.42h-.38v-1.42h-1.35v-.36h1.35v-1.41h.38Z"/><path class="cls-9" d="m8.04,81.82v.39h-1.48v-.39h1.48Z"/><line class="cls-2" x1="18.26" y1="84.63" x2="23.93" y2="84.63"/><path class="cls-2" d="m84.72,61.05c4.63,0,5.29,0,9.92,0h0V3.37H3.94v57.69c3.31,0,3.78,0,7.09,0"/><path class="cls-2" d="m81.94,84.65c7.38,0,8.44,0,15.82,0V.25H.25c0,28.11,0,56.22,0,84.33v.08c4.9,0,5.6,0,10.51,0"/><g><line class="cls-2" x1="85.34" y1="16.1" x2="86.84" y2="16.11"/><polyline class="cls-2" points="87.58 16.11 89.08 16.12 89.08 14.62"/><line class="cls-7" x1="89.08" y1="12.42" x2="89.08" y2="9.11"/><polyline class="cls-2" points="89.08 8.01 89.08 6.51 87.58 6.51"/><line class="cls-1" x1="84.63" y1="6.51" x2="21.19" y2="6.49"/><polyline class="cls-2" points="19.71 6.49 18.21 6.49 18.21 7.99"/><line class="cls-5" x1="18.21" y1="10.13" x2="18.21" y2="13.33"/><polyline class="cls-2" points="18.21 14.4 18.21 15.9 19.71 15.9"/><line class="cls-3" x1="21.73" y1="15.9" x2="24.75" y2="15.9"/><line class="cls-2" x1="25.76" y1="15.9" x2="27.26" y2="15.9"/></g></g><g id="scheme"><rect class="cls-6" x="31.32" y="10.39" width="22.68" height="11.34"/><rect class="cls-6" x="54" y="10.39" width="22.68" height="11.34"/><rect class="cls-4" x="22.82" y="10.39" width="8.5" height="11.34"/><rect class="cls-4" x="76.68" y="10.39" width="8.5" height="11.34"/><rect class="cls-6" x="31.32" y="21.73" width="22.68" height="11.34"/><rect class="cls-6" x="54" y="21.73" width="22.68" height="11.34"/><rect class="cls-4" x="22.82" y="21.73" width="8.5" height="11.34"/><rect class="cls-4" x="76.68" y="21.73" width="8.5" height="11.34"/><rect class="cls-6" x="31.32" y="32.89" width="22.68" height="11.34"/><rect class="cls-6" x="54" y="32.89" width="22.68" height="11.34"/><rect class="cls-4" x="22.82" y="32.89" width="8.5" height="11.34"/><rect class="cls-4" x="76.68" y="32.89" width="8.5" height="11.34"/><rect class="cls-6" x="31.32" y="44.23" width="22.68" height="11.34"/><rect class="cls-6" x="54" y="44.23" width="22.68" height="11.34"/><rect class="cls-4" x="22.82" y="44.23" width="8.5" height="11.34"/><rect class="cls-4" x="76.68" y="44.23" width="8.5" height="11.34"/><rect class="cls-6" x="31.32" y="55.39" width="22.68" height="11.34"/><rect class="cls-6" x="54" y="55.39" width="22.68" height="11.34"/><rect class="cls-4" x="22.82" y="55.39" width="8.5" height="11.34"/><rect class="cls-4" x="76.68" y="55.39" width="8.5" height="11.34"/><rect class="cls-6" x="31.32" y="66.73" width="22.68" height="11.34"/><rect class="cls-6" x="54" y="66.73" width="22.68" height="11.34"/><rect class="cls-4" x="22.82" y="66.73" width="8.5" height="11.34"/><rect class="cls-4" x="76.68" y="66.73" width="8.5" height="11.34"/><rect class="cls-6" x="31.32" y="78.07" width="22.68" height="11.34"/><rect class="cls-6" x="54" y="78.07" width="22.68" height="11.34"/><rect class="cls-4" x="22.82" y="78.07" width="8.5" height="11.34"/><rect class="cls-4" x="76.68" y="78.07" width="8.5" height="11.34"/><rect class="cls-6" x="31.32" y="89.41" width="22.68" height="11.34"/><rect class="cls-6" x="54" y="89.41" width="22.68" height="11.34"/><rect class="cls-4" x="22.82" y="89.41" width="8.5" height="11.34"/><rect class="cls-4" x="76.68" y="89.41" width="8.5" height="11.34"/><rect class="cls-6" x="31.32" y="100.75" width="22.68" height="11.34"/><rect class="cls-6" x="54" y="100.75" width="22.68" height="11.34"/><rect class="cls-4" x="22.82" y="100.75" width="8.5" height="11.34"/><rect class="cls-4" x="76.68" y="100.75" width="8.5" height="11.34"/></g><g id="scheme_letters" data-name="scheme letters"><g><path class="cls-10" d="m35.04,15v1.41h1.35v.36h-1.35v1.42h-.38v-1.42h-1.36v-.36h1.36v-1.41h.38Z"/><path class="cls-10" d="m36.91,18.19v-.32l.41-.4c1-.95,1.45-1.45,1.45-2.04,0-.4-.19-.76-.77-.76-.35,0-.65.18-.83.33l-.17-.37c.27-.23.65-.4,1.1-.4.84,0,1.19.58,1.19,1.13,0,.72-.52,1.3-1.34,2.09l-.31.29h0s1.75.01,1.75.01v.44h-2.49Z"/><path class="cls-10" d="m41.61,18.19v-1.06h-1.81v-.35l1.74-2.49h.57v2.42h.55v.41h-.55v1.06h-.5Zm0-1.48v-1.3c0-.2,0-.41.02-.61h-.02c-.12.23-.22.4-.32.58l-.95,1.33h0s1.28.01,1.28.01Z"/><path class="cls-10" d="m43.25,14.2c.23-.05.59-.08.95-.08.52,0,.86.09,1.11.29.21.16.34.4.34.71,0,.39-.26.73-.68.89h0c.38.11.83.43.83,1.03,0,.35-.14.61-.34.81-.28.26-.74.38-1.4.38-.36,0-.63-.02-.81-.05v-3.98Zm.52,1.66h.47c.55,0,.88-.29.88-.68,0-.47-.36-.66-.89-.66-.24,0-.38.02-.46.04v1.3Zm0,1.94c.1.02.25.02.44.02.54,0,1.04-.2,1.04-.79,0-.55-.47-.78-1.04-.78h-.43v1.54Z"/><path class="cls-10" d="m49.04,18.64v.3h-3v-.3h3Z"/><path class="cls-10" d="m49.5,14.15h.52v3.6h1.73v.44h-2.25v-4.04Z"/></g><path class="cls-10" d="m26.77,14.78h-.01l-.68.37-.1-.4.85-.46h.45v3.9h-.51v-3.41Z"/><path class="cls-10" d="m79.74,18.19v-.32l.41-.4c1-.95,1.45-1.45,1.45-2.04,0-.4-.19-.76-.77-.76-.35,0-.65.18-.83.33l-.17-.37c.27-.23.65-.4,1.1-.4.84,0,1.19.58,1.19,1.13,0,.72-.52,1.3-1.34,2.09l-.31.29h0s1.75.01,1.75.01v.44h-2.49Z"/><g><path class="cls-10" d="m61.22,15v1.41h1.35v.36h-1.35v1.42h-.38v-1.42h-1.36v-.36h1.36v-1.41h.38Z"/><path class="cls-10" d="m63.09,18.19v-.32l.41-.4c1-.95,1.45-1.45,1.45-2.04,0-.4-.19-.76-.77-.76-.35,0-.65.18-.83.33l-.17-.37c.27-.23.65-.4,1.1-.4.84,0,1.19.58,1.19,1.13,0,.72-.52,1.3-1.34,2.09l-.31.29h0s1.75.01,1.75.01v.44h-2.49Z"/><path class="cls-10" d="m67.8,18.19v-1.06h-1.81v-.35l1.74-2.49h.57v2.42h.55v.41h-.55v1.06h-.5Zm0-1.48v-1.3c0-.2,0-.41.02-.61h-.02c-.12.23-.22.4-.32.58l-.95,1.33h0s1.28.01,1.28.01Z"/><path class="cls-10" d="m69.43,14.2c.23-.05.59-.08.95-.08.52,0,.86.09,1.11.29.21.16.34.4.34.71,0,.39-.26.73-.68.89h0c.38.11.83.43.83,1.03,0,.35-.14.61-.34.81-.28.26-.74.38-1.4.38-.36,0-.63-.02-.81-.05v-3.98Zm.52,1.66h.47c.55,0,.88-.29.88-.68,0-.47-.36-.66-.89-.66-.24,0-.38.02-.46.04v1.3Zm0,1.94c.1.02.25.02.44.02.54,0,1.04-.2,1.04-.79,0-.55-.47-.78-1.04-.78h-.43v1.54Z"/></g><path class="cls-10" d="m43.21,27.71v.39h-1.48v-.39h1.48Z"/><path class="cls-10" d="m25.76,28.92c.12.1.41.25.71.25.56,0,.73-.43.73-.76,0-.55-.41-.78-.83-.78h-.24v-.4h.24c.32,0,.72-.2.72-.66,0-.31-.16-.59-.57-.59-.26,0-.51.14-.64.26l-.11-.38c.17-.15.5-.3.84-.3.63,0,.92.46.92.93,0,.4-.2.74-.6.92h0c.4.11.72.47.72,1.01,0,.62-.4,1.17-1.18,1.17-.36,0-.68-.14-.84-.26l.12-.41Z"/><path class="cls-10" d="m81.37,29.53v-1.06h-1.81v-.35l1.74-2.49h.57v2.42h.55v.41h-.55v1.06h-.5Zm0-1.48v-1.3c0-.2,0-.41.02-.61h-.02c-.12.23-.22.4-.32.58l-.95,1.33h0s1.28.01,1.28.01Z"/><path class="cls-10" d="m66.47,27.71v.39h-1.48v-.39h1.48Z"/><path class="cls-10" d="m43.21,38.87v.39h-1.48v-.39h1.48Z"/><path class="cls-10" d="m27.95,37.24h-1.49l-.15,1c.09-.01.17-.02.32-.02.3,0,.6.07.84.21.31.17.56.51.56,1,0,.76-.61,1.33-1.45,1.33-.43,0-.79-.12-.97-.24l.13-.4c.16.1.48.22.83.22.5,0,.92-.32.92-.85,0-.5-.34-.86-1.12-.86-.22,0-.4.02-.54.04l.25-1.87h1.87v.44Z"/><path class="cls-10" d="m81.96,37.16c-.11,0-.25,0-.4.02-.83.14-1.27.74-1.36,1.39h.02c.19-.25.51-.45.94-.45.69,0,1.17.5,1.17,1.26,0,.71-.49,1.37-1.29,1.37s-1.38-.65-1.38-1.66c0-.77.28-1.37.66-1.76.32-.32.76-.52,1.25-.58.16-.02.29-.03.38-.03v.43Zm-.15,2.25c0-.56-.32-.89-.8-.89-.32,0-.61.2-.76.48-.04.06-.06.14-.06.23.01.64.31,1.12.86,1.12.46,0,.76-.38.76-.94Z"/><path class="cls-10" d="m66.47,38.87v.39h-1.48v-.39h1.48Z"/><g><path class="cls-10" d="m34.92,71.13v1.41h1.35v.36h-1.35v1.42h-.38v-1.42h-1.36v-.36h1.36v-1.41h.38Z"/><path class="cls-10" d="m36.78,74.32v-.32l.41-.4c1-.95,1.45-1.45,1.45-2.04,0-.4-.19-.76-.77-.76-.35,0-.65.18-.83.33l-.17-.37c.27-.23.65-.4,1.1-.4.84,0,1.19.58,1.19,1.13,0,.72-.52,1.3-1.34,2.09l-.31.29h0s1.75.01,1.75.01v.44h-2.49Z"/><path class="cls-10" d="m41.49,74.32v-1.06h-1.81v-.35l1.74-2.49h.57v2.42h.55v.41h-.55v1.06h-.5Zm0-1.48v-1.3c0-.2,0-.41.02-.61h-.02c-.12.23-.22.4-.32.58l-.95,1.33h0s1.28.01,1.28.01Z"/><path class="cls-10" d="m43.12,70.33c.23-.05.59-.08.95-.08.52,0,.86.09,1.11.29.21.16.34.4.34.71,0,.39-.26.73-.68.89h0c.38.11.83.43.83,1.03,0,.35-.14.61-.34.81-.28.26-.74.38-1.4.38-.36,0-.63-.02-.81-.05v-3.98Zm.52,1.66h.47c.55,0,.88-.29.88-.68,0-.47-.36-.66-.89-.66-.24,0-.38.02-.46.04v1.3Zm0,1.94c.1.02.25.02.44.02.54,0,1.04-.2,1.04-.79,0-.55-.47-.78-1.04-.78h-.43v1.54Z"/><path class="cls-10" d="m48.92,74.77v.3h-3v-.3h3Z"/><path class="cls-10" d="m50.34,70.91h-.01l-.68.37-.1-.4.85-.46h.45v3.9h-.51v-3.41Z"/></g><path class="cls-10" d="m28.16,48.13v.35l-1.7,3.55h-.55l1.69-3.45h0s-1.91-.01-1.91-.01v-.44h2.46Z"/><path class="cls-10" d="m79.69,51.04c0-.49.29-.84.77-1.04v-.02c-.44-.2-.62-.54-.62-.88,0-.62.52-1.04,1.21-1.04.75,0,1.13.47,1.13.96,0,.33-.16.68-.64.91v.02c.49.19.79.53.79,1.01,0,.68-.58,1.13-1.33,1.13-.82,0-1.31-.49-1.31-1.06Zm2.1-.02c0-.47-.33-.7-.86-.85-.46.13-.7.43-.7.8-.02.4.28.74.78.74s.78-.29.78-.7Zm-1.45-1.95c0,.39.29.6.74.72.33-.11.59-.35.59-.71,0-.31-.19-.64-.66-.64-.44,0-.68.29-.68.62Z"/><g><path class="cls-10" d="m34.91,82.46v1.41h1.36v.36h-1.36v1.42h-.38v-1.42h-1.36v-.36h1.36v-1.41h.38Z"/><path class="cls-10" d="m36.78,85.65v-.32l.41-.4c1-.95,1.45-1.45,1.45-2.04,0-.4-.19-.76-.77-.76-.35,0-.65.18-.83.33l-.17-.37c.27-.23.65-.4,1.1-.4.84,0,1.19.58,1.19,1.13,0,.72-.52,1.3-1.34,2.09l-.31.29h0s1.75.01,1.75.01v.44h-2.49Z"/><path class="cls-10" d="m41.49,85.65v-1.06h-1.81v-.35l1.74-2.49h.57v2.42h.54v.41h-.54v1.06h-.5Zm0-1.48v-1.3c0-.2,0-.41.02-.61h-.02c-.12.23-.22.4-.32.58l-.95,1.33h0s1.28.01,1.28.01Z"/><path class="cls-10" d="m43.12,81.67c.23-.05.59-.08.95-.08.52,0,.86.09,1.11.29.21.16.34.4.34.71,0,.39-.26.73-.68.89h0c.38.11.83.43.83,1.03,0,.35-.14.61-.34.81-.28.26-.74.38-1.4.38-.36,0-.64-.02-.81-.05v-3.98Zm.52,1.66h.47c.55,0,.88-.29.88-.68,0-.47-.36-.66-.89-.66-.24,0-.38.02-.46.04v1.3Zm0,1.94c.1.02.25.02.44.02.54,0,1.04-.2,1.04-.79,0-.55-.47-.78-1.04-.78h-.43v1.54Z"/><path class="cls-10" d="m48.92,86.1v.3h-3v-.3h3Z"/><path class="cls-10" d="m49.19,85.65v-.32l.41-.4c1-.95,1.45-1.45,1.45-2.04,0-.4-.19-.76-.77-.76-.35,0-.65.18-.83.33l-.17-.37c.27-.23.65-.4,1.1-.4.84,0,1.19.58,1.19,1.13,0,.72-.52,1.3-1.34,2.09l-.31.29h0s1.75.01,1.75.01v.44h-2.49Z"/></g><g><path class="cls-10" d="m34.92,60v1.41h1.35v.36h-1.35v1.42h-.38v-1.42h-1.36v-.36h1.36v-1.41h.38Z"/><path class="cls-10" d="m36.78,63.19v-.32l.41-.4c1-.95,1.45-1.45,1.45-2.04,0-.4-.19-.76-.77-.76-.35,0-.65.18-.83.33l-.17-.37c.27-.23.65-.4,1.1-.4.84,0,1.19.58,1.19,1.13,0,.72-.52,1.3-1.34,2.09l-.31.29h0s1.75.01,1.75.01v.44h-2.49Z"/><path class="cls-10" d="m41.49,63.19v-1.06h-1.81v-.35l1.74-2.49h.57v2.42h.55v.41h-.55v1.06h-.5Zm0-1.48v-1.3c0-.2,0-.41.02-.61h-.02c-.12.23-.22.4-.32.58l-.95,1.33h0s1.28.01,1.28.01Z"/><path class="cls-10" d="m43.12,59.2c.23-.05.59-.08.95-.08.52,0,.86.09,1.11.29.21.16.34.4.34.71,0,.39-.26.73-.68.89h0c.38.11.83.43.83,1.03,0,.35-.14.61-.34.81-.28.26-.74.38-1.4.38-.36,0-.63-.02-.81-.05v-3.98Zm.52,1.66h.47c.55,0,.88-.29.88-.68,0-.47-.36-.66-.89-.66-.24,0-.38.02-.46.04v1.3Zm0,1.94c.1.02.25.02.44.02.54,0,1.04-.2,1.04-.79,0-.55-.47-.78-1.04-.78h-.43v1.54Z"/><path class="cls-10" d="m48.92,63.64v.3h-3v-.3h3Z"/><path class="cls-10" d="m50.34,59.78h-.01l-.68.37-.1-.4.85-.46h.45v3.9h-.51v-3.41Z"/></g><path class="cls-10" d="m25.93,62.82c.11.01.25,0,.43-.02.31-.04.59-.17.82-.38.26-.23.44-.58.52-1.04h-.02c-.22.26-.53.42-.92.42-.7,0-1.15-.53-1.15-1.19,0-.74.53-1.39,1.33-1.39s1.29.65,1.29,1.64c0,.86-.29,1.46-.67,1.83-.3.29-.71.47-1.13.52-.19.03-.36.04-.49.03v-.43Zm.19-2.24c0,.49.29.83.75.83.35,0,.63-.17.77-.41.03-.05.05-.11.05-.19,0-.67-.25-1.18-.8-1.18-.45,0-.77.4-.77.95Z"/><g><path class="cls-10" d="m79.34,59.78h-.01l-.68.37-.1-.4.85-.46h.45v3.9h-.51v-3.41Z"/><path class="cls-10" d="m83.87,61.2c0,1.33-.49,2.06-1.36,2.06-.76,0-1.28-.71-1.29-2,0-1.31.56-2.03,1.36-2.03s1.29.73,1.29,1.97Zm-2.12.06c0,1.01.31,1.59.79,1.59.54,0,.8-.63.8-1.62s-.25-1.59-.79-1.59c-.46,0-.8.56-.8,1.62Z"/></g><g><path class="cls-8" d="m34.92,94.37v1.41h1.36v.36h-1.36v1.42h-.38v-1.42h-1.36v-.36h1.36v-1.41h.38Z"/><path class="cls-8" d="m36.78,97.56v-.32l.41-.4c1-.95,1.45-1.45,1.45-2.04,0-.4-.19-.76-.77-.76-.35,0-.65.18-.83.33l-.17-.37c.27-.23.65-.4,1.1-.4.84,0,1.19.58,1.19,1.13,0,.72-.52,1.3-1.34,2.09l-.31.29h0s1.75.01,1.75.01v.44h-2.49Z"/><path class="cls-8" d="m41.49,97.56v-1.06h-1.81v-.35l1.74-2.49h.57v2.42h.54v.41h-.54v1.06h-.5Zm0-1.48v-1.3c0-.2,0-.41.02-.61h-.02c-.12.23-.22.4-.32.58l-.95,1.33h0s1.28.01,1.28.01Z"/><path class="cls-8" d="m43.12,93.57c.23-.05.59-.08.95-.08.52,0,.86.09,1.11.29.21.16.34.4.34.71,0,.39-.26.73-.68.89h0c.38.11.83.43.83,1.03,0,.35-.14.61-.34.81-.28.26-.74.38-1.4.38-.36,0-.64-.02-.81-.05v-3.98Zm.52,1.66h.47c.55,0,.88-.29.88-.68,0-.47-.36-.66-.89-.66-.24,0-.38.02-.46.04v1.3Zm0,1.94c.1.02.25.02.44.02.54,0,1.04-.2,1.04-.79,0-.55-.47-.78-1.04-.78h-.43v1.54Z"/><path class="cls-8" d="m48.92,98.01v.3h-3v-.3h3Z"/><path class="cls-8" d="m49.19,97.56v-.32l.41-.4c1-.95,1.45-1.45,1.45-2.04,0-.4-.19-.76-.77-.76-.35,0-.65.18-.83.33l-.17-.37c.27-.23.65-.4,1.1-.4.84,0,1.19.58,1.19,1.13,0,.72-.52,1.3-1.34,2.09l-.31.29h0s1.75.01,1.75.01v.44h-2.49Z"/></g><g><path class="cls-10" d="m63.36,63.08c-.23.08-.7.22-1.24.22-.61,0-1.12-.16-1.51-.53-.35-.34-.56-.88-.56-1.51,0-1.21.83-2.09,2.19-2.09.47,0,.83.1,1.01.19l-.13.43c-.22-.1-.49-.17-.89-.17-.98,0-1.62.61-1.62,1.62s.62,1.63,1.56,1.63c.34,0,.58-.05.7-.11v-1.21h-.82v-.42h1.33v1.94Z"/><path class="cls-10" d="m64.16,63.26v-4.04h.57l1.29,2.04c.3.47.53.9.73,1.31h.01c-.05-.55-.06-1.04-.06-1.67v-1.69h.49v4.04h-.53l-1.28-2.05c-.28-.45-.55-.91-.76-1.35h-.02c.03.52.04,1,.04,1.67v1.73h-.49Z"/><path class="cls-10" d="m68.1,59.27c.32-.05.7-.08,1.11-.08.75,0,1.28.17,1.64.5.36.33.57.8.57,1.45s-.2,1.2-.58,1.57c-.38.38-1,.58-1.79.58-.37,0-.68-.02-.95-.05v-3.98Zm.52,3.57c.13.02.32.03.53.03,1.12,0,1.72-.62,1.72-1.71,0-.95-.53-1.56-1.64-1.56-.27,0-.47.02-.61.05v3.19Z"/></g><g><path class="cls-10" d="m25.23,71.12h-.01l-.68.37-.1-.4.85-.46h.45v3.9h-.51v-3.41Z"/><path class="cls-10" d="m28.31,71.12h-.01l-.68.37-.1-.4.85-.46h.45v3.9h-.51v-3.41Z"/></g><g><path class="cls-10" d="m79.34,71.12h-.01l-.68.37-.1-.4.85-.46h.45v3.9h-.51v-3.41Z"/><path class="cls-10" d="m81.27,74.53v-.32l.41-.4c1-.95,1.45-1.45,1.45-2.04,0-.4-.19-.76-.77-.76-.35,0-.65.18-.83.33l-.17-.37c.27-.23.65-.4,1.1-.4.84,0,1.19.58,1.19,1.13,0,.72-.52,1.3-1.34,2.09l-.31.29h0s1.75.01,1.75.01v.44h-2.49Z"/></g><g><path class="cls-10" d="m63.36,74.35c-.23.08-.7.22-1.24.22-.61,0-1.12-.16-1.51-.53-.35-.34-.56-.88-.56-1.51,0-1.21.83-2.09,2.19-2.09.47,0,.83.1,1.01.19l-.13.43c-.22-.1-.49-.17-.89-.17-.98,0-1.62.61-1.62,1.62s.62,1.63,1.56,1.63c.34,0,.58-.05.7-.11v-1.21h-.82v-.42h1.33v1.94Z"/><path class="cls-10" d="m64.16,74.53v-4.04h.57l1.3,2.04c.3.47.53.9.73,1.31h.01c-.05-.55-.06-1.04-.06-1.67v-1.69h.49v4.04h-.53l-1.28-2.05c-.28-.45-.55-.91-.76-1.35h-.02c.03.52.04,1,.04,1.67v1.73h-.49Z"/><path class="cls-10" d="m68.1,70.54c.32-.05.7-.08,1.11-.08.75,0,1.28.17,1.64.5.36.33.57.8.57,1.45s-.2,1.2-.58,1.57c-.38.38-1,.58-1.79.58-.37,0-.68-.02-.95-.05v-3.98Zm.52,3.57c.13.02.32.03.53.03,1.12,0,1.72-.62,1.72-1.71,0-.95-.53-1.56-1.64-1.56-.27,0-.47.02-.61.05v3.19Z"/></g><g><path class="cls-10" d="m63.36,96.81c-.23.08-.7.22-1.24.22-.61,0-1.12-.16-1.51-.53-.35-.34-.56-.88-.56-1.51,0-1.21.83-2.09,2.19-2.09.47,0,.83.1,1.01.19l-.13.43c-.22-.1-.49-.17-.89-.17-.98,0-1.62.61-1.62,1.62s.62,1.63,1.56,1.63c.34,0,.58-.05.7-.11v-1.21h-.82v-.42h1.33v1.94Z"/><path class="cls-10" d="m64.16,96.99v-4.04h.57l1.3,2.04c.3.47.53.9.73,1.31h.01c-.05-.55-.06-1.04-.06-1.67v-1.69h.49v4.04h-.53l-1.28-2.05c-.28-.45-.55-.91-.76-1.35h-.02c.03.52.04,1,.04,1.67v1.73h-.49Z"/><path class="cls-10" d="m68.1,93.01c.32-.05.7-.08,1.11-.08.75,0,1.28.17,1.64.5.36.33.57.8.57,1.45s-.2,1.2-.58,1.57c-.38.38-1,.58-1.79.58-.37,0-.68-.02-.95-.05v-3.98Zm.52,3.57c.13.02.32.03.53.03,1.12,0,1.72-.62,1.72-1.71,0-.95-.53-1.56-1.64-1.56-.27,0-.47.02-.61.05v3.19Z"/></g><g><path class="cls-10" d="m25.23,82.46h-.01l-.68.37-.1-.4.85-.46h.45v3.9h-.51v-3.41Z"/><path class="cls-10" d="m27.29,85.26c.15.1.5.25.86.25.68,0,.89-.43.88-.76,0-.55-.5-.78-1.01-.78h-.29v-.4h.29c.38,0,.87-.2.87-.66,0-.31-.2-.59-.68-.59-.31,0-.61.14-.78.26l-.14-.38c.2-.15.6-.3,1.02-.3.77,0,1.12.46,1.12.93,0,.4-.24.74-.72.92h0c.48.11.87.47.87,1.01,0,.62-.49,1.17-1.42,1.17-.44,0-.82-.14-1.01-.26l.14-.41Z"/></g><g><path class="cls-10" d="m79.34,82.46h-.01l-.68.37-.1-.4.85-.46h.45v3.9h-.51v-3.41Z"/><path class="cls-10" d="m82.91,85.87v-1.06h-1.81v-.35l1.74-2.49h.57v2.42h.55v.41h-.55v1.06h-.5Zm0-1.48v-1.3c0-.2,0-.41.02-.61h-.02c-.12.23-.22.4-.32.58l-.95,1.33h0s1.28.01,1.28.01Z"/></g><g><path class="cls-10" d="m63.36,85.69c-.23.08-.7.22-1.24.22-.61,0-1.12-.16-1.51-.53-.35-.34-.56-.88-.56-1.51,0-1.21.83-2.09,2.19-2.09.47,0,.83.1,1.01.19l-.13.43c-.22-.1-.49-.17-.89-.17-.98,0-1.62.61-1.62,1.62s.62,1.63,1.56,1.63c.34,0,.58-.05.7-.11v-1.21h-.82v-.42h1.33v1.94Z"/><path class="cls-10" d="m64.16,85.87v-4.04h.57l1.3,2.04c.3.47.53.9.73,1.31h.01c-.05-.55-.06-1.04-.06-1.67v-1.69h.49v4.04h-.53l-1.28-2.05c-.28-.45-.55-.91-.76-1.35h-.02c.03.52.04,1,.04,1.67v1.73h-.49Z"/><path class="cls-10" d="m68.1,81.88c.32-.05.7-.08,1.11-.08.75,0,1.28.17,1.64.5.36.33.57.8.57,1.45s-.2,1.2-.58,1.57c-.38.38-1,.58-1.79.58-.37,0-.68-.02-.95-.05v-3.98Zm.52,3.57c.13.02.32.03.53.03,1.12,0,1.72-.62,1.72-1.71,0-.95-.53-1.56-1.64-1.56-.27,0-.47.02-.61.05v3.19Z"/></g><g><path class="cls-10" d="m25.23,93.8h-.01l-.68.37-.1-.4.85-.46h.45v3.9h-.51v-3.41Z"/><path class="cls-10" d="m29.49,93.75h-1.49l-.15,1c.09-.01.17-.02.32-.02.3,0,.6.07.84.21.31.17.56.51.56,1,0,.76-.61,1.33-1.45,1.33-.43,0-.79-.12-.97-.24l.13-.4c.16.1.48.22.83.22.5,0,.92-.32.92-.85,0-.5-.34-.86-1.12-.86-.22,0-.4.02-.54.04l.25-1.87h1.87v.44Z"/></g><g><path class="cls-10" d="m79.34,93.8h-.01l-.68.37-.1-.4.85-.46h.45v3.9h-.51v-3.41Z"/><path class="cls-10" d="m83.5,93.68c-.11,0-.25,0-.4.02-.83.14-1.27.74-1.36,1.39h.02c.19-.25.51-.45.94-.45.69,0,1.17.5,1.17,1.26,0,.71-.49,1.37-1.29,1.37s-1.38-.65-1.38-1.66c0-.77.28-1.37.66-1.76.32-.32.76-.52,1.25-.58.16-.02.29-.03.38-.03v.43Zm-.15,2.25c0-.56-.32-.89-.8-.89-.32,0-.61.2-.76.48-.04.06-.06.14-.06.23.01.64.31,1.12.86,1.12.46,0,.76-.38.76-.94Z"/></g><g><path class="cls-10" d="m39.52,104.5h2.18v.44h-1.65v1.34h1.53v.43h-1.53v1.83h-.52v-4.04Z"/><path class="cls-10" d="m45.52,108.36c-.23.08-.7.22-1.24.22-.61,0-1.12-.16-1.51-.53-.35-.34-.56-.88-.56-1.51,0-1.21.83-2.09,2.19-2.09.47,0,.83.1,1.01.19l-.13.43c-.22-.1-.49-.17-.89-.17-.98,0-1.62.61-1.62,1.62s.62,1.63,1.56,1.63c.34,0,.58-.05.7-.11v-1.21h-.82v-.42h1.33v1.94Z"/></g><g><path class="cls-10" d="m25.23,105.14h-.01l-.68.37-.1-.4.85-.46h.45v3.9h-.51v-3.41Z"/><path class="cls-10" d="m29.7,104.65v.35l-1.7,3.55h-.55l1.69-3.45h0s-1.91-.01-1.91-.01v-.44h2.46Z"/></g><g><path class="cls-10" d="m79.34,105.14h-.01l-.68.37-.1-.4.85-.46h.45v3.9h-.51v-3.41Z"/><path class="cls-10" d="m81.23,107.55c0-.49.29-.84.77-1.04v-.02c-.44-.2-.62-.54-.62-.88,0-.62.52-1.04,1.21-1.04.75,0,1.13.47,1.13.96,0,.33-.16.68-.64.91v.02c.49.19.79.53.79,1.01,0,.68-.58,1.13-1.33,1.13-.82,0-1.31-.49-1.31-1.06Zm2.1-.02c0-.47-.33-.7-.86-.85-.46.13-.7.43-.7.8-.02.4.28.74.78.74s.78-.29.78-.7Zm-1.45-1.95c0,.39.29.6.74.72.33-.11.59-.35.59-.71,0-.31-.19-.64-.66-.64-.44,0-.68.29-.68.62Z"/></g><g><path class="cls-10" d="m62.79,104.5h2.18v.44h-1.66v1.34h1.53v.43h-1.53v1.83h-.52v-4.04Z"/><path class="cls-10" d="m68.79,108.36c-.23.08-.7.22-1.24.22-.61,0-1.12-.16-1.51-.53-.35-.34-.56-.88-.56-1.51,0-1.21.83-2.09,2.19-2.09.47,0,.83.1,1.01.19l-.13.43c-.22-.1-.49-.17-.89-.17-.98,0-1.62.61-1.62,1.62s.62,1.63,1.56,1.63c.34,0,.58-.05.7-.11v-1.21h-.82v-.42h1.33v1.94Z"/></g><path class="cls-10" d="m43.21,49.82v.39h-1.48v-.39h1.48Z"/><path class="cls-10" d="m66.47,49.82v.39h-1.48v-.39h1.48Z"/></g></svg>