<svg width="1164" height="223" viewBox="0 0 1164 223" fill="none" xmlns="http://www.w3.org/2000/svg"><path d="M341 222.5H295L209.5 78L154.455 177.5L180.5 222.5H137L90.5 143.5L42.5 222.5H0L90.5 67L128.41 132.5L209.5 0L341 222.5Z" fill="white"/><path d="M786.296 96.5H691.796C685.324 96.5 659.793 106 657.296 143C654.798 180 681.324 191 691.796 191H786.296V222.5H684.796C669.324 222.5 624.298 199 625.296 143C626.294 87 668.768 66 684.796 66H786.296V96.5ZM962.312 96.5H867.812C861.341 96.5 835.81 106 833.312 143C830.815 180 857.341 191 867.812 191H962.312V222.5H860.812C845.341 222.5 800.315 199 801.312 143C802.31 87 844.784 66 860.812 66H962.312V96.5ZM396 66.2959C396.005 66.2959 491.787 66.0914 507.835 66.2959C523.883 66.5005 562 80.0004 557.985 135.238C553.971 190.476 518.5 197.135 507.835 197.135H431.105V222.296H396V167.444H498.307C507.835 167.444 520.766 160.976 523.883 135.238C527 109.501 507.835 95.4836 495.298 95.4834H396V66.2959ZM610.279 222.25H573.279V66.25H610.279V222.25ZM1035.81 67.3076C1049.3 67.3099 1089.3 66.9366 1104.31 67.3076C1119.33 67.6787 1163.31 87.3649 1163.31 143.308C1163.31 199.251 1117.3 221.2 1104.28 221.308C1091.25 221.416 1054.8 221.308 1035.81 221.308C1016.83 221.308 977.316 192.251 977.312 143.308C977.309 94.3648 1022.33 67.3053 1035.81 67.3076ZM1053.36 97.1436C1046.89 97.1433 1008.86 100.644 1010.36 145.144C1011.85 189.643 1046.39 191.144 1053.36 191.144H1087.86C1096.89 191.144 1130.36 185.643 1130.36 145.144C1130.36 104.644 1093.89 97.143 1087.86 97.1436C1081.82 97.1441 1059.82 97.1439 1053.36 97.1436Z" fill="white"/></svg>