<?xml version="1.0" encoding="UTF-8"?>
<svg id="Layer_1" data-name="Layer 1" xmlns="http://www.w3.org/2000/svg" xmlns:xlink="http://www.w3.org/1999/xlink" viewBox="0 0 37.41 23.94">
  <defs>
    <style>
      .cls-1 {
        fill: #fff;
      }

      .cls-2 {
        clip-path: url(#clippath);
      }
    </style>
    <clipPath id="clippath">
      <path class="cls-1" d="M14.48,15.71l6.5-11.25,2.57-4.46h.03l2.58,4.46,4.77,8.26h-5.18l-2.18-3.77-3.9,6.76h-5.18ZM11.97,0h7.26l-2.59,4.49h-4.67c-2.06,0-3.93.84-5.28,2.2-1.36,1.36-2.2,3.23-2.2,5.28s.84,3.93,2.2,5.28c1.36,1.36,3.23,2.2,5.28,2.2h5.54l-2.59,4.49h-2.94c-3.29,0-6.29-1.35-8.46-3.51C1.35,18.26,0,15.27,0,11.97S1.35,5.68,3.51,3.51C5.68,1.35,8.68,0,11.97,0ZM37.41,23.94l-2.59-4.49h.02l-2.16-3.74h-9.54l-2.16,3.74h8.66l2.59,4.49h5.18Z"/>
    </clipPath>
  </defs>
  <path class="cls-1" d="M14.48,15.71l6.5-11.25,2.57-4.46h.03l2.58,4.46,4.77,8.26h-5.18l-2.18-3.77-3.9,6.76h-5.18ZM11.97,0h7.26l-2.59,4.49h-4.67c-2.06,0-3.93.84-5.28,2.2-1.36,1.36-2.2,3.23-2.2,5.28s.84,3.93,2.2,5.28c1.36,1.36,3.23,2.2,5.28,2.2h5.54l-2.59,4.49h-2.94c-3.29,0-6.29-1.35-8.46-3.51C1.35,18.26,0,15.27,0,11.97S1.35,5.68,3.51,3.51C5.68,1.35,8.68,0,11.97,0ZM37.41,23.94l-2.59-4.49h.02l-2.16-3.74h-9.54l-2.16,3.74h8.66l2.59,4.49h5.18Z"/>
  <g class="cls-2">
    <rect class="cls-1" width="37.41" height="23.94"/>
  </g>
</svg>