<?xml version="1.0" encoding="UTF-8"?>
<svg id="Layer_2" data-name="Layer 2" xmlns="http://www.w3.org/2000/svg" xmlns:xlink="http://www.w3.org/1999/xlink" viewBox="0 0 79.94 31.77">
  <defs>
    <style>
      .cls-1, .cls-2 {
        fill: #fff;
      }

      .cls-3 {
        clip-path: url(#clippath);
      }

      .cls-2 {
        font-family: CodecPro-Bold, 'Codec Pro';
        font-size: 12px;
        font-weight: 700;
      }
    </style>
    <clipPath id="clippath">
      <path class="cls-1" d="M14.48,16.77l6.5-11.25,2.57-4.46h.03l2.58,4.46,4.77,8.26h-5.18l-2.18-3.77-3.9,6.76h-5.18ZM11.97,1.06h7.26l-2.59,4.49h-4.67c-2.06,0-3.93.84-5.28,2.2-1.36,1.36-2.2,3.23-2.2,5.28s.84,3.93,2.2,5.28c1.36,1.36,3.23,2.2,5.28,2.2h5.54l-2.59,4.49h-2.94c-3.29,0-6.29-1.35-8.46-3.51-2.17-2.17-3.51-5.16-3.51-8.46S1.35,6.75,3.51,4.58,8.68,1.06,11.97,1.06ZM37.41,25l-2.59-4.49h.02l-2.16-3.74h-9.54l-2.16,3.74h8.66l2.59,4.49h5.18Z"/>
    </clipPath>
  </defs>
  <g id="Layer_1-2" data-name="Layer 1">
    <g>
      <path class="cls-1" d="M14.48,16.77l6.5-11.25,2.57-4.46h.03l2.58,4.46,4.77,8.26h-5.18l-2.18-3.77-3.9,6.76h-5.18ZM11.97,1.06h7.26l-2.59,4.49h-4.67c-2.06,0-3.93.84-5.28,2.2-1.36,1.36-2.2,3.23-2.2,5.28s.84,3.93,2.2,5.28c1.36,1.36,3.23,2.2,5.28,2.2h5.54l-2.59,4.49h-2.94c-3.29,0-6.29-1.35-8.46-3.51-2.17-2.17-3.51-5.16-3.51-8.46S1.35,6.75,3.51,4.58,8.68,1.06,11.97,1.06ZM37.41,25l-2.59-4.49h.02l-2.16-3.74h-9.54l-2.16,3.74h8.66l2.59,4.49h5.18Z"/>
      <g class="cls-3">
        <rect class="cls-1" y="1.06" width="37.41" height="23.94"/>
      </g>
    </g>
    <rect class="cls-1" x="43.74" y="13.45" width="23.94" height="1.17"/>
    <text class="cls-2" transform="translate(44.27 9.98)"><tspan x="0" y="0">ПРО</tspan><tspan x="0" y="14.4">ПЛК</tspan></text>
  </g>
</svg>